<svg width="500" height="500" viewBox="0 0 500 500" fill="none" xmlns="http://www.w3.org/2000/svg">
<g id="active-debris">
<rect width="500" height="500" fill="black"/>
<path id="ACTIVE SPACE JUNK COMPOSITION" d="M143.163 100H145.203L139.011 83.2H137.043L130.803 100H132.771L134.379 95.632H141.579L143.163 100ZM141.027 94.024H134.883L137.955 85.528L141.027 94.024ZM153.265 100.24C156.673 100.24 158.881 98.296 159.073 94.792H157.249C157.057 97.384 155.641 98.608 153.193 98.608C150.361 98.608 148.969 96.832 148.969 94.12V89.128C148.969 86.368 150.361 84.592 153.241 84.592C155.713 84.592 156.961 86.008 157.249 88.408H159.073C158.785 85.192 156.865 82.96 153.217 82.96C149.497 82.96 147.049 85.072 147.049 89.128V94.096C147.049 98.152 149.473 100.24 153.265 100.24ZM172.329 84.832V83.2H160.425V84.832H165.465V100H167.337V84.832H172.329ZM174.812 100H176.684V83.2H174.812V100ZM187.048 100L192.784 83.2H190.84L186.064 97.648L181.264 83.2H179.224L184.984 100H187.048ZM195.297 100H205.857V98.368H197.169V92.104H204.393V90.496H197.169V84.832H205.857V83.2H195.297V100ZM219.543 84.592C221.967 84.592 222.951 85.72 223.095 88.048H224.895C224.823 84.76 223.047 82.96 219.543 82.96C215.919 82.96 214.383 84.808 214.383 87.232C214.383 89.704 215.487 90.736 218.487 91.816L220.263 92.464C222.639 93.352 223.287 94.12 223.287 95.704C223.287 97.672 222.279 98.608 219.855 98.608C217.287 98.608 216.063 97.48 215.751 95.152H213.951C214.311 98.632 216.255 100.24 219.831 100.24C223.551 100.24 225.207 98.56 225.207 95.632C225.207 93.28 224.247 92.032 221.031 90.832L219.255 90.184C216.999 89.368 216.303 88.816 216.303 87.208C216.303 85.72 217.095 84.592 219.543 84.592ZM233.233 93.256C237.025 93.256 239.089 91.48 239.089 88.744V87.76C239.089 84.88 237.337 83.2 233.185 83.2H228.601V100H230.473V93.256H233.233ZM233.137 84.832C236.113 84.832 237.169 86.008 237.169 87.808V88.696C237.169 90.472 235.921 91.624 233.161 91.624H230.473V84.832H233.137ZM251.468 100H253.508L247.316 83.2H245.348L239.108 100H241.076L242.684 95.632H249.884L251.468 100ZM249.332 94.024H243.188L246.26 85.528L249.332 94.024ZM261.57 100.24C264.978 100.24 267.186 98.296 267.378 94.792H265.554C265.362 97.384 263.946 98.608 261.498 98.608C258.666 98.608 257.274 96.832 257.274 94.12V89.128C257.274 86.368 258.666 84.592 261.546 84.592C264.018 84.592 265.266 86.008 265.554 88.408H267.378C267.09 85.192 265.17 82.96 261.522 82.96C257.802 82.96 255.354 85.072 255.354 89.128V94.096C255.354 98.152 257.778 100.24 261.57 100.24ZM270.578 100H281.138V98.368H272.45V92.104H279.674V90.496H272.45V84.832H281.138V83.2H270.578V100ZM288.68 95.368C288.92 98.608 290.816 100.24 293.648 100.24C296.744 100.24 298.544 98.464 298.544 95.056V83.2H296.672V95.056C296.672 97.624 295.544 98.608 293.624 98.608C291.776 98.608 290.696 97.576 290.504 95.368H288.68ZM312.003 83.2V94.456C312.003 96.928 310.755 98.608 308.091 98.608C305.475 98.608 304.203 96.928 304.203 94.456V83.2H302.283V94.456C302.283 98.2 304.563 100.24 308.091 100.24C311.643 100.24 313.923 98.2 313.923 94.456V83.2H312.003ZM327.641 100H329.873V83.2H328.025V97.168L320.201 83.2H317.969V100H319.793V86.056L327.641 100ZM344.099 100H346.451L339.611 90.76L345.827 83.2H343.643L336.059 92.536V83.2H334.187V100H336.059V95.104L338.387 92.296L344.099 100ZM170.691 129.24C174.099 129.24 176.307 127.296 176.499 123.792H174.675C174.483 126.384 173.067 127.608 170.619 127.608C167.787 127.608 166.395 125.832 166.395 123.12V118.128C166.395 115.368 167.787 113.592 170.667 113.592C173.139 113.592 174.387 115.008 174.675 117.408H176.499C176.211 114.192 174.291 111.96 170.643 111.96C166.923 111.96 164.475 114.072 164.475 118.128V123.096C164.475 127.152 166.899 129.24 170.691 129.24ZM185.459 129.24C189.299 129.24 191.747 127.128 191.747 123.096V118.104C191.747 114.072 189.299 111.96 185.459 111.96C181.595 111.96 179.147 114.072 179.147 118.128V123.096C179.147 127.152 181.595 129.24 185.459 129.24ZM185.459 113.592C188.435 113.592 189.851 115.368 189.851 118.104V123.072C189.851 125.832 188.435 127.608 185.459 127.608C182.459 127.608 181.067 125.832 181.067 123.12V118.128C181.067 115.368 182.459 113.592 185.459 113.592ZM203.103 125.808H204.615L210.351 115.344V129H212.199V112.2H210.063L203.919 123.6L197.847 112.2H195.519V129H197.343V115.344L203.103 125.808ZM221.151 122.256C224.943 122.256 227.007 120.48 227.007 117.744V116.76C227.007 113.88 225.255 112.2 221.103 112.2H216.519V129H218.391V122.256H221.151ZM221.055 113.832C224.031 113.832 225.087 115.008 225.087 116.808V117.696C225.087 119.472 223.839 120.624 221.079 120.624H218.391V113.832H221.055ZM235.733 129.24C239.573 129.24 242.021 127.128 242.021 123.096V118.104C242.021 114.072 239.573 111.96 235.733 111.96C231.869 111.96 229.421 114.072 229.421 118.128V123.096C229.421 127.152 231.869 129.24 235.733 129.24ZM235.733 113.592C238.709 113.592 240.125 115.368 240.125 118.104V123.072C240.125 125.832 238.709 127.608 235.733 127.608C232.733 127.608 231.34 125.832 231.34 123.12V118.128C231.34 115.368 232.733 113.592 235.733 113.592ZM250.281 113.592C252.705 113.592 253.689 114.72 253.833 117.048H255.633C255.561 113.76 253.785 111.96 250.281 111.96C246.657 111.96 245.121 113.808 245.121 116.232C245.121 118.704 246.225 119.736 249.225 120.816L251.001 121.464C253.377 122.352 254.025 123.12 254.025 124.704C254.025 126.672 253.017 127.608 250.593 127.608C248.025 127.608 246.801 126.48 246.489 124.152H244.689C245.049 127.632 246.993 129.24 250.569 129.24C254.289 129.24 255.945 127.56 255.945 124.632C255.945 122.28 254.985 121.032 251.769 119.832L249.993 119.184C247.737 118.368 247.041 117.816 247.041 116.208C247.041 114.72 247.833 113.592 250.281 113.592ZM259.34 129H261.212V112.2H259.34V129ZM275.583 113.832V112.2H263.679V113.832H268.719V129H270.591V113.832H275.583ZM278.066 129H279.938V112.2H278.066V129ZM290.014 129.24C293.854 129.24 296.302 127.128 296.302 123.096V118.104C296.302 114.072 293.854 111.96 290.014 111.96C286.15 111.96 283.702 114.072 283.702 118.128V123.096C283.702 127.152 286.15 129.24 290.014 129.24ZM290.014 113.592C292.99 113.592 294.406 115.368 294.406 118.104V123.072C294.406 125.832 292.99 127.608 290.014 127.608C287.014 127.608 285.622 125.832 285.622 123.12V118.128C285.622 115.368 287.014 113.592 290.014 113.592ZM309.746 129H311.978V112.2H310.13V126.168L302.306 112.2H300.074V129H301.898V115.056L309.746 129Z" fill="white"/>
<path id="85% Debris" d="M74.984 260.307C78.584 260.307 80.48 258.459 80.48 255.651V255.099C80.48 253.179 79.472 251.835 77.768 251.259C79.208 250.659 80 249.435 80 247.827V247.275C80 244.539 78.032 243.027 75.032 243.027C71.96 243.027 70.016 244.539 70.016 247.275V247.827C70.016 249.435 70.784 250.659 72.272 251.259C70.544 251.859 69.512 253.179 69.512 255.099V255.651C69.512 258.459 71.408 260.307 74.984 260.307ZM75.08 244.659C77.096 244.659 78.08 245.715 78.08 247.323V247.779C78.08 249.459 77.096 250.491 74.912 250.491C72.92 250.491 71.936 249.459 71.936 247.779V247.323C71.936 245.715 72.92 244.659 75.08 244.659ZM75.056 252.123C77.408 252.123 78.584 253.323 78.584 255.171V255.603C78.584 257.475 77.432 258.675 74.936 258.675C72.584 258.675 71.432 257.475 71.432 255.603V255.171C71.432 253.323 72.56 252.123 75.056 252.123ZM88.5436 260.451C91.8076 260.451 93.7036 258.531 93.7036 255.723V254.499C93.7036 251.115 91.6636 249.579 87.6556 249.579H85.9276V244.899H92.9356V243.267H84.1036V251.187H87.5116C90.5116 251.187 91.7836 252.267 91.7836 254.499V255.723C91.7836 257.787 90.4396 258.819 88.4956 258.819C86.5516 258.819 85.3276 257.835 85.1836 255.819H83.3596C83.4556 258.747 85.3036 260.451 88.5436 260.451ZM99.1777 250.563C101.362 250.563 102.826 249.267 102.826 247.083V246.603C102.826 244.443 101.362 243.123 99.1777 243.123C96.9697 243.123 95.5057 244.443 95.5057 246.627V247.083C95.5057 249.267 96.9697 250.563 99.1777 250.563ZM97.8817 260.067H99.3457L110.506 243.267H109.018L97.8817 260.067ZM99.1777 244.347C100.642 244.347 101.41 245.283 101.41 246.651V247.059C101.41 248.403 100.642 249.363 99.1777 249.363C97.6897 249.363 96.9457 248.427 96.9457 247.059V246.651C96.9457 245.283 97.6897 244.347 99.1777 244.347ZM109.546 260.211C111.73 260.211 113.194 258.891 113.194 256.707V256.251C113.194 254.091 111.73 252.747 109.546 252.747C107.338 252.747 105.874 254.091 105.874 256.275V256.731C105.874 258.891 107.338 260.211 109.546 260.211ZM109.546 253.971C111.01 253.971 111.754 254.931 111.754 256.275V256.683C111.754 258.051 111.01 258.987 109.546 258.987C108.058 258.987 107.29 258.051 107.29 256.707V256.299C107.29 254.931 108.058 253.971 109.546 253.971ZM70.16 289.067H75.824C79.784 289.067 81.896 287.051 81.896 283.163V278.195C81.896 274.379 79.664 272.267 75.728 272.267H70.16V289.067ZM75.608 273.899C78.584 273.899 79.976 275.555 79.976 278.171V283.187C79.976 285.851 78.824 287.435 75.68 287.435H72.032V273.899H75.608ZM94.6048 285.563H92.8048C92.6368 286.787 91.8688 287.531 90.5008 287.699C90.3328 287.723 90.1648 287.723 89.9728 287.723C87.9568 287.723 86.9967 286.523 86.9008 284.555C86.8768 284.195 86.8528 283.811 86.8528 283.427H94.6768V282.347C94.6768 278.891 92.8048 277.115 89.9008 277.115C86.8768 277.115 84.9088 278.867 84.9088 282.299V284.123C84.9088 287.555 86.9008 289.307 89.8768 289.307C92.5408 289.307 94.3408 287.987 94.6048 285.563ZM86.8528 282.059C86.8768 279.995 87.8368 278.675 89.9008 278.675C91.9168 278.675 92.8048 279.779 92.9008 282.227H86.9967L86.8528 282.059ZM103.519 289.307C106.183 289.307 108.079 287.555 108.079 284.123V282.323C108.079 278.867 106.183 277.115 103.519 277.115C101.839 277.115 100.543 277.859 99.9187 279.323V271.547H98.0227V289.067H99.9187V287.171C100.519 288.491 101.743 289.307 103.519 289.307ZM103.087 287.675C101.143 287.675 99.9187 286.331 99.9187 284.147V282.443C99.9187 279.995 101.119 278.747 103.063 278.747C105.199 278.747 106.183 280.163 106.183 282.347V284.099C106.183 286.283 105.199 287.675 103.087 287.675ZM113.395 282.515C113.395 280.163 114.835 278.939 116.899 278.939H117.523V277.115H116.947C115.387 277.115 114.139 277.859 113.395 279.419V277.355H111.499V289.067H113.395V282.515ZM120.802 275.075C121.594 275.075 122.146 274.547 122.146 273.851C122.146 273.155 121.594 272.627 120.802 272.627C120.058 272.627 119.482 273.155 119.482 273.851C119.482 274.547 120.058 275.075 120.802 275.075ZM119.866 289.067H121.762V277.355H119.866V289.067ZM129.494 278.579C131.366 278.579 132.182 279.299 132.326 280.859H134.126C134.006 278.459 132.59 277.115 129.494 277.115C126.566 277.115 125.246 278.459 125.246 280.427C125.246 282.395 126.326 283.211 128.51 283.667L130.166 284.003C132.014 284.435 132.518 284.747 132.518 285.971C132.518 287.171 131.774 287.867 129.902 287.867C127.862 287.867 126.878 287.099 126.686 285.323H124.91C125.174 288.059 126.83 289.307 129.854 289.307C132.854 289.307 134.39 288.083 134.39 285.851C134.39 283.883 133.406 283.163 130.718 282.563L129.206 282.227C127.694 281.867 127.118 281.483 127.118 280.379C127.118 279.179 127.79 278.579 129.494 278.579Z" fill="white"/>
<path id="2% TBA" d="M353.936 342.067H364.208V340.435H356.552L361.088 335.131C362.96 333.115 363.944 331.795 363.944 329.467C363.944 326.803 362.456 325.027 359.192 325.027C356.072 325.027 354.224 326.875 354.08 330.067H355.904C356.072 327.811 357.08 326.659 359.168 326.659C361.088 326.659 362.024 327.547 362.024 329.467C362.024 331.027 361.544 332.011 359.816 333.955L353.936 340.603V342.067ZM369.623 332.563C371.807 332.563 373.271 331.267 373.271 329.083V328.603C373.271 326.443 371.807 325.123 369.623 325.123C367.415 325.123 365.951 326.443 365.951 328.627V329.083C365.951 331.267 367.415 332.563 369.623 332.563ZM368.327 342.067H369.791L380.951 325.267H379.463L368.327 342.067ZM369.623 326.347C371.087 326.347 371.855 327.283 371.855 328.651V329.059C371.855 330.403 371.087 331.363 369.623 331.363C368.135 331.363 367.391 330.427 367.391 329.059V328.651C367.391 327.283 368.135 326.347 369.623 326.347ZM379.991 342.211C382.175 342.211 383.639 340.891 383.639 338.707V338.251C383.639 336.091 382.175 334.747 379.991 334.747C377.783 334.747 376.319 336.091 376.319 338.275V338.731C376.319 340.891 377.783 342.211 379.991 342.211ZM379.991 335.971C381.455 335.971 382.199 336.931 382.199 338.275V338.683C382.199 340.051 381.455 340.987 379.991 340.987C378.503 340.987 377.735 340.051 377.735 338.707V338.299C377.735 336.931 378.503 335.971 379.991 335.971ZM365.216 355.899V354.267H353.312V355.899H358.352V371.067H360.224V355.899H365.216ZM367.699 371.067H373.315C376.627 371.067 378.907 369.555 378.907 366.579V365.955C378.907 363.963 377.803 362.739 375.859 362.211C377.251 361.635 378.091 360.603 378.091 359.091V358.419C378.091 355.659 376.219 354.267 372.643 354.267H367.699V371.067ZM372.595 355.899C375.043 355.899 376.171 356.763 376.171 358.467V359.091C376.171 360.579 375.043 361.611 372.739 361.611H369.571V355.899H372.595ZM373.195 363.123C375.739 363.123 377.011 364.203 377.011 365.931V366.555C377.011 368.283 375.739 369.435 373.195 369.435H369.571V363.123H373.195ZM392.933 371.067H394.973L388.781 354.267H386.813L380.573 371.067H382.541L384.149 366.699H391.349L392.933 371.067ZM390.797 365.091H384.653L387.725 356.595L390.797 365.091Z" fill="white"/>
<path id="13% Rocket bodies" d="M357.2 212.267L353.48 213.563V215.195L357.008 214.043V229.067H358.88V212.267H357.2ZM367.66 229.451C371.284 229.451 372.94 227.603 372.94 224.411C372.94 222.563 372.22 220.979 370.036 220.331C372.052 219.779 372.532 218.387 372.532 216.491C372.532 213.827 371.068 212.027 367.492 212.027C364.516 212.027 362.716 213.635 362.62 216.515H364.42C364.516 214.667 365.548 213.659 367.492 213.659C369.724 213.659 370.612 214.619 370.612 216.515C370.612 218.651 370.012 219.635 367.156 219.635H366.076V221.147H367.156C370.012 221.147 371.02 222.395 371.02 224.459C371.02 226.763 369.916 227.819 367.66 227.819C365.212 227.819 364.012 226.715 363.916 224.819H362.092C362.236 227.747 364.06 229.451 367.66 229.451ZM378.74 219.563C380.924 219.563 382.388 218.267 382.388 216.083V215.603C382.388 213.443 380.924 212.123 378.74 212.123C376.532 212.123 375.068 213.443 375.068 215.627V216.083C375.068 218.267 376.532 219.563 378.74 219.563ZM377.444 229.067H378.908L390.068 212.267H388.58L377.444 229.067ZM378.74 213.347C380.204 213.347 380.972 214.283 380.972 215.651V216.059C380.972 217.403 380.204 218.363 378.74 218.363C377.252 218.363 376.508 217.427 376.508 216.059V215.651C376.508 214.283 377.252 213.347 378.74 213.347ZM389.108 229.211C391.292 229.211 392.756 227.891 392.756 225.707V225.251C392.756 223.091 391.292 221.747 389.108 221.747C386.9 221.747 385.436 223.091 385.436 225.275V225.731C385.436 227.891 386.9 229.211 389.108 229.211ZM389.108 222.971C390.572 222.971 391.316 223.931 391.316 225.275V225.683C391.316 227.051 390.572 227.987 389.108 227.987C387.62 227.987 386.852 227.051 386.852 225.707V225.299C386.852 223.931 387.62 222.971 389.108 222.971ZM357.032 251.323H359.96L364.16 258.067H366.272L361.832 251.035C364.376 250.531 365.648 248.947 365.648 246.811V245.827C365.648 242.947 363.896 241.267 359.744 241.267H355.16V258.067H357.032V251.323ZM359.696 242.899C362.672 242.899 363.728 244.075 363.728 245.875V246.763C363.728 248.539 362.48 249.691 359.72 249.691H357.032V242.899H359.696ZM373.331 258.307C376.379 258.307 378.371 256.555 378.371 253.123V251.299C378.371 247.867 376.379 246.115 373.331 246.115C370.283 246.115 368.315 247.867 368.315 251.299V253.123C368.315 256.555 370.283 258.307 373.331 258.307ZM373.331 247.747C375.467 247.747 376.451 249.163 376.451 251.299V253.099C376.451 255.283 375.467 256.675 373.331 256.675C371.195 256.675 370.235 255.283 370.235 253.099V251.299C370.235 249.163 371.195 247.747 373.331 247.747ZM386.173 256.675C384.109 256.675 383.149 255.331 383.149 253.099V251.347C383.149 249.091 384.061 247.747 386.149 247.747C387.757 247.747 388.621 248.539 388.837 250.027H390.661C390.517 247.675 388.981 246.115 386.149 246.115C383.197 246.115 381.229 247.867 381.229 251.323V253.147C381.229 256.555 383.173 258.307 386.125 258.307C388.741 258.307 390.421 256.987 390.781 254.419H388.981C388.693 255.955 387.877 256.675 386.173 256.675ZM401.628 258.067H403.956L398.94 251.131L403.164 246.355H401.028L395.7 252.355V240.547H393.804V258.067H395.7V254.803L397.692 252.547L401.628 258.067ZM414.738 254.563H412.938C412.77 255.787 412.002 256.531 410.634 256.699C410.466 256.723 410.298 256.723 410.106 256.723C408.09 256.723 407.13 255.523 407.034 253.555C407.01 253.195 406.986 252.811 406.986 252.427H414.81V251.347C414.81 247.891 412.938 246.115 410.034 246.115C407.01 246.115 405.042 247.867 405.042 251.299V253.123C405.042 256.555 407.034 258.307 410.01 258.307C412.674 258.307 414.474 256.987 414.738 254.563ZM406.986 251.059C407.01 248.995 407.97 247.675 410.034 247.675C412.05 247.675 412.938 248.779 413.034 251.227H407.13L406.986 251.059ZM424.012 256.603H422.644C421.06 256.603 420.508 255.931 420.508 254.611V247.939H424.012V246.355H420.508V242.899H418.636V246.355H416.812V247.939H418.636V254.587C418.636 257.107 419.715 258.187 422.308 258.187H424.012V256.603ZM360.464 287.307C363.128 287.307 365.024 285.555 365.024 282.123V280.323C365.024 276.867 363.128 275.115 360.464 275.115C358.784 275.115 357.488 275.859 356.864 277.323V269.547H354.968V287.067H356.864V285.171C357.464 286.491 358.688 287.307 360.464 287.307ZM360.032 285.675C358.088 285.675 356.864 284.331 356.864 282.147V280.443C356.864 277.995 358.064 276.747 360.008 276.747C362.144 276.747 363.128 278.163 363.128 280.347V282.099C363.128 284.283 362.144 285.675 360.032 285.675ZM372.862 287.307C375.91 287.307 377.902 285.555 377.902 282.123V280.299C377.902 276.867 375.91 275.115 372.862 275.115C369.814 275.115 367.846 276.867 367.846 280.299V282.123C367.846 285.555 369.814 287.307 372.862 287.307ZM372.862 276.747C374.998 276.747 375.982 278.163 375.982 280.299V282.099C375.982 284.283 374.998 285.675 372.862 285.675C370.726 285.675 369.766 284.283 369.766 282.099V280.299C369.766 278.163 370.726 276.747 372.862 276.747ZM388.897 287.067H390.769V269.547H388.897V277.251C388.273 275.907 387.049 275.115 385.297 275.115C382.609 275.115 380.737 276.867 380.737 280.323V282.123C380.737 285.555 382.609 287.307 385.297 287.307C386.977 287.307 388.249 286.587 388.897 285.147V287.067ZM385.729 276.747C387.673 276.747 388.897 278.115 388.897 280.275V281.979C388.897 284.451 387.697 285.675 385.753 285.675C383.617 285.675 382.633 284.283 382.633 282.075V280.323C382.633 278.163 383.617 276.747 385.729 276.747ZM395.631 273.075C396.423 273.075 396.975 272.547 396.975 271.851C396.975 271.155 396.423 270.627 395.631 270.627C394.887 270.627 394.311 271.155 394.311 271.851C394.311 272.547 394.887 273.075 395.631 273.075ZM394.695 287.067H396.591V275.355H394.695V287.067ZM409.699 283.563H407.899C407.731 284.787 406.963 285.531 405.595 285.699C405.427 285.723 405.259 285.723 405.067 285.723C403.051 285.723 402.09 284.523 401.995 282.555C401.971 282.195 401.947 281.811 401.947 281.427H409.771V280.347C409.771 276.891 407.899 275.115 404.995 275.115C401.971 275.115 400.003 276.867 400.003 280.299V282.123C400.003 285.555 401.995 287.307 404.971 287.307C407.635 287.307 409.435 285.987 409.699 283.563ZM401.947 280.059C401.971 277.995 402.931 276.675 404.995 276.675C407.011 276.675 407.899 277.779 407.995 280.227H402.09L401.947 280.059ZM416.908 276.579C418.78 276.579 419.596 277.299 419.74 278.859H421.54C421.42 276.459 420.004 275.115 416.908 275.115C413.98 275.115 412.66 276.459 412.66 278.427C412.66 280.395 413.74 281.211 415.924 281.667L417.58 282.003C419.428 282.435 419.932 282.747 419.932 283.971C419.932 285.171 419.188 285.867 417.316 285.867C415.276 285.867 414.292 285.099 414.1 283.323H412.324C412.588 286.059 414.244 287.307 417.268 287.307C420.268 287.307 421.804 286.083 421.804 283.851C421.804 281.883 420.82 281.163 418.132 280.563L416.62 280.227C415.108 279.867 414.532 279.483 414.532 278.379C414.532 277.179 415.204 276.579 416.908 276.579Z" fill="white"/>
<line id="Line 15" x1="176" y1="250.567" x2="127" y2="250.567" stroke="white"/>
<line id="Line 16" x1="311.354" y1="288.714" x2="344.354" y2="321.714" stroke="white"/>
<line id="Line 17" x1="344" y1="250.567" x2="307" y2="250.567" stroke="white"/>
<g id="pie">
<path id="Vector" d="M313.438 293.697C307.451 310.657 295.924 325.104 280.717 334.708C265.511 344.311 247.511 348.511 229.625 346.628C211.738 344.745 195.008 336.889 182.134 324.33C169.26 311.77 160.995 295.238 158.671 277.404C156.347 259.569 160.101 241.471 169.326 226.032C178.552 210.593 192.711 198.713 209.518 192.31C226.324 185.906 244.799 185.353 261.959 190.739C279.119 196.126 293.963 207.137 304.096 221.997L238 267.067L313.438 293.697Z" fill="#F2C94C"/>
<path id="Vector_2" d="M304.096 221.997C310.337 231.149 314.609 241.499 316.642 252.389C318.675 263.279 318.423 274.472 315.904 285.26L238 267.067L304.096 221.997Z" fill="#9B51E0"/>
<path id="Vector_3" d="M315.904 285.26C315.237 288.115 314.414 290.932 313.438 293.697L238 267.067L315.904 285.26Z" fill="#2F80ED"/>
<circle id="Ellipse 1" cx="238.541" cy="266.894" r="38.2382" transform="rotate(119.908 238.541 266.894)" fill="black"/>
</g>
</g>
</svg>
