<svg width="500" height="500" viewBox="0 0 500 500" fill="none" xmlns="http://www.w3.org/2000/svg">
<g id="all-time-space-debris-status">
<rect width="500" height="500" fill="black"/>
<g id="Group 290">
<path id="ALL-TIME SPACE JUNK STATUS" d="M160.862 100H162.902L156.71 83.2H154.742L148.502 100H150.47L152.078 95.632H159.278L160.862 100ZM158.726 94.024H152.582L155.654 85.528L158.726 94.024ZM165.488 100H175.376V98.368H167.36V83.2H165.488V100ZM177.793 100H187.681V98.368H179.665V83.2H177.793V100ZM193.251 94.336V92.68H187.515V94.336H193.251ZM205.38 84.832V83.2H193.476V84.832H198.516V100H200.388V84.832H205.38ZM207.863 100H209.735V83.2H207.863V100ZM221.635 96.808H223.147L228.883 86.344V100H230.731V83.2H228.595L222.451 94.6L216.379 83.2H214.051V100H215.875V86.344L221.635 96.808ZM235.051 100H245.611V98.368H236.923V92.104H244.147V90.496H236.923V84.832H245.611V83.2H235.051V100ZM259.296 84.592C261.72 84.592 262.704 85.72 262.848 88.048H264.648C264.576 84.76 262.8 82.96 259.296 82.96C255.672 82.96 254.136 84.808 254.136 87.232C254.136 89.704 255.24 90.736 258.24 91.816L260.016 92.464C262.392 93.352 263.04 94.12 263.04 95.704C263.04 97.672 262.032 98.608 259.608 98.608C257.04 98.608 255.816 97.48 255.504 95.152H253.704C254.064 98.632 256.008 100.24 259.584 100.24C263.304 100.24 264.96 98.56 264.96 95.632C264.96 93.28 264 92.032 260.784 90.832L259.008 90.184C256.752 89.368 256.056 88.816 256.056 87.208C256.056 85.72 256.848 84.592 259.296 84.592ZM272.987 93.256C276.779 93.256 278.843 91.48 278.843 88.744V87.76C278.843 84.88 277.091 83.2 272.939 83.2H268.355V100H270.227V93.256H272.987ZM272.891 84.832C275.867 84.832 276.923 86.008 276.923 87.808V88.696C276.923 90.472 275.675 91.624 272.915 91.624H270.227V84.832H272.891ZM291.222 100H293.262L287.07 83.2H285.102L278.862 100H280.83L282.438 95.632H289.638L291.222 100ZM289.086 94.024H282.942L286.014 85.528L289.086 94.024ZM301.324 100.24C304.732 100.24 306.94 98.296 307.132 94.792H305.308C305.116 97.384 303.7 98.608 301.252 98.608C298.42 98.608 297.028 96.832 297.028 94.12V89.128C297.028 86.368 298.42 84.592 301.3 84.592C303.772 84.592 305.02 86.008 305.308 88.408H307.132C306.844 85.192 304.924 82.96 301.276 82.96C297.556 82.96 295.108 85.072 295.108 89.128V94.096C295.108 98.152 297.532 100.24 301.324 100.24ZM310.332 100H320.892V98.368H312.204V92.104H319.428V90.496H312.204V84.832H320.892V83.2H310.332V100ZM166.469 124.368C166.709 127.608 168.605 129.24 171.437 129.24C174.533 129.24 176.333 127.464 176.333 124.056V112.2H174.461V124.056C174.461 126.624 173.333 127.608 171.413 127.608C169.565 127.608 168.485 126.576 168.293 124.368H166.469ZM189.792 112.2V123.456C189.792 125.928 188.544 127.608 185.88 127.608C183.264 127.608 181.992 125.928 181.992 123.456V112.2H180.072V123.456C180.072 127.2 182.352 129.24 185.88 129.24C189.432 129.24 191.712 127.2 191.712 123.456V112.2H189.792ZM205.43 129H207.662V112.2H205.814V126.168L197.99 112.2H195.758V129H197.582V115.056L205.43 129ZM221.888 129H224.24L217.4 119.76L223.616 112.2H221.432L213.848 121.536V112.2H211.976V129H213.848V124.104L216.176 121.296L221.888 129ZM237.3 113.592C239.724 113.592 240.708 114.72 240.852 117.048H242.652C242.58 113.76 240.804 111.96 237.3 111.96C233.676 111.96 232.14 113.808 232.14 116.232C232.14 118.704 233.244 119.736 236.244 120.816L238.02 121.464C240.396 122.352 241.044 123.12 241.044 124.704C241.044 126.672 240.036 127.608 237.612 127.608C235.044 127.608 233.82 126.48 233.508 124.152H231.708C232.068 127.632 234.012 129.24 237.588 129.24C241.308 129.24 242.964 127.56 242.964 124.632C242.964 122.28 242.004 121.032 238.788 119.832L237.012 119.184C234.756 118.368 234.06 117.816 234.06 116.208C234.06 114.72 234.852 113.592 237.3 113.592ZM256.064 113.832V112.2H244.16V113.832H249.2V129H251.072V113.832H256.064ZM267.632 129H269.672L263.48 112.2H261.512L255.272 129H257.24L258.848 124.632H266.048L267.632 129ZM265.496 123.024H259.352L262.424 114.528L265.496 123.024ZM280.743 113.832V112.2H268.839V113.832H273.879V129H275.751V113.832H280.743ZM292.682 112.2V123.456C292.682 125.928 291.434 127.608 288.77 127.608C286.154 127.608 284.882 125.928 284.882 123.456V112.2H282.962V123.456C282.962 127.2 285.242 129.24 288.77 129.24C292.322 129.24 294.602 127.2 294.602 123.456V112.2H292.682ZM303.136 113.592C305.56 113.592 306.544 114.72 306.688 117.048H308.488C308.416 113.76 306.64 111.96 303.136 111.96C299.512 111.96 297.976 113.808 297.976 116.232C297.976 118.704 299.08 119.736 302.08 120.816L303.856 121.464C306.232 122.352 306.88 123.12 306.88 124.704C306.88 126.672 305.872 127.608 303.448 127.608C300.88 127.608 299.656 126.48 299.344 124.152H297.544C297.904 127.632 299.848 129.24 303.424 129.24C307.144 129.24 308.8 127.56 308.8 124.632C308.8 122.28 307.84 121.032 304.624 119.832L302.848 119.184C300.592 118.368 299.896 117.816 299.896 116.208C299.896 114.72 300.688 113.592 303.136 113.592Z" fill="white"/>
<path id="43% Unknown" d="M62.264 239.472V237.864H60.032V226.2H57.824L50.624 238.032V239.472H58.16V243H60.032V239.472H62.264ZM52.568 237.864L58.16 228.696V237.864H52.568ZM69.4644 243.384C73.0884 243.384 74.7444 241.536 74.7444 238.344C74.7444 236.496 74.0244 234.912 71.8404 234.264C73.8564 233.712 74.3364 232.32 74.3364 230.424C74.3364 227.76 72.8724 225.96 69.2964 225.96C66.3204 225.96 64.5204 227.568 64.4244 230.448H66.2244C66.3204 228.6 67.3524 227.592 69.2964 227.592C71.5284 227.592 72.4164 228.552 72.4164 230.448C72.4164 232.584 71.8164 233.568 68.9604 233.568H67.8804V235.08H68.9604C71.8164 235.08 72.8244 236.328 72.8244 238.392C72.8244 240.696 71.7204 241.752 69.4644 241.752C67.0164 241.752 65.8164 240.648 65.7204 238.752H63.8964C64.0404 241.68 65.8644 243.384 69.4644 243.384ZM80.5449 233.496C82.7289 233.496 84.1929 232.2 84.1929 230.016V229.536C84.1929 227.376 82.7289 226.056 80.5449 226.056C78.3369 226.056 76.8729 227.376 76.8729 229.56V230.016C76.8729 232.2 78.3369 233.496 80.5449 233.496ZM79.2489 243H80.7129L91.8729 226.2H90.3849L79.2489 243ZM80.5449 227.28C82.0089 227.28 82.7769 228.216 82.7769 229.584V229.992C82.7769 231.336 82.0089 232.296 80.5449 232.296C79.0569 232.296 78.3129 231.36 78.3129 229.992V229.584C78.3129 228.216 79.0569 227.28 80.5449 227.28ZM90.9129 243.144C93.0969 243.144 94.5609 241.824 94.5609 239.64V239.184C94.5609 237.024 93.0969 235.68 90.9129 235.68C88.7049 235.68 87.2409 237.024 87.2409 239.208V239.664C87.2409 241.824 88.7049 243.144 90.9129 243.144ZM90.9129 236.904C92.3769 236.904 93.1209 237.864 93.1209 239.208V239.616C93.1209 240.984 92.3769 241.92 90.9129 241.92C89.4249 241.92 88.6569 240.984 88.6569 239.64V239.232C88.6569 237.864 89.4249 236.904 90.9129 236.904ZM61.616 255.2V266.456C61.616 268.928 60.368 270.608 57.704 270.608C55.088 270.608 53.816 268.928 53.816 266.456V255.2H51.896V266.456C51.896 270.2 54.176 272.24 57.704 272.24C61.256 272.24 63.536 270.2 63.536 266.456V255.2H61.616ZM69.2859 265.328C69.2859 263.024 70.7019 261.68 72.4539 261.68C74.3499 261.68 75.1419 262.664 75.1419 264.608V272H77.0139V264.224C77.0139 261.392 75.6219 260.048 73.0779 260.048C71.3979 260.048 70.0299 260.864 69.2859 262.496V260.288H67.3899V272H69.2859V265.328ZM88.6201 272H90.9481L85.9321 265.064L90.1561 260.288H88.0201L82.6921 266.288V254.48H80.7961V272H82.6921V268.736L84.6841 266.48L88.6201 272ZM95.1609 265.328C95.1609 263.024 96.5769 261.68 98.3289 261.68C100.225 261.68 101.017 262.664 101.017 264.608V272H102.889V264.224C102.889 261.392 101.497 260.048 98.9529 260.048C97.2729 260.048 95.9049 260.864 95.1609 262.496V260.288H93.2649V272H95.1609V265.328ZM111.159 272.24C114.207 272.24 116.199 270.488 116.199 267.056V265.232C116.199 261.8 114.207 260.048 111.159 260.048C108.111 260.048 106.143 261.8 106.143 265.232V267.056C106.143 270.488 108.111 272.24 111.159 272.24ZM111.159 261.68C113.295 261.68 114.279 263.096 114.279 265.232V267.032C114.279 269.216 113.295 270.608 111.159 270.608C109.023 270.608 108.063 269.216 108.063 267.032V265.232C108.063 263.096 109.023 261.68 111.159 261.68ZM129.959 272H132.071L135.575 260.288H133.631L130.943 269.912L127.679 260.288H125.927L122.639 269.888L119.999 260.288H117.983L121.463 272H123.479L126.743 262.616L129.959 272ZM140.067 265.328C140.067 263.024 141.483 261.68 143.235 261.68C145.131 261.68 145.923 262.664 145.923 264.608V272H147.795V264.224C147.795 261.392 146.403 260.048 143.859 260.048C142.179 260.048 140.811 260.864 140.067 262.496V260.288H138.171V272H140.067V265.328Z" fill="white"/>
<path id="1% Partly operational" d="M148.2 342.2L144.48 343.496V345.128L148.008 343.976V359H149.88V342.2H148.2ZM156.428 349.496C158.612 349.496 160.076 348.2 160.076 346.016V345.536C160.076 343.376 158.612 342.056 156.428 342.056C154.22 342.056 152.756 343.376 152.756 345.56V346.016C152.756 348.2 154.22 349.496 156.428 349.496ZM155.132 359H156.596L167.756 342.2H166.268L155.132 359ZM156.428 343.28C157.892 343.28 158.66 344.216 158.66 345.584V345.992C158.66 347.336 157.892 348.296 156.428 348.296C154.94 348.296 154.196 347.36 154.196 345.992V345.584C154.196 344.216 154.94 343.28 156.428 343.28ZM166.796 359.144C168.98 359.144 170.444 357.824 170.444 355.64V355.184C170.444 353.024 168.98 351.68 166.796 351.68C164.588 351.68 163.124 353.024 163.124 355.208V355.664C163.124 357.824 164.588 359.144 166.796 359.144ZM166.796 352.904C168.26 352.904 169.004 353.864 169.004 355.208V355.616C169.004 356.984 168.26 357.92 166.796 357.92C165.308 357.92 164.54 356.984 164.54 355.64V355.232C164.54 353.864 165.308 352.904 166.796 352.904ZM150.792 381.256C154.584 381.256 156.648 379.48 156.648 376.744V375.76C156.648 372.88 154.896 371.2 150.744 371.2H146.16V388H148.032V381.256H150.792ZM150.696 372.832C153.672 372.832 154.728 374.008 154.728 375.808V376.696C154.728 378.472 153.48 379.624 150.72 379.624H148.032V372.832H150.696ZM166.045 388H167.917V380.224C167.917 377.368 166.525 376.048 163.645 376.048C160.669 376.048 159.349 377.512 159.061 379.672H160.885C161.029 378.496 161.773 377.68 163.477 377.68C165.349 377.68 166.045 378.448 166.045 380.464V381.448H162.805C159.781 381.448 158.677 382.696 158.677 384.4V385.12C158.677 387.04 160.021 388.24 162.445 388.24C164.341 388.24 165.445 387.616 166.045 386.368V388ZM162.997 386.872C161.341 386.872 160.549 386.2 160.549 384.928V384.424C160.549 383.32 161.173 382.648 162.973 382.648H166.045V383.8C166.045 385.984 164.941 386.872 162.997 386.872ZM173.598 381.448C173.598 379.096 175.038 377.872 177.102 377.872H177.726V376.048H177.15C175.59 376.048 174.342 376.792 173.598 378.352V376.288H171.702V388H173.598V381.448ZM185.926 386.536H184.558C182.974 386.536 182.422 385.864 182.422 384.544V377.872H185.926V376.288H182.422V372.832H180.55V376.288H178.726V377.872H180.55V384.52C180.55 387.04 181.63 388.12 184.222 388.12H185.926V386.536ZM190.495 385.072V370.48H188.599V385.096C188.599 387.472 189.511 388.12 191.719 388.12H192.151V386.488H191.791C190.831 386.488 190.495 386.176 190.495 385.072ZM194.07 392.92C196.446 392.92 197.526 392.176 198.774 389.224L204.246 376.288H202.302L198.774 384.76L195.222 376.288H193.206L197.838 387.064L197.19 388.6C196.206 390.952 195.462 391.288 194.07 391.288H193.35V392.92H194.07ZM150.456 417.24C153.504 417.24 155.496 415.488 155.496 412.056V410.232C155.496 406.8 153.504 405.048 150.456 405.048C147.408 405.048 145.44 406.8 145.44 410.232V412.056C145.44 415.488 147.408 417.24 150.456 417.24ZM150.456 406.68C152.592 406.68 153.576 408.096 153.576 410.232V412.032C153.576 414.216 152.592 415.608 150.456 415.608C148.32 415.608 147.36 414.216 147.36 412.032V410.232C147.36 408.096 148.32 406.68 150.456 406.68ZM164.378 417.24C167.042 417.24 168.938 415.488 168.938 412.056V410.256C168.938 406.8 167.042 405.048 164.378 405.048C162.698 405.048 161.402 405.792 160.778 407.256V405.288H158.882V421.8H160.778V415.104C161.378 416.424 162.602 417.24 164.378 417.24ZM163.946 415.608C162.002 415.608 160.778 414.264 160.778 412.08V410.376C160.778 407.928 161.978 406.68 163.922 406.68C166.058 406.68 167.042 408.096 167.042 410.28V412.032C167.042 414.216 166.058 415.608 163.946 415.608ZM181.456 413.496H179.656C179.488 414.72 178.72 415.464 177.352 415.632C177.184 415.656 177.016 415.656 176.824 415.656C174.808 415.656 173.848 414.456 173.752 412.488C173.728 412.128 173.704 411.744 173.704 411.36H181.528V410.28C181.528 406.824 179.656 405.048 176.752 405.048C173.728 405.048 171.76 406.8 171.76 410.232V412.056C171.76 415.488 173.752 417.24 176.728 417.24C179.392 417.24 181.192 415.92 181.456 413.496ZM173.704 409.992C173.728 407.928 174.688 406.608 176.752 406.608C178.768 406.608 179.656 407.712 179.752 410.16H173.848L173.704 409.992ZM186.77 410.448C186.77 408.096 188.21 406.872 190.274 406.872H190.898V405.048H190.322C188.762 405.048 187.514 405.792 186.77 407.352V405.288H184.874V417H186.77V410.448ZM199.701 417H201.573V409.224C201.573 406.368 200.181 405.048 197.301 405.048C194.325 405.048 193.005 406.512 192.717 408.672H194.541C194.685 407.496 195.429 406.68 197.133 406.68C199.005 406.68 199.701 407.448 199.701 409.464V410.448H196.461C193.437 410.448 192.333 411.696 192.333 413.4V414.12C192.333 416.04 193.677 417.24 196.101 417.24C197.997 417.24 199.101 416.616 199.701 415.368V417ZM196.653 415.872C194.997 415.872 194.205 415.2 194.205 413.928V413.424C194.205 412.32 194.829 411.648 196.629 411.648H199.701V412.8C199.701 414.984 198.597 415.872 196.653 415.872ZM211.004 415.536H209.636C208.052 415.536 207.5 414.864 207.5 413.544V406.872H211.004V405.288H207.5V401.832H205.628V405.288H203.804V406.872H205.628V413.52C205.628 416.04 206.708 417.12 209.3 417.12H211.004V415.536ZM214.709 403.008C215.501 403.008 216.053 402.48 216.053 401.784C216.053 401.088 215.501 400.56 214.709 400.56C213.965 400.56 213.389 401.088 213.389 401.784C213.389 402.48 213.965 403.008 214.709 403.008ZM213.773 417H215.669V405.288H213.773V417ZM224.097 417.24C227.145 417.24 229.137 415.488 229.137 412.056V410.232C229.137 406.8 227.145 405.048 224.097 405.048C221.049 405.048 219.081 406.8 219.081 410.232V412.056C219.081 415.488 221.049 417.24 224.097 417.24ZM224.097 406.68C226.233 406.68 227.217 408.096 227.217 410.232V412.032C227.217 414.216 226.233 415.608 224.097 415.608C221.961 415.608 221.001 414.216 221.001 412.032V410.232C221.001 408.096 221.961 406.68 224.097 406.68ZM234.419 410.328C234.419 408.024 235.835 406.68 237.587 406.68C239.483 406.68 240.275 407.664 240.275 409.608V417H242.147V409.224C242.147 406.392 240.755 405.048 238.211 405.048C236.531 405.048 235.163 405.864 234.419 407.496V405.288H232.523V417H234.419V410.328ZM252.553 417H254.425V409.224C254.425 406.368 253.033 405.048 250.153 405.048C247.177 405.048 245.857 406.512 245.569 408.672H247.393C247.537 407.496 248.281 406.68 249.985 406.68C251.857 406.68 252.553 407.448 252.553 409.464V410.448H249.313C246.289 410.448 245.185 411.696 245.185 413.4V414.12C245.185 416.04 246.529 417.24 248.953 417.24C250.849 417.24 251.953 416.616 252.553 415.368V417ZM249.505 415.872C247.849 415.872 247.057 415.2 247.057 413.928V413.424C247.057 412.32 247.681 411.648 249.481 411.648H252.553V412.8C252.553 414.984 251.449 415.872 249.505 415.872ZM260.01 414.072V399.48H258.114V414.096C258.114 416.472 259.026 417.12 261.234 417.12H261.666V415.488H261.306C260.346 415.488 260.01 415.176 260.01 414.072Z" fill="white"/>
<path id="56% Decayed" d="M366.528 249.384C369.792 249.384 371.688 247.464 371.688 244.656V243.432C371.688 240.048 369.648 238.512 365.64 238.512H363.912V233.832H370.92V232.2H362.088V240.12H365.496C368.496 240.12 369.768 241.2 369.768 243.432V244.656C369.768 246.72 368.424 247.752 366.48 247.752C364.536 247.752 363.312 246.768 363.168 244.752H361.344C361.44 247.68 363.288 249.384 366.528 249.384ZM379.466 249.24C382.778 249.24 384.914 247.392 384.914 244.152V243.576C384.914 240.432 383.018 238.272 379.466 238.248C378.554 238.248 377.858 238.488 377.402 238.896L382.274 232.2H380.114L376.73 236.976C374.498 240.12 374.018 241.512 374.018 243.576V244.152C374.018 247.392 376.178 249.24 379.466 249.24ZM379.466 239.88C381.89 239.88 382.994 241.368 382.994 243.648V244.08C382.994 246.216 381.89 247.608 379.466 247.608C377.042 247.608 375.938 246.216 375.938 244.08V243.648C375.938 241.368 377.042 239.88 379.466 239.88ZM389.561 239.496C391.745 239.496 393.209 238.2 393.209 236.016V235.536C393.209 233.376 391.745 232.056 389.561 232.056C387.353 232.056 385.889 233.376 385.889 235.56V236.016C385.889 238.2 387.353 239.496 389.561 239.496ZM388.265 249H389.729L400.889 232.2H399.401L388.265 249ZM389.561 233.28C391.025 233.28 391.793 234.216 391.793 235.584V235.992C391.793 237.336 391.025 238.296 389.561 238.296C388.073 238.296 387.329 237.36 387.329 235.992V235.584C387.329 234.216 388.073 233.28 389.561 233.28ZM399.929 249.144C402.113 249.144 403.577 247.824 403.577 245.64V245.184C403.577 243.024 402.113 241.68 399.929 241.68C397.721 241.68 396.257 243.024 396.257 245.208V245.664C396.257 247.824 397.721 249.144 399.929 249.144ZM399.929 242.904C401.393 242.904 402.137 243.864 402.137 245.208V245.616C402.137 246.984 401.393 247.92 399.929 247.92C398.441 247.92 397.673 246.984 397.673 245.64V245.232C397.673 243.864 398.441 242.904 399.929 242.904ZM362.16 278H367.824C371.784 278 373.896 275.984 373.896 272.096V267.128C373.896 263.312 371.664 261.2 367.728 261.2H362.16V278ZM367.608 262.832C370.584 262.832 371.976 264.488 371.976 267.104V272.12C371.976 274.784 370.824 276.368 367.68 276.368H364.032V262.832H367.608ZM386.605 274.496H384.805C384.637 275.72 383.869 276.464 382.501 276.632C382.333 276.656 382.165 276.656 381.973 276.656C379.957 276.656 378.997 275.456 378.901 273.488C378.877 273.128 378.853 272.744 378.853 272.36H386.677V271.28C386.677 267.824 384.805 266.048 381.901 266.048C378.877 266.048 376.909 267.8 376.909 271.232V273.056C376.909 276.488 378.901 278.24 381.877 278.24C384.541 278.24 386.341 276.92 386.605 274.496ZM378.853 270.992C378.877 268.928 379.837 267.608 381.901 267.608C383.917 267.608 384.805 268.712 384.901 271.16H378.997L378.853 270.992ZM394.439 276.608C392.375 276.608 391.415 275.264 391.415 273.032V271.28C391.415 269.024 392.327 267.68 394.415 267.68C396.023 267.68 396.887 268.472 397.103 269.96H398.927C398.783 267.608 397.247 266.048 394.415 266.048C391.463 266.048 389.495 267.8 389.495 271.256V273.08C389.495 276.488 391.439 278.24 394.391 278.24C397.007 278.24 398.687 276.92 399.047 274.352H397.247C396.959 275.888 396.143 276.608 394.439 276.608ZM408.483 278H410.355V270.224C410.355 267.368 408.963 266.048 406.083 266.048C403.107 266.048 401.787 267.512 401.499 269.672H403.323C403.467 268.496 404.211 267.68 405.915 267.68C407.787 267.68 408.483 268.448 408.483 270.464V271.448H405.243C402.219 271.448 401.115 272.696 401.115 274.4V275.12C401.115 277.04 402.459 278.24 404.883 278.24C406.779 278.24 407.883 277.616 408.483 276.368V278ZM405.435 276.872C403.779 276.872 402.987 276.2 402.987 274.928V274.424C402.987 273.32 403.611 272.648 405.411 272.648H408.483V273.8C408.483 275.984 407.379 276.872 405.435 276.872ZM413.14 282.92C415.516 282.92 416.596 282.176 417.844 279.224L423.316 266.288H421.372L417.844 274.76L414.292 266.288H412.276L416.908 277.064L416.26 278.6C415.276 280.952 414.532 281.288 413.14 281.288H412.42V282.92H413.14ZM434.37 274.496H432.57C432.402 275.72 431.634 276.464 430.266 276.632C430.098 276.656 429.93 276.656 429.738 276.656C427.722 276.656 426.762 275.456 426.666 273.488C426.642 273.128 426.618 272.744 426.618 272.36H434.442V271.28C434.442 267.824 432.57 266.048 429.666 266.048C426.642 266.048 424.674 267.8 424.674 271.232V273.056C424.674 276.488 426.666 278.24 429.642 278.24C432.306 278.24 434.106 276.92 434.37 274.496ZM426.618 270.992C426.642 268.928 427.602 267.608 429.666 267.608C431.682 267.608 432.57 268.712 432.666 271.16H426.762L426.618 270.992ZM445.444 278H447.316V260.48H445.444V268.184C444.82 266.84 443.596 266.048 441.844 266.048C439.156 266.048 437.284 267.8 437.284 271.256V273.056C437.284 276.488 439.156 278.24 441.844 278.24C443.524 278.24 444.796 277.52 445.444 276.08V278ZM442.276 267.68C444.22 267.68 445.444 269.048 445.444 271.208V272.912C445.444 275.384 444.244 276.608 442.3 276.608C440.164 276.608 439.18 275.216 439.18 273.008V271.256C439.18 269.096 440.164 267.68 442.276 267.68Z" fill="white"/>
<line id="Line 15" x1="158" y1="233.5" x2="109" y2="233.5" stroke="white"/>
<line id="Line 16" x1="217.002" y1="308.354" x2="182.354" y2="343.002" stroke="white"/>
<line id="Line 17" x1="354" y1="241.5" x2="305" y2="241.5" stroke="white"/>
<g id="Group 289">
<g id="pie">
<path id="Vector" d="M244.001 165C255.86 165 267.571 167.637 278.286 172.719C289.001 177.802 298.452 185.203 305.955 194.387C313.458 203.572 318.825 214.309 321.668 225.823C324.511 237.337 324.758 249.338 322.393 260.959C320.027 272.58 315.107 283.53 307.989 293.016C300.871 302.502 291.733 310.286 281.236 315.806C270.74 321.326 259.148 324.443 247.298 324.932C235.449 325.421 223.639 323.269 212.724 318.633L244.001 245V165Z" fill="#4F4F4F"/>
<path id="Vector_2" d="M212.723 318.633C212.7 318.623 212.677 318.613 212.653 318.603L244 245L212.723 318.633Z" fill="#F2C94C"/>
<path id="Vector_3" d="M212.653 318.603C211.827 318.251 211.006 317.885 210.191 317.505L244 245L212.653 318.603Z" fill="#F2C94C"/>
<path id="Vector_4" d="M210.191 317.505C193.688 309.81 180.304 296.715 172.251 280.384C164.197 264.052 161.955 245.463 165.896 227.685C169.837 209.908 179.725 194.007 193.926 182.609C208.127 171.212 225.791 165 244 165V245L210.191 317.505Z" fill="#9B51E0"/>
</g>
<circle id="Ellipse 1" cx="243.657" cy="244.548" r="38.2382" transform="rotate(10.465 243.657 244.548)" fill="black"/>
</g>
</g>
</g>
</svg>
