<svg width="500" height="500" viewBox="0 0 500 500" fill="none" xmlns="http://www.w3.org/2000/svg">
<g id="all-time-space-objects-debris">
<rect width="500" height="500" fill="black"/>
<g id="Group 288">
<g id="Group 287">
<path id="ALL-TIME SPACE OBJECTS" d="M205.003 100H207.043L200.851 83.2H198.883L192.643 100H194.611L196.219 95.632H203.419L205.003 100ZM202.867 94.024H196.723L199.795 85.528L202.867 94.024ZM209.629 100H219.517V98.368H211.501V83.2H209.629V100ZM221.933 100H231.821V98.368H223.805V83.2H221.933V100ZM237.392 94.336V92.68H231.656V94.336H237.392ZM249.521 84.832V83.2H237.617V84.832H242.657V100H244.529V84.832H249.521ZM252.004 100H253.876V83.2H252.004V100ZM265.775 96.808H267.287L273.023 86.344V100H274.871V83.2H272.735L266.591 94.6L260.519 83.2H258.191V100H260.015V86.344L265.775 96.808ZM279.191 100H289.751V98.368H281.063V92.104H288.287V90.496H281.063V84.832H289.751V83.2H279.191V100ZM165.097 113.592C167.521 113.592 168.505 114.72 168.649 117.048H170.449C170.377 113.76 168.601 111.96 165.097 111.96C161.473 111.96 159.937 113.808 159.937 116.232C159.937 118.704 161.041 119.736 164.041 120.816L165.817 121.464C168.193 122.352 168.841 123.12 168.841 124.704C168.841 126.672 167.833 127.608 165.409 127.608C162.841 127.608 161.617 126.48 161.305 124.152H159.505C159.865 127.632 161.809 129.24 165.385 129.24C169.105 129.24 170.761 127.56 170.761 124.632C170.761 122.28 169.801 121.032 166.585 119.832L164.809 119.184C162.553 118.368 161.857 117.816 161.857 116.208C161.857 114.72 162.649 113.592 165.097 113.592ZM178.788 122.256C182.58 122.256 184.644 120.48 184.644 117.744V116.76C184.644 113.88 182.892 112.2 178.74 112.2H174.156V129H176.028V122.256H178.788ZM178.692 113.832C181.668 113.832 182.724 115.008 182.724 116.808V117.696C182.724 119.472 181.476 120.624 178.716 120.624H176.028V113.832H178.692ZM197.022 129H199.062L192.87 112.2H190.902L184.662 129H186.63L188.238 124.632H195.438L197.022 129ZM194.886 123.024H188.742L191.814 114.528L194.886 123.024ZM207.125 129.24C210.533 129.24 212.741 127.296 212.933 123.792H211.109C210.917 126.384 209.501 127.608 207.053 127.608C204.221 127.608 202.829 125.832 202.829 123.12V118.128C202.829 115.368 204.221 113.592 207.101 113.592C209.573 113.592 210.821 115.008 211.109 117.408H212.933C212.645 114.192 210.725 111.96 207.077 111.96C203.357 111.96 200.909 114.072 200.909 118.128V123.096C200.909 127.152 203.333 129.24 207.125 129.24ZM216.133 129H226.693V127.368H218.005V121.104H225.229V119.496H218.005V113.832H226.693V112.2H216.133V129ZM241.65 129.24C245.49 129.24 247.938 127.128 247.938 123.096V118.104C247.938 114.072 245.49 111.96 241.65 111.96C237.786 111.96 235.338 114.072 235.338 118.128V123.096C235.338 127.152 237.786 129.24 241.65 129.24ZM241.65 113.592C244.626 113.592 246.042 115.368 246.042 118.104V123.072C246.042 125.832 244.626 127.608 241.65 127.608C238.65 127.608 237.258 125.832 237.258 123.12V118.128C237.258 115.368 238.65 113.592 241.65 113.592ZM251.711 129H257.327C260.639 129 262.919 127.488 262.919 124.512V123.888C262.919 121.896 261.815 120.672 259.871 120.144C261.263 119.568 262.103 118.536 262.103 117.024V116.352C262.103 113.592 260.231 112.2 256.655 112.2H251.711V129ZM256.607 113.832C259.055 113.832 260.183 114.696 260.183 116.4V117.024C260.183 118.512 259.055 119.544 256.751 119.544H253.583V113.832H256.607ZM257.207 121.056C259.751 121.056 261.023 122.136 261.023 123.864V124.488C261.023 126.216 259.751 127.368 257.207 127.368H253.583V121.056H257.207ZM264.656 124.368C264.896 127.608 266.792 129.24 269.624 129.24C272.72 129.24 274.52 127.464 274.52 124.056V112.2H272.648V124.056C272.648 126.624 271.52 127.608 269.6 127.608C267.752 127.608 266.672 126.576 266.48 124.368H264.656ZM278.64 129H289.2V127.368H280.512V121.104H287.736V119.496H280.512V113.832H289.2V112.2H278.64V129ZM297.828 129.24C301.236 129.24 303.444 127.296 303.636 123.792H301.812C301.62 126.384 300.204 127.608 297.756 127.608C294.924 127.608 293.532 125.832 293.532 123.12V118.128C293.532 115.368 294.924 113.592 297.804 113.592C300.276 113.592 301.524 115.008 301.812 117.408H303.636C303.348 114.192 301.428 111.96 297.78 111.96C294.06 111.96 291.612 114.072 291.612 118.128V123.096C291.612 127.152 294.036 129.24 297.828 129.24ZM316.892 113.832V112.2H304.988V113.832H310.028V129H311.9V113.832H316.892ZM323.652 113.592C326.076 113.592 327.06 114.72 327.204 117.048H329.004C328.932 113.76 327.156 111.96 323.652 111.96C320.028 111.96 318.492 113.808 318.492 116.232C318.492 118.704 319.596 119.736 322.596 120.816L324.372 121.464C326.748 122.352 327.396 123.12 327.396 124.704C327.396 126.672 326.388 127.608 323.964 127.608C321.396 127.608 320.172 126.48 319.86 124.152H318.06C318.42 127.632 320.364 129.24 323.94 129.24C327.66 129.24 329.316 127.56 329.316 124.632C329.316 122.28 328.356 121.032 325.14 119.832L323.364 119.184C321.108 118.368 320.412 117.816 320.412 116.208C320.412 114.72 321.204 113.592 323.652 113.592Z" fill="white"/>
<path id="64% Debris" d="M62.552 248.24C65.864 248.24 68 246.392 68 243.152V242.576C68 239.432 66.104 237.272 62.552 237.248C61.64 237.248 60.944 237.488 60.488 237.896L65.36 231.2H63.2L59.816 235.976C57.584 239.12 57.104 240.512 57.104 242.576V243.152C57.104 246.392 59.264 248.24 62.552 248.24ZM62.552 238.88C64.976 238.88 66.08 240.368 66.08 242.648V243.08C66.08 245.216 64.976 246.608 62.552 246.608C60.128 246.608 59.024 245.216 59.024 243.08V242.648C59.024 240.368 60.128 238.88 62.552 238.88ZM81.2718 244.472V242.864H79.0398V231.2H76.8318L69.6318 243.032V244.472H77.1678V248H79.0398V244.472H81.2718ZM71.5758 242.864L77.1678 233.696V242.864H71.5758ZM86.2402 238.496C88.4242 238.496 89.8882 237.2 89.8882 235.016V234.536C89.8882 232.376 88.4242 231.056 86.2402 231.056C84.0322 231.056 82.5682 232.376 82.5682 234.56V235.016C82.5682 237.2 84.0322 238.496 86.2402 238.496ZM84.9442 248H86.4082L97.5682 231.2H96.0802L84.9442 248ZM86.2402 232.28C87.7042 232.28 88.4722 233.216 88.4722 234.584V234.992C88.4722 236.336 87.7042 237.296 86.2402 237.296C84.7522 237.296 84.0082 236.36 84.0082 234.992V234.584C84.0082 233.216 84.7522 232.28 86.2402 232.28ZM96.6082 248.144C98.7922 248.144 100.256 246.824 100.256 244.64V244.184C100.256 242.024 98.7922 240.68 96.6082 240.68C94.4002 240.68 92.9362 242.024 92.9362 244.208V244.664C92.9362 246.824 94.4002 248.144 96.6082 248.144ZM96.6082 241.904C98.0722 241.904 98.8162 242.864 98.8162 244.208V244.616C98.8162 245.984 98.0722 246.92 96.6082 246.92C95.1202 246.92 94.3522 245.984 94.3522 244.64V244.232C94.3522 242.864 95.1202 241.904 96.6082 241.904ZM58.16 277H63.824C67.784 277 69.896 274.984 69.896 271.096V266.128C69.896 262.312 67.664 260.2 63.728 260.2H58.16V277ZM63.608 261.832C66.584 261.832 67.976 263.488 67.976 266.104V271.12C67.976 273.784 66.824 275.368 63.68 275.368H60.032V261.832H63.608ZM82.6048 273.496H80.8048C80.6368 274.72 79.8688 275.464 78.5008 275.632C78.3328 275.656 78.1648 275.656 77.9728 275.656C75.9568 275.656 74.9967 274.456 74.9008 272.488C74.8768 272.128 74.8528 271.744 74.8528 271.36H82.6768V270.28C82.6768 266.824 80.8048 265.048 77.9008 265.048C74.8768 265.048 72.9088 266.8 72.9088 270.232V272.056C72.9088 275.488 74.9008 277.24 77.8768 277.24C80.5408 277.24 82.3408 275.92 82.6048 273.496ZM74.8528 269.992C74.8768 267.928 75.8368 266.608 77.9008 266.608C79.9168 266.608 80.8048 267.712 80.9008 270.16H74.9967L74.8528 269.992ZM91.5187 277.24C94.1827 277.24 96.0787 275.488 96.0787 272.056V270.256C96.0787 266.8 94.1827 265.048 91.5187 265.048C89.8387 265.048 88.5427 265.792 87.9187 267.256V259.48H86.0227V277H87.9187V275.104C88.5187 276.424 89.7427 277.24 91.5187 277.24ZM91.0867 275.608C89.1427 275.608 87.9187 274.264 87.9187 272.08V270.376C87.9187 267.928 89.1187 266.68 91.0627 266.68C93.1987 266.68 94.1827 268.096 94.1827 270.28V272.032C94.1827 274.216 93.1987 275.608 91.0867 275.608ZM101.395 270.448C101.395 268.096 102.835 266.872 104.899 266.872H105.523V265.048H104.947C103.387 265.048 102.139 265.792 101.395 267.352V265.288H99.4993V277H101.395V270.448ZM108.802 263.008C109.594 263.008 110.146 262.48 110.146 261.784C110.146 261.088 109.594 260.56 108.802 260.56C108.058 260.56 107.482 261.088 107.482 261.784C107.482 262.48 108.058 263.008 108.802 263.008ZM107.866 277H109.762V265.288H107.866V277ZM117.494 266.512C119.366 266.512 120.182 267.232 120.326 268.792H122.126C122.006 266.392 120.59 265.048 117.494 265.048C114.566 265.048 113.246 266.392 113.246 268.36C113.246 270.328 114.326 271.144 116.51 271.6L118.166 271.936C120.014 272.368 120.518 272.68 120.518 273.904C120.518 275.104 119.774 275.8 117.902 275.8C115.862 275.8 114.878 275.032 114.686 273.256H112.91C113.174 275.992 114.83 277.24 117.854 277.24C120.854 277.24 122.39 276.016 122.39 273.784C122.39 271.816 121.406 271.096 118.718 270.496L117.206 270.16C115.694 269.8 115.118 269.416 115.118 268.312C115.118 267.112 115.79 266.512 117.494 266.512Z" fill="white"/>
<path id="23% Payloads" d="M350.936 192H361.208V190.368H353.552L358.088 185.064C359.96 183.048 360.944 181.728 360.944 179.4C360.944 176.736 359.456 174.96 356.192 174.96C353.072 174.96 351.224 176.808 351.08 180H352.904C353.072 177.744 354.08 176.592 356.168 176.592C358.088 176.592 359.024 177.48 359.024 179.4C359.024 180.96 358.544 181.944 356.816 183.888L350.936 190.536V192ZM368.855 192.384C372.479 192.384 374.135 190.536 374.135 187.344C374.135 185.496 373.415 183.912 371.231 183.264C373.247 182.712 373.727 181.32 373.727 179.424C373.727 176.76 372.263 174.96 368.687 174.96C365.711 174.96 363.911 176.568 363.815 179.448H365.615C365.711 177.6 366.743 176.592 368.687 176.592C370.919 176.592 371.807 177.552 371.807 179.448C371.807 181.584 371.207 182.568 368.351 182.568H367.271V184.08H368.351C371.207 184.08 372.215 185.328 372.215 187.392C372.215 189.696 371.111 190.752 368.855 190.752C366.407 190.752 365.207 189.648 365.111 187.752H363.287C363.431 190.68 365.255 192.384 368.855 192.384ZM379.936 182.496C382.12 182.496 383.584 181.2 383.584 179.016V178.536C383.584 176.376 382.12 175.056 379.936 175.056C377.728 175.056 376.264 176.376 376.264 178.56V179.016C376.264 181.2 377.728 182.496 379.936 182.496ZM378.64 192H380.104L391.264 175.2H389.776L378.64 192ZM379.936 176.28C381.4 176.28 382.168 177.216 382.168 178.584V178.992C382.168 180.336 381.4 181.296 379.936 181.296C378.448 181.296 377.704 180.36 377.704 178.992V178.584C377.704 177.216 378.448 176.28 379.936 176.28ZM390.304 192.144C392.488 192.144 393.952 190.824 393.952 188.64V188.184C393.952 186.024 392.488 184.68 390.304 184.68C388.096 184.68 386.632 186.024 386.632 188.208V188.664C386.632 190.824 388.096 192.144 390.304 192.144ZM390.304 185.904C391.768 185.904 392.512 186.864 392.512 188.208V188.616C392.512 189.984 391.768 190.92 390.304 190.92C388.816 190.92 388.048 189.984 388.048 188.64V188.232C388.048 186.864 388.816 185.904 390.304 185.904ZM356.792 214.256C360.584 214.256 362.648 212.48 362.648 209.744V208.76C362.648 205.88 360.896 204.2 356.744 204.2H352.16V221H354.032V214.256H356.792ZM356.696 205.832C359.672 205.832 360.728 207.008 360.728 208.808V209.696C360.728 211.472 359.48 212.624 356.72 212.624H354.032V205.832H356.696ZM372.045 221H373.917V213.224C373.917 210.368 372.525 209.048 369.645 209.048C366.669 209.048 365.349 210.512 365.061 212.672H366.885C367.029 211.496 367.773 210.68 369.477 210.68C371.349 210.68 372.045 211.448 372.045 213.464V214.448H368.805C365.781 214.448 364.677 215.696 364.677 217.4V218.12C364.677 220.04 366.021 221.24 368.445 221.24C370.341 221.24 371.445 220.616 372.045 219.368V221ZM368.997 219.872C367.341 219.872 366.549 219.2 366.549 217.928V217.424C366.549 216.32 367.173 215.648 368.973 215.648H372.045V216.8C372.045 218.984 370.941 219.872 368.997 219.872ZM376.703 225.92C379.079 225.92 380.159 225.176 381.407 222.224L386.879 209.288H384.935L381.407 217.76L377.855 209.288H375.839L380.471 220.064L379.823 221.6C378.839 223.952 378.095 224.288 376.703 224.288H375.983V225.92H376.703ZM391.081 218.072V203.48H389.185V218.096C389.185 220.472 390.097 221.12 392.305 221.12H392.737V219.488H392.377C391.417 219.488 391.081 219.176 391.081 218.072ZM399.839 221.24C402.887 221.24 404.879 219.488 404.879 216.056V214.232C404.879 210.8 402.887 209.048 399.839 209.048C396.791 209.048 394.823 210.8 394.823 214.232V216.056C394.823 219.488 396.791 221.24 399.839 221.24ZM399.839 210.68C401.975 210.68 402.959 212.096 402.959 214.232V216.032C402.959 218.216 401.975 219.608 399.839 219.608C397.703 219.608 396.743 218.216 396.743 216.032V214.232C396.743 212.096 397.703 210.68 399.839 210.68ZM414.889 221H416.761V213.224C416.761 210.368 415.369 209.048 412.489 209.048C409.513 209.048 408.193 210.512 407.905 212.672H409.729C409.873 211.496 410.617 210.68 412.321 210.68C414.193 210.68 414.889 211.448 414.889 213.464V214.448H411.649C408.625 214.448 407.521 215.696 407.521 217.4V218.12C407.521 220.04 408.865 221.24 411.289 221.24C413.185 221.24 414.289 220.616 414.889 219.368V221ZM411.841 219.872C410.185 219.872 409.393 219.2 409.393 217.928V217.424C409.393 216.32 410.017 215.648 411.817 215.648H414.889V216.8C414.889 218.984 413.785 219.872 411.841 219.872ZM428.015 221H429.887V203.48H428.015V211.184C427.391 209.84 426.167 209.048 424.415 209.048C421.727 209.048 419.855 210.8 419.855 214.256V216.056C419.855 219.488 421.727 221.24 424.415 221.24C426.095 221.24 427.367 220.52 428.015 219.08V221ZM424.847 210.68C426.791 210.68 428.015 212.048 428.015 214.208V215.912C428.015 218.384 426.815 219.608 424.871 219.608C422.735 219.608 421.751 218.216 421.751 216.008V214.256C421.751 212.096 422.735 210.68 424.847 210.68ZM437.604 210.512C439.476 210.512 440.292 211.232 440.436 212.792H442.236C442.116 210.392 440.7 209.048 437.604 209.048C434.676 209.048 433.356 210.392 433.356 212.36C433.356 214.328 434.436 215.144 436.62 215.6L438.276 215.936C440.124 216.368 440.628 216.68 440.628 217.904C440.628 219.104 439.884 219.8 438.012 219.8C435.972 219.8 434.988 219.032 434.796 217.256H433.02C433.284 219.992 434.94 221.24 437.964 221.24C440.964 221.24 442.5 220.016 442.5 217.784C442.5 215.816 441.516 215.096 438.828 214.496L437.316 214.16C435.804 213.8 435.228 213.416 435.228 212.312C435.228 211.112 435.9 210.512 437.604 210.512Z" fill="white"/>
<path id="12% Rocket bodies" d="M354.2 254.2L350.48 255.496V257.128L354.008 255.976V271H355.88V254.2H354.2ZM359.116 271H369.388V269.368H361.732L366.268 264.064C368.14 262.048 369.124 260.728 369.124 258.4C369.124 255.736 367.636 253.96 364.372 253.96C361.252 253.96 359.404 255.808 359.26 259H361.084C361.252 256.744 362.26 255.592 364.348 255.592C366.268 255.592 367.204 256.48 367.204 258.4C367.204 259.96 366.724 260.944 364.996 262.888L359.116 269.536V271ZM374.803 261.496C376.987 261.496 378.451 260.2 378.451 258.016V257.536C378.451 255.376 376.987 254.056 374.803 254.056C372.595 254.056 371.131 255.376 371.131 257.56V258.016C371.131 260.2 372.595 261.496 374.803 261.496ZM373.507 271H374.971L386.131 254.2H384.643L373.507 271ZM374.803 255.28C376.267 255.28 377.035 256.216 377.035 257.584V257.992C377.035 259.336 376.267 260.296 374.803 260.296C373.315 260.296 372.571 259.36 372.571 257.992V257.584C372.571 256.216 373.315 255.28 374.803 255.28ZM385.171 271.144C387.355 271.144 388.819 269.824 388.819 267.64V267.184C388.819 265.024 387.355 263.68 385.171 263.68C382.963 263.68 381.499 265.024 381.499 267.208V267.664C381.499 269.824 382.963 271.144 385.171 271.144ZM385.171 264.904C386.635 264.904 387.379 265.864 387.379 267.208V267.616C387.379 268.984 386.635 269.92 385.171 269.92C383.683 269.92 382.915 268.984 382.915 267.64V267.232C382.915 265.864 383.683 264.904 385.171 264.904ZM354.032 293.256H356.96L361.16 300H363.272L358.832 292.968C361.376 292.464 362.648 290.88 362.648 288.744V287.76C362.648 284.88 360.896 283.2 356.744 283.2H352.16V300H354.032V293.256ZM356.696 284.832C359.672 284.832 360.728 286.008 360.728 287.808V288.696C360.728 290.472 359.48 291.624 356.72 291.624H354.032V284.832H356.696ZM370.331 300.24C373.379 300.24 375.371 298.488 375.371 295.056V293.232C375.371 289.8 373.379 288.048 370.331 288.048C367.283 288.048 365.315 289.8 365.315 293.232V295.056C365.315 298.488 367.283 300.24 370.331 300.24ZM370.331 289.68C372.467 289.68 373.451 291.096 373.451 293.232V295.032C373.451 297.216 372.467 298.608 370.331 298.608C368.195 298.608 367.235 297.216 367.235 295.032V293.232C367.235 291.096 368.195 289.68 370.331 289.68ZM383.173 298.608C381.109 298.608 380.149 297.264 380.149 295.032V293.28C380.149 291.024 381.061 289.68 383.149 289.68C384.757 289.68 385.621 290.472 385.837 291.96H387.661C387.517 289.608 385.981 288.048 383.149 288.048C380.197 288.048 378.229 289.8 378.229 293.256V295.08C378.229 298.488 380.173 300.24 383.125 300.24C385.741 300.24 387.421 298.92 387.781 296.352H385.981C385.693 297.888 384.877 298.608 383.173 298.608ZM398.628 300H400.956L395.94 293.064L400.164 288.288H398.028L392.7 294.288V282.48H390.804V300H392.7V296.736L394.692 294.48L398.628 300ZM411.738 296.496H409.938C409.77 297.72 409.002 298.464 407.634 298.632C407.466 298.656 407.298 298.656 407.106 298.656C405.09 298.656 404.13 297.456 404.034 295.488C404.01 295.128 403.986 294.744 403.986 294.36H411.81V293.28C411.81 289.824 409.938 288.048 407.034 288.048C404.01 288.048 402.042 289.8 402.042 293.232V295.056C402.042 298.488 404.034 300.24 407.01 300.24C409.674 300.24 411.474 298.92 411.738 296.496ZM403.986 292.992C404.01 290.928 404.97 289.608 407.034 289.608C409.05 289.608 409.938 290.712 410.034 293.16H404.13L403.986 292.992ZM421.012 298.536H419.644C418.06 298.536 417.508 297.864 417.508 296.544V289.872H421.012V288.288H417.508V284.832H415.636V288.288H413.812V289.872H415.636V296.52C415.636 299.04 416.715 300.12 419.308 300.12H421.012V298.536ZM357.464 329.24C360.128 329.24 362.024 327.488 362.024 324.056V322.256C362.024 318.8 360.128 317.048 357.464 317.048C355.784 317.048 354.488 317.792 353.864 319.256V311.48H351.968V329H353.864V327.104C354.464 328.424 355.688 329.24 357.464 329.24ZM357.032 327.608C355.088 327.608 353.864 326.264 353.864 324.08V322.376C353.864 319.928 355.064 318.68 357.008 318.68C359.144 318.68 360.128 320.096 360.128 322.28V324.032C360.128 326.216 359.144 327.608 357.032 327.608ZM369.862 329.24C372.91 329.24 374.902 327.488 374.902 324.056V322.232C374.902 318.8 372.91 317.048 369.862 317.048C366.814 317.048 364.846 318.8 364.846 322.232V324.056C364.846 327.488 366.814 329.24 369.862 329.24ZM369.862 318.68C371.998 318.68 372.982 320.096 372.982 322.232V324.032C372.982 326.216 371.998 327.608 369.862 327.608C367.726 327.608 366.766 326.216 366.766 324.032V322.232C366.766 320.096 367.726 318.68 369.862 318.68ZM385.897 329H387.769V311.48H385.897V319.184C385.273 317.84 384.049 317.048 382.297 317.048C379.609 317.048 377.737 318.8 377.737 322.256V324.056C377.737 327.488 379.609 329.24 382.297 329.24C383.977 329.24 385.249 328.52 385.897 327.08V329ZM382.729 318.68C384.673 318.68 385.897 320.048 385.897 322.208V323.912C385.897 326.384 384.697 327.608 382.753 327.608C380.617 327.608 379.633 326.216 379.633 324.008V322.256C379.633 320.096 380.617 318.68 382.729 318.68ZM392.631 315.008C393.423 315.008 393.975 314.48 393.975 313.784C393.975 313.088 393.423 312.56 392.631 312.56C391.887 312.56 391.311 313.088 391.311 313.784C391.311 314.48 391.887 315.008 392.631 315.008ZM391.695 329H393.591V317.288H391.695V329ZM406.699 325.496H404.899C404.731 326.72 403.963 327.464 402.595 327.632C402.427 327.656 402.259 327.656 402.067 327.656C400.051 327.656 399.09 326.456 398.995 324.488C398.971 324.128 398.947 323.744 398.947 323.36H406.771V322.28C406.771 318.824 404.899 317.048 401.995 317.048C398.971 317.048 397.003 318.8 397.003 322.232V324.056C397.003 327.488 398.995 329.24 401.971 329.24C404.635 329.24 406.435 327.92 406.699 325.496ZM398.947 321.992C398.971 319.928 399.931 318.608 401.995 318.608C404.011 318.608 404.899 319.712 404.995 322.16H399.09L398.947 321.992ZM413.908 318.512C415.78 318.512 416.596 319.232 416.74 320.792H418.54C418.42 318.392 417.004 317.048 413.908 317.048C410.98 317.048 409.66 318.392 409.66 320.36C409.66 322.328 410.74 323.144 412.924 323.6L414.58 323.936C416.428 324.368 416.932 324.68 416.932 325.904C416.932 327.104 416.188 327.8 414.316 327.8C412.276 327.8 411.292 327.032 411.1 325.256H409.324C409.588 327.992 411.244 329.24 414.268 329.24C417.268 329.24 418.804 328.016 418.804 325.784C418.804 323.816 417.82 323.096 415.132 322.496L413.62 322.16C412.108 321.8 411.532 321.416 411.532 320.312C411.532 319.112 412.204 318.512 413.908 318.512Z" fill="white"/>
<path id="1% TBA" d="M354.2 367.2L350.48 368.496V370.128L354.008 368.976V384H355.88V367.2H354.2ZM362.428 374.496C364.612 374.496 366.076 373.2 366.076 371.016V370.536C366.076 368.376 364.612 367.056 362.428 367.056C360.22 367.056 358.756 368.376 358.756 370.56V371.016C358.756 373.2 360.22 374.496 362.428 374.496ZM361.132 384H362.596L373.756 367.2H372.268L361.132 384ZM362.428 368.28C363.892 368.28 364.66 369.216 364.66 370.584V370.992C364.66 372.336 363.892 373.296 362.428 373.296C360.94 373.296 360.196 372.36 360.196 370.992V370.584C360.196 369.216 360.94 368.28 362.428 368.28ZM372.796 384.144C374.98 384.144 376.444 382.824 376.444 380.64V380.184C376.444 378.024 374.98 376.68 372.796 376.68C370.588 376.68 369.124 378.024 369.124 380.208V380.664C369.124 382.824 370.588 384.144 372.796 384.144ZM372.796 377.904C374.26 377.904 375.004 378.864 375.004 380.208V380.616C375.004 381.984 374.26 382.92 372.796 382.92C371.308 382.92 370.54 381.984 370.54 380.64V380.232C370.54 378.864 371.308 377.904 372.796 377.904ZM362.216 397.832V396.2H350.312V397.832H355.352V413H357.224V397.832H362.216ZM364.699 413H370.315C373.627 413 375.907 411.488 375.907 408.512V407.888C375.907 405.896 374.803 404.672 372.859 404.144C374.251 403.568 375.091 402.536 375.091 401.024V400.352C375.091 397.592 373.219 396.2 369.643 396.2H364.699V413ZM369.595 397.832C372.043 397.832 373.171 398.696 373.171 400.4V401.024C373.171 402.512 372.043 403.544 369.739 403.544H366.571V397.832H369.595ZM370.195 405.056C372.739 405.056 374.011 406.136 374.011 407.864V408.488C374.011 410.216 372.739 411.368 370.195 411.368H366.571V405.056H370.195ZM389.933 413H391.973L385.781 396.2H383.813L377.573 413H379.541L381.149 408.632H388.349L389.933 413ZM387.797 407.024H381.653L384.725 398.528L387.797 407.024Z" fill="white"/>
<line id="Line 15" x1="164" y1="238.5" x2="115" y2="238.5" stroke="white"/>
<line id="Line 16" x1="333.002" y1="195.354" x2="298.354" y2="230.002" stroke="white"/>
<line id="Line 18" x1="343.646" y1="367.354" x2="297.646" y2="321.354" stroke="white"/>
<line id="Line 17" x1="339.824" y1="286.824" x2="290.824" y2="286.824" stroke="white"/>
<g id="Group 286">
<g id="pie">
<path id="Vector" d="M299.864 322.919C291.117 333.173 279.921 341.051 267.315 345.822C254.709 350.592 241.103 352.1 227.758 350.206C214.414 348.312 201.764 343.077 190.983 334.987C180.203 326.897 171.641 316.215 166.093 303.932C160.545 291.648 158.19 278.162 159.247 264.725C160.304 251.289 164.739 238.337 172.14 227.072C179.541 215.808 189.668 206.595 201.581 200.291C213.494 193.987 226.806 190.794 240.283 191.01L239 271L299.864 322.919Z" fill="#F2C94C"/>
<path id="Vector_2" d="M240.283 191.01C259.902 191.325 278.72 198.838 293.161 212.122C307.602 225.405 316.657 243.533 318.605 263.057L239.001 271L240.283 191.01Z" fill="#4F4F4F"/>
<path id="Vector_3" d="M318.605 263.057C320.66 283.653 314.652 304.245 301.843 320.505L239 271L318.605 263.057Z" fill="#9B51E0"/>
<path id="Vector_4" d="M301.843 320.505C301.199 321.322 300.54 322.127 299.864 322.919L239 271L301.843 320.505Z" fill="#2F80ED"/>
</g>
<circle id="Ellipse 1" cx="238.669" cy="271.026" r="38.2382" transform="rotate(10.465 238.669 271.026)" fill="black"/>
</g>
</g>
</g>
</g>
</svg>
