<svg width="600" height="13" viewBox="0 0 600 13" fill="none" xmlns="http://www.w3.org/2000/svg">
<rect width="600" height="13" fill="black"/>
<path d="M8 9V12H590V9" stroke="#828282" stroke-width="0.5"/>
<path d="M33 12V9" stroke="#828282" stroke-width="0.5"/>
<path d="M51 12V9" stroke="#828282" stroke-width="0.5"/>
<path d="M94 12V9" stroke="#828282" stroke-width="0.5"/>
<path d="M138 12V9" stroke="#828282" stroke-width="0.5"/>
<path d="M181 12V9" stroke="#828282" stroke-width="0.5"/>
<path d="M224 12V9" stroke="#828282" stroke-width="0.5"/>
<path d="M267 12V9" stroke="#828282" stroke-width="0.5"/>
<path d="M311 12V9" stroke="#828282" stroke-width="0.5"/>
<path d="M354 12V9" stroke="#828282" stroke-width="0.5"/>
<path d="M397 12V9" stroke="#828282" stroke-width="0.5"/>
<path d="M440 12V9" stroke="#828282" stroke-width="0.5"/>
<path d="M483 12V9" stroke="#828282" stroke-width="0.5"/>
<path d="M527 12V9" stroke="#828282" stroke-width="0.5"/>
<path d="M570 12V9" stroke="#828282" stroke-width="0.5"/>
<path d="M3.35331 4.08L2.46851 4.3936V4.8752L3.30291 4.5952V8H3.85171V4.08H3.35331ZM5.83569 8L6.60289 6.908C7.11809 6.1744 7.21889 5.8328 7.21889 5.3568V5.2224C7.21889 4.4552 6.70929 4.024 5.91969 4.024C5.12449 4.024 4.60929 4.4552 4.60929 5.2224V5.3568C4.60929 6.1072 5.05729 6.6112 5.91409 6.6112C6.07649 6.6168 6.20529 6.572 6.28929 6.5048L5.19729 8H5.83569ZM5.91969 6.1352C5.40449 6.1352 5.17489 5.8216 5.17489 5.3344V5.2448C5.17489 4.7968 5.40449 4.5 5.91969 4.5C6.42929 4.5 6.65889 4.7968 6.65889 5.2448V5.3344C6.65889 5.8216 6.42929 6.1352 5.91969 6.1352ZM9.0374 8.0896C9.8102 8.0896 10.2806 7.636 10.2806 6.9696V6.684C10.2806 5.8832 9.799 5.5136 8.8694 5.5136H8.4942V4.556H10.079V4.08H7.9622V5.9896H8.847C9.4406 5.9896 9.715 6.2192 9.715 6.6952V6.9584C9.715 7.3952 9.4294 7.6136 9.015 7.6136C8.6118 7.6136 8.3598 7.4064 8.3262 6.992H7.7886C7.8166 7.6864 8.2478 8.0896 9.0374 8.0896ZM12.1272 8.0896C12.9 8.0896 13.3704 7.636 13.3704 6.9696V6.684C13.3704 5.8832 12.8888 5.5136 11.9592 5.5136H11.584V4.556H13.1688V4.08H11.052V5.9896H11.9368C12.5304 5.9896 12.8048 6.2192 12.8048 6.6952V6.9584C12.8048 7.3952 12.5192 7.6136 12.1048 7.6136C11.7016 7.6136 11.4496 7.4064 11.416 6.992H10.8784C10.9064 7.6864 11.3376 8.0896 12.1272 8.0896Z" fill="#828282"/>
<path d="M46.1592 4.08L45.2744 4.3936V4.8752L46.1088 4.5952V8H46.6576V4.08H46.1592ZM48.6415 8L49.4087 6.908C49.9239 6.1744 50.0247 5.8328 50.0247 5.3568V5.2224C50.0247 4.4552 49.5151 4.024 48.7255 4.024C47.9303 4.024 47.4151 4.4552 47.4151 5.2224V5.3568C47.4151 6.1072 47.8631 6.6112 48.7199 6.6112C48.8823 6.6168 49.0111 6.572 49.0951 6.5048L48.0031 8H48.6415ZM48.7255 6.1352C48.2103 6.1352 47.9807 5.8216 47.9807 5.3344V5.2448C47.9807 4.7968 48.2103 4.5 48.7255 4.5C49.2351 4.5 49.4647 4.7968 49.4647 5.2448V5.3344C49.4647 5.8216 49.2351 6.1352 48.7255 6.1352ZM51.8433 8.056C52.6385 8.056 53.1481 7.6248 53.1481 6.8576V6.7232C53.1481 5.9728 52.7001 5.4688 51.8433 5.4688C51.6809 5.4632 51.5521 5.508 51.4681 5.5752L52.5657 4.08H51.9273L51.1545 5.172C50.6393 5.9056 50.5385 6.2472 50.5385 6.7232V6.8576C50.5385 7.6248 51.0537 8.056 51.8433 8.056ZM51.8433 5.9448C52.3585 5.9448 52.5881 6.2584 52.5881 6.7456V6.8352C52.5881 7.2832 52.3585 7.58 51.8433 7.58C51.3337 7.58 51.0985 7.2832 51.0985 6.8352V6.7456C51.0985 6.2584 51.3337 5.9448 51.8433 5.9448ZM55.112 8.056C55.9352 8.056 56.4224 7.6024 56.4224 6.8016V5.2784C56.4224 4.4776 55.9352 4.024 55.112 4.024C54.2944 4.024 53.8072 4.4776 53.8072 5.284V6.8016C53.8072 7.608 54.2944 8.056 55.112 8.056ZM55.112 4.5C55.6328 4.5 55.8568 4.8136 55.8568 5.2896V6.7904C55.8568 7.2664 55.6328 7.58 55.112 7.58C54.5968 7.58 54.3728 7.2664 54.3728 6.7904V5.2952C54.3728 4.8136 54.5968 4.5 55.112 4.5Z" fill="white"/>
<path d="M29.0885 4.08L28.2037 4.3936V4.8752L29.0381 4.5952V8H29.5869V4.08H29.0885ZM31.5708 8L32.338 6.908C32.8532 6.1744 32.954 5.8328 32.954 5.3568V5.2224C32.954 4.4552 32.4444 4.024 31.6548 4.024C30.8596 4.024 30.3444 4.4552 30.3444 5.2224V5.3568C30.3444 6.1072 30.7924 6.6112 31.6492 6.6112C31.8116 6.6168 31.9404 6.572 32.0244 6.5048L30.9324 8H31.5708ZM31.6548 6.1352C31.1396 6.1352 30.91 5.8216 30.91 5.3344V5.2448C30.91 4.7968 31.1396 4.5 31.6548 4.5C32.1644 4.5 32.394 4.7968 32.394 5.2448V5.3344C32.394 5.8216 32.1644 6.1352 31.6548 6.1352ZM34.7726 8.0896C35.5454 8.0896 36.0158 7.636 36.0158 6.9696V6.684C36.0158 5.8832 35.5342 5.5136 34.6046 5.5136H34.2294V4.556H35.8142V4.08H33.6974V5.9896H34.5822C35.1758 5.9896 35.4502 6.2192 35.4502 6.6952V6.9584C35.4502 7.3952 35.1646 7.6136 34.7502 7.6136C34.347 7.6136 34.095 7.4064 34.0614 6.992H33.5238C33.5518 7.6864 33.983 8.0896 34.7726 8.0896ZM37.4312 8L38.7584 4.556V4.08H36.4008V4.556H38.1984L36.832 8H37.4312Z" fill="white"/>
<path d="M89.3478 4.08L88.463 4.3936V4.8752L89.2974 4.5952V8H89.8462V4.08H89.3478ZM91.8302 8L92.5974 6.908C93.1126 6.1744 93.2134 5.8328 93.2134 5.3568V5.2224C93.2134 4.4552 92.7038 4.024 91.9142 4.024C91.119 4.024 90.6038 4.4552 90.6038 5.2224V5.3568C90.6038 6.1072 91.0518 6.6112 91.9086 6.6112C92.071 6.6168 92.1998 6.572 92.2838 6.5048L91.1918 8H91.8302ZM91.9142 6.1352C91.399 6.1352 91.1694 5.8216 91.1694 5.3344V5.2448C91.1694 4.7968 91.399 4.5 91.9142 4.5C92.4238 4.5 92.6534 4.7968 92.6534 5.2448V5.3344C92.6534 5.8216 92.4238 6.1352 91.9142 6.1352ZM95.0319 8.056C95.8271 8.056 96.3367 7.6248 96.3367 6.8576V6.7232C96.3367 5.9728 95.8887 5.4688 95.0319 5.4688C94.8695 5.4632 94.7407 5.508 94.6567 5.5752L95.7543 4.08H95.1159L94.3431 5.172C93.8279 5.9056 93.7271 6.2472 93.7271 6.7232V6.8576C93.7271 7.6248 94.2423 8.056 95.0319 8.056ZM95.0319 5.9448C95.5471 5.9448 95.7767 6.2584 95.7767 6.7456V6.8352C95.7767 7.2832 95.5471 7.58 95.0319 7.58C94.5223 7.58 94.2871 7.2832 94.2871 6.8352V6.7456C94.2871 6.2584 94.5223 5.9448 95.0319 5.9448ZM98.1327 8.0896C98.9055 8.0896 99.3759 7.636 99.3759 6.9696V6.684C99.3759 5.8832 98.8943 5.5136 97.9647 5.5136H97.5895V4.556H99.1743V4.08H97.0575V5.9896H97.9423C98.5359 5.9896 98.8103 6.2192 98.8103 6.6952V6.9584C98.8103 7.3952 98.5247 7.6136 98.1103 7.6136C97.7071 7.6136 97.4551 7.4064 97.4215 6.992H96.8839C96.9119 7.6864 97.3431 8.0896 98.1327 8.0896Z" fill="white"/>
<path d="M132.9 4.08L132.015 4.3936V4.8752L132.849 4.5952V8H133.398V4.08H132.9ZM135.382 8L136.149 6.908C136.665 6.1744 136.765 5.8328 136.765 5.3568V5.2224C136.765 4.4552 136.256 4.024 135.466 4.024C134.671 4.024 134.156 4.4552 134.156 5.2224V5.3568C134.156 6.1072 134.604 6.6112 135.461 6.6112C135.623 6.6168 135.752 6.572 135.836 6.5048L134.744 8H135.382ZM135.466 6.1352C134.951 6.1352 134.721 5.8216 134.721 5.3344V5.2448C134.721 4.7968 134.951 4.5 135.466 4.5C135.976 4.5 136.205 4.7968 136.205 5.2448V5.3344C136.205 5.8216 135.976 6.1352 135.466 6.1352ZM138.153 8L139.48 4.556V4.08H137.122V4.556H138.92L137.553 8H138.153ZM141.371 8.056C142.195 8.056 142.682 7.6024 142.682 6.8016V5.2784C142.682 4.4776 142.195 4.024 141.371 4.024C140.554 4.024 140.067 4.4776 140.067 5.284V6.8016C140.067 7.608 140.554 8.056 141.371 8.056ZM141.371 4.5C141.892 4.5 142.116 4.8136 142.116 5.2896V6.7904C142.116 7.2664 141.892 7.58 141.371 7.58C140.856 7.58 140.632 7.2664 140.632 6.7904V5.2952C140.632 4.8136 140.856 4.5 141.371 4.5Z" fill="white"/>
<path d="M176.588 4.08L175.704 4.3936V4.8752L176.538 4.5952V8H177.087V4.08H176.588ZM179.071 8L179.838 6.908C180.353 6.1744 180.454 5.8328 180.454 5.3568V5.2224C180.454 4.4552 179.944 4.024 179.155 4.024C178.36 4.024 177.844 4.4552 177.844 5.2224V5.3568C177.844 6.1072 178.292 6.6112 179.149 6.6112C179.312 6.6168 179.44 6.572 179.524 6.5048L178.432 8H179.071ZM179.155 6.1352C178.64 6.1352 178.41 5.8216 178.41 5.3344V5.2448C178.41 4.7968 178.64 4.5 179.155 4.5C179.664 4.5 179.894 4.7968 179.894 5.2448V5.3344C179.894 5.8216 179.664 6.1352 179.155 6.1352ZM181.841 8L183.169 4.556V4.08H180.811V4.556H182.609L181.242 8H181.841ZM184.892 8.0896C185.665 8.0896 186.135 7.636 186.135 6.9696V6.684C186.135 5.8832 185.654 5.5136 184.724 5.5136H184.349V4.556H185.934V4.08H183.817V5.9896H184.702C185.295 5.9896 185.57 6.2192 185.57 6.6952V6.9584C185.57 7.3952 185.284 7.6136 184.87 7.6136C184.466 7.6136 184.214 7.4064 184.181 6.992H183.643C183.671 7.6864 184.102 8.0896 184.892 8.0896Z" fill="white"/>
<path d="M219.039 4.08L218.154 4.3936V4.8752L218.988 4.5952V8H219.537V4.08H219.039ZM221.521 8L222.288 6.908C222.804 6.1744 222.904 5.8328 222.904 5.3568V5.2224C222.904 4.4552 222.395 4.024 221.605 4.024C220.81 4.024 220.295 4.4552 220.295 5.2224V5.3568C220.295 6.1072 220.743 6.6112 221.6 6.6112C221.762 6.6168 221.891 6.572 221.975 6.5048L220.883 8H221.521ZM221.605 6.1352C221.09 6.1352 220.86 5.8216 220.86 5.3344V5.2448C220.86 4.7968 221.09 4.5 221.605 4.5C222.115 4.5 222.344 4.7968 222.344 5.2448V5.3344C222.344 5.8216 222.115 6.1352 221.605 6.1352ZM224.829 8.056C225.697 8.056 226.157 7.6192 226.157 6.9528V6.824C226.157 6.3984 225.938 6.096 225.574 5.9504C225.882 5.8048 226.045 5.5304 226.045 5.1776V5.0432C226.045 4.3824 225.569 4.024 224.841 4.024C224.096 4.024 223.62 4.3824 223.62 5.0432V5.1776C223.62 5.5304 223.782 5.8048 224.096 5.9504C223.726 6.1016 223.508 6.3984 223.508 6.824V6.9528C223.508 7.6192 223.967 8.056 224.829 8.056ZM224.852 4.5C225.272 4.5 225.485 4.724 225.485 5.0656V5.1552C225.485 5.5136 225.272 5.7264 224.813 5.7264C224.393 5.7264 224.18 5.5136 224.18 5.1552V5.0656C224.18 4.724 224.393 4.5 224.852 4.5ZM224.846 6.2024C225.35 6.2024 225.597 6.4544 225.597 6.8408V6.9304C225.597 7.328 225.356 7.58 224.818 7.58C224.314 7.58 224.068 7.328 224.068 6.9304V6.8408C224.068 6.4544 224.309 6.2024 224.846 6.2024ZM228.232 8.056C229.056 8.056 229.543 7.6024 229.543 6.8016V5.2784C229.543 4.4776 229.056 4.024 228.232 4.024C227.415 4.024 226.928 4.4776 226.928 5.284V6.8016C226.928 7.608 227.415 8.056 228.232 8.056ZM228.232 4.5C228.753 4.5 228.977 4.8136 228.977 5.2896V6.7904C228.977 7.2664 228.753 7.58 228.232 7.58C227.717 7.58 227.493 7.2664 227.493 6.7904V5.2952C227.493 4.8136 227.717 4.5 228.232 4.5Z" fill="white"/>
<path d="M262.228 4.08L261.343 4.3936V4.8752L262.177 4.5952V8H262.726V4.08H262.228ZM264.71 8L265.477 6.908C265.992 6.1744 266.093 5.8328 266.093 5.3568V5.2224C266.093 4.4552 265.584 4.024 264.794 4.024C263.999 4.024 263.484 4.4552 263.484 5.2224V5.3568C263.484 6.1072 263.932 6.6112 264.788 6.6112C264.951 6.6168 265.08 6.572 265.164 6.5048L264.072 8H264.71ZM264.794 6.1352C264.279 6.1352 264.049 5.8216 264.049 5.3344V5.2448C264.049 4.7968 264.279 4.5 264.794 4.5C265.304 4.5 265.533 4.7968 265.533 5.2448V5.3344C265.533 5.8216 265.304 6.1352 264.794 6.1352ZM268.018 8.056C268.886 8.056 269.345 7.6192 269.345 6.9528V6.824C269.345 6.3984 269.127 6.096 268.763 5.9504C269.071 5.8048 269.233 5.5304 269.233 5.1776V5.0432C269.233 4.3824 268.757 4.024 268.029 4.024C267.284 4.024 266.808 4.3824 266.808 5.0432V5.1776C266.808 5.5304 266.971 5.8048 267.284 5.9504C266.915 6.1016 266.696 6.3984 266.696 6.824V6.9528C266.696 7.6192 267.156 8.056 268.018 8.056ZM268.04 4.5C268.46 4.5 268.673 4.724 268.673 5.0656V5.1552C268.673 5.5136 268.46 5.7264 268.001 5.7264C267.581 5.7264 267.368 5.5136 267.368 5.1552V5.0656C267.368 4.724 267.581 4.5 268.04 4.5ZM268.035 6.2024C268.539 6.2024 268.785 6.4544 268.785 6.8408V6.9304C268.785 7.328 268.544 7.58 268.007 7.58C267.503 7.58 267.256 7.328 267.256 6.9304V6.8408C267.256 6.4544 267.497 6.2024 268.035 6.2024ZM271.253 8.0896C272.026 8.0896 272.496 7.636 272.496 6.9696V6.684C272.496 5.8832 272.015 5.5136 271.085 5.5136H270.71V4.556H272.295V4.08H270.178V5.9896H271.063C271.656 5.9896 271.931 6.2192 271.931 6.6952V6.9584C271.931 7.3952 271.645 7.6136 271.231 7.6136C270.827 7.6136 270.575 7.4064 270.542 6.992H270.004C270.032 7.6864 270.463 8.0896 271.253 8.0896Z" fill="white"/>
<path d="M306.162 4.08L305.277 4.3936V4.8752L306.112 4.5952V8H306.66V4.08H306.162ZM308.644 8L309.411 6.908C309.927 6.1744 310.027 5.8328 310.027 5.3568V5.2224C310.027 4.4552 309.518 4.024 308.728 4.024C307.933 4.024 307.418 4.4552 307.418 5.2224V5.3568C307.418 6.1072 307.866 6.6112 308.723 6.6112C308.885 6.6168 309.014 6.572 309.098 6.5048L308.006 8H308.644ZM308.728 6.1352C308.213 6.1352 307.983 5.8216 307.983 5.3344V5.2448C307.983 4.7968 308.213 4.5 308.728 4.5C309.238 4.5 309.467 4.7968 309.467 5.2448V5.3344C309.467 5.8216 309.238 6.1352 308.728 6.1352ZM311.74 8L312.507 6.908C313.022 6.1744 313.123 5.8328 313.123 5.3568V5.2224C313.123 4.4552 312.613 4.024 311.824 4.024C311.028 4.024 310.513 4.4552 310.513 5.2224V5.3568C310.513 6.1072 310.961 6.6112 311.818 6.6112C311.98 6.6168 312.109 6.572 312.193 6.5048L311.101 8H311.74ZM311.824 6.1352C311.308 6.1352 311.079 5.8216 311.079 5.3344V5.2448C311.079 4.7968 311.308 4.5 311.824 4.5C312.333 4.5 312.563 4.7968 312.563 5.2448V5.3344C312.563 5.8216 312.333 6.1352 311.824 6.1352ZM315.109 8.056C315.933 8.056 316.42 7.6024 316.42 6.8016V5.2784C316.42 4.4776 315.933 4.024 315.109 4.024C314.292 4.024 313.805 4.4776 313.805 5.284V6.8016C313.805 7.608 314.292 8.056 315.109 8.056ZM315.109 4.5C315.63 4.5 315.854 4.8136 315.854 5.2896V6.7904C315.854 7.2664 315.63 7.58 315.109 7.58C314.594 7.58 314.37 7.2664 314.37 6.7904V5.2952C314.37 4.8136 314.594 4.5 315.109 4.5Z" fill="white"/>
<path d="M349.351 4.08L348.466 4.3936V4.8752L349.3 4.5952V8H349.849V4.08H349.351ZM351.833 8L352.6 6.908C353.115 6.1744 353.216 5.8328 353.216 5.3568V5.2224C353.216 4.4552 352.707 4.024 351.917 4.024C351.122 4.024 350.607 4.4552 350.607 5.2224V5.3568C350.607 6.1072 351.055 6.6112 351.911 6.6112C352.074 6.6168 352.203 6.572 352.287 6.5048L351.195 8H351.833ZM351.917 6.1352C351.402 6.1352 351.172 5.8216 351.172 5.3344V5.2448C351.172 4.7968 351.402 4.5 351.917 4.5C352.427 4.5 352.656 4.7968 352.656 5.2448V5.3344C352.656 5.8216 352.427 6.1352 351.917 6.1352ZM354.928 8L355.695 6.908C356.211 6.1744 356.311 5.8328 356.311 5.3568V5.2224C356.311 4.4552 355.802 4.024 355.012 4.024C354.217 4.024 353.702 4.4552 353.702 5.2224V5.3568C353.702 6.1072 354.15 6.6112 355.007 6.6112C355.169 6.6168 355.298 6.572 355.382 6.5048L354.29 8H354.928ZM355.012 6.1352C354.497 6.1352 354.267 5.8216 354.267 5.3344V5.2448C354.267 4.7968 354.497 4.5 355.012 4.5C355.522 4.5 355.751 4.7968 355.751 5.2448V5.3344C355.751 5.8216 355.522 6.1352 355.012 6.1352ZM358.13 8.0896C358.903 8.0896 359.373 7.636 359.373 6.9696V6.684C359.373 5.8832 358.892 5.5136 357.962 5.5136H357.587V4.556H359.172V4.08H357.055V5.9896H357.94C358.533 5.9896 358.808 6.2192 358.808 6.6952V6.9584C358.808 7.3952 358.522 7.6136 358.108 7.6136C357.704 7.6136 357.452 7.4064 357.419 6.992H356.881C356.909 7.6864 357.34 8.0896 358.13 8.0896Z" fill="white"/>
<path d="M390.03 8H392.505V7.524H390.803L391.733 6.4656C392.22 5.9616 392.455 5.6536 392.455 5.0992C392.455 4.4496 392.091 4.024 391.296 4.024C390.54 4.024 390.097 4.472 390.064 5.228H390.601C390.641 4.7408 390.848 4.5 391.285 4.5C391.699 4.5 391.889 4.6904 391.889 5.0992C391.889 5.4296 391.8 5.6368 391.369 6.096L390.03 7.5632V8ZM394.523 8.056C395.346 8.056 395.833 7.6024 395.833 6.8016V5.2784C395.833 4.4776 395.346 4.024 394.523 4.024C393.705 4.024 393.218 4.4776 393.218 5.284V6.8016C393.218 7.608 393.705 8.056 394.523 8.056ZM394.523 4.5C395.043 4.5 395.267 4.8136 395.267 5.2896V6.7904C395.267 7.2664 395.043 7.58 394.523 7.58C394.007 7.58 393.783 7.2664 393.783 6.7904V5.2952C393.783 4.8136 394.007 4.5 394.523 4.5ZM397.99 8.056C398.813 8.056 399.3 7.6024 399.3 6.8016V5.2784C399.3 4.4776 398.813 4.024 397.99 4.024C397.172 4.024 396.685 4.4776 396.685 5.284V6.8016C396.685 7.608 397.172 8.056 397.99 8.056ZM397.99 4.5C398.511 4.5 398.735 4.8136 398.735 5.2896V6.7904C398.735 7.2664 398.511 7.58 397.99 7.58C397.475 7.58 397.251 7.2664 397.251 6.7904V5.2952C397.251 4.8136 397.475 4.5 397.99 4.5ZM401.457 8.056C402.28 8.056 402.767 7.6024 402.767 6.8016V5.2784C402.767 4.4776 402.28 4.024 401.457 4.024C400.639 4.024 400.152 4.4776 400.152 5.284V6.8016C400.152 7.608 400.639 8.056 401.457 8.056ZM401.457 4.5C401.978 4.5 402.202 4.8136 402.202 5.2896V6.7904C402.202 7.2664 401.978 7.58 401.457 7.58C400.942 7.58 400.718 7.2664 400.718 6.7904V5.2952C400.718 4.8136 400.942 4.5 401.457 4.5Z" fill="white"/>
<path d="M433.219 8H435.694V7.524H433.992L434.921 6.4656C435.409 5.9616 435.644 5.6536 435.644 5.0992C435.644 4.4496 435.28 4.024 434.485 4.024C433.729 4.024 433.286 4.472 433.253 5.228H433.79C433.829 4.7408 434.037 4.5 434.473 4.5C434.888 4.5 435.078 4.6904 435.078 5.0992C435.078 5.4296 434.989 5.6368 434.557 6.096L433.219 7.5632V8ZM437.711 8.056C438.534 8.056 439.022 7.6024 439.022 6.8016V5.2784C439.022 4.4776 438.534 4.024 437.711 4.024C436.894 4.024 436.406 4.4776 436.406 5.284V6.8016C436.406 7.608 436.894 8.056 437.711 8.056ZM437.711 4.5C438.232 4.5 438.456 4.8136 438.456 5.2896V6.7904C438.456 7.2664 438.232 7.58 437.711 7.58C437.196 7.58 436.972 7.2664 436.972 6.7904V5.2952C436.972 4.8136 437.196 4.5 437.711 4.5ZM441.178 8.056C442.002 8.056 442.489 7.6024 442.489 6.8016V5.2784C442.489 4.4776 442.002 4.024 441.178 4.024C440.361 4.024 439.874 4.4776 439.874 5.284V6.8016C439.874 7.608 440.361 8.056 441.178 8.056ZM441.178 4.5C441.699 4.5 441.923 4.8136 441.923 5.2896V6.7904C441.923 7.2664 441.699 7.58 441.178 7.58C440.663 7.58 440.439 7.2664 440.439 6.7904V5.2952C440.439 4.8136 440.663 4.5 441.178 4.5ZM444.478 8.0896C445.25 8.0896 445.721 7.636 445.721 6.9696V6.684C445.721 5.8832 445.239 5.5136 444.31 5.5136H443.934V4.556H445.519V4.08H443.402V5.9896H444.287C444.881 5.9896 445.155 6.2192 445.155 6.6952V6.9584C445.155 7.3952 444.87 7.6136 444.455 7.6136C444.052 7.6136 443.8 7.4064 443.766 6.992H443.229C443.257 7.6864 443.688 8.0896 444.478 8.0896Z" fill="white"/>
<path d="M477.247 8H479.722V7.524H478.019L478.949 6.4656C479.436 5.9616 479.671 5.6536 479.671 5.0992C479.671 4.4496 479.307 4.024 478.512 4.024C477.756 4.024 477.314 4.472 477.28 5.228H477.818C477.857 4.7408 478.064 4.5 478.501 4.5C478.915 4.5 479.106 4.6904 479.106 5.0992C479.106 5.4296 479.016 5.6368 478.585 6.096L477.247 7.5632V8ZM481.739 8.056C482.562 8.056 483.049 7.6024 483.049 6.8016V5.2784C483.049 4.4776 482.562 4.024 481.739 4.024C480.921 4.024 480.434 4.4776 480.434 5.284V6.8016C480.434 7.608 480.921 8.056 481.739 8.056ZM481.739 4.5C482.26 4.5 482.484 4.8136 482.484 5.2896V6.7904C482.484 7.2664 482.26 7.58 481.739 7.58C481.224 7.58 481 7.2664 481 6.7904V5.2952C481 4.8136 481.224 4.5 481.739 4.5ZM484.484 4.08L483.599 4.3936V4.8752L484.433 4.5952V8H484.982V4.08H484.484ZM487.241 8.056C488.064 8.056 488.551 7.6024 488.551 6.8016V5.2784C488.551 4.4776 488.064 4.024 487.241 4.024C486.423 4.024 485.936 4.4776 485.936 5.284V6.8016C485.936 7.608 486.423 8.056 487.241 8.056ZM487.241 4.5C487.761 4.5 487.985 4.8136 487.985 5.2896V6.7904C487.985 7.2664 487.761 7.58 487.241 7.58C486.725 7.58 486.501 7.2664 486.501 6.7904V5.2952C486.501 4.8136 486.725 4.5 487.241 4.5Z" fill="white"/>
<path d="M521.435 8H523.911V7.524H522.208L523.138 6.4656C523.625 5.9616 523.86 5.6536 523.86 5.0992C523.86 4.4496 523.496 4.024 522.701 4.024C521.945 4.024 521.503 4.472 521.469 5.228H522.007C522.046 4.7408 522.253 4.5 522.69 4.5C523.104 4.5 523.295 4.6904 523.295 5.0992C523.295 5.4296 523.205 5.6368 522.774 6.096L521.435 7.5632V8ZM525.928 8.056C526.751 8.056 527.238 7.6024 527.238 6.8016V5.2784C527.238 4.4776 526.751 4.024 525.928 4.024C525.11 4.024 524.623 4.4776 524.623 5.284V6.8016C524.623 7.608 525.11 8.056 525.928 8.056ZM525.928 4.5C526.448 4.5 526.672 4.8136 526.672 5.2896V6.7904C526.672 7.2664 526.448 7.58 525.928 7.58C525.412 7.58 525.188 7.2664 525.188 6.7904V5.2952C525.188 4.8136 525.412 4.5 525.928 4.5ZM528.672 4.08L527.788 4.3936V4.8752L528.622 4.5952V8H529.171V4.08H528.672ZM531.261 8.0896C532.034 8.0896 532.504 7.636 532.504 6.9696V6.684C532.504 5.8832 532.023 5.5136 531.093 5.5136H530.718V4.556H532.303V4.08H530.186V5.9896H531.071C531.664 5.9896 531.939 6.2192 531.939 6.6952V6.9584C531.939 7.3952 531.653 7.6136 531.239 7.6136C530.836 7.6136 530.584 7.4064 530.55 6.992H530.012C530.04 7.6864 530.472 8.0896 531.261 8.0896Z" fill="white"/>
<path d="M563.771 8H566.246V7.524H564.544L565.473 6.4656C565.96 5.9616 566.196 5.6536 566.196 5.0992C566.196 4.4496 565.832 4.024 565.036 4.024C564.28 4.024 563.838 4.472 563.804 5.228H564.342C564.381 4.7408 564.588 4.5 565.025 4.5C565.44 4.5 565.63 4.6904 565.63 5.0992C565.63 5.4296 565.54 5.6368 565.109 6.096L563.771 7.5632V8ZM568.263 8.056C569.086 8.056 569.574 7.6024 569.574 6.8016V5.2784C569.574 4.4776 569.086 4.024 568.263 4.024C567.446 4.024 566.958 4.4776 566.958 5.284V6.8016C566.958 7.608 567.446 8.056 568.263 8.056ZM568.263 4.5C568.784 4.5 569.008 4.8136 569.008 5.2896V6.7904C569.008 7.2664 568.784 7.58 568.263 7.58C567.748 7.58 567.524 7.2664 567.524 6.7904V5.2952C567.524 4.8136 567.748 4.5 568.263 4.5ZM570.224 8H572.699V7.524H570.997L571.926 6.4656C572.414 5.9616 572.649 5.6536 572.649 5.0992C572.649 4.4496 572.285 4.024 571.49 4.024C570.734 4.024 570.291 4.472 570.258 5.228H570.795C570.834 4.7408 571.042 4.5 571.478 4.5C571.893 4.5 572.083 4.6904 572.083 5.0992C572.083 5.4296 571.994 5.6368 571.562 6.096L570.224 7.5632V8ZM574.716 8.056C575.54 8.056 576.027 7.6024 576.027 6.8016V5.2784C576.027 4.4776 575.54 4.024 574.716 4.024C573.899 4.024 573.412 4.4776 573.412 5.284V6.8016C573.412 7.608 573.899 8.056 574.716 8.056ZM574.716 4.5C575.237 4.5 575.461 4.8136 575.461 5.2896V6.7904C575.461 7.2664 575.237 7.58 574.716 7.58C574.201 7.58 573.977 7.2664 573.977 6.7904V5.2952C573.977 4.8136 574.201 4.5 574.716 4.5Z" fill="white"/>
<path d="M583.512 8H585.987V7.524H584.284L585.214 6.4656C585.701 5.9616 585.936 5.6536 585.936 5.0992C585.936 4.4496 585.572 4.024 584.777 4.024C584.021 4.024 583.579 4.472 583.545 5.228H584.083C584.122 4.7408 584.329 4.5 584.766 4.5C585.18 4.5 585.371 4.6904 585.371 5.0992C585.371 5.4296 585.281 5.6368 584.85 6.096L583.512 7.5632V8ZM588.004 8.056C588.827 8.056 589.314 7.6024 589.314 6.8016V5.2784C589.314 4.4776 588.827 4.024 588.004 4.024C587.186 4.024 586.699 4.4776 586.699 5.284V6.8016C586.699 7.608 587.186 8.056 588.004 8.056ZM588.004 4.5C588.525 4.5 588.749 4.8136 588.749 5.2896V6.7904C588.749 7.2664 588.525 7.58 588.004 7.58C587.489 7.58 587.265 7.2664 587.265 6.7904V5.2952C587.265 4.8136 587.489 4.5 588.004 4.5ZM589.965 8H592.44V7.524H590.737L591.667 6.4656C592.154 5.9616 592.389 5.6536 592.389 5.0992C592.389 4.4496 592.025 4.024 591.23 4.024C590.474 4.024 590.032 4.472 589.998 5.228H590.536C590.575 4.7408 590.782 4.5 591.219 4.5C591.633 4.5 591.824 4.6904 591.824 5.0992C591.824 5.4296 591.734 5.6368 591.303 6.096L589.965 7.5632V8ZM592.951 8H595.426V7.524H593.723L594.653 6.4656C595.14 5.9616 595.375 5.6536 595.375 5.0992C595.375 4.4496 595.011 4.024 594.216 4.024C593.46 4.024 593.018 4.472 592.984 5.228H593.522C593.561 4.7408 593.768 4.5 594.205 4.5C594.619 4.5 594.81 4.6904 594.81 5.0992C594.81 5.4296 594.72 5.6368 594.289 6.096L592.951 7.5632V8Z" fill="white"/>
</svg>
