<svg xmlns="http://www.w3.org/2000/svg" version="1.1" xmlns:xlink="http://www.w3.org/1999/xlink" xmlns:svgjs="http://svgjs.com/svgjs" width="64" height="64"><svg width="64" height="64" viewBox="0 0 64 64" fill="none" xmlns="http://www.w3.org/2000/svg">
<g clip-path="url(#clip0_287_266)">
<rect width="64" height="64" fill="black"></rect>
<path d="M6.42462 38.9515C10.5251 43.052 17.1734 43.052 21.2739 38.9515C25.3744 34.851 25.3744 28.2027 21.2739 24.1022C17.1734 20.0017 10.5251 20.0017 6.42462 24.1022C2.32412 28.2027 2.32412 34.851 6.42462 38.9515Z" fill="#219653"></path>
<path d="M24.1022 21.2739C28.2027 25.3744 34.851 25.3744 38.9515 21.2739C43.052 17.1734 43.052 10.5251 38.9515 6.42462C34.851 2.32412 28.2027 2.32412 24.1022 6.42462C20.0017 10.5251 20.0017 17.1734 24.1022 21.2739Z" fill="#F2C94C"></path>
<path d="M24.1022 56.6291C28.2027 60.7296 34.851 60.7296 38.9515 56.6291C43.052 52.5286 43.052 45.8804 38.9515 41.7798C34.851 37.6793 28.2027 37.6793 24.1022 41.7798C20.0017 45.8804 20.0017 52.5286 24.1022 56.6291Z" fill="#9B51E0"></path>
<path d="M41.7798 38.9515C45.8804 43.052 52.5286 43.052 56.6291 38.9515C60.7296 34.851 60.7296 28.2027 56.6291 24.1022C52.5286 20.0017 45.8804 20.0017 41.7798 24.1022C37.6793 28.2027 37.6793 34.851 41.7798 38.9515Z" fill="#BDBDBD"></path>
</g>
<defs>
<clipPath id="SvgjsClipPath1000">
<rect width="64" height="64" fill="white"></rect>
</clipPath>
</defs>
</svg><style>@media (prefers-color-scheme: light) { :root { filter: none; } }
</style></svg>