<svg width="239" height="3100" viewBox="0 0 239 3100" fill="none" xmlns="http://www.w3.org/2000/svg">
<rect width="239" height="3100" fill="black"/>
<path d="M237 2988.16L237 1986.16" stroke="#828282" stroke-width="4"/>
<path d="M237 1815.16L237 1115.16" stroke="#828282" stroke-width="4"/>
<path d="M237 959.164L237 459.164" stroke="#828282" stroke-width="4"/>
<path d="M237 297L237 46" stroke="#828282" stroke-width="4"/>
<path d="M115.418 2982.16H121.538C125.402 2982.16 127.85 2980.08 127.85 2976.19V2971.36C127.85 2967.52 125.45 2965.36 121.442 2965.36H115.418V2982.16ZM121.226 2967.88C123.722 2967.88 124.874 2969.28 124.874 2971.46V2976.09C124.874 2978.3 123.818 2979.64 121.25 2979.64H118.322V2967.88H121.226ZM131.543 2982.16H134.447V2965.36H131.543V2982.16ZM143.514 2967.64C145.41 2967.64 146.154 2968.53 146.298 2970.28H149.154C149.034 2967.04 147.186 2965.12 143.514 2965.12C139.77 2965.12 138.09 2967.04 138.09 2969.68C138.09 2972.23 139.242 2973.38 142.266 2974.48L143.922 2975.08C145.938 2975.85 146.514 2976.38 146.514 2977.72C146.514 2979.19 145.746 2979.88 143.826 2979.88C141.714 2979.88 140.826 2979.09 140.514 2977.24H137.658C138.066 2980.87 140.226 2982.4 143.826 2982.4C147.714 2982.4 149.466 2980.68 149.466 2977.58C149.466 2975.11 148.506 2973.86 145.194 2972.61L143.442 2971.94C141.666 2971.27 141.066 2970.84 141.066 2969.59C141.066 2968.46 141.69 2967.64 143.514 2967.64ZM163.202 2967.88V2965.36H150.674V2967.88H155.498V2982.16H158.402V2967.88H163.202ZM174.344 2982.16H177.488L171.512 2965.36H168.44L162.44 2982.16H165.488L166.712 2978.56H173.12L174.344 2982.16ZM172.304 2976.04H167.48L169.904 2968.92L172.304 2976.04ZM189.129 2982.16H192.585V2965.36H189.777V2977.77L183.561 2965.36H180.105V2982.16H182.913V2969.76L189.129 2982.16ZM202.886 2982.4C206.366 2982.4 208.67 2980.39 208.838 2976.81H205.982C205.814 2978.92 204.734 2979.88 202.718 2979.88C200.438 2979.88 199.262 2978.35 199.262 2976V2971.58C199.262 2969.18 200.438 2967.64 202.742 2967.64C204.758 2967.64 205.766 2968.7 205.982 2970.72H208.838C208.598 2967.4 206.534 2965.12 202.67 2965.12C198.902 2965.12 196.31 2967.36 196.31 2971.48V2976.07C196.31 2980.2 198.878 2982.4 202.886 2982.4ZM212.027 2982.16H222.923V2979.64H214.931V2974.75H221.603V2972.23H214.931V2967.88H222.923V2965.36H212.027V2982.16ZM87.6941 3004.18V3001.66H81.4781V2996.88H89.0141V2994.36H78.5741V3011.16H81.4781V3004.18H87.6941ZM94.4859 3004.9H96.8379L100.318 3011.16H103.606L99.6459 3004.42C101.758 3003.75 102.934 3002.24 102.934 3000.1V2999.21C102.934 2996.12 100.846 2994.36 96.8859 2994.36H91.5819V3011.16H94.4859V3004.9ZM96.7179 2996.88C99.0219 2996.88 99.9579 2997.84 99.9579 2999.31V2999.98C99.9579 3001.44 98.9259 3002.38 96.7179 3002.38H94.4859V2996.88H96.7179ZM112.372 3011.4C116.404 3011.4 118.996 3009.2 118.996 3005.07V3000.46C118.996 2996.36 116.404 2994.12 112.372 2994.12C108.34 2994.12 105.748 2996.36 105.748 3000.48V3005.07C105.748 3009.2 108.34 3011.4 112.372 3011.4ZM112.372 2996.64C114.868 2996.64 116.044 2998.18 116.044 3000.56V3004.97C116.044 3007.35 114.868 3008.88 112.372 3008.88C109.876 3008.88 108.7 3007.35 108.7 3005V3000.58C108.7 2998.18 109.876 2996.64 112.372 2996.64ZM130.123 3008.45H132.595L137.203 2999.26V3011.16H140.035V2994.36H136.747L131.467 3005.14L126.331 2994.36H122.707V3011.16H125.515V2999.26L130.123 3008.45ZM150.785 3011.16H161.681V3008.64H153.689V3003.75H160.361V3001.23H153.689V2996.88H161.681V2994.36H150.785V3011.16ZM175.118 3011.16H178.262L172.286 2994.36H169.214L163.214 3011.16H166.262L167.486 3007.56H173.894L175.118 3011.16ZM173.078 3005.04H168.254L170.678 2997.92L173.078 3005.04ZM183.783 3004.9H186.135L189.615 3011.16H192.903L188.943 3004.42C191.055 3003.75 192.231 3002.24 192.231 3000.1V2999.21C192.231 2996.12 190.143 2994.36 186.183 2994.36H180.879V3011.16H183.783V3004.9ZM186.015 2996.88C188.319 2996.88 189.255 2997.84 189.255 2999.31V2999.98C189.255 3001.44 188.223 3002.38 186.015 3002.38H183.783V2996.88H186.015ZM206.444 2996.88V2994.36H193.916V2996.88H198.74V3011.16H201.644V2996.88H206.444ZM218.939 3011.16H221.843V2994.36H218.939V3001.16H211.931V2994.36H209.027V3011.16H211.931V3003.68H218.939V3011.16Z" fill="white"/>
<path d="M38 50.1641L38 770.164L71 770.164" stroke="white" stroke-width="2"/>
<rect width="75" height="49" transform="translate(2 386.164)" fill="black"/>
<path d="M27.7595 419.164H30.6635V402.364H27.7595V409.156H20.7515V402.364H17.8475L17.8475 419.164H20.7515V411.676H27.7595V419.164ZM34.9803 419.164H45.8763V416.644H37.8843V411.748H44.5563V409.228H37.8843L37.8843 404.884H45.8763V402.364H34.9803L34.9803 419.164ZM55.1371 419.404C59.1691 419.404 61.7611 417.196 61.7611 413.068V408.46C61.7611 404.356 59.1691 402.124 55.1371 402.124C51.1051 402.124 48.5131 404.356 48.5131 408.484V413.068C48.5131 417.196 51.1051 419.404 55.1371 419.404ZM55.1371 404.644C57.6331 404.644 58.8091 406.18 58.8091 408.556V412.972C58.8091 415.348 57.6331 416.884 55.1371 416.884C52.6411 416.884 51.4651 415.348 51.4651 412.996V408.58C51.4651 406.18 52.6411 404.644 55.1371 404.644Z" fill="white"/>
<path d="M25.9641 812.404C30.0921 812.404 32.0121 810.532 32.0121 806.26V803.356H25.7481V805.852H29.2761V806.668C29.2761 808.588 28.3161 809.884 26.1081 809.884C23.6841 809.884 22.5081 808.348 22.5081 805.996V801.58C22.5081 799.18 23.6841 797.644 25.9881 797.644C27.9561 797.644 28.8921 798.436 29.1561 800.068H32.0121C31.7961 797.068 29.7321 795.124 26.1801 795.124C22.1481 795.124 19.5561 797.356 19.5561 801.484L19.5561 806.068C19.5561 810.196 22.1241 812.404 25.9641 812.404ZM35.6717 812.164H46.5677L46.5677 809.644H38.5757V804.748H45.2477V802.228H38.5757V797.884H46.5677V795.364H35.6717V812.164ZM55.8285 812.404C59.8605 812.404 62.4525 810.196 62.4525 806.068V801.46C62.4525 797.356 59.8605 795.124 55.8285 795.124C51.7965 795.124 49.2045 797.356 49.2045 801.484V806.068C49.2045 810.196 51.7965 812.404 55.8285 812.404ZM55.8285 797.644C58.3245 797.644 59.5005 799.18 59.5005 801.556V805.972C59.5005 808.348 58.3245 809.884 55.8285 809.884C53.3325 809.884 52.1565 808.348 52.1565 805.996V801.58C52.1565 799.18 53.3325 797.644 55.8285 797.644Z" fill="white"/>
<path d="M71 831.164L38 831.164L38 1648.16L71 1648.16" stroke="white" stroke-width="2"/>
<rect width="79" height="49" transform="translate(1 1215.16)" fill="black"/>
<path d="M24.0018 1245.45H26.4738L31.0818 1236.26V1248.16H33.9138L33.9138 1231.36H30.6258L25.3458 1242.14L20.2098 1231.36H16.5858L16.5858 1248.16H19.3938V1236.26L24.0018 1245.45ZM38.242 1248.16H49.138V1245.64H41.146V1240.75H47.818V1238.23H41.146L41.146 1233.88H49.138V1231.36H38.242L38.242 1248.16ZM58.3988 1248.4C62.4308 1248.4 65.0228 1246.2 65.0228 1242.07V1237.46C65.0228 1233.36 62.4308 1231.12 58.3988 1231.12C54.3668 1231.12 51.7748 1233.36 51.7748 1237.48V1242.07C51.7748 1246.2 54.3668 1248.4 58.3988 1248.4ZM58.3988 1233.64C60.8948 1233.64 62.0708 1235.18 62.0708 1237.56V1241.97C62.0708 1244.35 60.8948 1245.88 58.3988 1245.88C55.9028 1245.88 54.7268 1244.35 54.7268 1242V1237.58C54.7268 1235.18 55.9028 1233.64 58.3988 1233.64Z" fill="white"/>
<path d="M71 1681.16L38.0001 1681.16L38 2983.16L70.9999 2983.16" stroke="white" stroke-width="2"/>
<rect width="76" height="54" transform="translate(0 2295.16)" fill="black"/>
<path d="M18.5155 2330.16H28.8355L28.8355 2327.64H21.4195V2313.36H18.5155L18.5155 2330.16ZM31.3123 2330.16H42.2083V2327.64H34.2163V2322.75H40.8883V2320.23H34.2163L34.2163 2315.88H42.2083V2313.36H31.3123L31.3123 2330.16ZM51.4692 2330.4C55.5012 2330.4 58.0932 2328.2 58.0932 2324.07V2319.46C58.0932 2315.36 55.5012 2313.12 51.4692 2313.12C47.4372 2313.12 44.8452 2315.36 44.8452 2319.48V2324.07C44.8452 2328.2 47.4372 2330.4 51.4692 2330.4ZM51.4692 2315.64C53.9652 2315.64 55.1412 2317.18 55.1412 2319.56V2323.97C55.1412 2326.35 53.9652 2327.88 51.4692 2327.88C48.9732 2327.88 47.7972 2326.35 47.7972 2324V2319.58C47.7972 2317.18 48.9732 2315.64 51.4692 2315.64Z" fill="white"/>
<path d="M157.319 2791.16H165.879V2789.8H159.499L163.279 2785.38C164.839 2783.7 165.659 2782.6 165.659 2780.66C165.659 2778.44 164.419 2776.96 161.699 2776.96C159.099 2776.96 157.559 2778.5 157.439 2781.16H158.959C159.099 2779.28 159.939 2778.32 161.679 2778.32C163.279 2778.32 164.059 2779.06 164.059 2780.66C164.059 2781.96 163.659 2782.78 162.219 2784.4L157.319 2789.94V2791.16ZM172.912 2791.36C175.792 2791.36 177.432 2789.78 177.432 2786.98V2781.34C177.432 2778.54 175.792 2776.96 172.912 2776.96C170.072 2776.96 168.432 2778.56 168.432 2781.34V2787C168.432 2789.78 170.072 2791.36 172.912 2791.36ZM172.912 2778.32C174.952 2778.32 175.832 2779.5 175.832 2781.34V2786.98C175.832 2788.8 174.952 2790 172.912 2790C170.912 2790 170.032 2788.82 170.032 2786.98V2781.36C170.032 2779.52 170.912 2778.32 172.912 2778.32ZM185.08 2791.36C187.96 2791.36 189.6 2789.78 189.6 2786.98V2781.34C189.6 2778.54 187.96 2776.96 185.08 2776.96C182.24 2776.96 180.6 2778.56 180.6 2781.34V2787C180.6 2789.78 182.24 2791.36 185.08 2791.36ZM185.08 2778.32C187.12 2778.32 188 2779.5 188 2781.34V2786.98C188 2788.8 187.12 2790 185.08 2790C183.08 2790 182.2 2788.82 182.2 2786.98V2781.36C182.2 2779.52 183.08 2778.32 185.08 2778.32ZM204.543 2791.16H206.483L202.303 2785.38L205.823 2781.4H204.043L199.603 2786.4V2776.56H198.023V2791.16H199.603V2788.44L201.263 2786.56L204.543 2791.16ZM209.993 2785.6C209.993 2783.68 211.153 2782.56 212.593 2782.56C214.053 2782.56 214.653 2783.38 214.653 2785V2791.16H216.233V2785.6C216.233 2783.68 217.393 2782.56 218.833 2782.56C220.293 2782.56 220.893 2783.38 220.893 2785V2791.16H222.473V2784.68C222.473 2782.32 221.373 2781.2 219.353 2781.2C217.873 2781.2 216.673 2781.9 216.033 2783.28C215.673 2781.88 214.673 2781.2 213.113 2781.2C211.733 2781.2 210.593 2781.88 209.993 2783.26V2781.4H208.413V2791.16H209.993V2785.6Z" fill="white"/>
<path d="M166.251 2588.22V2586.88H164.391V2577.16H162.551L156.551 2587.02V2588.22H162.831V2591.16H164.391V2588.22H166.251ZM158.171 2586.88L162.831 2579.24V2586.88H158.171ZM172.912 2591.36C175.792 2591.36 177.432 2589.78 177.432 2586.98V2581.34C177.432 2578.54 175.792 2576.96 172.912 2576.96C170.072 2576.96 168.432 2578.56 168.432 2581.34V2587C168.432 2589.78 170.072 2591.36 172.912 2591.36ZM172.912 2578.32C174.952 2578.32 175.832 2579.5 175.832 2581.34V2586.98C175.832 2588.8 174.952 2590 172.912 2590C170.912 2590 170.032 2588.82 170.032 2586.98V2581.36C170.032 2579.52 170.912 2578.32 172.912 2578.32ZM185.08 2591.36C187.96 2591.36 189.6 2589.78 189.6 2586.98V2581.34C189.6 2578.54 187.96 2576.96 185.08 2576.96C182.24 2576.96 180.6 2578.56 180.6 2581.34V2587C180.6 2589.78 182.24 2591.36 185.08 2591.36ZM185.08 2578.32C187.12 2578.32 188 2579.5 188 2581.34V2586.98C188 2588.8 187.12 2590 185.08 2590C183.08 2590 182.2 2588.82 182.2 2586.98V2581.36C182.2 2579.52 183.08 2578.32 185.08 2578.32ZM204.543 2591.16H206.483L202.303 2585.38L205.823 2581.4H204.043L199.603 2586.4V2576.56H198.023V2591.16H199.603V2588.44L201.263 2586.56L204.543 2591.16ZM209.993 2585.6C209.993 2583.68 211.153 2582.56 212.593 2582.56C214.053 2582.56 214.653 2583.38 214.653 2585V2591.16H216.233V2585.6C216.233 2583.68 217.393 2582.56 218.833 2582.56C220.293 2582.56 220.893 2583.38 220.893 2585V2591.16H222.473V2584.68C222.473 2582.32 221.373 2581.2 219.353 2581.2C217.873 2581.2 216.673 2581.9 216.033 2583.28C215.673 2581.88 214.673 2581.2 213.113 2581.2C211.733 2581.2 210.593 2581.88 209.993 2583.26V2581.4H208.413V2591.16H209.993V2585.6Z" fill="white"/>
<path d="M161.472 2391.36C164.232 2391.36 166.012 2389.82 166.012 2387.12V2386.64C166.012 2384.02 164.432 2382.22 161.472 2382.2C160.712 2382.2 160.132 2382.4 159.752 2382.74L163.812 2377.16H162.012L159.192 2381.14C157.332 2383.76 156.932 2384.92 156.932 2386.64V2387.12C156.932 2389.82 158.732 2391.36 161.472 2391.36ZM161.472 2383.56C163.492 2383.56 164.412 2384.8 164.412 2386.7V2387.06C164.412 2388.84 163.492 2390 161.472 2390C159.452 2390 158.532 2388.84 158.532 2387.06V2386.7C158.532 2384.8 159.452 2383.56 161.472 2383.56ZM172.912 2391.36C175.792 2391.36 177.432 2389.78 177.432 2386.98V2381.34C177.432 2378.54 175.792 2376.96 172.912 2376.96C170.072 2376.96 168.432 2378.56 168.432 2381.34V2387C168.432 2389.78 170.072 2391.36 172.912 2391.36ZM172.912 2378.32C174.952 2378.32 175.832 2379.5 175.832 2381.34V2386.98C175.832 2388.8 174.952 2390 172.912 2390C170.912 2390 170.032 2388.82 170.032 2386.98V2381.36C170.032 2379.52 170.912 2378.32 172.912 2378.32ZM185.08 2391.36C187.96 2391.36 189.6 2389.78 189.6 2386.98V2381.34C189.6 2378.54 187.96 2376.96 185.08 2376.96C182.24 2376.96 180.6 2378.56 180.6 2381.34V2387C180.6 2389.78 182.24 2391.36 185.08 2391.36ZM185.08 2378.32C187.12 2378.32 188 2379.5 188 2381.34V2386.98C188 2388.8 187.12 2390 185.08 2390C183.08 2390 182.2 2388.82 182.2 2386.98V2381.36C182.2 2379.52 183.08 2378.32 185.08 2378.32ZM204.543 2391.16H206.483L202.303 2385.38L205.823 2381.4H204.043L199.603 2386.4V2376.56H198.023V2391.16H199.603V2388.44L201.263 2386.56L204.543 2391.16ZM209.993 2385.6C209.993 2383.68 211.153 2382.56 212.593 2382.56C214.053 2382.56 214.653 2383.38 214.653 2385V2391.16H216.233V2385.6C216.233 2383.68 217.393 2382.56 218.833 2382.56C220.293 2382.56 220.893 2383.38 220.893 2385V2391.16H222.473V2384.68C222.473 2382.32 221.373 2381.2 219.353 2381.2C217.873 2381.2 216.673 2381.9 216.033 2383.28C215.673 2381.88 214.673 2381.2 213.113 2381.2C211.733 2381.2 210.593 2381.88 209.993 2383.26V2381.4H208.413V2391.16H209.993V2385.6Z" fill="white"/>
<path d="M160.992 2191.36C163.992 2191.36 165.572 2189.82 165.572 2187.48V2187.02C165.572 2185.42 164.732 2184.3 163.312 2183.82C164.512 2183.32 165.172 2182.3 165.172 2180.96V2180.5C165.172 2178.22 163.532 2176.96 161.032 2176.96C158.472 2176.96 156.852 2178.22 156.852 2180.5V2180.96C156.852 2182.3 157.492 2183.32 158.732 2183.82C157.292 2184.32 156.432 2185.42 156.432 2187.02V2187.48C156.432 2189.82 158.012 2191.36 160.992 2191.36ZM161.072 2178.32C162.752 2178.32 163.572 2179.2 163.572 2180.54V2180.92C163.572 2182.32 162.752 2183.18 160.932 2183.18C159.272 2183.18 158.452 2182.32 158.452 2180.92V2180.54C158.452 2179.2 159.272 2178.32 161.072 2178.32ZM161.052 2184.54C163.012 2184.54 163.992 2185.54 163.992 2187.08V2187.44C163.992 2189 163.032 2190 160.952 2190C158.992 2190 158.032 2189 158.032 2187.44V2187.08C158.032 2185.54 158.972 2184.54 161.052 2184.54ZM172.912 2191.36C175.792 2191.36 177.432 2189.78 177.432 2186.98V2181.34C177.432 2178.54 175.792 2176.96 172.912 2176.96C170.072 2176.96 168.432 2178.56 168.432 2181.34V2187C168.432 2189.78 170.072 2191.36 172.912 2191.36ZM172.912 2178.32C174.952 2178.32 175.832 2179.5 175.832 2181.34V2186.98C175.832 2188.8 174.952 2190 172.912 2190C170.912 2190 170.032 2188.82 170.032 2186.98V2181.36C170.032 2179.52 170.912 2178.32 172.912 2178.32ZM185.08 2191.36C187.96 2191.36 189.6 2189.78 189.6 2186.98V2181.34C189.6 2178.54 187.96 2176.96 185.08 2176.96C182.24 2176.96 180.6 2178.56 180.6 2181.34V2187C180.6 2189.78 182.24 2191.36 185.08 2191.36ZM185.08 2178.32C187.12 2178.32 188 2179.5 188 2181.34V2186.98C188 2188.8 187.12 2190 185.08 2190C183.08 2190 182.2 2188.82 182.2 2186.98V2181.36C182.2 2179.52 183.08 2178.32 185.08 2178.32ZM204.543 2191.16H206.483L202.303 2185.38L205.823 2181.4H204.043L199.603 2186.4V2176.56H198.023V2191.16H199.603V2188.44L201.263 2186.56L204.543 2191.16ZM209.993 2185.6C209.993 2183.68 211.153 2182.56 212.593 2182.56C214.053 2182.56 214.653 2183.38 214.653 2185V2191.16H216.233V2185.6C216.233 2183.68 217.393 2182.56 218.833 2182.56C220.293 2182.56 220.893 2183.38 220.893 2185V2191.16H222.473V2184.68C222.473 2182.32 221.373 2181.2 219.353 2181.2C217.873 2181.2 216.673 2181.9 216.033 2183.28C215.673 2181.88 214.673 2181.2 213.113 2181.2C211.733 2181.2 210.593 2181.88 209.993 2183.26V2181.4H208.413V2191.16H209.993V2185.6Z" fill="white"/>
<path d="M131.942 1978.36L128.222 1979.66V1981.29L131.75 1980.14V1995.16H133.622V1978.36H131.942ZM137.849 1998.6L139.793 1992.76H137.561L136.577 1998.6H137.849ZM148.092 1995.4C151.548 1995.4 153.516 1993.51 153.516 1990.15V1983.38C153.516 1980.02 151.548 1978.12 148.092 1978.12C144.684 1978.12 142.716 1980.04 142.716 1983.38V1990.17C142.716 1993.51 144.684 1995.4 148.092 1995.4ZM148.092 1979.76C150.54 1979.76 151.596 1981.17 151.596 1983.38V1990.15C151.596 1992.33 150.54 1993.77 148.092 1993.77C145.692 1993.77 144.636 1992.36 144.636 1990.15V1983.4C144.636 1981.2 145.692 1979.76 148.092 1979.76ZM162.694 1995.4C166.15 1995.4 168.118 1993.51 168.118 1990.15V1983.38C168.118 1980.02 166.15 1978.12 162.694 1978.12C159.286 1978.12 157.318 1980.04 157.318 1983.38V1990.17C157.318 1993.51 159.286 1995.4 162.694 1995.4ZM162.694 1979.76C165.142 1979.76 166.198 1981.17 166.198 1983.38V1990.15C166.198 1992.33 165.142 1993.77 162.694 1993.77C160.294 1993.77 159.238 1992.36 159.238 1990.15V1983.4C159.238 1981.2 160.294 1979.76 162.694 1979.76ZM177.295 1995.4C180.751 1995.4 182.719 1993.51 182.719 1990.15V1983.38C182.719 1980.02 180.751 1978.12 177.295 1978.12C173.887 1978.12 171.919 1980.04 171.919 1983.38V1990.17C171.919 1993.51 173.887 1995.4 177.295 1995.4ZM177.295 1979.76C179.743 1979.76 180.799 1981.17 180.799 1983.38V1990.15C180.799 1992.33 179.743 1993.77 177.295 1993.77C174.895 1993.77 173.839 1992.36 173.839 1990.15V1983.4C173.839 1981.2 174.895 1979.76 177.295 1979.76ZM200.651 1995.16H202.979L197.963 1988.23L202.187 1983.45H200.051L194.723 1989.45V1977.64H192.827V1995.16H194.723V1991.9L196.715 1989.64L200.651 1995.16ZM207.192 1988.49C207.192 1986.19 208.584 1984.84 210.312 1984.84C212.064 1984.84 212.784 1985.83 212.784 1987.77V1995.16H214.68V1988.49C214.68 1986.19 216.072 1984.84 217.8 1984.84C219.552 1984.84 220.272 1985.83 220.272 1987.77V1995.16H222.168V1987.39C222.168 1984.56 220.848 1983.21 218.424 1983.21C216.648 1983.21 215.208 1984.05 214.44 1985.71C214.008 1984.03 212.808 1983.21 210.936 1983.21C209.28 1983.21 207.912 1984.03 207.192 1985.68V1983.45H205.296V1995.16H207.192V1988.49Z" fill="white"/>
<path d="M147.285 1795.16L144.185 1796.24V1797.6L147.125 1796.64V1809.16H148.685V1795.16H147.285ZM152.208 1812.02L153.828 1807.16H151.968L151.148 1812.02H152.208ZM160.744 1809.36C163.624 1809.36 165.264 1807.78 165.264 1804.98V1799.34C165.264 1796.54 163.624 1794.96 160.744 1794.96C157.904 1794.96 156.264 1796.56 156.264 1799.34V1805C156.264 1807.78 157.904 1809.36 160.744 1809.36ZM160.744 1796.32C162.784 1796.32 163.664 1797.5 163.664 1799.34V1804.98C163.664 1806.8 162.784 1808 160.744 1808C158.744 1808 157.864 1806.82 157.864 1804.98V1799.36C157.864 1797.52 158.744 1796.32 160.744 1796.32ZM172.912 1809.36C175.792 1809.36 177.432 1807.78 177.432 1804.98V1799.34C177.432 1796.54 175.792 1794.96 172.912 1794.96C170.072 1794.96 168.432 1796.56 168.432 1799.34V1805C168.432 1807.78 170.072 1809.36 172.912 1809.36ZM172.912 1796.32C174.952 1796.32 175.832 1797.5 175.832 1799.34V1804.98C175.832 1806.8 174.952 1808 172.912 1808C170.912 1808 170.032 1806.82 170.032 1804.98V1799.36C170.032 1797.52 170.912 1796.32 172.912 1796.32ZM185.08 1809.36C187.96 1809.36 189.6 1807.78 189.6 1804.98V1799.34C189.6 1796.54 187.96 1794.96 185.08 1794.96C182.24 1794.96 180.6 1796.56 180.6 1799.34V1805C180.6 1807.78 182.24 1809.36 185.08 1809.36ZM185.08 1796.32C187.12 1796.32 188 1797.5 188 1799.34V1804.98C188 1806.8 187.12 1808 185.08 1808C183.08 1808 182.2 1806.82 182.2 1804.98V1799.36C182.2 1797.52 183.08 1796.32 185.08 1796.32ZM204.543 1809.16H206.483L202.303 1803.38L205.823 1799.4H204.043L199.603 1804.4V1794.56H198.023V1809.16H199.603V1806.44L201.263 1804.56L204.543 1809.16ZM209.993 1803.6C209.993 1801.68 211.153 1800.56 212.593 1800.56C214.053 1800.56 214.653 1801.38 214.653 1803V1809.16H216.233V1803.6C216.233 1801.68 217.393 1800.56 218.833 1800.56C220.293 1800.56 220.893 1801.38 220.893 1803V1809.16H222.473V1802.68C222.473 1800.32 221.373 1799.2 219.353 1799.2C217.873 1799.2 216.673 1799.9 216.033 1801.28C215.673 1799.88 214.673 1799.2 213.113 1799.2C211.733 1799.2 210.593 1799.88 209.993 1801.26V1799.4H208.413V1809.16H209.993V1803.6Z" fill="white"/>
<path d="M140.815 1671.16H149.375V1669.8H142.995L146.775 1665.38C148.335 1663.7 149.155 1662.6 149.155 1660.66C149.155 1658.44 147.915 1656.96 145.195 1656.96C142.595 1656.96 141.055 1658.5 140.935 1661.16H142.455C142.595 1659.28 143.435 1658.32 145.175 1658.32C146.775 1658.32 147.555 1659.06 147.555 1660.66C147.555 1661.96 147.155 1662.78 145.715 1664.4L140.815 1669.94V1671.16ZM152.208 1674.02L153.828 1669.16H151.968L151.148 1674.02H152.208ZM160.744 1671.36C163.624 1671.36 165.264 1669.78 165.264 1666.98V1661.34C165.264 1658.54 163.624 1656.96 160.744 1656.96C157.904 1656.96 156.264 1658.56 156.264 1661.34V1667C156.264 1669.78 157.904 1671.36 160.744 1671.36ZM160.744 1658.32C162.784 1658.32 163.664 1659.5 163.664 1661.34V1666.98C163.664 1668.8 162.784 1670 160.744 1670C158.744 1670 157.864 1668.82 157.864 1666.98V1661.36C157.864 1659.52 158.744 1658.32 160.744 1658.32ZM172.912 1671.36C175.792 1671.36 177.432 1669.78 177.432 1666.98V1661.34C177.432 1658.54 175.792 1656.96 172.912 1656.96C170.072 1656.96 168.432 1658.56 168.432 1661.34V1667C168.432 1669.78 170.072 1671.36 172.912 1671.36ZM172.912 1658.32C174.952 1658.32 175.832 1659.5 175.832 1661.34V1666.98C175.832 1668.8 174.952 1670 172.912 1670C170.912 1670 170.032 1668.82 170.032 1666.98V1661.36C170.032 1659.52 170.912 1658.32 172.912 1658.32ZM185.08 1671.36C187.96 1671.36 189.6 1669.78 189.6 1666.98V1661.34C189.6 1658.54 187.96 1656.96 185.08 1656.96C182.24 1656.96 180.6 1658.56 180.6 1661.34V1667C180.6 1669.78 182.24 1671.36 185.08 1671.36ZM185.08 1658.32C187.12 1658.32 188 1659.5 188 1661.34V1666.98C188 1668.8 187.12 1670 185.08 1670C183.08 1670 182.2 1668.82 182.2 1666.98V1661.36C182.2 1659.52 183.08 1658.32 185.08 1658.32ZM204.543 1671.16H206.483L202.303 1665.38L205.823 1661.4H204.043L199.603 1666.4V1656.56H198.023V1671.16H199.603V1668.44L201.263 1666.56L204.543 1671.16ZM209.993 1665.6C209.993 1663.68 211.153 1662.56 212.593 1662.56C214.053 1662.56 214.653 1663.38 214.653 1665V1671.16H216.233V1665.6C216.233 1663.68 217.393 1662.56 218.833 1662.56C220.293 1662.56 220.893 1663.38 220.893 1665V1671.16H222.473V1664.68C222.473 1662.32 221.373 1661.2 219.353 1661.2C217.873 1661.2 216.673 1661.9 216.033 1663.28C215.673 1661.88 214.673 1661.2 213.113 1661.2C211.733 1661.2 210.593 1661.88 209.993 1663.26V1661.4H208.413V1671.16H209.993V1665.6Z" fill="white"/>
<path d="M150.138 1530.22V1528.88H148.278V1519.16H146.438L140.438 1529.02V1530.22H146.718V1533.16H148.278V1530.22H150.138ZM142.058 1528.88L146.718 1521.24V1528.88H142.058ZM152.208 1536.02L153.828 1531.16H151.968L151.148 1536.02H152.208ZM160.744 1533.36C163.624 1533.36 165.264 1531.78 165.264 1528.98V1523.34C165.264 1520.54 163.624 1518.96 160.744 1518.96C157.904 1518.96 156.264 1520.56 156.264 1523.34V1529C156.264 1531.78 157.904 1533.36 160.744 1533.36ZM160.744 1520.32C162.784 1520.32 163.664 1521.5 163.664 1523.34V1528.98C163.664 1530.8 162.784 1532 160.744 1532C158.744 1532 157.864 1530.82 157.864 1528.98V1523.36C157.864 1521.52 158.744 1520.32 160.744 1520.32ZM172.912 1533.36C175.792 1533.36 177.432 1531.78 177.432 1528.98V1523.34C177.432 1520.54 175.792 1518.96 172.912 1518.96C170.072 1518.96 168.432 1520.56 168.432 1523.34V1529C168.432 1531.78 170.072 1533.36 172.912 1533.36ZM172.912 1520.32C174.952 1520.32 175.832 1521.5 175.832 1523.34V1528.98C175.832 1530.8 174.952 1532 172.912 1532C170.912 1532 170.032 1530.82 170.032 1528.98V1523.36C170.032 1521.52 170.912 1520.32 172.912 1520.32ZM185.08 1533.36C187.96 1533.36 189.6 1531.78 189.6 1528.98V1523.34C189.6 1520.54 187.96 1518.96 185.08 1518.96C182.24 1518.96 180.6 1520.56 180.6 1523.34V1529C180.6 1531.78 182.24 1533.36 185.08 1533.36ZM185.08 1520.32C187.12 1520.32 188 1521.5 188 1523.34V1528.98C188 1530.8 187.12 1532 185.08 1532C183.08 1532 182.2 1530.82 182.2 1528.98V1523.36C182.2 1521.52 183.08 1520.32 185.08 1520.32ZM204.543 1533.16H206.483L202.303 1527.38L205.823 1523.4H204.043L199.603 1528.4V1518.56H198.023V1533.16H199.603V1530.44L201.263 1528.56L204.543 1533.16ZM209.993 1527.6C209.993 1525.68 211.153 1524.56 212.593 1524.56C214.053 1524.56 214.653 1525.38 214.653 1527V1533.16H216.233V1527.6C216.233 1525.68 217.393 1524.56 218.833 1524.56C220.293 1524.56 220.893 1525.38 220.893 1527V1533.16H222.473V1526.68C222.473 1524.32 221.373 1523.2 219.353 1523.2C217.873 1523.2 216.673 1523.9 216.033 1525.28C215.673 1523.88 214.673 1523.2 213.113 1523.2C211.733 1523.2 210.593 1523.88 209.993 1525.26V1523.4H208.413V1533.16H209.993V1527.6Z" fill="white"/>
<path d="M145.105 1395.36C147.865 1395.36 149.645 1393.82 149.645 1391.12V1390.64C149.645 1388.02 148.065 1386.22 145.105 1386.2C144.345 1386.2 143.765 1386.4 143.385 1386.74L147.445 1381.16H145.645L142.825 1385.14C140.965 1387.76 140.565 1388.92 140.565 1390.64V1391.12C140.565 1393.82 142.365 1395.36 145.105 1395.36ZM145.105 1387.56C147.125 1387.56 148.045 1388.8 148.045 1390.7V1391.06C148.045 1392.84 147.125 1394 145.105 1394C143.085 1394 142.165 1392.84 142.165 1391.06V1390.7C142.165 1388.8 143.085 1387.56 145.105 1387.56ZM152.208 1398.02L153.828 1393.16H151.968L151.148 1398.02H152.208ZM160.744 1395.36C163.624 1395.36 165.264 1393.78 165.264 1390.98V1385.34C165.264 1382.54 163.624 1380.96 160.744 1380.96C157.904 1380.96 156.264 1382.56 156.264 1385.34V1391C156.264 1393.78 157.904 1395.36 160.744 1395.36ZM160.744 1382.32C162.784 1382.32 163.664 1383.5 163.664 1385.34V1390.98C163.664 1392.8 162.784 1394 160.744 1394C158.744 1394 157.864 1392.82 157.864 1390.98V1385.36C157.864 1383.52 158.744 1382.32 160.744 1382.32ZM172.912 1395.36C175.792 1395.36 177.432 1393.78 177.432 1390.98V1385.34C177.432 1382.54 175.792 1380.96 172.912 1380.96C170.072 1380.96 168.432 1382.56 168.432 1385.34V1391C168.432 1393.78 170.072 1395.36 172.912 1395.36ZM172.912 1382.32C174.952 1382.32 175.832 1383.5 175.832 1385.34V1390.98C175.832 1392.8 174.952 1394 172.912 1394C170.912 1394 170.032 1392.82 170.032 1390.98V1385.36C170.032 1383.52 170.912 1382.32 172.912 1382.32ZM185.08 1395.36C187.96 1395.36 189.6 1393.78 189.6 1390.98V1385.34C189.6 1382.54 187.96 1380.96 185.08 1380.96C182.24 1380.96 180.6 1382.56 180.6 1385.34V1391C180.6 1393.78 182.24 1395.36 185.08 1395.36ZM185.08 1382.32C187.12 1382.32 188 1383.5 188 1385.34V1390.98C188 1392.8 187.12 1394 185.08 1394C183.08 1394 182.2 1392.82 182.2 1390.98V1385.36C182.2 1383.52 183.08 1382.32 185.08 1382.32ZM204.543 1395.16H206.483L202.303 1389.38L205.823 1385.4H204.043L199.603 1390.4V1380.56H198.023V1395.16H199.603V1392.44L201.263 1390.56L204.543 1395.16ZM209.993 1389.6C209.993 1387.68 211.153 1386.56 212.593 1386.56C214.053 1386.56 214.653 1387.38 214.653 1389V1395.16H216.233V1389.6C216.233 1387.68 217.393 1386.56 218.833 1386.56C220.293 1386.56 220.893 1387.38 220.893 1389V1395.16H222.473V1388.68C222.473 1386.32 221.373 1385.2 219.353 1385.2C217.873 1385.2 216.673 1385.9 216.033 1387.28C215.673 1385.88 214.673 1385.2 213.113 1385.2C211.733 1385.2 210.593 1385.88 209.993 1387.26V1385.4H208.413V1395.16H209.993V1389.6Z" fill="white"/>
<path d="M144.82 1257.36C147.82 1257.36 149.4 1255.82 149.4 1253.48V1253.02C149.4 1251.42 148.56 1250.3 147.14 1249.82C148.34 1249.32 149 1248.3 149 1246.96V1246.5C149 1244.22 147.36 1242.96 144.86 1242.96C142.3 1242.96 140.68 1244.22 140.68 1246.5V1246.96C140.68 1248.3 141.32 1249.32 142.56 1249.82C141.12 1250.32 140.26 1251.42 140.26 1253.02V1253.48C140.26 1255.82 141.84 1257.36 144.82 1257.36ZM144.9 1244.32C146.58 1244.32 147.4 1245.2 147.4 1246.54V1246.92C147.4 1248.32 146.58 1249.18 144.76 1249.18C143.1 1249.18 142.28 1248.32 142.28 1246.92V1246.54C142.28 1245.2 143.1 1244.32 144.9 1244.32ZM144.88 1250.54C146.84 1250.54 147.82 1251.54 147.82 1253.08V1253.44C147.82 1255 146.86 1256 144.78 1256C142.82 1256 141.86 1255 141.86 1253.44V1253.08C141.86 1251.54 142.8 1250.54 144.88 1250.54ZM152.208 1260.02L153.828 1255.16H151.968L151.148 1260.02H152.208ZM160.744 1257.36C163.624 1257.36 165.264 1255.78 165.264 1252.98V1247.34C165.264 1244.54 163.624 1242.96 160.744 1242.96C157.904 1242.96 156.264 1244.56 156.264 1247.34V1253C156.264 1255.78 157.904 1257.36 160.744 1257.36ZM160.744 1244.32C162.784 1244.32 163.664 1245.5 163.664 1247.34V1252.98C163.664 1254.8 162.784 1256 160.744 1256C158.744 1256 157.864 1254.82 157.864 1252.98V1247.36C157.864 1245.52 158.744 1244.32 160.744 1244.32ZM172.912 1257.36C175.792 1257.36 177.432 1255.78 177.432 1252.98V1247.34C177.432 1244.54 175.792 1242.96 172.912 1242.96C170.072 1242.96 168.432 1244.56 168.432 1247.34V1253C168.432 1255.78 170.072 1257.36 172.912 1257.36ZM172.912 1244.32C174.952 1244.32 175.832 1245.5 175.832 1247.34V1252.98C175.832 1254.8 174.952 1256 172.912 1256C170.912 1256 170.032 1254.82 170.032 1252.98V1247.36C170.032 1245.52 170.912 1244.32 172.912 1244.32ZM185.08 1257.36C187.96 1257.36 189.6 1255.78 189.6 1252.98V1247.34C189.6 1244.54 187.96 1242.96 185.08 1242.96C182.24 1242.96 180.6 1244.56 180.6 1247.34V1253C180.6 1255.78 182.24 1257.36 185.08 1257.36ZM185.08 1244.32C187.12 1244.32 188 1245.5 188 1247.34V1252.98C188 1254.8 187.12 1256 185.08 1256C183.08 1256 182.2 1254.82 182.2 1252.98V1247.36C182.2 1245.52 183.08 1244.32 185.08 1244.32ZM204.543 1257.16H206.483L202.303 1251.38L205.823 1247.4H204.043L199.603 1252.4V1242.56H198.023V1257.16H199.603V1254.44L201.263 1252.56L204.543 1257.16ZM209.993 1251.6C209.993 1249.68 211.153 1248.56 212.593 1248.56C214.053 1248.56 214.653 1249.38 214.653 1251V1257.16H216.233V1251.6C216.233 1249.68 217.393 1248.56 218.833 1248.56C220.293 1248.56 220.893 1249.38 220.893 1251V1257.16H222.473V1250.68C222.473 1248.32 221.373 1247.2 219.353 1247.2C217.873 1247.2 216.673 1247.9 216.033 1249.28C215.673 1247.88 214.673 1247.2 213.113 1247.2C211.733 1247.2 210.593 1247.88 209.993 1249.26V1247.4H208.413V1257.16H209.993V1251.6Z" fill="white"/>
<path d="M117.88 1106.36L114.16 1107.66V1109.29L117.688 1108.14V1123.16H119.56V1106.36H117.88ZM129.131 1123.4C132.587 1123.4 134.555 1121.51 134.555 1118.15V1111.38C134.555 1108.02 132.587 1106.12 129.131 1106.12C125.723 1106.12 123.755 1108.04 123.755 1111.38V1118.17C123.755 1121.51 125.723 1123.4 129.131 1123.4ZM129.131 1107.76C131.579 1107.76 132.635 1109.17 132.635 1111.38V1118.15C132.635 1120.33 131.579 1121.77 129.131 1121.77C126.731 1121.77 125.675 1120.36 125.675 1118.15V1111.4C125.675 1109.2 126.731 1107.76 129.131 1107.76ZM137.849 1126.6L139.793 1120.76H137.561L136.577 1126.6H137.849ZM148.092 1123.4C151.548 1123.4 153.516 1121.51 153.516 1118.15V1111.38C153.516 1108.02 151.548 1106.12 148.092 1106.12C144.684 1106.12 142.716 1108.04 142.716 1111.38V1118.17C142.716 1121.51 144.684 1123.4 148.092 1123.4ZM148.092 1107.76C150.54 1107.76 151.596 1109.17 151.596 1111.38V1118.15C151.596 1120.33 150.54 1121.77 148.092 1121.77C145.692 1121.77 144.636 1120.36 144.636 1118.15V1111.4C144.636 1109.2 145.692 1107.76 148.092 1107.76ZM162.694 1123.4C166.15 1123.4 168.118 1121.51 168.118 1118.15V1111.38C168.118 1108.02 166.15 1106.12 162.694 1106.12C159.286 1106.12 157.318 1108.04 157.318 1111.38V1118.17C157.318 1121.51 159.286 1123.4 162.694 1123.4ZM162.694 1107.76C165.142 1107.76 166.198 1109.17 166.198 1111.38V1118.15C166.198 1120.33 165.142 1121.77 162.694 1121.77C160.294 1121.77 159.238 1120.36 159.238 1118.15V1111.4C159.238 1109.2 160.294 1107.76 162.694 1107.76ZM177.295 1123.4C180.751 1123.4 182.719 1121.51 182.719 1118.15V1111.38C182.719 1108.02 180.751 1106.12 177.295 1106.12C173.887 1106.12 171.919 1108.04 171.919 1111.38V1118.17C171.919 1121.51 173.887 1123.4 177.295 1123.4ZM177.295 1107.76C179.743 1107.76 180.799 1109.17 180.799 1111.38V1118.15C180.799 1120.33 179.743 1121.77 177.295 1121.77C174.895 1121.77 173.839 1120.36 173.839 1118.15V1111.4C173.839 1109.2 174.895 1107.76 177.295 1107.76ZM200.651 1123.16H202.979L197.963 1116.23L202.187 1111.45H200.051L194.723 1117.45V1105.64H192.827V1123.16H194.723V1119.9L196.715 1117.64L200.651 1123.16ZM207.192 1116.49C207.192 1114.19 208.584 1112.84 210.312 1112.84C212.064 1112.84 212.784 1113.83 212.784 1115.77V1123.16H214.68V1116.49C214.68 1114.19 216.072 1112.84 217.8 1112.84C219.552 1112.84 220.272 1113.83 220.272 1115.77V1123.16H222.168V1115.39C222.168 1112.56 220.848 1111.21 218.424 1111.21C216.648 1111.21 215.208 1112.05 214.44 1113.71C214.008 1112.03 212.808 1111.21 210.936 1111.21C209.28 1111.21 207.912 1112.03 207.192 1113.68V1111.45H205.296V1123.16H207.192V1116.49Z" fill="white"/>
<path d="M131.566 944.164L128.466 945.244V946.604L131.406 945.644V958.164H132.966V944.164H131.566ZM140.943 958.364C143.823 958.364 145.463 956.784 145.463 953.984V948.344C145.463 945.544 143.823 943.964 140.943 943.964C138.103 943.964 136.463 945.564 136.463 948.344V954.004C136.463 956.784 138.103 958.364 140.943 958.364ZM140.943 945.324C142.983 945.324 143.863 946.504 143.863 948.344V953.984C143.863 955.804 142.983 957.004 140.943 957.004C138.943 957.004 138.063 955.824 138.063 953.984V948.364C138.063 946.524 138.943 945.324 140.943 945.324ZM148.208 961.024L149.828 956.164H147.968L147.148 961.024H148.208ZM156.744 958.364C159.624 958.364 161.264 956.784 161.264 953.984V948.344C161.264 945.544 159.624 943.964 156.744 943.964C153.904 943.964 152.264 945.564 152.264 948.344V954.004C152.264 956.784 153.904 958.364 156.744 958.364ZM156.744 945.324C158.784 945.324 159.664 946.504 159.664 948.344V953.984C159.664 955.804 158.784 957.004 156.744 957.004C154.744 957.004 153.864 955.824 153.864 953.984V948.364C153.864 946.524 154.744 945.324 156.744 945.324ZM168.912 958.364C171.792 958.364 173.432 956.784 173.432 953.984V948.344C173.432 945.544 171.792 943.964 168.912 943.964C166.072 943.964 164.432 945.564 164.432 948.344V954.004C164.432 956.784 166.072 958.364 168.912 958.364ZM168.912 945.324C170.952 945.324 171.832 946.504 171.832 948.344V953.984C171.832 955.804 170.952 957.004 168.912 957.004C166.912 957.004 166.032 955.824 166.032 953.984V948.364C166.032 946.524 166.912 945.324 168.912 945.324ZM181.08 958.364C183.96 958.364 185.6 956.784 185.6 953.984V948.344C185.6 945.544 183.96 943.964 181.08 943.964C178.24 943.964 176.6 945.564 176.6 948.344V954.004C176.6 956.784 178.24 958.364 181.08 958.364ZM181.08 945.324C183.12 945.324 184 946.504 184 948.344V953.984C184 955.804 183.12 957.004 181.08 957.004C179.08 957.004 178.2 955.824 178.2 953.984V948.364C178.2 946.524 179.08 945.324 181.08 945.324ZM200.543 958.164H202.483L198.303 952.384L201.823 948.404H200.043L195.603 953.404V943.564H194.023V958.164H195.603V955.444L197.263 953.564L200.543 958.164ZM205.993 952.604C205.993 950.684 207.153 949.564 208.593 949.564C210.053 949.564 210.653 950.384 210.653 952.004V958.164H212.233V952.604C212.233 950.684 213.393 949.564 214.833 949.564C216.293 949.564 216.893 950.384 216.893 952.004V958.164H218.473V951.684C218.473 949.324 217.373 948.204 215.353 948.204C213.873 948.204 212.673 948.904 212.033 950.284C211.673 948.884 210.673 948.204 209.113 948.204C207.733 948.204 206.593 948.884 205.993 950.264V948.404H204.413V958.164H205.993V952.604Z" fill="white"/>
<path d="M125.35 860.164H133.91V858.804H127.53L131.31 854.384C132.87 852.704 133.69 851.604 133.69 849.664C133.69 847.444 132.45 845.964 129.73 845.964C127.13 845.964 125.59 847.504 125.47 850.164H126.99C127.13 848.284 127.97 847.324 129.71 847.324C131.31 847.324 132.09 848.064 132.09 849.664C132.09 850.964 131.69 851.784 130.25 853.404L125.35 858.944V860.164ZM140.943 860.364C143.823 860.364 145.463 858.784 145.463 855.984V850.344C145.463 847.544 143.823 845.964 140.943 845.964C138.103 845.964 136.463 847.564 136.463 850.344V856.004C136.463 858.784 138.103 860.364 140.943 860.364ZM140.943 847.324C142.983 847.324 143.863 848.504 143.863 850.344V855.984C143.863 857.804 142.983 859.004 140.943 859.004C138.943 859.004 138.063 857.824 138.063 855.984V850.364C138.063 848.524 138.943 847.324 140.943 847.324ZM148.208 863.024L149.828 858.164H147.968L147.148 863.024H148.208ZM156.744 860.364C159.624 860.364 161.264 858.784 161.264 855.984V850.344C161.264 847.544 159.624 845.964 156.744 845.964C153.904 845.964 152.264 847.564 152.264 850.344V856.004C152.264 858.784 153.904 860.364 156.744 860.364ZM156.744 847.324C158.784 847.324 159.664 848.504 159.664 850.344V855.984C159.664 857.804 158.784 859.004 156.744 859.004C154.744 859.004 153.864 857.824 153.864 855.984V850.364C153.864 848.524 154.744 847.324 156.744 847.324ZM168.912 860.364C171.792 860.364 173.432 858.784 173.432 855.984V850.344C173.432 847.544 171.792 845.964 168.912 845.964C166.072 845.964 164.432 847.564 164.432 850.344V856.004C164.432 858.784 166.072 860.364 168.912 860.364ZM168.912 847.324C170.952 847.324 171.832 848.504 171.832 850.344V855.984C171.832 857.804 170.952 859.004 168.912 859.004C166.912 859.004 166.032 857.824 166.032 855.984V850.364C166.032 848.524 166.912 847.324 168.912 847.324ZM181.08 860.364C183.96 860.364 185.6 858.784 185.6 855.984V850.344C185.6 847.544 183.96 845.964 181.08 845.964C178.24 845.964 176.6 847.564 176.6 850.344V856.004C176.6 858.784 178.24 860.364 181.08 860.364ZM181.08 847.324C183.12 847.324 184 848.504 184 850.344V855.984C184 857.804 183.12 859.004 181.08 859.004C179.08 859.004 178.2 857.824 178.2 855.984V850.364C178.2 848.524 179.08 847.324 181.08 847.324ZM200.543 860.164H202.483L198.303 854.384L201.823 850.404H200.043L195.603 855.404V845.564H194.023V860.164H195.603V857.444L197.263 855.564L200.543 860.164ZM205.993 854.604C205.993 852.684 207.153 851.564 208.593 851.564C210.053 851.564 210.653 852.384 210.653 854.004V860.164H212.233V854.604C212.233 852.684 213.393 851.564 214.833 851.564C216.293 851.564 216.893 852.384 216.893 854.004V860.164H218.473V853.684C218.473 851.324 217.373 850.204 215.353 850.204C213.873 850.204 212.673 850.904 212.033 852.284C211.673 850.884 210.673 850.204 209.113 850.204C207.733 850.204 206.593 850.884 205.993 852.264V850.404H204.413V860.164H205.993V854.604Z" fill="white"/>
<path d="M135.283 759.224V757.884H133.423V748.164H131.583L125.583 758.024V759.224H131.863V762.164H133.423V759.224H135.283ZM127.203 757.884L131.863 750.244V757.884H127.203ZM141.943 762.364C144.823 762.364 146.463 760.784 146.463 757.984V752.344C146.463 749.544 144.823 747.964 141.943 747.964C139.103 747.964 137.463 749.564 137.463 752.344V758.004C137.463 760.784 139.103 762.364 141.943 762.364ZM141.943 749.324C143.983 749.324 144.863 750.504 144.863 752.344V757.984C144.863 759.804 143.983 761.004 141.943 761.004C139.943 761.004 139.063 759.824 139.063 757.984V752.364C139.063 750.524 139.943 749.324 141.943 749.324ZM149.208 765.024L150.828 760.164H148.968L148.148 765.024H149.208ZM157.744 762.364C160.624 762.364 162.264 760.784 162.264 757.984V752.344C162.264 749.544 160.624 747.964 157.744 747.964C154.904 747.964 153.264 749.564 153.264 752.344V758.004C153.264 760.784 154.904 762.364 157.744 762.364ZM157.744 749.324C159.784 749.324 160.664 750.504 160.664 752.344V757.984C160.664 759.804 159.784 761.004 157.744 761.004C155.744 761.004 154.864 759.824 154.864 757.984V752.364C154.864 750.524 155.744 749.324 157.744 749.324ZM169.912 762.364C172.792 762.364 174.432 760.784 174.432 757.984V752.344C174.432 749.544 172.792 747.964 169.912 747.964C167.072 747.964 165.432 749.564 165.432 752.344V758.004C165.432 760.784 167.072 762.364 169.912 762.364ZM169.912 749.324C171.952 749.324 172.832 750.504 172.832 752.344V757.984C172.832 759.804 171.952 761.004 169.912 761.004C167.912 761.004 167.032 759.824 167.032 757.984V752.364C167.032 750.524 167.912 749.324 169.912 749.324ZM182.08 762.364C184.96 762.364 186.6 760.784 186.6 757.984V752.344C186.6 749.544 184.96 747.964 182.08 747.964C179.24 747.964 177.6 749.564 177.6 752.344V758.004C177.6 760.784 179.24 762.364 182.08 762.364ZM182.08 749.324C184.12 749.324 185 750.504 185 752.344V757.984C185 759.804 184.12 761.004 182.08 761.004C180.08 761.004 179.2 759.824 179.2 757.984V752.364C179.2 750.524 180.08 749.324 182.08 749.324ZM201.543 762.164H203.483L199.303 756.384L202.823 752.404H201.043L196.603 757.404V747.564H195.023V762.164H196.603V759.444L198.263 757.564L201.543 762.164ZM206.993 756.604C206.993 754.684 208.153 753.564 209.593 753.564C211.053 753.564 211.653 754.384 211.653 756.004V762.164H213.233V756.604C213.233 754.684 214.393 753.564 215.833 753.564C217.293 753.564 217.893 754.384 217.893 756.004V762.164H219.473V755.684C219.473 753.324 218.373 752.204 216.353 752.204C214.873 752.204 213.673 752.904 213.033 754.284C212.673 752.884 211.673 752.204 210.113 752.204C208.733 752.204 207.593 752.884 206.993 754.264V752.404H205.413V762.164H206.993V756.604Z" fill="white"/>
<path d="M136.38 811.484C139.4 811.484 140.78 809.944 140.78 807.284C140.78 805.744 140.18 804.424 138.36 803.884C140.04 803.424 140.44 802.264 140.44 800.684C140.44 798.464 139.22 796.964 136.24 796.964C133.76 796.964 132.26 798.304 132.18 800.704H133.68C133.76 799.164 134.62 798.324 136.24 798.324C138.1 798.324 138.84 799.124 138.84 800.704C138.84 802.484 138.34 803.304 135.96 803.304H135.06V804.564H135.96C138.34 804.564 139.18 805.604 139.18 807.324C139.18 809.244 138.26 810.124 136.38 810.124C134.34 810.124 133.34 809.204 133.26 807.624H131.74C131.86 810.064 133.38 811.484 136.38 811.484ZM147.514 811.484C150.234 811.484 151.814 809.884 151.814 807.544V806.524C151.814 803.704 150.114 802.424 146.774 802.424H145.334V798.524H151.174V797.164H143.814V803.764H146.654C149.154 803.764 150.214 804.664 150.214 806.524V807.544C150.214 809.264 149.094 810.124 147.474 810.124C145.854 810.124 144.834 809.304 144.714 807.624H143.194C143.274 810.064 144.814 811.484 147.514 811.484ZM154.579 814.024L156.199 809.164H154.339L153.519 814.024H154.579ZM160.342 811.164L165.202 798.524V797.164H157.082V798.524H163.622L158.642 811.164H160.342ZM171.566 811.364C174.566 811.364 176.146 809.824 176.146 807.484V807.024C176.146 805.424 175.306 804.304 173.886 803.824C175.086 803.324 175.746 802.304 175.746 800.964V800.504C175.746 798.224 174.106 796.964 171.606 796.964C169.046 796.964 167.426 798.224 167.426 800.504V800.964C167.426 802.304 168.066 803.324 169.306 803.824C167.866 804.324 167.006 805.424 167.006 807.024V807.484C167.006 809.824 168.586 811.364 171.566 811.364ZM171.646 798.324C173.326 798.324 174.146 799.204 174.146 800.544V800.924C174.146 802.324 173.326 803.184 171.506 803.184C169.846 803.184 169.026 802.324 169.026 800.924V800.544C169.026 799.204 169.846 798.324 171.646 798.324ZM171.626 804.544C173.586 804.544 174.566 805.544 174.566 807.084V807.444C174.566 809.004 173.606 810.004 171.526 810.004C169.566 810.004 168.606 809.004 168.606 807.444V807.084C168.606 805.544 169.546 804.544 171.626 804.544ZM182.866 811.484C185.586 811.484 187.166 809.884 187.166 807.544V806.524C187.166 803.704 185.466 802.424 182.126 802.424H180.686V798.524H186.526V797.164H179.166V803.764H182.006C184.506 803.764 185.566 804.664 185.566 806.524V807.544C185.566 809.264 184.446 810.124 182.826 810.124C181.206 810.124 180.186 809.304 180.066 807.624H178.546C178.626 810.064 180.166 811.484 182.866 811.484ZM201.543 811.164H203.483L199.303 805.384L202.823 801.404H201.043L196.603 806.404V796.564H195.023V811.164H196.603V808.444L198.263 806.564L201.543 811.164ZM206.993 805.604C206.993 803.684 208.153 802.564 209.593 802.564C211.053 802.564 211.653 803.384 211.653 805.004V811.164H213.233V805.604C213.233 803.684 214.393 802.564 215.833 802.564C217.293 802.564 217.893 803.384 217.893 805.004V811.164H219.473V804.684C219.473 802.324 218.373 801.204 216.353 801.204C214.873 801.204 213.673 801.904 213.033 803.284C212.673 801.884 211.673 801.204 210.113 801.204C208.733 801.204 207.593 801.884 206.993 803.264V801.404H205.413V811.164H206.993V805.604Z" fill="white"/>
<path d="M130.503 664.364C133.263 664.364 135.043 662.824 135.043 660.124V659.644C135.043 657.024 133.463 655.224 130.503 655.204C129.743 655.204 129.163 655.404 128.783 655.744L132.843 650.164H131.043L128.223 654.144C126.363 656.764 125.963 657.924 125.963 659.644V660.124C125.963 662.824 127.763 664.364 130.503 664.364ZM130.503 656.564C132.523 656.564 133.443 657.804 133.443 659.704V660.064C133.443 661.844 132.523 663.004 130.503 663.004C128.483 663.004 127.563 661.844 127.563 660.064V659.704C127.563 657.804 128.483 656.564 130.503 656.564ZM141.943 664.364C144.823 664.364 146.463 662.784 146.463 659.984V654.344C146.463 651.544 144.823 649.964 141.943 649.964C139.103 649.964 137.463 651.564 137.463 654.344V660.004C137.463 662.784 139.103 664.364 141.943 664.364ZM141.943 651.324C143.983 651.324 144.863 652.504 144.863 654.344V659.984C144.863 661.804 143.983 663.004 141.943 663.004C139.943 663.004 139.063 661.824 139.063 659.984V654.364C139.063 652.524 139.943 651.324 141.943 651.324ZM149.208 667.024L150.828 662.164H148.968L148.148 667.024H149.208ZM157.744 664.364C160.624 664.364 162.264 662.784 162.264 659.984V654.344C162.264 651.544 160.624 649.964 157.744 649.964C154.904 649.964 153.264 651.564 153.264 654.344V660.004C153.264 662.784 154.904 664.364 157.744 664.364ZM157.744 651.324C159.784 651.324 160.664 652.504 160.664 654.344V659.984C160.664 661.804 159.784 663.004 157.744 663.004C155.744 663.004 154.864 661.824 154.864 659.984V654.364C154.864 652.524 155.744 651.324 157.744 651.324ZM169.912 664.364C172.792 664.364 174.432 662.784 174.432 659.984V654.344C174.432 651.544 172.792 649.964 169.912 649.964C167.072 649.964 165.432 651.564 165.432 654.344V660.004C165.432 662.784 167.072 664.364 169.912 664.364ZM169.912 651.324C171.952 651.324 172.832 652.504 172.832 654.344V659.984C172.832 661.804 171.952 663.004 169.912 663.004C167.912 663.004 167.032 661.824 167.032 659.984V654.364C167.032 652.524 167.912 651.324 169.912 651.324ZM182.08 664.364C184.96 664.364 186.6 662.784 186.6 659.984V654.344C186.6 651.544 184.96 649.964 182.08 649.964C179.24 649.964 177.6 651.564 177.6 654.344V660.004C177.6 662.784 179.24 664.364 182.08 664.364ZM182.08 651.324C184.12 651.324 185 652.504 185 654.344V659.984C185 661.804 184.12 663.004 182.08 663.004C180.08 663.004 179.2 661.824 179.2 659.984V654.364C179.2 652.524 180.08 651.324 182.08 651.324ZM201.543 664.164H203.483L199.303 658.384L202.823 654.404H201.043L196.603 659.404V649.564H195.023V664.164H196.603V661.444L198.263 659.564L201.543 664.164ZM206.993 658.604C206.993 656.684 208.153 655.564 209.593 655.564C211.053 655.564 211.653 656.384 211.653 658.004V664.164H213.233V658.604C213.233 656.684 214.393 655.564 215.833 655.564C217.293 655.564 217.893 656.384 217.893 658.004V664.164H219.473V657.684C219.473 655.324 218.373 654.204 216.353 654.204C214.873 654.204 213.673 654.904 213.033 656.284C212.673 654.884 211.673 654.204 210.113 654.204C208.733 654.204 207.593 654.884 206.993 656.264V654.404H205.413V664.164H206.993V658.604Z" fill="white"/>
<path d="M130.023 566.364C133.023 566.364 134.603 564.824 134.603 562.484V562.024C134.603 560.424 133.763 559.304 132.343 558.824C133.543 558.324 134.203 557.304 134.203 555.964V555.504C134.203 553.224 132.563 551.964 130.063 551.964C127.503 551.964 125.883 553.224 125.883 555.504V555.964C125.883 557.304 126.523 558.324 127.763 558.824C126.323 559.324 125.463 560.424 125.463 562.024V562.484C125.463 564.824 127.043 566.364 130.023 566.364ZM130.103 553.324C131.783 553.324 132.603 554.204 132.603 555.544V555.924C132.603 557.324 131.783 558.184 129.963 558.184C128.303 558.184 127.483 557.324 127.483 555.924V555.544C127.483 554.204 128.303 553.324 130.103 553.324ZM130.083 559.544C132.043 559.544 133.023 560.544 133.023 562.084V562.444C133.023 564.004 132.063 565.004 129.983 565.004C128.023 565.004 127.063 564.004 127.063 562.444V562.084C127.063 560.544 128.003 559.544 130.083 559.544ZM141.943 566.364C144.823 566.364 146.463 564.784 146.463 561.984V556.344C146.463 553.544 144.823 551.964 141.943 551.964C139.103 551.964 137.463 553.564 137.463 556.344V562.004C137.463 564.784 139.103 566.364 141.943 566.364ZM141.943 553.324C143.983 553.324 144.863 554.504 144.863 556.344V561.984C144.863 563.804 143.983 565.004 141.943 565.004C139.943 565.004 139.063 563.824 139.063 561.984V556.364C139.063 554.524 139.943 553.324 141.943 553.324ZM149.208 569.024L150.828 564.164H148.968L148.148 569.024H149.208ZM157.744 566.364C160.624 566.364 162.264 564.784 162.264 561.984V556.344C162.264 553.544 160.624 551.964 157.744 551.964C154.904 551.964 153.264 553.564 153.264 556.344V562.004C153.264 564.784 154.904 566.364 157.744 566.364ZM157.744 553.324C159.784 553.324 160.664 554.504 160.664 556.344V561.984C160.664 563.804 159.784 565.004 157.744 565.004C155.744 565.004 154.864 563.824 154.864 561.984V556.364C154.864 554.524 155.744 553.324 157.744 553.324ZM169.912 566.364C172.792 566.364 174.432 564.784 174.432 561.984V556.344C174.432 553.544 172.792 551.964 169.912 551.964C167.072 551.964 165.432 553.564 165.432 556.344V562.004C165.432 564.784 167.072 566.364 169.912 566.364ZM169.912 553.324C171.952 553.324 172.832 554.504 172.832 556.344V561.984C172.832 563.804 171.952 565.004 169.912 565.004C167.912 565.004 167.032 563.824 167.032 561.984V556.364C167.032 554.524 167.912 553.324 169.912 553.324ZM182.08 566.364C184.96 566.364 186.6 564.784 186.6 561.984V556.344C186.6 553.544 184.96 551.964 182.08 551.964C179.24 551.964 177.6 553.564 177.6 556.344V562.004C177.6 564.784 179.24 566.364 182.08 566.364ZM182.08 553.324C184.12 553.324 185 554.504 185 556.344V561.984C185 563.804 184.12 565.004 182.08 565.004C180.08 565.004 179.2 563.824 179.2 561.984V556.364C179.2 554.524 180.08 553.324 182.08 553.324ZM201.543 566.164H203.483L199.303 560.384L202.823 556.404H201.043L196.603 561.404V551.564H195.023V566.164H196.603V563.444L198.263 561.564L201.543 566.164ZM206.993 560.604C206.993 558.684 208.153 557.564 209.593 557.564C211.053 557.564 211.653 558.384 211.653 560.004V566.164H213.233V560.604C213.233 558.684 214.393 557.564 215.833 557.564C217.293 557.564 217.893 558.384 217.893 560.004V566.164H219.473V559.684C219.473 557.324 218.373 556.204 216.353 556.204C214.873 556.204 213.673 556.904 213.033 558.284C212.673 556.884 211.673 556.204 210.113 556.204C208.733 556.204 207.593 556.884 206.993 558.264V556.404H205.413V566.164H206.993V560.604Z" fill="white"/>
<path d="M99.2781 450.364L95.5581 451.66V453.292L99.0861 452.14V467.164H100.958V450.364H99.2781ZM110.53 467.404C113.986 467.404 115.954 465.508 115.954 462.148V455.38C115.954 452.02 113.986 450.124 110.53 450.124C107.122 450.124 105.154 452.044 105.154 455.38V462.172C105.154 465.508 107.122 467.404 110.53 467.404ZM110.53 451.756C112.978 451.756 114.034 453.172 114.034 455.38V462.148C114.034 464.332 112.978 465.772 110.53 465.772C108.13 465.772 107.074 464.356 107.074 462.148V455.404C107.074 453.196 108.13 451.756 110.53 451.756ZM125.131 467.404C128.587 467.404 130.555 465.508 130.555 462.148V455.38C130.555 452.02 128.587 450.124 125.131 450.124C121.723 450.124 119.755 452.044 119.755 455.38V462.172C119.755 465.508 121.723 467.404 125.131 467.404ZM125.131 451.756C127.579 451.756 128.635 453.172 128.635 455.38V462.148C128.635 464.332 127.579 465.772 125.131 465.772C122.731 465.772 121.675 464.356 121.675 462.148V455.404C121.675 453.196 122.731 451.756 125.131 451.756ZM133.849 470.596L135.793 464.764H133.561L132.577 470.596H133.849ZM144.092 467.404C147.548 467.404 149.516 465.508 149.516 462.148V455.38C149.516 452.02 147.548 450.124 144.092 450.124C140.684 450.124 138.716 452.044 138.716 455.38V462.172C138.716 465.508 140.684 467.404 144.092 467.404ZM144.092 451.756C146.54 451.756 147.596 453.172 147.596 455.38V462.148C147.596 464.332 146.54 465.772 144.092 465.772C141.692 465.772 140.636 464.356 140.636 462.148V455.404C140.636 453.196 141.692 451.756 144.092 451.756ZM158.694 467.404C162.15 467.404 164.118 465.508 164.118 462.148V455.38C164.118 452.02 162.15 450.124 158.694 450.124C155.286 450.124 153.318 452.044 153.318 455.38V462.172C153.318 465.508 155.286 467.404 158.694 467.404ZM158.694 451.756C161.142 451.756 162.198 453.172 162.198 455.38V462.148C162.198 464.332 161.142 465.772 158.694 465.772C156.294 465.772 155.238 464.356 155.238 462.148V455.404C155.238 453.196 156.294 451.756 158.694 451.756ZM173.295 467.404C176.751 467.404 178.719 465.508 178.719 462.148V455.38C178.719 452.02 176.751 450.124 173.295 450.124C169.887 450.124 167.919 452.044 167.919 455.38V462.172C167.919 465.508 169.887 467.404 173.295 467.404ZM173.295 451.756C175.743 451.756 176.799 453.172 176.799 455.38V462.148C176.799 464.332 175.743 465.772 173.295 465.772C170.895 465.772 169.839 464.356 169.839 462.148V455.404C169.839 453.196 170.895 451.756 173.295 451.756ZM196.651 467.164H198.979L193.963 460.228L198.187 455.452H196.051L190.723 461.452V449.644H188.827V467.164H190.723V463.9L192.715 461.644L196.651 467.164ZM203.192 460.492C203.192 458.188 204.584 456.844 206.312 456.844C208.064 456.844 208.784 457.828 208.784 459.772V467.164H210.68V460.492C210.68 458.188 212.072 456.844 213.8 456.844C215.552 456.844 216.272 457.828 216.272 459.772V467.164H218.168V459.388C218.168 456.556 216.848 455.212 214.424 455.212C212.648 455.212 211.208 456.052 210.44 457.708C210.008 456.028 208.808 455.212 206.936 455.212C205.28 455.212 203.912 456.028 203.192 457.684V455.452H201.296V467.164H203.192V460.492Z" fill="white"/>
<path d="M126.398 282.164L123.298 283.244V284.604L126.238 283.644V296.164H127.798V282.164H126.398ZM135.775 296.364C138.655 296.364 140.295 294.784 140.295 291.984V286.344C140.295 283.544 138.655 281.964 135.775 281.964C132.935 281.964 131.295 283.564 131.295 286.344V292.004C131.295 294.784 132.935 296.364 135.775 296.364ZM135.775 283.324C137.815 283.324 138.695 284.504 138.695 286.344V291.984C138.695 293.804 137.815 295.004 135.775 295.004C133.775 295.004 132.895 293.824 132.895 291.984V286.364C132.895 284.524 133.775 283.324 135.775 283.324ZM147.943 296.364C150.823 296.364 152.463 294.784 152.463 291.984V286.344C152.463 283.544 150.823 281.964 147.943 281.964C145.103 281.964 143.463 283.564 143.463 286.344V292.004C143.463 294.784 145.103 296.364 147.943 296.364ZM147.943 283.324C149.983 283.324 150.863 284.504 150.863 286.344V291.984C150.863 293.804 149.983 295.004 147.943 295.004C145.943 295.004 145.063 293.824 145.063 291.984V286.364C145.063 284.524 145.943 283.324 147.943 283.324ZM155.208 299.024L156.828 294.164H154.968L154.148 299.024H155.208ZM163.744 296.364C166.624 296.364 168.264 294.784 168.264 291.984V286.344C168.264 283.544 166.624 281.964 163.744 281.964C160.904 281.964 159.264 283.564 159.264 286.344V292.004C159.264 294.784 160.904 296.364 163.744 296.364ZM163.744 283.324C165.784 283.324 166.664 284.504 166.664 286.344V291.984C166.664 293.804 165.784 295.004 163.744 295.004C161.744 295.004 160.864 293.824 160.864 291.984V286.364C160.864 284.524 161.744 283.324 163.744 283.324ZM175.912 296.364C178.792 296.364 180.432 294.784 180.432 291.984V286.344C180.432 283.544 178.792 281.964 175.912 281.964C173.072 281.964 171.432 283.564 171.432 286.344V292.004C171.432 294.784 173.072 296.364 175.912 296.364ZM175.912 283.324C177.952 283.324 178.832 284.504 178.832 286.344V291.984C178.832 293.804 177.952 295.004 175.912 295.004C173.912 295.004 173.032 293.824 173.032 291.984V286.364C173.032 284.524 173.912 283.324 175.912 283.324ZM188.08 296.364C190.96 296.364 192.6 294.784 192.6 291.984V286.344C192.6 283.544 190.96 281.964 188.08 281.964C185.24 281.964 183.6 283.564 183.6 286.344V292.004C183.6 294.784 185.24 296.364 188.08 296.364ZM188.08 283.324C190.12 283.324 191 284.504 191 286.344V291.984C191 293.804 190.12 295.004 188.08 295.004C186.08 295.004 185.2 293.824 185.2 291.984V286.364C185.2 284.524 186.08 283.324 188.08 283.324ZM207.543 296.164H209.483L205.303 290.384L208.823 286.404H207.043L202.603 291.404V281.564H201.023V296.164H202.603V293.444L204.263 291.564L207.543 296.164ZM212.993 290.604C212.993 288.684 214.153 287.564 215.593 287.564C217.053 287.564 217.653 288.384 217.653 290.004V296.164H219.233V290.604C219.233 288.684 220.393 287.564 221.833 287.564C223.293 287.564 223.893 288.384 223.893 290.004V296.164H225.473V289.684C225.473 287.324 224.373 286.204 222.353 286.204C220.873 286.204 219.673 286.904 219.033 288.284C218.673 286.884 217.673 286.204 216.113 286.204C214.733 286.204 213.593 286.884 212.993 288.264V286.404H211.413V296.164H212.993V290.604Z" fill="white"/>
<path d="M117.182 231.164H125.742V229.804H119.362L123.142 225.384C124.702 223.704 125.522 222.604 125.522 220.664C125.522 218.444 124.282 216.964 121.562 216.964C118.962 216.964 117.422 218.504 117.302 221.164H118.822C118.962 219.284 119.802 218.324 121.542 218.324C123.142 218.324 123.922 219.064 123.922 220.664C123.922 221.964 123.522 222.784 122.082 224.404L117.182 229.944V231.164ZM132.775 231.364C135.655 231.364 137.295 229.784 137.295 226.984V221.344C137.295 218.544 135.655 216.964 132.775 216.964C129.935 216.964 128.295 218.564 128.295 221.344V227.004C128.295 229.784 129.935 231.364 132.775 231.364ZM132.775 218.324C134.815 218.324 135.695 219.504 135.695 221.344V226.984C135.695 228.804 134.815 230.004 132.775 230.004C130.775 230.004 129.895 228.824 129.895 226.984V221.364C129.895 219.524 130.775 218.324 132.775 218.324ZM144.943 231.364C147.823 231.364 149.463 229.784 149.463 226.984V221.344C149.463 218.544 147.823 216.964 144.943 216.964C142.103 216.964 140.463 218.564 140.463 221.344V227.004C140.463 229.784 142.103 231.364 144.943 231.364ZM144.943 218.324C146.983 218.324 147.863 219.504 147.863 221.344V226.984C147.863 228.804 146.983 230.004 144.943 230.004C142.943 230.004 142.063 228.824 142.063 226.984V221.364C142.063 219.524 142.943 218.324 144.943 218.324ZM152.208 234.024L153.828 229.164H151.968L151.148 234.024H152.208ZM160.744 231.364C163.624 231.364 165.264 229.784 165.264 226.984V221.344C165.264 218.544 163.624 216.964 160.744 216.964C157.904 216.964 156.264 218.564 156.264 221.344V227.004C156.264 229.784 157.904 231.364 160.744 231.364ZM160.744 218.324C162.784 218.324 163.664 219.504 163.664 221.344V226.984C163.664 228.804 162.784 230.004 160.744 230.004C158.744 230.004 157.864 228.824 157.864 226.984V221.364C157.864 219.524 158.744 218.324 160.744 218.324ZM172.912 231.364C175.792 231.364 177.432 229.784 177.432 226.984V221.344C177.432 218.544 175.792 216.964 172.912 216.964C170.072 216.964 168.432 218.564 168.432 221.344V227.004C168.432 229.784 170.072 231.364 172.912 231.364ZM172.912 218.324C174.952 218.324 175.832 219.504 175.832 221.344V226.984C175.832 228.804 174.952 230.004 172.912 230.004C170.912 230.004 170.032 228.824 170.032 226.984V221.364C170.032 219.524 170.912 218.324 172.912 218.324ZM185.08 231.364C187.96 231.364 189.6 229.784 189.6 226.984V221.344C189.6 218.544 187.96 216.964 185.08 216.964C182.24 216.964 180.6 218.564 180.6 221.344V227.004C180.6 229.784 182.24 231.364 185.08 231.364ZM185.08 218.324C187.12 218.324 188 219.504 188 221.344V226.984C188 228.804 187.12 230.004 185.08 230.004C183.08 230.004 182.2 228.824 182.2 226.984V221.364C182.2 219.524 183.08 218.324 185.08 218.324ZM204.543 231.164H206.483L202.303 225.384L205.823 221.404H204.043L199.603 226.404V216.564H198.023V231.164H199.603V228.444L201.263 226.564L204.543 231.164ZM209.993 225.604C209.993 223.684 211.153 222.564 212.593 222.564C214.053 222.564 214.653 223.384 214.653 225.004V231.164H216.233V225.604C216.233 223.684 217.393 222.564 218.833 222.564C220.293 222.564 220.893 223.384 220.893 225.004V231.164H222.473V224.684C222.473 222.324 221.373 221.204 219.353 221.204C217.873 221.204 216.673 221.904 216.033 223.284C215.673 221.884 214.673 221.204 213.113 221.204C211.733 221.204 210.593 221.884 209.993 223.264V221.404H208.413V231.164H209.993V225.604Z" fill="white"/>
<path d="M126.115 171.224V169.884H124.255V160.164H122.415L116.415 170.024V171.224H122.695V174.164H124.255V171.224H126.115ZM118.035 169.884L122.695 162.244V169.884H118.035ZM132.775 174.364C135.655 174.364 137.295 172.784 137.295 169.984V164.344C137.295 161.544 135.655 159.964 132.775 159.964C129.935 159.964 128.295 161.564 128.295 164.344V170.004C128.295 172.784 129.935 174.364 132.775 174.364ZM132.775 161.324C134.815 161.324 135.695 162.504 135.695 164.344V169.984C135.695 171.804 134.815 173.004 132.775 173.004C130.775 173.004 129.895 171.824 129.895 169.984V164.364C129.895 162.524 130.775 161.324 132.775 161.324ZM144.943 174.364C147.823 174.364 149.463 172.784 149.463 169.984V164.344C149.463 161.544 147.823 159.964 144.943 159.964C142.103 159.964 140.463 161.564 140.463 164.344V170.004C140.463 172.784 142.103 174.364 144.943 174.364ZM144.943 161.324C146.983 161.324 147.863 162.504 147.863 164.344V169.984C147.863 171.804 146.983 173.004 144.943 173.004C142.943 173.004 142.063 171.824 142.063 169.984V164.364C142.063 162.524 142.943 161.324 144.943 161.324ZM152.208 177.024L153.828 172.164H151.968L151.148 177.024H152.208ZM160.744 174.364C163.624 174.364 165.264 172.784 165.264 169.984V164.344C165.264 161.544 163.624 159.964 160.744 159.964C157.904 159.964 156.264 161.564 156.264 164.344V170.004C156.264 172.784 157.904 174.364 160.744 174.364ZM160.744 161.324C162.784 161.324 163.664 162.504 163.664 164.344V169.984C163.664 171.804 162.784 173.004 160.744 173.004C158.744 173.004 157.864 171.824 157.864 169.984V164.364C157.864 162.524 158.744 161.324 160.744 161.324ZM172.912 174.364C175.792 174.364 177.432 172.784 177.432 169.984V164.344C177.432 161.544 175.792 159.964 172.912 159.964C170.072 159.964 168.432 161.564 168.432 164.344V170.004C168.432 172.784 170.072 174.364 172.912 174.364ZM172.912 161.324C174.952 161.324 175.832 162.504 175.832 164.344V169.984C175.832 171.804 174.952 173.004 172.912 173.004C170.912 173.004 170.032 171.824 170.032 169.984V164.364C170.032 162.524 170.912 161.324 172.912 161.324ZM185.08 174.364C187.96 174.364 189.6 172.784 189.6 169.984V164.344C189.6 161.544 187.96 159.964 185.08 159.964C182.24 159.964 180.6 161.564 180.6 164.344V170.004C180.6 172.784 182.24 174.364 185.08 174.364ZM185.08 161.324C187.12 161.324 188 162.504 188 164.344V169.984C188 171.804 187.12 173.004 185.08 173.004C183.08 173.004 182.2 171.824 182.2 169.984V164.364C182.2 162.524 183.08 161.324 185.08 161.324ZM204.543 174.164H206.483L202.303 168.384L205.823 164.404H204.043L199.603 169.404V159.564H198.023V174.164H199.603V171.444L201.263 169.564L204.543 174.164ZM209.993 168.604C209.993 166.684 211.153 165.564 212.593 165.564C214.053 165.564 214.653 166.384 214.653 168.004V174.164H216.233V168.604C216.233 166.684 217.393 165.564 218.833 165.564C220.293 165.564 220.893 166.384 220.893 168.004V174.164H222.473V167.684C222.473 165.324 221.373 164.204 219.353 164.204C217.873 164.204 216.673 164.904 216.033 166.284C215.673 164.884 214.673 164.204 213.113 164.204C211.733 164.204 210.593 164.884 209.993 166.264V164.404H208.413V174.164H209.993V168.604Z" fill="white"/>
<path d="M100.802 104.404C104.114 104.404 106.25 102.556 106.25 99.3161V98.7401C106.25 95.5961 104.354 93.4361 100.802 93.4121C99.89 93.4121 99.194 93.6521 98.738 94.0601L103.61 87.3641H101.45L98.066 92.1401C95.834 95.2841 95.354 96.6761 95.354 98.7401V99.3161C95.354 102.556 97.514 104.404 100.802 104.404ZM100.802 95.0441C103.226 95.0441 104.33 96.5321 104.33 98.8121V99.2441C104.33 101.38 103.226 102.772 100.802 102.772C98.378 102.772 97.274 101.38 97.274 99.2441V98.8121C97.274 96.5321 98.378 95.0441 100.802 95.0441ZM114.53 104.404C117.986 104.404 119.954 102.508 119.954 99.1481V92.3801C119.954 89.0201 117.986 87.1241 114.53 87.1241C111.122 87.1241 109.154 89.0441 109.154 92.3801V99.1721C109.154 102.508 111.122 104.404 114.53 104.404ZM114.53 88.7561C116.978 88.7561 118.034 90.1721 118.034 92.3801V99.1481C118.034 101.332 116.978 102.772 114.53 102.772C112.13 102.772 111.074 101.356 111.074 99.1481V92.4041C111.074 90.1961 112.13 88.7561 114.53 88.7561ZM129.131 104.404C132.587 104.404 134.555 102.508 134.555 99.1481V92.3801C134.555 89.0201 132.587 87.1241 129.131 87.1241C125.723 87.1241 123.755 89.0441 123.755 92.3801V99.1721C123.755 102.508 125.723 104.404 129.131 104.404ZM129.131 88.7561C131.579 88.7561 132.635 90.1721 132.635 92.3801V99.1481C132.635 101.332 131.579 102.772 129.131 102.772C126.731 102.772 125.675 101.356 125.675 99.1481V92.4041C125.675 90.1961 126.731 88.7561 129.131 88.7561ZM137.849 107.596L139.793 101.764H137.561L136.577 107.596H137.849ZM148.092 104.404C151.548 104.404 153.516 102.508 153.516 99.1481V92.3801C153.516 89.0201 151.548 87.1241 148.092 87.1241C144.684 87.1241 142.716 89.0441 142.716 92.3801V99.1721C142.716 102.508 144.684 104.404 148.092 104.404ZM148.092 88.7561C150.54 88.7561 151.596 90.1721 151.596 92.3801V99.1481C151.596 101.332 150.54 102.772 148.092 102.772C145.692 102.772 144.636 101.356 144.636 99.1481V92.4041C144.636 90.1961 145.692 88.7561 148.092 88.7561ZM162.694 104.404C166.15 104.404 168.118 102.508 168.118 99.1481V92.3801C168.118 89.0201 166.15 87.1241 162.694 87.1241C159.286 87.1241 157.318 89.0441 157.318 92.3801V99.1721C157.318 102.508 159.286 104.404 162.694 104.404ZM162.694 88.7561C165.142 88.7561 166.198 90.1721 166.198 92.3801V99.1481C166.198 101.332 165.142 102.772 162.694 102.772C160.294 102.772 159.238 101.356 159.238 99.1481V92.4041C159.238 90.1961 160.294 88.7561 162.694 88.7561ZM177.295 104.404C180.751 104.404 182.719 102.508 182.719 99.1481V92.3801C182.719 89.0201 180.751 87.1241 177.295 87.1241C173.887 87.1241 171.919 89.0441 171.919 92.3801V99.1721C171.919 102.508 173.887 104.404 177.295 104.404ZM177.295 88.7561C179.743 88.7561 180.799 90.1721 180.799 92.3801V99.1481C180.799 101.332 179.743 102.772 177.295 102.772C174.895 102.772 173.839 101.356 173.839 99.1481V92.4041C173.839 90.1961 174.895 88.7561 177.295 88.7561ZM200.651 104.164H202.979L197.963 97.2281L202.187 92.4521H200.051L194.723 98.4521V86.6441H192.827V104.164H194.723V100.9L196.715 98.6441L200.651 104.164ZM207.192 97.4921C207.192 95.1881 208.584 93.8441 210.312 93.8441C212.064 93.8441 212.784 94.8281 212.784 96.7721V104.164H214.68V97.4921C214.68 95.1881 216.072 93.8441 217.8 93.8441C219.552 93.8441 220.272 94.8281 220.272 96.7721V104.164H222.168V96.3881C222.168 93.5561 220.848 92.2121 218.424 92.2121C216.648 92.2121 215.208 93.0521 214.44 94.7081C214.008 93.0281 212.808 92.2121 210.936 92.2121C209.28 92.2121 207.912 93.0281 207.192 94.6841V92.4521H205.296V104.164H207.192V97.4921Z" fill="white"/>
<path d="M127.007 39.2V50.456C127.007 52.928 125.759 54.608 123.095 54.608C120.479 54.608 119.207 52.928 119.207 50.456V39.2H117.287V50.456C117.287 54.2 119.567 56.24 123.095 56.24C126.647 56.24 128.927 54.2 128.927 50.456V39.2H127.007ZM134.677 49.328C134.677 47.024 136.093 45.68 137.845 45.68C139.741 45.68 140.533 46.664 140.533 48.608V56H142.405V48.224C142.405 45.392 141.013 44.048 138.469 44.048C136.789 44.048 135.421 44.864 134.677 46.496V44.288H132.781V56H134.677V49.328ZM154.011 56H156.339L151.323 49.064L155.547 44.288H153.411L148.083 50.288V38.48H146.187V56H148.083V52.736L150.075 50.48L154.011 56ZM160.552 49.328C160.552 47.024 161.968 45.68 163.72 45.68C165.616 45.68 166.408 46.664 166.408 48.608V56H168.28V48.224C168.28 45.392 166.888 44.048 164.344 44.048C162.664 44.048 161.296 44.864 160.552 46.496V44.288H158.656V56H160.552V49.328ZM176.55 56.24C179.598 56.24 181.59 54.488 181.59 51.056V49.232C181.59 45.8 179.598 44.048 176.55 44.048C173.502 44.048 171.534 45.8 171.534 49.232V51.056C171.534 54.488 173.502 56.24 176.55 56.24ZM176.55 45.68C178.686 45.68 179.67 47.096 179.67 49.232V51.032C179.67 53.216 178.686 54.608 176.55 54.608C174.414 54.608 173.454 53.216 173.454 51.032V49.232C173.454 47.096 174.414 45.68 176.55 45.68ZM195.35 56H197.462L200.966 44.288H199.022L196.334 53.912L193.07 44.288H191.318L188.03 53.888L185.39 44.288H183.374L186.854 56H188.87L192.134 46.616L195.35 56ZM205.458 49.328C205.458 47.024 206.874 45.68 208.626 45.68C210.522 45.68 211.314 46.664 211.314 48.608V56H213.186V48.224C213.186 45.392 211.794 44.048 209.25 44.048C207.57 44.048 206.202 44.864 205.458 46.496V44.288H203.562V56H205.458V49.328Z" fill="white"/>
</svg>
