<svg width="56" height="12" viewBox="0 0 56 12" fill="none" xmlns="http://www.w3.org/2000/svg">
<rect width="56" height="12" fill="black"/>
<path d="M13.5 8C14.8807 8 16 6.88071 16 5.5C16 4.11929 14.8807 3 13.5 3C12.1193 3 11 4.11929 11 5.5C11 6.88071 12.1193 8 13.5 8Z" fill="#E0E0E0"/>
<path d="M33.7678 7.53553C34.7441 7.53553 35.5355 6.74408 35.5355 5.76777C35.5355 4.79146 34.7441 4 33.7678 4C32.7915 4 32 4.79146 32 5.76777C32 6.74408 32.7915 7.53553 33.7678 7.53553Z" fill="#E0E0E0"/>
<path d="M52.1619 5.39382C51.9556 4.62382 51.1641 4.16688 50.3941 4.3732C49.6241 4.57951 49.1672 5.37097 49.3735 6.14096C49.5798 6.91095 50.3713 7.3679 51.1413 7.16158C51.9113 6.95526 52.3682 6.16381 52.1619 5.39382Z" fill="#E0E0E0"/>
<path d="M5.312 10.192C7.172 10.192 8.036 9.256 8.036 7.648C8.036 6.736 7.688 5.98 6.668 5.644C7.628 5.332 7.82 4.648 7.82 3.772C7.82 2.404 7.064 1.48 5.228 1.48C3.68 1.48 2.756 2.308 2.696 3.76H3.848C3.908 2.944 4.352 2.5 5.228 2.5C6.224 2.5 6.62 2.932 6.62 3.784C6.62 4.756 6.356 5.2 5 5.2H4.448V6.148H5.024C6.38 6.148 6.836 6.7 6.836 7.648C6.836 8.692 6.344 9.172 5.312 9.172C4.184 9.172 3.656 8.68 3.596 7.84H2.444C2.516 9.34 3.464 10.192 5.312 10.192Z" fill="#E0E0E0"/>
<path d="M24.48 10H29.784V8.98H26.136L28.128 6.712C29.172 5.632 29.676 4.972 29.676 3.784C29.676 2.392 28.896 1.48 27.192 1.48C25.572 1.48 24.624 2.44 24.552 4.06H25.704C25.788 3.016 26.232 2.5 27.168 2.5C28.056 2.5 28.464 2.908 28.464 3.784C28.464 4.492 28.272 4.936 27.348 5.92L24.48 9.064V10Z" fill="#E0E0E0"/>
<path d="M45.16 1.6L43.264 2.272V3.304L45.052 2.704V10H46.228V1.6H45.16Z" fill="#E0E0E0"/>
</svg>
