<svg width="500" height="500" viewBox="0 0 500 500" fill="none" xmlns="http://www.w3.org/2000/svg">
<rect width="500" height="500" fill="black"/>
<path d="M215.503 98H217.543L211.351 81.2H209.383L203.143 98H205.111L206.719 93.632H213.919L215.503 98ZM213.367 92.024H207.223L210.295 83.528L213.367 92.024ZM220.129 98H230.017V96.368H222.001V81.2H220.129V98ZM232.433 98H242.321V96.368H234.305V81.2H232.433V98ZM247.892 92.336V90.68H242.156V92.336H247.892ZM260.021 82.832V81.2H248.117V82.832H253.157V98H255.029V82.832H260.021ZM262.504 98H264.376V81.2H262.504V98ZM276.275 94.808H277.787L283.523 84.344V98H285.371V81.2H283.235L277.091 92.6L271.019 81.2H268.691V98H270.515V84.344L276.275 94.808ZM289.691 98H300.251V96.368H291.563V90.104H298.787V88.496H291.563V82.832H300.251V81.2H289.691V98ZM175.597 111.592C178.021 111.592 179.005 112.72 179.149 115.048H180.949C180.877 111.76 179.101 109.96 175.597 109.96C171.973 109.96 170.437 111.808 170.437 114.232C170.437 116.704 171.541 117.736 174.541 118.816L176.317 119.464C178.693 120.352 179.341 121.12 179.341 122.704C179.341 124.672 178.333 125.608 175.909 125.608C173.341 125.608 172.117 124.48 171.805 122.152H170.005C170.365 125.632 172.309 127.24 175.885 127.24C179.605 127.24 181.261 125.56 181.261 122.632C181.261 120.28 180.301 119.032 177.085 117.832L175.309 117.184C173.053 116.368 172.357 115.816 172.357 114.208C172.357 112.72 173.149 111.592 175.597 111.592ZM189.288 120.256C193.08 120.256 195.144 118.48 195.144 115.744V114.76C195.144 111.88 193.392 110.2 189.24 110.2H184.656V127H186.528V120.256H189.288ZM189.192 111.832C192.168 111.832 193.224 113.008 193.224 114.808V115.696C193.224 117.472 191.976 118.624 189.216 118.624H186.528V111.832H189.192ZM207.522 127H209.562L203.37 110.2H201.402L195.162 127H197.13L198.738 122.632H205.938L207.522 127ZM205.386 121.024H199.242L202.314 112.528L205.386 121.024ZM217.625 127.24C221.033 127.24 223.241 125.296 223.433 121.792H221.609C221.417 124.384 220.001 125.608 217.553 125.608C214.721 125.608 213.329 123.832 213.329 121.12V116.128C213.329 113.368 214.721 111.592 217.601 111.592C220.073 111.592 221.321 113.008 221.609 115.408H223.433C223.145 112.192 221.225 109.96 217.577 109.96C213.857 109.96 211.409 112.072 211.409 116.128V121.096C211.409 125.152 213.833 127.24 217.625 127.24ZM226.633 127H237.193V125.368H228.505V119.104H235.729V117.496H228.505V111.832H237.193V110.2H226.633V127ZM252.15 127.24C255.99 127.24 258.438 125.128 258.438 121.096V116.104C258.438 112.072 255.99 109.96 252.15 109.96C248.286 109.96 245.838 112.072 245.838 116.128V121.096C245.838 125.152 248.286 127.24 252.15 127.24ZM252.15 111.592C255.126 111.592 256.542 113.368 256.542 116.104V121.072C256.542 123.832 255.126 125.608 252.15 125.608C249.15 125.608 247.758 123.832 247.758 121.12V116.128C247.758 113.368 249.15 111.592 252.15 111.592ZM262.211 127H267.827C271.139 127 273.419 125.488 273.419 122.512V121.888C273.419 119.896 272.315 118.672 270.371 118.144C271.763 117.568 272.603 116.536 272.603 115.024V114.352C272.603 111.592 270.731 110.2 267.155 110.2H262.211V127ZM267.107 111.832C269.555 111.832 270.683 112.696 270.683 114.4V115.024C270.683 116.512 269.555 117.544 267.251 117.544H264.083V111.832H267.107ZM267.707 119.056C270.251 119.056 271.523 120.136 271.523 121.864V122.488C271.523 124.216 270.251 125.368 267.707 125.368H264.083V119.056H267.707ZM275.156 122.368C275.396 125.608 277.292 127.24 280.124 127.24C283.22 127.24 285.02 125.464 285.02 122.056V110.2H283.148V122.056C283.148 124.624 282.02 125.608 280.1 125.608C278.252 125.608 277.172 124.576 276.98 122.368H275.156ZM289.14 127H299.7V125.368H291.012V119.104H298.236V117.496H291.012V111.832H299.7V110.2H289.14V127ZM308.328 127.24C311.736 127.24 313.944 125.296 314.136 121.792H312.312C312.12 124.384 310.704 125.608 308.256 125.608C305.424 125.608 304.032 123.832 304.032 121.12V116.128C304.032 113.368 305.424 111.592 308.304 111.592C310.776 111.592 312.024 113.008 312.312 115.408H314.136C313.848 112.192 311.928 109.96 308.28 109.96C304.56 109.96 302.112 112.072 302.112 116.128V121.096C302.112 125.152 304.536 127.24 308.328 127.24ZM327.392 111.832V110.2H315.488V111.832H320.528V127H322.4V111.832H327.392ZM334.152 111.592C336.576 111.592 337.56 112.72 337.704 115.048H339.504C339.432 111.76 337.656 109.96 334.152 109.96C330.528 109.96 328.992 111.808 328.992 114.232C328.992 116.704 330.096 117.736 333.096 118.816L334.872 119.464C337.248 120.352 337.896 121.12 337.896 122.704C337.896 124.672 336.888 125.608 334.464 125.608C331.896 125.608 330.672 124.48 330.36 122.152H328.56C328.92 125.632 330.864 127.24 334.44 127.24C338.16 127.24 339.816 125.56 339.816 122.632C339.816 120.28 338.856 119.032 335.64 117.832L333.864 117.184C331.608 116.368 330.912 115.816 330.912 114.208C330.912 112.72 331.704 111.592 334.152 111.592Z" fill="white"/>
<path d="M73.552 227.24C76.864 227.24 79 225.392 79 222.152V221.576C79 218.432 77.104 216.272 73.552 216.248C72.64 216.248 71.944 216.488 71.488 216.896L76.36 210.2H74.2L70.816 214.976C68.584 218.12 68.104 219.512 68.104 221.576V222.152C68.104 225.392 70.264 227.24 73.552 227.24ZM73.552 217.88C75.976 217.88 77.08 219.368 77.08 221.648V222.08C77.08 224.216 75.976 225.608 73.552 225.608C71.128 225.608 70.024 224.216 70.024 222.08V221.648C70.024 219.368 71.128 217.88 73.552 217.88ZM84.2101 227L90.0421 211.832V210.2H80.2981V211.832H88.1461L82.1701 227H84.2101ZM94.9433 217.496C97.1273 217.496 98.5913 216.2 98.5913 214.016V213.536C98.5913 211.376 97.1273 210.056 94.9433 210.056C92.7353 210.056 91.2713 211.376 91.2713 213.56V214.016C91.2713 216.2 92.7353 217.496 94.9433 217.496ZM93.6473 227H95.1113L106.271 210.2H104.783L93.6473 227ZM94.9433 211.28C96.4073 211.28 97.1753 212.216 97.1753 213.584V213.992C97.1753 215.336 96.4073 216.296 94.9433 216.296C93.4553 216.296 92.7113 215.36 92.7113 213.992V213.584C92.7113 212.216 93.4553 211.28 94.9433 211.28ZM105.311 227.144C107.495 227.144 108.959 225.824 108.959 223.64V223.184C108.959 221.024 107.495 219.68 105.311 219.68C103.103 219.68 101.639 221.024 101.639 223.208V223.664C101.639 225.824 103.103 227.144 105.311 227.144ZM105.311 220.904C106.775 220.904 107.519 221.864 107.519 223.208V223.616C107.519 224.984 106.775 225.92 105.311 225.92C103.823 225.92 103.055 224.984 103.055 223.64V223.232C103.055 221.864 103.823 220.904 105.311 220.904ZM69.16 256H74.824C78.784 256 80.896 253.984 80.896 250.096V245.128C80.896 241.312 78.664 239.2 74.728 239.2H69.16V256ZM74.608 240.832C77.584 240.832 78.976 242.488 78.976 245.104V250.12C78.976 252.784 77.824 254.368 74.68 254.368H71.032V240.832H74.608ZM93.6048 252.496H91.8048C91.6368 253.72 90.8688 254.464 89.5008 254.632C89.3328 254.656 89.1648 254.656 88.9728 254.656C86.9568 254.656 85.9967 253.456 85.9008 251.488C85.8768 251.128 85.8528 250.744 85.8528 250.36H93.6768V249.28C93.6768 245.824 91.8048 244.048 88.9008 244.048C85.8768 244.048 83.9088 245.8 83.9088 249.232V251.056C83.9088 254.488 85.9008 256.24 88.8768 256.24C91.5408 256.24 93.3408 254.92 93.6048 252.496ZM85.8528 248.992C85.8768 246.928 86.8368 245.608 88.9008 245.608C90.9168 245.608 91.8048 246.712 91.9008 249.16H85.9967L85.8528 248.992ZM101.439 254.608C99.3747 254.608 98.4147 253.264 98.4147 251.032V249.28C98.4147 247.024 99.3267 245.68 101.415 245.68C103.023 245.68 103.887 246.472 104.103 247.96H105.927C105.783 245.608 104.247 244.048 101.415 244.048C98.4627 244.048 96.4947 245.8 96.4947 249.256V251.08C96.4947 254.488 98.4387 256.24 101.391 256.24C104.007 256.24 105.687 254.92 106.047 252.352H104.247C103.959 253.888 103.143 254.608 101.439 254.608ZM115.483 256H117.355V248.224C117.355 245.368 115.963 244.048 113.083 244.048C110.107 244.048 108.787 245.512 108.499 247.672H110.323C110.467 246.496 111.211 245.68 112.915 245.68C114.787 245.68 115.483 246.448 115.483 248.464V249.448H112.243C109.219 249.448 108.115 250.696 108.115 252.4V253.12C108.115 255.04 109.459 256.24 111.883 256.24C113.779 256.24 114.883 255.616 115.483 254.368V256ZM112.435 254.872C110.779 254.872 109.987 254.2 109.987 252.928V252.424C109.987 251.32 110.611 250.648 112.411 250.648H115.483V251.8C115.483 253.984 114.379 254.872 112.435 254.872ZM120.14 260.92C122.516 260.92 123.596 260.176 124.844 257.224L130.316 244.288H128.372L124.844 252.76L121.292 244.288H119.276L123.908 255.064L123.26 256.6C122.276 258.952 121.532 259.288 120.14 259.288H119.42V260.92H120.14ZM141.37 252.496H139.57C139.402 253.72 138.634 254.464 137.266 254.632C137.098 254.656 136.93 254.656 136.738 254.656C134.722 254.656 133.762 253.456 133.666 251.488C133.642 251.128 133.618 250.744 133.618 250.36H141.442V249.28C141.442 245.824 139.57 244.048 136.666 244.048C133.642 244.048 131.674 245.8 131.674 249.232V251.056C131.674 254.488 133.666 256.24 136.642 256.24C139.306 256.24 141.106 254.92 141.37 252.496ZM133.618 248.992C133.642 246.928 134.602 245.608 136.666 245.608C138.682 245.608 139.57 246.712 139.666 249.16H133.762L133.618 248.992ZM152.444 256H154.316V238.48H152.444V246.184C151.82 244.84 150.596 244.048 148.844 244.048C146.156 244.048 144.284 245.8 144.284 249.256V251.056C144.284 254.488 146.156 256.24 148.844 256.24C150.524 256.24 151.796 255.52 152.444 254.08V256ZM149.276 245.68C151.22 245.68 152.444 247.048 152.444 249.208V250.912C152.444 253.384 151.244 254.608 149.3 254.608C147.164 254.608 146.18 253.216 146.18 251.008V249.256C146.18 247.096 147.164 245.68 149.276 245.68ZM73.456 285.24C76.504 285.24 78.496 283.488 78.496 280.056V278.232C78.496 274.8 76.504 273.048 73.456 273.048C70.408 273.048 68.44 274.8 68.44 278.232V280.056C68.44 283.488 70.408 285.24 73.456 285.24ZM73.456 274.68C75.592 274.68 76.576 276.096 76.576 278.232V280.032C76.576 282.216 75.592 283.608 73.456 283.608C71.32 283.608 70.36 282.216 70.36 280.032V278.232C70.36 276.096 71.32 274.68 73.456 274.68ZM87.3781 285.24C90.0421 285.24 91.9381 283.488 91.9381 280.056V278.256C91.9381 274.8 90.0421 273.048 87.3781 273.048C85.6981 273.048 84.4021 273.792 83.7781 275.256V267.48H81.8821V285H83.7781V283.104C84.3781 284.424 85.6021 285.24 87.3781 285.24ZM86.9461 283.608C85.0021 283.608 83.7781 282.264 83.7781 280.08V278.376C83.7781 275.928 84.9781 274.68 86.9221 274.68C89.0581 274.68 90.0421 276.096 90.0421 278.28V280.032C90.0421 282.216 89.0581 283.608 86.9461 283.608ZM96.2946 271.008C97.0866 271.008 97.6386 270.48 97.6386 269.784C97.6386 269.088 97.0866 268.56 96.2946 268.56C95.5266 268.56 94.9746 269.088 94.9746 269.784C94.9746 270.48 95.5266 271.008 96.2946 271.008ZM97.2546 286.512V273.288H95.3586V286.536C95.3586 287.832 94.8546 288.336 93.6786 288.336H92.9826V289.92H93.8466C96.0066 289.92 97.2546 289.104 97.2546 286.512ZM110.363 281.496H108.563C108.395 282.72 107.627 283.464 106.259 283.632C106.091 283.656 105.923 283.656 105.731 283.656C103.715 283.656 102.755 282.456 102.659 280.488C102.635 280.128 102.611 279.744 102.611 279.36H110.435V278.28C110.435 274.824 108.563 273.048 105.659 273.048C102.635 273.048 100.667 274.8 100.667 278.232V280.056C100.667 283.488 102.659 285.24 105.635 285.24C108.299 285.24 110.099 283.92 110.363 281.496ZM102.611 277.992C102.635 275.928 103.595 274.608 105.659 274.608C107.675 274.608 108.563 275.712 108.659 278.16H102.755L102.611 277.992ZM118.197 283.608C116.133 283.608 115.173 282.264 115.173 280.032V278.28C115.173 276.024 116.085 274.68 118.173 274.68C119.781 274.68 120.645 275.472 120.861 276.96H122.685C122.541 274.608 121.005 273.048 118.173 273.048C115.221 273.048 113.253 274.8 113.253 278.256V280.08C113.253 283.488 115.197 285.24 118.148 285.24C120.765 285.24 122.445 283.92 122.805 281.352H121.005C120.717 282.888 119.901 283.608 118.197 283.608ZM131.683 283.536H130.315C128.731 283.536 128.179 282.864 128.179 281.544V274.872H131.683V273.288H128.179V269.832H126.307V273.288H124.483V274.872H126.307V281.52C126.307 284.04 127.387 285.12 129.979 285.12H131.683V283.536ZM138.244 274.512C140.116 274.512 140.932 275.232 141.076 276.792H142.876C142.756 274.392 141.34 273.048 138.244 273.048C135.316 273.048 133.996 274.392 133.996 276.36C133.996 278.328 135.076 279.144 137.26 279.6L138.916 279.936C140.764 280.368 141.268 280.68 141.268 281.904C141.268 283.104 140.524 283.8 138.652 283.8C136.612 283.8 135.628 283.032 135.436 281.256H133.66C133.924 283.992 135.58 285.24 138.604 285.24C141.604 285.24 143.14 284.016 143.14 281.784C143.14 279.816 142.156 279.096 139.468 278.496L137.956 278.16C136.444 277.8 135.868 277.416 135.868 276.312C135.868 275.112 136.54 274.512 138.244 274.512Z" fill="white"/>
<line x1="255.5" y1="314" x2="255.5" y2="404" stroke="white"/>
<line x1="175" y1="217.5" x2="126" y2="217.5" stroke="white"/>
<path d="M321.361 276.915C306.738 301.147 280.398 315.848 252.097 315.574C223.796 315.299 197.746 300.091 183.595 275.58L252.872 235.583L321.361 276.915Z" fill="white"/>
<path d="M184.001 276.284C164.493 242.495 172.206 199.562 202.256 174.676C232.305 149.791 275.923 150.213 305.485 175.676C335.047 201.139 341.927 244.214 321.768 277.618L253.278 236.286L184.001 276.284Z" fill="#4F4F4F"/>
<circle cx="252.649" cy="236.422" r="38.2382" transform="rotate(-120 252.649 236.422)" fill="black"/>
</svg>
