<svg width="500" height="500" viewBox="0 0 500 500" fill="none" xmlns="http://www.w3.org/2000/svg">
<rect width="500" height="500" fill="black"/>
<path d="M364.552 213.24C367.864 213.24 370 211.392 370 208.152V207.576C370 204.432 368.104 202.272 364.552 202.248C363.64 202.248 362.944 202.488 362.488 202.896L367.36 196.2H365.2L361.816 200.976C359.584 204.12 359.104 205.512 359.104 207.576V208.152C359.104 211.392 361.264 213.24 364.552 213.24ZM364.552 203.88C366.976 203.88 368.08 205.368 368.08 207.648V208.08C368.08 210.216 366.976 211.608 364.552 211.608C362.128 211.608 361.024 210.216 361.024 208.08V207.648C361.024 205.368 362.128 203.88 364.552 203.88ZM383.272 209.472V207.864H381.04V196.2H378.832L371.632 208.032V209.472H379.168V213H381.04V209.472H383.272ZM373.576 207.864L379.168 198.696V207.864H373.576ZM388.24 203.496C390.424 203.496 391.888 202.2 391.888 200.016V199.536C391.888 197.376 390.424 196.056 388.24 196.056C386.032 196.056 384.568 197.376 384.568 199.56V200.016C384.568 202.2 386.032 203.496 388.24 203.496ZM386.944 213H388.408L399.568 196.2H398.08L386.944 213ZM388.24 197.28C389.704 197.28 390.472 198.216 390.472 199.584V199.992C390.472 201.336 389.704 202.296 388.24 202.296C386.752 202.296 386.008 201.36 386.008 199.992V199.584C386.008 198.216 386.752 197.28 388.24 197.28ZM398.608 213.144C400.792 213.144 402.256 211.824 402.256 209.64V209.184C402.256 207.024 400.792 205.68 398.608 205.68C396.4 205.68 394.936 207.024 394.936 209.208V209.664C394.936 211.824 396.4 213.144 398.608 213.144ZM398.608 206.904C400.072 206.904 400.816 207.864 400.816 209.208V209.616C400.816 210.984 400.072 211.92 398.608 211.92C397.12 211.92 396.352 210.984 396.352 209.64V209.232C396.352 207.864 397.12 206.904 398.608 206.904ZM364.648 226.592C367.072 226.592 368.056 227.72 368.2 230.048H370C369.928 226.76 368.152 224.96 364.648 224.96C361.024 224.96 359.488 226.808 359.488 229.232C359.488 231.704 360.592 232.736 363.592 233.816L365.368 234.464C367.744 235.352 368.392 236.12 368.392 237.704C368.392 239.672 367.384 240.608 364.96 240.608C362.392 240.608 361.168 239.48 360.856 237.152H359.056C359.416 240.632 361.36 242.24 364.936 242.24C368.656 242.24 370.312 240.56 370.312 237.632C370.312 235.28 369.352 234.032 366.136 232.832L364.36 232.184C362.104 231.368 361.408 230.816 361.408 229.208C361.408 227.72 362.2 226.592 364.648 226.592ZM375.411 235.328C375.411 233.024 376.803 231.68 378.531 231.68C380.283 231.68 381.003 232.664 381.003 234.608V242H382.899V235.328C382.899 233.024 384.291 231.68 386.019 231.68C387.771 231.68 388.491 232.664 388.491 234.608V242H390.387V234.224C390.387 231.392 389.067 230.048 386.643 230.048C384.867 230.048 383.427 230.888 382.659 232.544C382.227 230.864 381.027 230.048 379.155 230.048C377.499 230.048 376.131 230.864 375.411 232.52V230.288H373.515V242H375.411V235.328ZM400.811 242H402.683V234.224C402.683 231.368 401.291 230.048 398.411 230.048C395.435 230.048 394.115 231.512 393.827 233.672H395.651C395.795 232.496 396.539 231.68 398.243 231.68C400.115 231.68 400.811 232.448 400.811 234.464V235.448H397.571C394.547 235.448 393.443 236.696 393.443 238.4V239.12C393.443 241.04 394.787 242.24 397.211 242.24C399.107 242.24 400.211 241.616 400.811 240.368V242ZM397.763 240.872C396.107 240.872 395.315 240.2 395.315 238.928V238.424C395.315 237.32 395.939 236.648 397.739 236.648H400.811V237.8C400.811 239.984 399.707 240.872 397.763 240.872ZM408.268 239.072V224.48H406.372V239.096C406.372 241.472 407.284 242.12 409.492 242.12H409.924V240.488H409.564C408.604 240.488 408.268 240.176 408.268 239.072ZM414.479 239.072V224.48H412.583V239.096C412.583 241.472 413.495 242.12 415.703 242.12H416.135V240.488H415.775C414.815 240.488 414.479 240.176 414.479 239.072ZM428.916 231.512C430.788 231.512 431.604 232.232 431.748 233.792H433.548C433.428 231.392 432.012 230.048 428.916 230.048C425.988 230.048 424.668 231.392 424.668 233.36C424.668 235.328 425.748 236.144 427.932 236.6L429.588 236.936C431.436 237.368 431.94 237.68 431.94 238.904C431.94 240.104 431.196 240.8 429.324 240.8C427.284 240.8 426.3 240.032 426.108 238.256H424.332C424.596 240.992 426.252 242.24 429.276 242.24C432.276 242.24 433.812 241.016 433.812 238.784C433.812 236.816 432.828 236.096 430.14 235.496L428.628 235.16C427.116 234.8 426.54 234.416 426.54 233.312C426.54 232.112 427.212 231.512 428.916 231.512ZM437.849 228.008C438.641 228.008 439.193 227.48 439.193 226.784C439.193 226.088 438.641 225.56 437.849 225.56C437.105 225.56 436.529 226.088 436.529 226.784C436.529 227.48 437.105 228.008 437.849 228.008ZM436.913 242H438.809V230.288H436.913V242ZM441.621 242H450.669V240.368H443.901L450.309 231.776V230.288H441.813V231.92H448.029L441.621 240.512V242ZM462.206 238.496H460.406C460.238 239.72 459.47 240.464 458.102 240.632C457.934 240.656 457.766 240.656 457.574 240.656C455.558 240.656 454.598 239.456 454.502 237.488C454.478 237.128 454.454 236.744 454.454 236.36H462.278V235.28C462.278 231.824 460.406 230.048 457.502 230.048C454.478 230.048 452.51 231.8 452.51 235.232V237.056C452.51 240.488 454.502 242.24 457.478 242.24C460.142 242.24 461.942 240.92 462.206 238.496ZM454.454 234.992C454.478 232.928 455.438 231.608 457.502 231.608C459.518 231.608 460.406 232.712 460.502 235.16H454.598L454.454 234.992Z" fill="white"/>
<line x1="294" y1="206.5" x2="350" y2="206.5" stroke="white"/>
<path d="M39.2 196.2L35.48 197.496V199.128L39.008 197.976V213H40.88V196.2H39.2ZM50.1637 213.24C53.7637 213.24 55.6597 211.392 55.6597 208.584V208.032C55.6597 206.112 54.6517 204.768 52.9477 204.192C54.3877 203.592 55.1797 202.368 55.1797 200.76V200.208C55.1797 197.472 53.2117 195.96 50.2117 195.96C47.1397 195.96 45.1957 197.472 45.1957 200.208V200.76C45.1957 202.368 45.9637 203.592 47.4517 204.192C45.7237 204.792 44.6917 206.112 44.6917 208.032V208.584C44.6917 211.392 46.5877 213.24 50.1637 213.24ZM50.2597 197.592C52.2757 197.592 53.2597 198.648 53.2597 200.256V200.712C53.2597 202.392 52.2757 203.424 50.0917 203.424C48.0997 203.424 47.1157 202.392 47.1157 200.712V200.256C47.1157 198.648 48.0997 197.592 50.2597 197.592ZM50.2357 205.056C52.5877 205.056 53.7637 206.256 53.7637 208.104V208.536C53.7637 210.408 52.6117 211.608 50.1157 211.608C47.7637 211.608 46.6117 210.408 46.6117 208.536V208.104C46.6117 206.256 47.7397 205.056 50.2357 205.056ZM61.4433 203.496C63.6273 203.496 65.0913 202.2 65.0913 200.016V199.536C65.0913 197.376 63.6273 196.056 61.4433 196.056C59.2353 196.056 57.7713 197.376 57.7713 199.56V200.016C57.7713 202.2 59.2353 203.496 61.4433 203.496ZM60.1473 213H61.6113L72.7713 196.2H71.2833L60.1473 213ZM61.4433 197.28C62.9073 197.28 63.6753 198.216 63.6753 199.584V199.992C63.6753 201.336 62.9073 202.296 61.4433 202.296C59.9553 202.296 59.2113 201.36 59.2113 199.992V199.584C59.2113 198.216 59.9553 197.28 61.4433 197.28ZM71.8113 213.144C73.9953 213.144 75.4593 211.824 75.4593 209.64V209.184C75.4593 207.024 73.9953 205.68 71.8113 205.68C69.6033 205.68 68.1393 207.024 68.1393 209.208V209.664C68.1393 211.824 69.6033 213.144 71.8113 213.144ZM71.8113 206.904C73.2753 206.904 74.0193 207.864 74.0193 209.208V209.616C74.0193 210.984 73.2753 211.92 71.8113 211.92C70.3233 211.92 69.5553 210.984 69.5553 209.64V209.232C69.5553 207.864 70.3233 206.904 71.8113 206.904ZM46.616 225.2V236.456C46.616 238.928 45.368 240.608 42.704 240.608C40.088 240.608 38.816 238.928 38.816 236.456V225.2H36.896V236.456C36.896 240.2 39.176 242.24 42.704 242.24C46.256 242.24 48.536 240.2 48.536 236.456V225.2H46.616ZM54.2859 235.328C54.2859 233.024 55.7019 231.68 57.4539 231.68C59.3499 231.68 60.1419 232.664 60.1419 234.608V242H62.0139V234.224C62.0139 231.392 60.6219 230.048 58.0779 230.048C56.3979 230.048 55.0299 230.864 54.2859 232.496V230.288H52.3899V242H54.2859V235.328ZM73.6201 242H75.9481L70.9321 235.064L75.1561 230.288H73.0201L67.6921 236.288V224.48H65.7961V242H67.6921V238.736L69.6841 236.48L73.6201 242ZM80.1609 235.328C80.1609 233.024 81.5769 231.68 83.3289 231.68C85.2249 231.68 86.0169 232.664 86.0169 234.608V242H87.8889V234.224C87.8889 231.392 86.4969 230.048 83.9529 230.048C82.2729 230.048 80.9049 230.864 80.1609 232.496V230.288H78.2649V242H80.1609V235.328ZM96.1591 242.24C99.2071 242.24 101.199 240.488 101.199 237.056V235.232C101.199 231.8 99.2071 230.048 96.1591 230.048C93.1111 230.048 91.1431 231.8 91.1431 235.232V237.056C91.1431 240.488 93.1111 242.24 96.1591 242.24ZM96.1591 231.68C98.2951 231.68 99.2791 233.096 99.2791 235.232V237.032C99.2791 239.216 98.2951 240.608 96.1591 240.608C94.0231 240.608 93.0631 239.216 93.0631 237.032V235.232C93.0631 233.096 94.0231 231.68 96.1591 231.68ZM114.959 242H117.071L120.575 230.288H118.631L115.943 239.912L112.679 230.288H110.927L107.639 239.888L104.999 230.288H102.983L106.463 242H108.479L111.743 232.616L114.959 242ZM125.067 235.328C125.067 233.024 126.483 231.68 128.235 231.68C130.131 231.68 130.923 232.664 130.923 234.608V242H132.795V234.224C132.795 231.392 131.403 230.048 128.859 230.048C127.179 230.048 125.811 230.864 125.067 232.496V230.288H123.171V242H125.067V235.328Z" fill="white"/>
<path d="M50.264 292.472V290.864H48.032V279.2H45.824L38.624 291.032V292.472H46.16V296H48.032V292.472H50.264ZM40.568 290.864L46.16 281.696V290.864H40.568ZM55.2324 286.496C57.4164 286.496 58.8804 285.2 58.8804 283.016V282.536C58.8804 280.376 57.4164 279.056 55.2324 279.056C53.0244 279.056 51.5604 280.376 51.5604 282.56V283.016C51.5604 285.2 53.0244 286.496 55.2324 286.496ZM53.9364 296H55.4004L66.5604 279.2H65.0724L53.9364 296ZM55.2324 280.28C56.6964 280.28 57.4644 281.216 57.4644 282.584V282.992C57.4644 284.336 56.6964 285.296 55.2324 285.296C53.7444 285.296 53.0004 284.36 53.0004 282.992V282.584C53.0004 281.216 53.7444 280.28 55.2324 280.28ZM65.6004 296.144C67.7844 296.144 69.2484 294.824 69.2484 292.64V292.184C69.2484 290.024 67.7844 288.68 65.6004 288.68C63.3924 288.68 61.9284 290.024 61.9284 292.208V292.664C61.9284 294.824 63.3924 296.144 65.6004 296.144ZM65.6004 289.904C67.0644 289.904 67.8084 290.864 67.8084 292.208V292.616C67.8084 293.984 67.0644 294.92 65.6004 294.92C64.1124 294.92 63.3444 293.984 63.3444 292.64V292.232C63.3444 290.864 64.1124 289.904 65.6004 289.904ZM40.16 325H50.048V323.368H42.032V308.2H40.16V325ZM58.8967 325H60.7687V317.224C60.7687 314.368 59.3767 313.048 56.4967 313.048C53.5207 313.048 52.2007 314.512 51.9127 316.672H53.7367C53.8807 315.496 54.6247 314.68 56.3287 314.68C58.2007 314.68 58.8967 315.448 58.8967 317.464V318.448H55.6567C52.6327 318.448 51.5287 319.696 51.5287 321.4V322.12C51.5287 324.04 52.8727 325.24 55.2967 325.24C57.1927 325.24 58.2967 324.616 58.8967 323.368V325ZM55.8487 323.872C54.1927 323.872 53.4007 323.2 53.4007 321.928V321.424C53.4007 320.32 54.0247 319.648 55.8247 319.648H58.8967V320.8C58.8967 322.984 57.7927 323.872 55.8487 323.872ZM66.4499 318.448C66.4499 316.096 67.8899 314.872 69.9539 314.872H70.5779V313.048H70.0019C68.4419 313.048 67.1939 313.792 66.4499 315.352V313.288H64.5539V325H66.4499V318.448ZM77.1776 330.04C80.4176 330.04 82.0736 328.336 82.0736 324.808V313.288H80.1776V315.184C79.5776 313.84 78.3296 313.048 76.5776 313.048C73.9136 313.048 72.0176 314.8 72.0176 318.256V319.816C72.0176 323.248 73.9136 325 76.5776 325C78.2576 325 79.5536 324.28 80.1776 322.84V324.808C80.1776 327.424 79.2656 328.408 77.1296 328.408C75.3056 328.408 74.3216 327.76 74.1056 326.44H72.2816C72.5456 328.744 74.2496 330.04 77.1776 330.04ZM77.0096 314.68C78.9776 314.68 80.1776 316.048 80.1776 318.208V319.672C80.1776 322.144 79.0016 323.368 77.0576 323.368C74.8976 323.368 73.9376 321.976 73.9376 319.768V318.256C73.9376 316.096 74.8976 314.68 77.0096 314.68ZM95.1673 321.496H93.3673C93.1993 322.72 92.4313 323.464 91.0633 323.632C90.8953 323.656 90.7273 323.656 90.5353 323.656C88.5193 323.656 87.5592 322.456 87.4633 320.488C87.4393 320.128 87.4153 319.744 87.4153 319.36H95.2393V318.28C95.2393 314.824 93.3673 313.048 90.4633 313.048C87.4393 313.048 85.4713 314.8 85.4713 318.232V320.056C85.4713 323.488 87.4633 325.24 90.4393 325.24C93.1033 325.24 94.9033 323.92 95.1673 321.496ZM87.4153 317.992C87.4393 315.928 88.3993 314.608 90.4633 314.608C92.4793 314.608 93.3673 315.712 93.4633 318.16H87.5592L87.4153 317.992ZM108.612 314.512C110.484 314.512 111.3 315.232 111.444 316.792H113.244C113.124 314.392 111.708 313.048 108.612 313.048C105.684 313.048 104.364 314.392 104.364 316.36C104.364 318.328 105.444 319.144 107.628 319.6L109.284 319.936C111.132 320.368 111.636 320.68 111.636 321.904C111.636 323.104 110.892 323.8 109.02 323.8C106.98 323.8 105.996 323.032 105.804 321.256H104.028C104.292 323.992 105.948 325.24 108.972 325.24C111.972 325.24 113.508 324.016 113.508 321.784C113.508 319.816 112.524 319.096 109.836 318.496L108.324 318.16C106.812 317.8 106.236 317.416 106.236 316.312C106.236 315.112 106.908 314.512 108.612 314.512ZM117.545 311.008C118.337 311.008 118.889 310.48 118.889 309.784C118.889 309.088 118.337 308.56 117.545 308.56C116.801 308.56 116.225 309.088 116.225 309.784C116.225 310.48 116.801 311.008 117.545 311.008ZM116.609 325H118.505V313.288H116.609V325ZM121.317 325H130.365V323.368H123.597L130.005 314.776V313.288H121.509V314.92H127.725L121.317 323.512V325ZM141.902 321.496H140.102C139.934 322.72 139.166 323.464 137.798 323.632C137.63 323.656 137.462 323.656 137.27 323.656C135.254 323.656 134.294 322.456 134.198 320.488C134.174 320.128 134.15 319.744 134.15 319.36H141.974V318.28C141.974 314.824 140.102 313.048 137.198 313.048C134.174 313.048 132.206 314.8 132.206 318.232V320.056C132.206 323.488 134.198 325.24 137.174 325.24C139.838 325.24 141.638 323.92 141.902 321.496ZM134.15 317.992C134.174 315.928 135.134 314.608 137.198 314.608C139.214 314.608 140.102 315.712 140.198 318.16H134.294L134.15 317.992Z" fill="white"/>
<path d="M41.2 358.2L37.48 359.496V361.128L41.008 359.976V375H42.88V358.2H41.2ZM57.4437 371.472V369.864H55.2117V358.2H53.0037L45.8037 370.032V371.472H53.3397V375H55.2117V371.472H57.4437ZM47.7477 369.864L53.3397 360.696V369.864H47.7477ZM62.4121 365.496C64.5961 365.496 66.0601 364.2 66.0601 362.016V361.536C66.0601 359.376 64.5961 358.056 62.4121 358.056C60.2041 358.056 58.7401 359.376 58.7401 361.56V362.016C58.7401 364.2 60.2041 365.496 62.4121 365.496ZM61.1161 375H62.5801L73.7401 358.2H72.2521L61.1161 375ZM62.4121 359.28C63.8761 359.28 64.6441 360.216 64.6441 361.584V361.992C64.6441 363.336 63.8761 364.296 62.4121 364.296C60.9241 364.296 60.1801 363.36 60.1801 361.992V361.584C60.1801 360.216 60.9241 359.28 62.4121 359.28ZM72.7801 375.144C74.9641 375.144 76.4281 373.824 76.4281 371.64V371.184C76.4281 369.024 74.9641 367.68 72.7801 367.68C70.5721 367.68 69.1081 369.024 69.1081 371.208V371.664C69.1081 373.824 70.5721 375.144 72.7801 375.144ZM72.7801 368.904C74.2441 368.904 74.9881 369.864 74.9881 371.208V371.616C74.9881 372.984 74.2441 373.92 72.7801 373.92C71.2921 373.92 70.5241 372.984 70.5241 371.64V371.232C70.5241 369.864 71.2921 368.904 72.7801 368.904ZM46.744 400.808H48.256L53.992 390.344V404H55.84V387.2H53.704L47.56 398.6L41.488 387.2H39.16V404H40.984V390.344L46.744 400.808ZM69.136 400.496H67.336C67.168 401.72 66.4 402.464 65.032 402.632C64.864 402.656 64.696 402.656 64.504 402.656C62.488 402.656 61.528 401.456 61.432 399.488C61.408 399.128 61.384 398.744 61.384 398.36H69.208V397.28C69.208 393.824 67.336 392.048 64.432 392.048C61.408 392.048 59.44 393.8 59.44 397.232V399.056C59.44 402.488 61.432 404.24 64.408 404.24C67.072 404.24 68.872 402.92 69.136 400.496ZM61.384 396.992C61.408 394.928 62.368 393.608 64.432 393.608C66.448 393.608 67.336 394.712 67.432 397.16H61.528L61.384 396.992ZM80.2099 404H82.0819V386.48H80.2099V394.184C79.5859 392.84 78.3619 392.048 76.6099 392.048C73.9219 392.048 72.0499 393.8 72.0499 397.256V399.056C72.0499 402.488 73.9219 404.24 76.6099 404.24C78.2899 404.24 79.5619 403.52 80.2099 402.08V404ZM77.0419 393.68C78.9859 393.68 80.2099 395.048 80.2099 397.208V398.912C80.2099 401.384 79.0099 402.608 77.0659 402.608C74.9299 402.608 73.9459 401.216 73.9459 399.008V397.256C73.9459 395.096 74.9299 393.68 77.0419 393.68ZM86.9431 390.008C87.7351 390.008 88.2871 389.48 88.2871 388.784C88.2871 388.088 87.7351 387.56 86.9431 387.56C86.1991 387.56 85.6231 388.088 85.6231 388.784C85.6231 389.48 86.1991 390.008 86.9431 390.008ZM86.0071 404H87.9031V392.288H86.0071V404ZM99.283 404H101.179V392.288H99.283V399.032C99.283 401.336 97.891 402.68 96.187 402.68C94.363 402.68 93.571 401.696 93.571 399.752V392.288H91.699V400.136C91.699 402.92 93.043 404.24 95.563 404.24C97.291 404.24 98.611 403.424 99.283 401.648V404ZM107.005 397.328C107.005 395.024 108.397 393.68 110.125 393.68C111.877 393.68 112.597 394.664 112.597 396.608V404H114.493V397.328C114.493 395.024 115.885 393.68 117.613 393.68C119.365 393.68 120.085 394.664 120.085 396.608V404H121.981V396.224C121.981 393.392 120.661 392.048 118.237 392.048C116.461 392.048 115.021 392.888 114.253 394.544C113.821 392.864 112.621 392.048 110.749 392.048C109.093 392.048 107.725 392.864 107.005 394.52V392.288H105.109V404H107.005V397.328ZM135.807 393.512C137.679 393.512 138.495 394.232 138.639 395.792H140.439C140.319 393.392 138.903 392.048 135.807 392.048C132.879 392.048 131.559 393.392 131.559 395.36C131.559 397.328 132.639 398.144 134.823 398.6L136.479 398.936C138.327 399.368 138.831 399.68 138.831 400.904C138.831 402.104 138.087 402.8 136.215 402.8C134.175 402.8 133.191 402.032 132.999 400.256H131.223C131.487 402.992 133.143 404.24 136.167 404.24C139.167 404.24 140.703 403.016 140.703 400.784C140.703 398.816 139.719 398.096 137.031 397.496L135.519 397.16C134.007 396.8 133.431 396.416 133.431 395.312C133.431 394.112 134.103 393.512 135.807 393.512ZM144.74 390.008C145.532 390.008 146.084 389.48 146.084 388.784C146.084 388.088 145.532 387.56 144.74 387.56C143.996 387.56 143.42 388.088 143.42 388.784C143.42 389.48 143.996 390.008 144.74 390.008ZM143.804 404H145.7V392.288H143.804V404ZM148.512 404H157.56V402.368H150.792L157.2 393.776V392.288H148.704V393.92H154.92L148.512 402.512V404ZM169.097 400.496H167.297C167.129 401.72 166.361 402.464 164.993 402.632C164.825 402.656 164.657 402.656 164.465 402.656C162.449 402.656 161.489 401.456 161.393 399.488C161.369 399.128 161.345 398.744 161.345 398.36H169.169V397.28C169.169 393.824 167.297 392.048 164.393 392.048C161.369 392.048 159.401 393.8 159.401 397.232V399.056C159.401 402.488 161.393 404.24 164.369 404.24C167.033 404.24 168.833 402.92 169.097 400.496ZM161.345 396.992C161.369 394.928 162.329 393.608 164.393 393.608C166.409 393.608 167.297 394.712 167.393 397.16H161.489L161.345 396.992Z" fill="white"/>
<path d="M160.602 97.2L156.882 98.496V100.128L160.41 98.976V114H162.282V97.2H160.602ZM176.846 110.472V108.864H174.614V97.2H172.406L165.206 109.032V110.472H172.742V114H174.614V110.472H176.846ZM167.15 108.864L172.742 99.696V108.864H167.15ZM179.33 117.432L181.274 111.6H179.042L178.058 117.432H179.33ZM186.245 114L192.077 98.832V97.2H182.333V98.832H190.181L184.205 114H186.245ZM199.21 114.384C202.834 114.384 204.49 112.536 204.49 109.344C204.49 107.496 203.77 105.912 201.586 105.264C203.602 104.712 204.082 103.32 204.082 101.424C204.082 98.76 202.618 96.96 199.042 96.96C196.066 96.96 194.266 98.568 194.17 101.448H195.97C196.066 99.6 197.098 98.592 199.042 98.592C201.274 98.592 202.162 99.552 202.162 101.448C202.162 103.584 201.562 104.568 198.706 104.568H197.626V106.08H198.706C201.562 106.08 202.57 107.328 202.57 109.392C202.57 111.696 201.466 112.752 199.21 112.752C196.762 112.752 195.562 111.648 195.466 109.752H193.642C193.786 112.68 195.61 114.384 199.21 114.384ZM218.307 110.472V108.864H216.075V97.2H213.867L206.667 109.032V110.472H214.203V114H216.075V110.472H218.307ZM208.611 108.864L214.203 99.696V108.864H208.611ZM233.086 114.24C236.494 114.24 238.702 112.296 238.894 108.792H237.07C236.878 111.384 235.462 112.608 233.014 112.608C230.182 112.608 228.79 110.832 228.79 108.12V103.128C228.79 100.368 230.182 98.592 233.062 98.592C235.534 98.592 236.782 100.008 237.07 102.408H238.894C238.606 99.192 236.686 96.96 233.038 96.96C229.318 96.96 226.87 99.072 226.87 103.128V108.096C226.87 112.152 229.294 114.24 233.086 114.24ZM251.55 97.2V108.456C251.55 110.928 250.302 112.608 247.638 112.608C245.022 112.608 243.75 110.928 243.75 108.456V97.2H241.83V108.456C241.83 112.2 244.11 114.24 247.638 114.24C251.19 114.24 253.47 112.2 253.47 108.456V97.2H251.55ZM259.387 107.256H262.315L266.515 114H268.627L264.187 106.968C266.731 106.464 268.003 104.88 268.003 102.744V101.76C268.003 98.88 266.251 97.2 262.099 97.2H257.515V114H259.387V107.256ZM262.051 98.832C265.027 98.832 266.083 100.008 266.083 101.808V102.696C266.083 104.472 264.835 105.624 262.075 105.624H259.387V98.832H262.051ZM273.356 107.256H276.284L280.484 114H282.596L278.156 106.968C280.7 106.464 281.972 104.88 281.972 102.744V101.76C281.972 98.88 280.22 97.2 276.068 97.2H271.484V114H273.356V107.256ZM276.02 98.832C278.996 98.832 280.052 100.008 280.052 101.808V102.696C280.052 104.472 278.804 105.624 276.044 105.624H273.356V98.832H276.02ZM285.453 114H296.013V112.368H287.325V106.104H294.549V104.496H287.325V98.832H296.013V97.2H285.453V114ZM308.648 114H310.88V97.2H309.032V111.168L301.208 97.2H298.976V114H300.8V100.056L308.648 114ZM325.251 98.832V97.2H313.347V98.832H318.387V114H320.259V98.832H325.251ZM327.734 114H337.622V112.368H329.606V97.2H327.734V114ZM343.594 114V107.28L349.378 97.2H347.362L342.706 105.48L338.05 97.2H335.938L341.722 107.256V114H343.594ZM168.869 143.24C172.709 143.24 175.157 141.128 175.157 137.096V132.104C175.157 128.072 172.709 125.96 168.869 125.96C165.005 125.96 162.557 128.072 162.557 132.128V137.096C162.557 141.152 165.005 143.24 168.869 143.24ZM168.869 127.592C171.845 127.592 173.261 129.368 173.261 132.104V137.072C173.261 139.832 171.845 141.608 168.869 141.608C165.869 141.608 164.477 139.832 164.477 137.12V132.128C164.477 129.368 165.869 127.592 168.869 127.592ZM180.802 136.256H183.73L187.93 143H190.042L185.602 135.968C188.146 135.464 189.418 133.88 189.418 131.744V130.76C189.418 127.88 187.666 126.2 183.514 126.2H178.93V143H180.802V136.256ZM183.466 127.832C186.442 127.832 187.498 129.008 187.498 130.808V131.696C187.498 133.472 186.25 134.624 183.49 134.624H180.802V127.832H183.466ZM192.898 143H198.514C201.826 143 204.106 141.488 204.106 138.512V137.888C204.106 135.896 203.002 134.672 201.058 134.144C202.45 133.568 203.29 132.536 203.29 131.024V130.352C203.29 127.592 201.418 126.2 197.842 126.2H192.898V143ZM197.794 127.832C200.242 127.832 201.37 128.696 201.37 130.4V131.024C201.37 132.512 200.242 133.544 197.938 133.544H194.77V127.832H197.794ZM198.394 135.056C200.938 135.056 202.21 136.136 202.21 137.864V138.488C202.21 140.216 200.938 141.368 198.394 141.368H194.77V135.056H198.394ZM207.5 143H209.372V126.2H207.5V143ZM223.743 127.832V126.2H211.839V127.832H216.879V143H218.751V127.832H223.743ZM226.226 143H228.098V126.2H226.226V143ZM242.086 143H244.318V126.2H242.47V140.168L234.646 126.2H232.414V143H234.238V129.056L242.086 143ZM254.297 143.24C258.233 143.24 260.081 141.344 260.081 137.192V134.6H254.129V136.208H258.305V137.48C258.305 139.976 257.249 141.608 254.369 141.608C251.393 141.608 250.001 139.832 250.001 137.12V132.128C250.001 129.368 251.393 127.592 254.273 127.592C256.721 127.592 257.945 128.624 258.257 130.808H260.081C259.793 127.784 257.873 125.96 254.369 125.96C250.529 125.96 248.081 128.072 248.081 132.128V137.096C248.081 141.152 250.505 143.24 254.297 143.24ZM269.914 143H275.578C279.538 143 281.65 140.984 281.65 137.096V132.128C281.65 128.312 279.418 126.2 275.482 126.2H269.914V143ZM275.362 127.832C278.338 127.832 279.73 129.488 279.73 132.104V137.12C279.73 139.784 278.578 141.368 275.434 141.368H271.786V127.832H275.362ZM285.383 143H295.943V141.368H287.255V135.104H294.479V133.496H287.255V127.832H295.943V126.2H285.383V143ZM298.906 143H304.522C307.834 143 310.114 141.488 310.114 138.512V137.888C310.114 135.896 309.01 134.672 307.066 134.144C308.458 133.568 309.298 132.536 309.298 131.024V130.352C309.298 127.592 307.426 126.2 303.85 126.2H298.906V143ZM303.802 127.832C306.25 127.832 307.378 128.696 307.378 130.4V131.024C307.378 132.512 306.25 133.544 303.946 133.544H300.778V127.832H303.802ZM304.402 135.056C306.946 135.056 308.218 136.136 308.218 137.864V138.488C308.218 140.216 306.946 141.368 304.402 141.368H300.778V135.056H304.402ZM315.38 136.256H318.308L322.508 143H324.62L320.18 135.968C322.724 135.464 323.996 133.88 323.996 131.744V130.76C323.996 127.88 322.244 126.2 318.092 126.2H313.508V143H315.38V136.256ZM318.044 127.832C321.02 127.832 322.076 129.008 322.076 130.808V131.696C322.076 133.472 320.828 134.624 318.068 134.624H315.38V127.832H318.044ZM327.476 143H329.348V126.2H327.476V143ZM338.152 127.592C340.576 127.592 341.56 128.72 341.704 131.048H343.504C343.432 127.76 341.656 125.96 338.152 125.96C334.528 125.96 332.992 127.808 332.992 130.232C332.992 132.704 334.096 133.736 337.096 134.816L338.872 135.464C341.248 136.352 341.896 137.12 341.896 138.704C341.896 140.672 340.888 141.608 338.464 141.608C335.896 141.608 334.672 140.48 334.36 138.152H332.56C332.92 141.632 334.864 143.24 338.44 143.24C342.16 143.24 343.816 141.56 343.816 138.632C343.816 136.28 342.856 135.032 339.64 133.832L337.864 133.184C335.608 132.368 334.912 131.816 334.912 130.208C334.912 128.72 335.704 127.592 338.152 127.592Z" fill="white"/>
<line x1="135" y1="206.5" x2="217" y2="206.5" stroke="white"/>
<line x1="80.7977" y1="285.543" x2="184.798" y2="239.543" stroke="white"/>
<line x1="112.73" y1="366.59" x2="188.715" y2="313.59" stroke="white"/>
<path d="M198.667 332.57C176.475 310.378 169.191 277.336 180.016 247.958L255.336 275.902L198.667 332.57Z" fill="#333333"/>
<path d="M180.165 248.581C182.467 242.46 186.066 235.165 189.763 229.755L256.147 275.09L180.165 248.581Z" fill="#828282"/>
<path d="M189.597 230.313C202.977 210.425 224.889 197.995 249.056 196.584L255.623 275.614L189.597 230.313Z" fill="#BDBDBD"/>
<path d="M248.86 196.565C285.744 193.958 320.429 216.303 331.673 251.531C342.917 286.759 328.601 325.103 297.023 344.338C265.445 363.573 224.804 358.706 198.655 332.557L255.322 275.89L248.86 196.565Z" fill="#E0E0E0"/>
<circle cx="254.281" cy="274.558" r="37.9782" transform="rotate(24.9939 254.281 274.558)" fill="black"/>
</svg>
