<svg width="500" height="500" viewBox="0 0 500 500" fill="none" xmlns="http://www.w3.org/2000/svg">
<rect width="500" height="500" fill="black"/>
<line x1="250.5" y1="337" x2="250.5" y2="413" stroke="white"/>
<line x1="193" y1="211.5" x2="110" y2="211.5" stroke="white"/>
<path d="M53.528 222.384C56.792 222.384 58.688 220.464 58.688 217.656V216.432C58.688 213.048 56.648 211.512 52.64 211.512H50.912V206.832H57.92V205.2H49.088V213.12H52.496C55.496 213.12 56.768 214.2 56.768 216.432V217.656C56.768 219.72 55.424 220.752 53.48 220.752C51.536 220.752 50.312 219.768 50.168 217.752H48.344C48.44 220.68 50.288 222.384 53.528 222.384ZM66.4421 222.384C69.7061 222.384 71.6021 220.464 71.6021 217.656V216.432C71.6021 213.048 69.5621 211.512 65.5541 211.512H63.8261V206.832H70.8341V205.2H62.0021V213.12H65.4101C68.4101 213.12 69.6821 214.2 69.6821 216.432V217.656C69.6821 219.72 68.3381 220.752 66.3941 220.752C64.4501 220.752 63.2261 219.768 63.0821 217.752H61.2581C61.3541 220.68 63.2021 222.384 66.4421 222.384ZM77.0761 212.496C79.2601 212.496 80.7241 211.2 80.7241 209.016V208.536C80.7241 206.376 79.2601 205.056 77.0761 205.056C74.8681 205.056 73.4041 206.376 73.4041 208.56V209.016C73.4041 211.2 74.8681 212.496 77.0761 212.496ZM75.7801 222H77.2441L88.4041 205.2H86.9161L75.7801 222ZM77.0761 206.28C78.5401 206.28 79.3081 207.216 79.3081 208.584V208.992C79.3081 210.336 78.5401 211.296 77.0761 211.296C75.5881 211.296 74.8441 210.36 74.8441 208.992V208.584C74.8441 207.216 75.5881 206.28 77.0761 206.28ZM87.4441 222.144C89.6281 222.144 91.0921 220.824 91.0921 218.64V218.184C91.0921 216.024 89.6281 214.68 87.4441 214.68C85.2361 214.68 83.7721 216.024 83.7721 218.208V218.664C83.7721 220.824 85.2361 222.144 87.4441 222.144ZM87.4441 215.904C88.9081 215.904 89.6521 216.864 89.6521 218.208V218.616C89.6521 219.984 88.9081 220.92 87.4441 220.92C85.9561 220.92 85.1881 219.984 85.1881 218.64V218.232C85.1881 216.864 85.9561 215.904 87.4441 215.904ZM49.16 251H54.824C58.784 251 60.896 248.984 60.896 245.096V240.128C60.896 236.312 58.664 234.2 54.728 234.2H49.16V251ZM54.608 235.832C57.584 235.832 58.976 237.488 58.976 240.104V245.12C58.976 247.784 57.824 249.368 54.68 249.368H51.032V235.832H54.608ZM73.6048 247.496H71.8048C71.6368 248.72 70.8688 249.464 69.5008 249.632C69.3328 249.656 69.1648 249.656 68.9728 249.656C66.9568 249.656 65.9967 248.456 65.9008 246.488C65.8768 246.128 65.8528 245.744 65.8528 245.36H73.6768V244.28C73.6768 240.824 71.8048 239.048 68.9008 239.048C65.8768 239.048 63.9088 240.8 63.9088 244.232V246.056C63.9088 249.488 65.9008 251.24 68.8768 251.24C71.5408 251.24 73.3408 249.92 73.6048 247.496ZM65.8528 243.992C65.8768 241.928 66.8368 240.608 68.9008 240.608C70.9168 240.608 71.8048 241.712 71.9008 244.16H65.9967L65.8528 243.992ZM81.4387 249.608C79.3747 249.608 78.4147 248.264 78.4147 246.032V244.28C78.4147 242.024 79.3267 240.68 81.4147 240.68C83.0227 240.68 83.8867 241.472 84.1027 242.96H85.9267C85.7827 240.608 84.2467 239.048 81.4147 239.048C78.4627 239.048 76.4947 240.8 76.4947 244.256V246.08C76.4947 249.488 78.4387 251.24 81.3907 251.24C84.0067 251.24 85.6867 249.92 86.0467 247.352H84.2467C83.9587 248.888 83.1427 249.608 81.4387 249.608ZM95.4826 251H97.3546V243.224C97.3546 240.368 95.9626 239.048 93.0826 239.048C90.1066 239.048 88.7866 240.512 88.4986 242.672H90.3226C90.4666 241.496 91.2106 240.68 92.9146 240.68C94.7866 240.68 95.4826 241.448 95.4826 243.464V244.448H92.2426C89.2186 244.448 88.1146 245.696 88.1146 247.4V248.12C88.1146 250.04 89.4586 251.24 91.8826 251.24C93.7786 251.24 94.8826 250.616 95.4826 249.368V251ZM92.4346 249.872C90.7786 249.872 89.9866 249.2 89.9866 247.928V247.424C89.9866 246.32 90.6106 245.648 92.4106 245.648H95.4826V246.8C95.4826 248.984 94.3786 249.872 92.4346 249.872ZM100.14 255.92C102.516 255.92 103.596 255.176 104.844 252.224L110.316 239.288H108.372L104.844 247.76L101.292 239.288H99.2763L103.908 250.064L103.26 251.6C102.276 253.952 101.532 254.288 100.14 254.288H99.4203V255.92H100.14ZM121.37 247.496H119.57C119.402 248.72 118.634 249.464 117.266 249.632C117.098 249.656 116.93 249.656 116.738 249.656C114.722 249.656 113.762 248.456 113.666 246.488C113.642 246.128 113.618 245.744 113.618 245.36H121.442V244.28C121.442 240.824 119.57 239.048 116.666 239.048C113.642 239.048 111.674 240.8 111.674 244.232V246.056C111.674 249.488 113.666 251.24 116.642 251.24C119.306 251.24 121.106 249.92 121.37 247.496ZM113.618 243.992C113.642 241.928 114.602 240.608 116.666 240.608C118.682 240.608 119.57 241.712 119.666 244.16H113.762L113.618 243.992ZM132.444 251H134.316V233.48H132.444V241.184C131.82 239.84 130.596 239.048 128.844 239.048C126.156 239.048 124.284 240.8 124.284 244.256V246.056C124.284 249.488 126.156 251.24 128.844 251.24C130.524 251.24 131.796 250.52 132.444 249.08V251ZM129.276 240.68C131.22 240.68 132.444 242.048 132.444 244.208V245.912C132.444 248.384 131.244 249.608 129.3 249.608C127.164 249.608 126.18 248.216 126.18 246.008V244.256C126.18 242.096 127.164 240.68 129.276 240.68Z" fill="white"/>
<path d="M177.16 132.384C180.784 132.384 182.44 130.536 182.44 127.344C182.44 125.496 181.72 123.912 179.536 123.264C181.552 122.712 182.032 121.32 182.032 119.424C182.032 116.76 180.568 114.96 176.992 114.96C174.016 114.96 172.216 116.568 172.12 119.448H173.92C174.016 117.6 175.048 116.592 176.992 116.592C179.224 116.592 180.112 117.552 180.112 119.448C180.112 121.584 179.512 122.568 176.656 122.568H175.576V124.08H176.656C179.512 124.08 180.52 125.328 180.52 127.392C180.52 129.696 179.416 130.752 177.16 130.752C174.712 130.752 173.512 129.648 173.416 127.752H171.592C171.736 130.68 173.56 132.384 177.16 132.384ZM190.472 132.384C194.096 132.384 195.752 130.536 195.752 127.344C195.752 125.496 195.032 123.912 192.848 123.264C194.864 122.712 195.344 121.32 195.344 119.424C195.344 116.76 193.88 114.96 190.304 114.96C187.328 114.96 185.528 116.568 185.432 119.448H187.232C187.328 117.6 188.36 116.592 190.304 116.592C192.536 116.592 193.424 117.552 193.424 119.448C193.424 121.584 192.824 122.568 189.968 122.568H188.888V124.08H189.968C192.824 124.08 193.832 125.328 193.832 127.392C193.832 129.696 192.728 130.752 190.472 130.752C188.024 130.752 186.824 129.648 186.728 127.752H184.904C185.048 130.68 186.872 132.384 190.472 132.384ZM199.185 135.432L201.129 129.6H198.897L197.913 135.432H199.185ZM209.428 132.24C212.884 132.24 214.852 130.344 214.852 126.984V120.216C214.852 116.856 212.884 114.96 209.428 114.96C206.02 114.96 204.052 116.88 204.052 120.216V127.008C204.052 130.344 206.02 132.24 209.428 132.24ZM209.428 116.592C211.876 116.592 212.932 118.008 212.932 120.216V126.984C212.932 129.168 211.876 130.608 209.428 130.608C207.028 130.608 205.972 129.192 205.972 126.984V120.24C205.972 118.032 207.028 116.592 209.428 116.592ZM223.742 132.24C227.342 132.24 229.238 130.392 229.238 127.584V127.032C229.238 125.112 228.23 123.768 226.526 123.192C227.966 122.592 228.758 121.368 228.758 119.76V119.208C228.758 116.472 226.79 114.96 223.79 114.96C220.718 114.96 218.774 116.472 218.774 119.208V119.76C218.774 121.368 219.542 122.592 221.03 123.192C219.302 123.792 218.27 125.112 218.27 127.032V127.584C218.27 130.392 220.166 132.24 223.742 132.24ZM223.838 116.592C225.854 116.592 226.838 117.648 226.838 119.256V119.712C226.838 121.392 225.854 122.424 223.67 122.424C221.678 122.424 220.694 121.392 220.694 119.712V119.256C220.694 117.648 221.678 116.592 223.838 116.592ZM223.814 124.056C226.166 124.056 227.342 125.256 227.342 127.104V127.536C227.342 129.408 226.19 130.608 223.694 130.608C221.342 130.608 220.19 129.408 220.19 127.536V127.104C220.19 125.256 221.318 124.056 223.814 124.056ZM237.757 132.24C241.357 132.24 243.253 130.392 243.253 127.584V127.032C243.253 125.112 242.245 123.768 240.541 123.192C241.981 122.592 242.773 121.368 242.773 119.76V119.208C242.773 116.472 240.805 114.96 237.805 114.96C234.733 114.96 232.789 116.472 232.789 119.208V119.76C232.789 121.368 233.557 122.592 235.045 123.192C233.317 123.792 232.285 125.112 232.285 127.032V127.584C232.285 130.392 234.181 132.24 237.757 132.24ZM237.853 116.592C239.869 116.592 240.853 117.648 240.853 119.256V119.712C240.853 121.392 239.869 122.424 237.685 122.424C235.693 122.424 234.709 121.392 234.709 119.712V119.256C234.709 117.648 235.693 116.592 237.853 116.592ZM237.829 124.056C240.181 124.056 241.357 125.256 241.357 127.104V127.536C241.357 129.408 240.205 130.608 237.709 130.608C235.357 130.608 234.205 129.408 234.205 127.536V127.104C234.205 125.256 235.333 124.056 237.829 124.056ZM253.183 132H258.847C262.807 132 264.919 129.984 264.919 126.096V121.128C264.919 117.312 262.687 115.2 258.751 115.2H253.183V132ZM258.631 116.832C261.607 116.832 262.999 118.488 262.999 121.104V126.12C262.999 128.784 261.847 130.368 258.703 130.368H255.055V116.832H258.631ZM268.652 132H279.212V130.368H270.524V124.104H277.748V122.496H270.524V116.832H279.212V115.2H268.652V132ZM282.176 132H287.792C291.104 132 293.384 130.488 293.384 127.512V126.888C293.384 124.896 292.28 123.672 290.336 123.144C291.728 122.568 292.568 121.536 292.568 120.024V119.352C292.568 116.592 290.696 115.2 287.12 115.2H282.176V132ZM287.072 116.832C289.52 116.832 290.648 117.696 290.648 119.4V120.024C290.648 121.512 289.52 122.544 287.216 122.544H284.048V116.832H287.072ZM287.672 124.056C290.216 124.056 291.488 125.136 291.488 126.864V127.488C291.488 129.216 290.216 130.368 287.672 130.368H284.048V124.056H287.672ZM298.649 125.256H301.577L305.777 132H307.889L303.449 124.968C305.993 124.464 307.265 122.88 307.265 120.744V119.76C307.265 116.88 305.513 115.2 301.361 115.2H296.777V132H298.649V125.256ZM301.313 116.832C304.289 116.832 305.345 118.008 305.345 119.808V120.696C305.345 122.472 304.097 123.624 301.337 123.624H298.649V116.832H301.313ZM310.746 132H312.618V115.2H310.746V132ZM321.421 116.592C323.845 116.592 324.829 117.72 324.973 120.048H326.773C326.701 116.76 324.925 114.96 321.421 114.96C317.797 114.96 316.261 116.808 316.261 119.232C316.261 121.704 317.365 122.736 320.365 123.816L322.141 124.464C324.517 125.352 325.165 126.12 325.165 127.704C325.165 129.672 324.157 130.608 321.733 130.608C319.165 130.608 317.941 129.48 317.629 127.152H315.829C316.189 130.632 318.133 132.24 321.709 132.24C325.429 132.24 327.085 130.56 327.085 127.632C327.085 125.28 326.125 124.032 322.909 122.832L321.133 122.184C318.877 121.368 318.181 120.816 318.181 119.208C318.181 117.72 318.973 116.592 321.421 116.592ZM168.784 142.424H167.008C164.896 145.712 163.768 149.504 163.768 153.392C163.768 157.28 164.92 161.072 167.008 164.384H168.784C166.84 160.904 165.664 157.136 165.664 153.392C165.664 149.528 166.816 145.76 168.784 142.424ZM181.89 161H183.93L177.738 144.2H175.77L169.53 161H171.498L173.106 156.632H180.306L181.89 161ZM179.754 155.024H173.61L176.682 146.528L179.754 155.024ZM186.515 161H196.403V159.368H188.387V144.2H186.515V161ZM198.82 161H208.708V159.368H200.692V144.2H198.82V161ZM227.415 145.832V144.2H215.511V145.832H220.551V161H222.423V145.832H227.415ZM229.898 161H231.77V144.2H229.898V161ZM243.67 157.808H245.182L250.918 147.344V161H252.766V144.2H250.63L244.486 155.6L238.414 144.2H236.086V161H237.91V147.344L243.67 157.808ZM257.086 161H267.646V159.368H258.958V153.104H266.182V151.496H258.958V145.832H267.646V144.2H257.086V161ZM276.844 161H282.508C286.468 161 288.58 158.984 288.58 155.096V150.128C288.58 146.312 286.348 144.2 282.412 144.2H276.844V161ZM282.292 145.832C285.268 145.832 286.66 147.488 286.66 150.104V155.12C286.66 157.784 285.508 159.368 282.364 159.368H278.716V145.832H282.292ZM302.757 161H304.797L298.605 144.2H296.637L290.397 161H292.365L293.973 156.632H301.173L302.757 161ZM300.621 155.024H294.477L297.549 146.528L300.621 155.024ZM315.868 145.832V144.2H303.964V145.832H309.004V161H310.876V145.832H315.868ZM327.437 161H329.477L323.285 144.2H321.317L315.077 161H317.045L318.653 156.632H325.853L327.437 161ZM325.301 155.024H319.157L322.229 146.528L325.301 155.024ZM333.334 153.392C333.334 157.16 332.158 160.928 330.238 164.384H332.014C334.102 161.072 335.23 157.28 335.23 153.392C335.23 149.504 334.126 145.712 332.014 142.424H330.238C332.206 145.76 333.334 149.528 333.334 153.392Z" fill="white"/>
<path d="M331.24 277.68C322.973 315.693 288.56 342.248 249.693 340.607C210.827 338.965 178.776 309.604 173.743 271.03L253.069 260.679L331.24 277.68Z" fill="white"/>
<path d="M173.743 271.028C169.618 239.415 184.658 208.37 212.023 192.012C239.388 175.655 273.853 177.107 299.745 195.708C325.638 214.31 338.013 246.51 331.243 277.665L253.069 260.678L173.743 271.028Z" fill="#828282"/>
<circle cx="252.947" cy="260.848" r="37.9111" transform="rotate(-97.4338 252.947 260.848)" fill="black"/>
</svg>
