<svg width="1000" height="1000" viewBox="0 0 1000 1000" fill="none" xmlns="http://www.w3.org/2000/svg">
<rect width="1000" height="1000" fill="black"/>
<circle cx="500" cy="500" r="426" stroke="white" stroke-width="3" stroke-linecap="round" stroke-dasharray="0.2 8"/>
<circle cx="497.103" cy="502.898" r="394.122" stroke="#828282" stroke-width="3" stroke-linecap="round" stroke-dasharray="0.2 8"/>
<circle cx="497.643" cy="497.64" r="80.6989" fill="#828282"/>
<path d="M572.881 484.256C572.66 483.904 572.42 483.44 572.189 482.763C570.696 483.25 570.646 483.289 568.883 483.583L568.802 483.688C568.1 484.689 568.837 484.27 567.606 485.311C566.139 486.543 565.182 488.231 563.544 489.232C563.343 490.981 563.689 491.373 563.248 493.449C563.072 494.214 562.216 496.274 561.213 496.118C560.891 496.058 559.544 492.721 559.228 491.8C558.686 490.232 558.077 489.071 557.685 487.267C557.464 486.306 557.313 484.462 557.092 483.815C556.041 483.97 556.091 484.64 555.083 483.936C554.371 483.419 554.692 483.11 554.298 482.343C553.468 481.562 552.609 480.775 551.754 479.99C551.092 479.779 548.543 480.15 547.467 480.03C545.527 479.854 545.363 479.97 544.21 478.422C542.171 478.523 542.346 479.282 540.359 477.582C539.062 476.481 539.308 474.717 537.424 475.712C537.349 477.325 538.136 477.677 538.842 478.422C539.358 478.994 539.993 479.383 540.264 480.145C540.289 480.17 540.41 480.89 540.435 480.991C542.274 481.112 542.713 480.226 543.716 479.483C544.697 480.404 543.741 480.56 545.163 481.288C546.29 481.86 546.069 481.524 546.806 482.445C547.172 483.681 544.283 487.034 543.324 487.643C542.591 488.114 542.197 487.839 541.535 488.386C540.56 489.211 541.661 489.093 539.947 489.723C538.108 490.39 536.289 491.803 534.357 491.918C533.941 490.781 533.527 489.625 533.111 488.466C531.884 484.525 531.933 486.053 530.687 484.013C530.094 483.133 530.341 482.56 529.952 481.775C529.681 481.188 529.264 480.935 528.896 480.207C528.334 479.09 527.674 477.347 526.377 477.522C526.106 478.403 527.573 481.383 527.945 482.111C528.311 482.839 528.896 483.153 529.072 484.191C529.318 485.624 529.021 485.448 529.804 486.409C531.447 488.388 529.734 488.037 532.278 489.976C534.193 491.429 533.701 491.865 534.512 493.802C535.758 494.158 539.481 492.489 540.116 492.982C540.877 494.334 539.24 496.495 538.819 497.672C537.447 501.613 535.048 501.552 533.209 504.573C532.208 506.206 531.742 506.422 530.811 508.379C529.76 510.597 532.942 516.739 531.032 519.31C530.615 519.897 529.268 520.251 527.58 522.035C525.786 523.98 527.625 523.644 526.938 526.885C526.402 527.625 525.742 527.666 525.075 528.198C524.834 528.963 525.03 529.57 524.613 530.511C524.172 531.647 524.097 531.043 523.456 531.963C522.995 532.691 523.045 532.979 522.505 533.652C522.038 534.259 521.793 534.433 521.354 534.829C519.219 536.794 514.643 536.849 514.252 536.573C513.171 535.653 513.906 535.416 513.639 534.125C513.374 532.984 512.774 532.03 512.267 531.155L512.217 531.064C511.97 530.633 511.75 530.218 511.624 529.828C510.744 527.043 511.062 524.923 509.52 522.098C507.58 518.446 510.596 516.544 510.471 514.484C510.42 513.938 510.224 513.604 510.175 513.171C509.809 510.899 509.588 508.854 508.071 507.07C506.402 505.125 506.624 505.813 507.164 502.616C507.852 498.948 506.284 499.887 504.079 499.792C502.998 496.455 500.892 498.084 498.786 499.064C497.464 499.671 496.971 498.888 495.479 499.104C492.143 499.555 494.767 500.988 490.312 497.455C488.448 495.983 489.699 496.727 488.594 494.886C488.227 494.218 487.101 493.333 486.584 492.668C484.895 490.548 486.906 488.411 486.609 485.982C486.097 481.468 485.362 485.389 487.886 479.936C489.207 477.036 491.218 477.016 491.732 475.719C492.173 474.562 491.878 473.74 492.707 472.678C493.442 471.818 494.496 471.991 494.911 470.639C495.503 468.97 494.374 468.755 493.147 468.714C492.635 466.971 492.635 467.402 493.026 465.794C493.246 464.888 493.05 464.457 493.246 463.557C493.738 461.303 497.584 463.536 498.685 462.616C499.197 461.655 499.272 460.712 498.685 459.791C498.068 458.87 497.263 458.986 496.846 458.102C497.777 457.475 497.092 458.027 497.898 457.847C498.853 457.631 498.728 457.355 499.857 457.144C500.862 456.944 501.505 456.023 502.481 455.396C503.879 454.496 503.213 453.688 504.904 453.411C507.624 452.94 505.86 453.02 506.157 450.491C506.568 450.331 506.962 450.155 507.353 449.979C508.208 451.096 507.132 450.647 508.164 451.392C508.429 451.236 508.751 451.076 509.044 450.92C508.894 449.704 508.332 449.939 507.963 448.432C506.616 448.648 506.13 449.783 505.048 449.372C503.996 448.976 503.947 447.468 503.996 446.212C504.387 445.271 506.345 444.759 507.108 444.523C508.334 444.112 508.159 443.286 509.293 442.17C510.76 440.697 509.684 442.19 510.394 440.286C512.012 440.225 511.249 440.17 512.208 439.679L512.253 439.659L512.354 439.618C512.916 439.363 513.651 439.302 514.389 439.051C517.084 438.151 518.184 438.6 520.144 439.403C521.662 440.03 526.246 440.051 526.592 441.973C525.486 443.13 524.432 442.288 522.841 442.384C523.137 443.877 523.258 443.877 524.605 444.288C524.826 443.58 524.51 443.856 524.876 443.407C525.318 443.502 525.757 443.583 526.198 443.663C526.645 442.149 527.153 442.366 528.652 442.19C528.401 441.148 528.136 441.445 528.697 440.622C530.245 440.777 528.992 440.642 529.748 441.878C530.829 441.738 531.883 440.541 533.376 440.385C534.307 440.285 534.262 440.641 535.579 440.501C536.66 440.385 536.611 439.995 537.689 440.446C538.08 439.718 537.689 439.738 538.645 439.56C540.112 439.305 541.39 440.207 542.807 440.406C541.755 439.109 540.751 439.364 542.052 437.205C543.69 436.873 543.84 437.109 544.551 438.346C544.951 438.115 545.123 437.889 545.321 437.774C545.21 437.683 545.1 437.593 544.985 437.502C544.372 437.015 543.759 436.541 543.126 436.074C543.005 435.984 542.885 435.899 542.76 435.809C542.238 435.423 541.708 435.044 541.171 434.672C541.001 434.557 540.835 434.436 540.665 434.32C540.018 433.879 539.368 433.445 538.711 433.023C538.65 432.983 538.585 432.948 538.525 432.908C537.922 432.527 537.313 432.153 536.696 431.787C536.505 431.672 536.315 431.556 536.124 431.445C535.537 431.104 534.946 430.763 534.355 430.44C534.25 430.385 534.149 430.324 534.049 430.269C533.372 429.897 532.687 429.541 531.994 429.193C531.794 429.092 531.593 428.997 531.397 428.897C530.84 428.626 530.286 428.355 529.724 428.096C529.548 428.016 529.372 427.931 529.192 427.85C528.494 427.529 527.79 427.223 527.077 426.924C526.891 426.849 526.701 426.774 526.515 426.693C525.948 426.462 525.384 426.236 524.811 426.021C524.591 425.936 524.375 425.851 524.16 425.77C523.435 425.499 522.707 425.238 521.969 424.995C521.829 424.95 521.688 424.904 521.548 424.86C520.925 424.653 520.306 424.453 519.674 424.263C519.438 424.192 519.197 424.123 518.956 424.052C518.294 423.856 517.634 423.671 516.961 423.495C516.85 423.471 516.745 423.435 516.635 423.41C515.881 423.214 515.118 423.034 514.357 422.864C514.117 422.809 513.87 422.758 513.627 422.704C513.02 422.574 512.415 422.453 511.804 422.337C511.603 422.297 511.403 422.257 511.201 422.222C510.436 422.082 509.658 421.956 508.883 421.841C508.652 421.806 508.416 421.776 508.185 421.74C507.578 421.655 506.979 421.58 506.366 421.51C506.125 421.479 505.879 421.449 505.634 421.424C504.872 421.346 504.087 421.276 503.289 421.216C503.099 421.202 502.909 421.192 502.717 421.181C502.073 421.136 501.426 421.101 500.781 421.075C500.515 421.06 500.254 421.05 499.99 421.045C499.229 421.02 498.467 421.004 497.707 421H497.519C478.715 421 461.504 427.786 448.186 439.039L448.22 439.11C448.321 439.27 448.391 439.27 448.491 439.682C447.259 439.983 447.255 440.188 446.788 440.249C446.507 440.504 446.221 440.755 445.942 441.009C446.833 441.315 448.007 441.11 448.882 441.074C449.204 440.487 449.399 439.973 449.959 439.762C450.179 439.681 450.45 439.661 450.819 439.681C450.864 439.972 450.94 440.268 451.015 440.561C451.015 440.581 451.045 440.707 451.045 440.737C451.07 440.717 451.09 440.863 451.11 440.917C452.658 440.017 451.356 439.997 452.186 438.368C450.889 438.113 451.065 438.267 450.252 437.442C451.037 436.582 452.555 436.285 453.684 436.366C453.609 437.151 453.243 437.131 453.538 437.798C454.419 437.246 455.031 435.779 456.454 436.05C456.719 436.246 457.04 436.426 457.334 436.602C456.596 437.29 455.495 437.33 454.54 437.719C454.123 441.976 455.887 438.406 455.3 441.332C456.352 441.251 457.384 440.492 457.774 439.703C457.385 439.189 456.821 439.189 456.5 438.582C456.75 437.797 457.275 437.2 458.023 436.848C458.524 436.608 459.129 436.477 459.811 436.477C467.601 436.537 463.898 436.893 466.304 437.99C466.846 438.226 467.797 438.346 468.119 438.815C468.61 439.56 468.143 440.262 468.924 440.855C469.612 441.367 469.709 440.835 470.617 441.971C470.421 442.619 469.955 443.289 468.999 443.309C467.677 443.329 468.462 442.423 467.04 442.561C467.065 443.892 468.387 444.404 467.161 445.13C466.085 445.777 466.77 444.894 465.965 445.346C465.94 445.366 465.864 445.407 465.839 445.427C465.789 445.461 465.744 445.522 465.714 445.562C465.568 445.718 465.449 445.858 465.323 445.994C463.364 445.461 463.735 445.702 462.559 444.405C462.118 443.914 462.043 443.793 461.256 443.859C460.769 443.873 460.135 444.089 459.664 443.658C460.619 442.462 461.086 443.624 462.484 442.913C462.73 442.798 464.272 441.601 464.519 441.325C464.102 440.384 464.469 441.165 463.857 440.56C462.485 439.168 462.088 439.524 460.229 439.524C459.359 440.525 458.706 441.762 457.755 442.309C457.183 442.64 456.503 442.715 455.6 442.329C456.017 444.018 457.093 442.72 457.189 444.763C456.481 444.623 456.112 444.265 455.374 444.526C453.806 445.113 455.204 445.053 455.329 445.366C455.329 445.386 456.06 445.461 455.329 445.738C454.518 446.034 455.204 445.582 453.636 444.662C453.857 444.271 454.077 443.861 454.298 443.445C453.026 443.836 451.433 444.467 449.94 445.194C448.246 446.034 446.654 446.998 445.703 447.879C445.678 449.351 445.944 448.37 446.094 450.116C448.372 450.252 447.637 450.936 449.915 451.584C450.357 451.705 450.917 451.82 451.609 451.94C451.609 453.036 450.628 453.864 451.308 455.001C452.9 456.118 452.951 453.939 453.347 452.552C458.737 451.426 456.137 449.837 457.529 446.873C457.74 446.431 458.035 445.956 458.466 445.45C458.882 445.465 460.57 445.646 460.94 445.721C462.162 445.937 461.502 446.233 462.823 446.818C462.799 447.88 462.261 449.252 463.829 448.998C465.025 448.788 464.76 447.841 466.227 447.606C466.889 449.16 466.719 449.826 467.012 451.688C470.539 453.06 468.971 454.176 468.285 456.748C468.726 456.964 469.191 457.164 469.657 457.36C469.632 458.105 469.606 458.828 469.582 459.56C469.511 459.56 465.811 458.755 465.565 458.674C466.132 457.066 467.158 457.046 467.819 455.398C466.497 455.634 466.592 456.045 465.638 456.339C464.782 456.594 464.12 456.42 463.22 456.535C463.245 456.605 463.27 456.735 463.285 456.966C463.335 457.478 463.581 456.991 463.234 457.538C462.013 456.966 462.429 455.634 460.149 456.871C460.665 457.107 461.175 457.322 461.717 457.538C461.646 459.046 461.521 457.91 461.2 458.91C460.42 461.48 463.335 459.892 464.096 459.756C463.895 461.108 463.064 461.108 461.886 461.48C460.589 461.871 460.197 462.4 459.167 462.641C459.167 461.028 458.926 462.386 459.634 461.264C458.608 461.364 457.845 461.836 456.869 462.245L456.769 462.285C455.512 462.797 455.322 462.872 455.176 464.48C454.1 464.816 452.853 465.193 452.09 465.973C451.33 466.701 450.573 467.426 449.837 468.134C449.762 468.194 449.711 468.249 449.667 468.29C449.938 470.315 449.667 470.349 448.44 471.134C447.409 471.802 447.068 471.786 446.112 472.627C443.051 475.373 444.524 474.095 444.689 478.825C444.052 478.628 443.443 478.413 442.856 478.197C442.389 475.061 443.026 476.097 440.503 475.373C437.783 474.592 438.154 475.925 437.025 476.158C435.773 476.433 435.161 475.021 433.349 476.198C432.348 476.886 431.39 477.335 431.144 478.551C430.848 480.024 430.189 481.1 430.288 482.729C430.459 487.142 434.476 487.398 435.502 485.339C436.19 483.966 436.018 483.218 438.247 483.574C438.468 484.752 438.126 485.614 437.831 486.515C437.635 487.047 437.092 488.002 437.364 488.732C438.956 489.38 439.007 488.16 441.109 489.414C441.259 491.519 440.158 493.872 441.776 495.084C443.023 496.004 443.098 495.185 444.2 494.989C445.426 494.772 445.201 495.535 446.33 495.717C446.972 494.931 446.702 495.421 447.115 494.46C447.85 492.791 448.046 493.58 449.784 492.556C449.955 492.461 450.1 492.36 450.276 492.245C450.472 492.656 450.693 493.045 450.889 493.441C452.161 491.928 452.311 493.4 453.778 493.813C454.41 493.988 454.859 494.049 455.211 494.053C456.277 494.068 456.388 493.547 457.845 494.068C458.015 494.149 458.236 494.204 458.437 494.264C458.462 494.264 458.533 494.304 458.533 494.345C458.557 494.365 458.633 494.42 458.654 494.44C458.9 494.715 458.925 494.992 459.121 495.285C460.126 496.241 461.136 497.21 462.111 498.15C464.045 498.911 464.045 497.478 466.253 499.618C467.184 500.498 466.765 500.484 467.279 501.623C467.354 501.798 467.499 501.974 467.6 502.189C467.796 502.721 468.017 503.231 468.238 503.743C469.243 505.055 470.611 504.235 472.009 505.586C472.814 506.372 472.205 506.133 473.993 506.447C476.763 506.898 475.687 506.647 477.795 508.235C478.6 508.822 478.796 508.491 479.559 508.996C480.61 510.469 480.339 512.061 479.458 513.354C476.738 517.315 477.669 516.67 477.548 519.812C477.447 521.616 476.935 525.341 475.245 525.793C469.094 527.521 472.672 528.718 471.058 531.753C470.591 532.619 470.247 532.834 469.951 533.522C468.729 536.387 469.585 537.348 465.959 536.703C466.306 537.31 466.085 536.899 466.427 537.443C467.503 539.112 467.679 540.369 465.471 540.78C463.638 541.132 464.419 540.78 464.249 542.819C463.537 543.115 463.218 542.819 462.756 543.291C463.394 544.468 462.801 543.487 463.883 544.157C463.683 544.804 463.537 545.429 463.367 546.056C462.95 547.59 462.825 546.177 462.679 547.96C463.316 548.256 463.755 548.197 464.322 548.962C464.247 549.554 463.66 551.161 463.487 552.083C464.393 553.435 465.13 554.888 467.069 555.029C467.045 556.16 467.31 556.045 466.331 556.281C465.501 556.477 463.737 555.694 462.995 555.3C461.722 554.612 460.546 553.712 459.689 552.419C459.201 551.687 459.397 552.043 458.883 551.357C457.953 550.161 458.321 549.609 458.053 548.808C457.903 548.337 457.147 547.827 457.461 546.295C457.536 545.864 458.221 543.806 457.39 544.16C456.555 544.492 458.028 544.356 456.874 544.9C456.603 544.16 456.382 543.057 456.237 542.136C455.941 540.588 455.575 540.528 455.401 539.587C455.035 537.406 455.968 537.173 454.934 533.541C454.256 531.143 454.533 525.454 453.817 522.54C453.702 522.073 453.562 521.68 453.391 521.379C452.729 520.282 451.113 519.77 449.813 518.89C449.743 518.87 449.692 518.85 449.668 518.809C447.879 517.557 446.185 512.632 444.768 510.789C444.106 509.903 443.687 510.291 443.396 508.905C443.074 507.628 443.566 507.843 443.982 506.78C441.802 502.784 446.803 502.839 445.771 498.034C445.55 497.148 444.915 495.913 444.379 495.525C443.347 495.976 443.837 496.227 443.298 497.093C442.468 496.621 441.635 496.152 440.824 495.681C438.301 493.247 439.647 495.013 438.94 493.423C437.417 490.09 435.974 491.955 434.161 490.307C433.35 489.619 433.206 488.538 431.858 488.739C429.823 489.01 430.952 489.326 428.848 488.342C427.054 487.497 425.195 486.519 423.943 485.382C423.878 482.999 424.605 483.227 422.792 481.029C421.617 486.335 421 491.855 421 497.52C421 498.396 421.02 499.268 421.05 500.139C421.055 500.325 421.06 500.516 421.071 500.702C421.105 501.532 421.146 502.36 421.206 503.186C421.211 503.221 421.211 503.251 421.216 503.287C421.281 504.153 421.362 505.015 421.457 505.876C421.472 506.046 421.492 506.222 421.512 506.398C421.603 507.169 421.702 507.936 421.813 508.696C421.828 508.787 421.838 508.877 421.853 508.967C421.979 509.813 422.124 510.651 422.275 511.486L422.365 511.954C422.505 512.686 422.657 513.421 422.817 514.149C422.847 514.27 422.867 514.39 422.897 514.511C423.083 515.336 423.284 516.159 423.5 516.975C423.535 517.096 423.565 517.221 423.601 517.341C423.797 518.063 423.997 518.783 424.213 519.496C424.254 519.631 424.288 519.761 424.329 519.897C424.58 520.702 424.835 521.51 425.109 522.305C425.134 522.38 425.164 522.46 425.19 522.541C425.445 523.269 425.706 523.988 425.981 524.706C426.031 524.842 426.082 524.977 426.131 525.107C426.437 525.902 426.758 526.69 427.086 527.47C427.091 527.48 427.096 527.491 427.101 527.505C427.422 528.26 427.763 529.013 428.106 529.753C428.167 529.878 428.222 530.008 428.282 530.134C429.005 531.657 429.77 533.154 430.585 534.622C430.646 534.733 430.71 534.842 430.771 534.953C431.596 536.43 432.475 537.873 433.395 539.285C433.456 539.376 433.516 539.466 433.575 539.556C434.512 540.984 435.495 542.371 436.526 543.729C436.576 543.793 436.626 543.858 436.676 543.925C437.182 544.586 437.691 545.242 438.219 545.883C438.234 545.898 438.244 545.918 438.259 545.934C438.816 546.611 439.376 547.276 439.953 547.933C439.987 547.968 440.018 548.004 440.048 548.038C440.605 548.67 441.165 549.285 441.737 549.898C441.767 549.928 441.797 549.963 441.822 549.993C443.018 551.26 444.26 552.487 445.543 553.676C445.578 553.71 445.618 553.746 445.654 553.781C446.936 554.963 448.253 556.099 449.61 557.192C449.654 557.227 449.695 557.263 449.74 557.298C451.097 558.384 452.495 559.428 453.927 560.419C453.972 560.454 454.018 560.484 454.063 560.514C455.501 561.506 456.972 562.454 458.481 563.349C458.521 563.374 458.566 563.4 458.606 563.424C460.12 564.32 461.668 565.168 463.25 565.958C463.285 565.972 463.315 565.993 463.351 566.008C473.635 571.145 485.236 574.04 497.519 574.04C539.78 574.04 574.04 539.782 574.04 497.518C574.04 492.994 573.644 488.561 572.883 484.254L572.881 484.256ZM498.273 448.742C498.469 449.179 498.664 449.608 498.886 450.039C499.181 451.255 498.224 450.255 499.181 451.708C499.936 452.608 500.674 453.512 501.409 454.412C500.942 455.764 500.968 455.885 499.645 456.001C498.714 456.081 497.66 456.337 496.95 456.296C497.221 454.552 496.704 455.456 497.12 454.453C497.588 453.257 497.663 454.157 498.071 453C497.165 451.648 496.212 452.569 496.257 449.824C497.122 449.058 496.996 449.177 498.273 448.742L498.273 448.742ZM538.526 519.486C538.135 520.567 537.791 521.88 537.425 523.039C536.933 524.667 535.782 529.866 533.654 527.808C532.942 527.136 532.966 524.883 533.428 523.982C534.73 521.548 533.553 522.118 533.995 520.257C534.336 518.764 535.512 519.136 536.392 518.333C537.198 517.625 537.348 516.368 538.428 515.824C539.477 517.309 538.917 518.33 538.526 519.486L538.526 519.486ZM572.775 483.657C572.81 483.857 572.846 484.058 572.88 484.259C572.885 484.264 572.885 484.269 572.89 484.274C572.856 484.068 572.815 483.862 572.775 483.657L572.775 483.657Z" fill="#1D1D1D"/>
</svg>
