<svg width="500" height="500" viewBox="0 0 500 500" fill="none" xmlns="http://www.w3.org/2000/svg">
<rect width="500" height="500" fill="black"/>
<path d="M379.528 233.839C382.792 233.839 384.688 231.919 384.688 229.111V227.887C384.688 224.503 382.648 222.967 378.64 222.967H376.912V218.287H383.92V216.655H375.088V224.575H378.496C381.496 224.575 382.768 225.655 382.768 227.887V229.111C382.768 231.175 381.424 232.207 379.48 232.207C377.536 232.207 376.312 231.223 376.168 229.207H374.344C374.44 232.135 376.288 233.839 379.528 233.839ZM392.898 233.695C396.498 233.695 398.394 231.847 398.394 229.039V228.487C398.394 226.567 397.386 225.223 395.682 224.647C397.122 224.047 397.914 222.823 397.914 221.215V220.663C397.914 217.927 395.946 216.415 392.946 216.415C389.874 216.415 387.93 217.927 387.93 220.663V221.215C387.93 222.823 388.698 224.047 390.186 224.647C388.458 225.247 387.426 226.567 387.426 228.487V229.039C387.426 231.847 389.322 233.695 392.898 233.695ZM392.994 218.047C395.01 218.047 395.994 219.103 395.994 220.711V221.167C395.994 222.847 395.01 223.879 392.826 223.879C390.834 223.879 389.85 222.847 389.85 221.167V220.711C389.85 219.103 390.834 218.047 392.994 218.047ZM392.97 225.511C395.322 225.511 396.498 226.711 396.498 228.559V228.991C396.498 230.863 395.346 232.063 392.85 232.063C390.498 232.063 389.346 230.863 389.346 228.991V228.559C389.346 226.711 390.474 225.511 392.97 225.511ZM404.178 223.951C406.362 223.951 407.826 222.655 407.826 220.471V219.991C407.826 217.831 406.362 216.511 404.178 216.511C401.97 216.511 400.506 217.831 400.506 220.015V220.471C400.506 222.655 401.97 223.951 404.178 223.951ZM402.882 233.455H404.346L415.506 216.655H414.018L402.882 233.455ZM404.178 217.735C405.642 217.735 406.41 218.671 406.41 220.039V220.447C406.41 221.791 405.642 222.751 404.178 222.751C402.69 222.751 401.946 221.815 401.946 220.447V220.039C401.946 218.671 402.69 217.735 404.178 217.735ZM414.546 233.599C416.73 233.599 418.194 232.279 418.194 230.095V229.639C418.194 227.479 416.73 226.135 414.546 226.135C412.338 226.135 410.874 227.479 410.874 229.663V230.119C410.874 232.279 412.338 233.599 414.546 233.599ZM414.546 227.359C416.01 227.359 416.754 228.319 416.754 229.663V230.071C416.754 231.439 416.01 232.375 414.546 232.375C413.058 232.375 412.29 231.439 412.29 230.095V229.687C412.29 228.319 413.058 227.359 414.546 227.359ZM375.16 262.455H380.824C384.784 262.455 386.896 260.439 386.896 256.551V251.583C386.896 247.767 384.664 245.655 380.728 245.655H375.16V262.455ZM380.608 247.287C383.584 247.287 384.976 248.943 384.976 251.559V256.575C384.976 259.239 383.824 260.823 380.68 260.823H377.032V247.287H380.608ZM399.605 258.951H397.805C397.637 260.175 396.869 260.919 395.501 261.087C395.333 261.111 395.165 261.111 394.973 261.111C392.957 261.111 391.997 259.911 391.901 257.943C391.877 257.583 391.853 257.199 391.853 256.815H399.677V255.735C399.677 252.279 397.805 250.503 394.901 250.503C391.877 250.503 389.909 252.255 389.909 255.687V257.511C389.909 260.943 391.901 262.695 394.877 262.695C397.541 262.695 399.341 261.375 399.605 258.951ZM391.853 255.447C391.877 253.383 392.837 252.063 394.901 252.063C396.917 252.063 397.805 253.167 397.901 255.615H391.997L391.853 255.447ZM408.519 262.695C411.183 262.695 413.079 260.943 413.079 257.511V255.711C413.079 252.255 411.183 250.503 408.519 250.503C406.839 250.503 405.543 251.247 404.919 252.711V244.935H403.023V262.455H404.919V260.559C405.519 261.879 406.743 262.695 408.519 262.695ZM408.087 261.063C406.143 261.063 404.919 259.719 404.919 257.535V255.831C404.919 253.383 406.119 252.135 408.063 252.135C410.199 252.135 411.183 253.551 411.183 255.735V257.487C411.183 259.671 410.199 261.063 408.087 261.063ZM418.395 255.903C418.395 253.551 419.835 252.327 421.899 252.327H422.523V250.503H421.947C420.387 250.503 419.139 251.247 418.395 252.807V250.743H416.499V262.455H418.395V255.903ZM425.802 248.463C426.594 248.463 427.146 247.935 427.146 247.239C427.146 246.543 426.594 246.015 425.802 246.015C425.058 246.015 424.482 246.543 424.482 247.239C424.482 247.935 425.058 248.463 425.802 248.463ZM424.866 262.455H426.762V250.743H424.866V262.455ZM434.494 251.967C436.366 251.967 437.182 252.687 437.326 254.247H439.126C439.006 251.847 437.59 250.503 434.494 250.503C431.566 250.503 430.246 251.847 430.246 253.815C430.246 255.783 431.326 256.599 433.51 257.055L435.166 257.391C437.014 257.823 437.518 258.135 437.518 259.359C437.518 260.559 436.774 261.255 434.902 261.255C432.862 261.255 431.878 260.487 431.686 258.711H429.91C430.174 261.447 431.83 262.695 434.854 262.695C437.854 262.695 439.39 261.471 439.39 259.239C439.39 257.271 438.406 256.551 435.718 255.951L434.206 255.615C432.694 255.255 432.118 254.871 432.118 253.767C432.118 252.567 432.79 251.967 434.494 251.967Z" fill="white"/>
<path d="M61.2 202.2L57.48 203.496V205.128L61.008 203.976V219H62.88V202.2H61.2ZM69.4277 209.496C71.6117 209.496 73.0757 208.2 73.0757 206.016V205.536C73.0757 203.376 71.6117 202.056 69.4277 202.056C67.2197 202.056 65.7557 203.376 65.7557 205.56V206.016C65.7557 208.2 67.2197 209.496 69.4277 209.496ZM68.1317 219H69.5957L80.7557 202.2H79.2677L68.1317 219ZM69.4277 203.28C70.8917 203.28 71.6597 204.216 71.6597 205.584V205.992C71.6597 207.336 70.8917 208.296 69.4277 208.296C67.9397 208.296 67.1957 207.36 67.1957 205.992V205.584C67.1957 204.216 67.9397 203.28 69.4277 203.28ZM79.7957 219.144C81.9797 219.144 83.4437 217.824 83.4437 215.64V215.184C83.4437 213.024 81.9797 211.68 79.7957 211.68C77.5877 211.68 76.1237 213.024 76.1237 215.208V215.664C76.1237 217.824 77.5877 219.144 79.7957 219.144ZM79.7957 212.904C81.2597 212.904 82.0037 213.864 82.0037 215.208V215.616C82.0037 216.984 81.2597 217.92 79.7957 217.92C78.3077 217.92 77.5397 216.984 77.5397 215.64V215.232C77.5397 213.864 78.3077 212.904 79.7957 212.904ZM69.216 232.832V231.2H57.312V232.832H62.352V248H64.224V232.832H69.216ZM71.6991 248H77.3151C80.6271 248 82.9071 246.488 82.9071 243.512V242.888C82.9071 240.896 81.8031 239.672 79.8591 239.144C81.2511 238.568 82.0911 237.536 82.0911 236.024V235.352C82.0911 232.592 80.2191 231.2 76.6431 231.2H71.6991V248ZM76.5951 232.832C79.0431 232.832 80.1711 233.696 80.1711 235.4V236.024C80.1711 237.512 79.0431 238.544 76.7391 238.544H73.5711V232.832H76.5951ZM77.1951 240.056C79.7391 240.056 81.0111 241.136 81.0111 242.864V243.488C81.0111 245.216 79.7391 246.368 77.1951 246.368H73.5711V240.056H77.1951ZM96.9326 248H98.9726L92.7806 231.2H90.8126L84.5726 248H86.5406L88.1486 243.632H95.3486L96.9326 248ZM94.7966 242.024H88.6526L91.7246 233.528L94.7966 242.024Z" fill="white"/>
<path d="M63.808 301L67.192 296.224C69.4 293.08 69.88 291.688 69.88 289.624V289.048C69.88 285.808 67.744 283.96 64.456 283.96C61.144 283.96 59.008 285.808 59.008 289.048V289.624C59.008 292.768 60.88 294.928 64.456 294.928C65.344 294.952 66.04 294.712 66.496 294.304L61.648 301H63.808ZM64.456 293.32C62.032 293.32 60.928 291.832 60.928 289.552V289.12C60.928 286.984 62.032 285.592 64.456 285.592C66.856 285.592 67.96 286.984 67.96 289.12V289.552C67.96 291.832 66.856 293.32 64.456 293.32ZM75.2324 291.496C77.4164 291.496 78.8804 290.2 78.8804 288.016V287.536C78.8804 285.376 77.4164 284.056 75.2324 284.056C73.0244 284.056 71.5604 285.376 71.5604 287.56V288.016C71.5604 290.2 73.0244 291.496 75.2324 291.496ZM73.9364 301H75.4004L86.5604 284.2H85.0724L73.9364 301ZM75.2324 285.28C76.6964 285.28 77.4644 286.216 77.4644 287.584V287.992C77.4644 289.336 76.6964 290.296 75.2324 290.296C73.7444 290.296 73.0004 289.36 73.0004 287.992V287.584C73.0004 286.216 73.7444 285.28 75.2324 285.28ZM85.6004 301.144C87.7844 301.144 89.2484 299.824 89.2484 297.64V297.184C89.2484 295.024 87.7844 293.68 85.6004 293.68C83.3924 293.68 81.9284 295.024 81.9284 297.208V297.664C81.9284 299.824 83.3924 301.144 85.6004 301.144ZM85.6004 294.904C87.0644 294.904 87.8084 295.864 87.8084 297.208V297.616C87.8084 298.984 87.0644 299.92 85.6004 299.92C84.1124 299.92 83.3444 298.984 83.3444 297.64V297.232C83.3444 295.864 84.1124 294.904 85.6004 294.904ZM62.032 323.256H64.96L69.16 330H71.272L66.832 322.968C69.376 322.464 70.648 320.88 70.648 318.744V317.76C70.648 314.88 68.896 313.2 64.744 313.2H60.16V330H62.032V323.256ZM64.696 314.832C67.672 314.832 68.728 316.008 68.728 317.808V318.696C68.728 320.472 67.48 321.624 64.72 321.624H62.032V314.832H64.696ZM78.331 330.24C81.379 330.24 83.371 328.488 83.371 325.056V323.232C83.371 319.8 81.379 318.048 78.331 318.048C75.283 318.048 73.315 319.8 73.315 323.232V325.056C73.315 328.488 75.283 330.24 78.331 330.24ZM78.331 319.68C80.467 319.68 81.451 321.096 81.451 323.232V325.032C81.451 327.216 80.467 328.608 78.331 328.608C76.195 328.608 75.235 327.216 75.235 325.032V323.232C75.235 321.096 76.195 319.68 78.331 319.68ZM91.1731 328.608C89.1091 328.608 88.1491 327.264 88.1491 325.032V323.28C88.1491 321.024 89.0611 319.68 91.1491 319.68C92.7571 319.68 93.6211 320.472 93.8371 321.96H95.6611C95.5171 319.608 93.9811 318.048 91.1491 318.048C88.1971 318.048 86.2291 319.8 86.2291 323.256V325.08C86.2291 328.488 88.1731 330.24 91.1251 330.24C93.7411 330.24 95.4211 328.92 95.7811 326.352H93.9811C93.6931 327.888 92.8771 328.608 91.1731 328.608ZM106.628 330H108.956L103.94 323.064L108.164 318.288H106.028L100.7 324.288V312.48H98.8039V330H100.7V326.736L102.692 324.48L106.628 330ZM119.738 326.496H117.938C117.77 327.72 117.002 328.464 115.634 328.632C115.466 328.656 115.298 328.656 115.106 328.656C113.09 328.656 112.13 327.456 112.034 325.488C112.01 325.128 111.986 324.744 111.986 324.36H119.81V323.28C119.81 319.824 117.938 318.048 115.034 318.048C112.01 318.048 110.042 319.8 110.042 323.232V325.056C110.042 328.488 112.034 330.24 115.01 330.24C117.674 330.24 119.474 328.92 119.738 326.496ZM111.986 322.992C112.01 320.928 112.97 319.608 115.034 319.608C117.05 319.608 117.938 320.712 118.034 323.16H112.13L111.986 322.992ZM129.012 328.536H127.644C126.06 328.536 125.508 327.864 125.508 326.544V319.872H129.012V318.288H125.508V314.832H123.636V318.288H121.812V319.872H123.636V326.52C123.636 329.04 124.715 330.12 127.308 330.12H129.012V328.536ZM65.464 359.24C68.128 359.24 70.024 357.488 70.024 354.056V352.256C70.024 348.8 68.128 347.048 65.464 347.048C63.784 347.048 62.488 347.792 61.864 349.256V341.48H59.968V359H61.864V357.104C62.464 358.424 63.688 359.24 65.464 359.24ZM65.032 357.608C63.088 357.608 61.864 356.264 61.864 354.08V352.376C61.864 349.928 63.064 348.68 65.008 348.68C67.144 348.68 68.128 350.096 68.128 352.28V354.032C68.128 356.216 67.144 357.608 65.032 357.608ZM77.8623 359.24C80.9103 359.24 82.9023 357.488 82.9023 354.056V352.232C82.9023 348.8 80.9103 347.048 77.8623 347.048C74.8143 347.048 72.8463 348.8 72.8463 352.232V354.056C72.8463 357.488 74.8143 359.24 77.8623 359.24ZM77.8623 348.68C79.9983 348.68 80.9823 350.096 80.9823 352.232V354.032C80.9823 356.216 79.9983 357.608 77.8623 357.608C75.7263 357.608 74.7663 356.216 74.7663 354.032V352.232C74.7663 350.096 75.7263 348.68 77.8623 348.68ZM93.8974 359H95.7694V341.48H93.8974V349.184C93.2734 347.84 92.0494 347.048 90.2974 347.048C87.6094 347.048 85.7374 348.8 85.7374 352.256V354.056C85.7374 357.488 87.6094 359.24 90.2974 359.24C91.9774 359.24 93.2494 358.52 93.8974 357.08V359ZM90.7294 348.68C92.6734 348.68 93.8974 350.048 93.8974 352.208V353.912C93.8974 356.384 92.6974 357.608 90.7534 357.608C88.6174 357.608 87.6334 356.216 87.6334 354.008V352.256C87.6334 350.096 88.6174 348.68 90.7294 348.68ZM100.631 345.008C101.423 345.008 101.975 344.48 101.975 343.784C101.975 343.088 101.423 342.56 100.631 342.56C99.8866 342.56 99.3106 343.088 99.3106 343.784C99.3106 344.48 99.8866 345.008 100.631 345.008ZM99.6946 359H101.591V347.288H99.6946V359ZM114.699 355.496H112.899C112.731 356.72 111.963 357.464 110.595 357.632C110.427 357.656 110.259 357.656 110.067 357.656C108.051 357.656 107.09 356.456 106.995 354.488C106.971 354.128 106.947 353.744 106.947 353.36H114.771V352.28C114.771 348.824 112.899 347.048 109.995 347.048C106.971 347.048 105.003 348.8 105.003 352.232V354.056C105.003 357.488 106.995 359.24 109.971 359.24C112.635 359.24 114.435 357.92 114.699 355.496ZM106.947 351.992C106.971 349.928 107.931 348.608 109.995 348.608C112.011 348.608 112.899 349.712 112.995 352.16H107.09L106.947 351.992ZM121.908 348.512C123.78 348.512 124.596 349.232 124.74 350.792H126.54C126.42 348.392 125.004 347.048 121.908 347.048C118.98 347.048 117.66 348.392 117.66 350.36C117.66 352.328 118.74 353.144 120.924 353.6L122.58 353.936C124.428 354.368 124.932 354.68 124.932 355.904C124.932 357.104 124.188 357.8 122.316 357.8C120.276 357.8 119.292 357.032 119.1 355.256H117.324C117.588 357.992 119.244 359.24 122.268 359.24C125.268 359.24 126.804 358.016 126.804 355.784C126.804 353.816 125.82 353.096 123.132 352.496L121.62 352.16C120.108 351.8 119.532 351.416 119.532 350.312C119.532 349.112 120.204 348.512 121.908 348.512Z" fill="white"/>
<path d="M162.377 98H172.649V96.368H164.993L169.529 91.064C171.401 89.048 172.385 87.728 172.385 85.4C172.385 82.736 170.897 80.96 167.633 80.96C164.513 80.96 162.665 82.808 162.521 86H164.345C164.513 83.744 165.521 82.592 167.609 82.592C169.529 82.592 170.465 83.48 170.465 85.4C170.465 86.96 169.985 87.944 168.257 89.888L162.377 96.536V98ZM180.344 98.384C183.608 98.384 185.504 96.464 185.504 93.656V92.432C185.504 89.048 183.464 87.512 179.456 87.512H177.728V82.832H184.736V81.2H175.904V89.12H179.312C182.312 89.12 183.584 90.2 183.584 92.432V93.656C183.584 95.72 182.24 96.752 180.296 96.752C178.352 96.752 177.128 95.768 176.984 93.752H175.16C175.256 96.68 177.104 98.384 180.344 98.384ZM188.822 101.432L190.766 95.6H188.534L187.55 101.432H188.822ZM203.752 94.472V92.864H201.52V81.2H199.312L192.112 93.032V94.472H199.648V98H201.52V94.472H203.752ZM194.056 92.864L199.648 83.696V92.864H194.056ZM211.457 98.24C215.057 98.24 216.953 96.392 216.953 93.584V93.032C216.953 91.112 215.945 89.768 214.241 89.192C215.681 88.592 216.473 87.368 216.473 85.76V85.208C216.473 82.472 214.505 80.96 211.505 80.96C208.433 80.96 206.489 82.472 206.489 85.208V85.76C206.489 87.368 207.257 88.592 208.745 89.192C207.017 89.792 205.985 91.112 205.985 93.032V93.584C205.985 96.392 207.881 98.24 211.457 98.24ZM211.553 82.592C213.569 82.592 214.553 83.648 214.553 85.256V85.712C214.553 87.392 213.569 88.424 211.385 88.424C209.393 88.424 208.409 87.392 208.409 85.712V85.256C208.409 83.648 209.393 82.592 211.553 82.592ZM211.529 90.056C213.881 90.056 215.057 91.256 215.057 93.104V93.536C215.057 95.408 213.905 96.608 211.409 96.608C209.057 96.608 207.905 95.408 207.905 93.536V93.104C207.905 91.256 209.033 90.056 211.529 90.056ZM222.784 98L228.616 82.832V81.2H218.872V82.832H226.72L220.744 98H222.784ZM243.424 98.24C247.264 98.24 249.712 96.128 249.712 92.096V87.104C249.712 83.072 247.264 80.96 243.424 80.96C239.56 80.96 237.112 83.072 237.112 87.128V92.096C237.112 96.152 239.56 98.24 243.424 98.24ZM243.424 82.592C246.4 82.592 247.816 84.368 247.816 87.104V92.072C247.816 94.832 246.4 96.608 243.424 96.608C240.424 96.608 239.032 94.832 239.032 92.12V87.128C239.032 84.368 240.424 82.592 243.424 82.592ZM253.484 98H259.1C262.412 98 264.692 96.488 264.692 93.512V92.888C264.692 90.896 263.588 89.672 261.644 89.144C263.036 88.568 263.876 87.536 263.876 86.024V85.352C263.876 82.592 262.004 81.2 258.428 81.2H253.484V98ZM258.38 82.832C260.828 82.832 261.956 83.696 261.956 85.4V86.024C261.956 87.512 260.828 88.544 258.524 88.544H255.356V82.832H258.38ZM258.98 90.056C261.524 90.056 262.796 91.136 262.796 92.864V93.488C262.796 95.216 261.524 96.368 258.98 96.368H255.356V90.056H258.98ZM266.43 93.368C266.67 96.608 268.566 98.24 271.398 98.24C274.494 98.24 276.294 96.464 276.294 93.056V81.2H274.422V93.056C274.422 95.624 273.294 96.608 271.374 96.608C269.526 96.608 268.446 95.576 268.254 93.368H266.43ZM280.414 98H290.974V96.368H282.286V90.104H289.51V88.496H282.286V82.832H290.974V81.2H280.414V98ZM299.601 98.24C303.009 98.24 305.217 96.296 305.409 92.792H303.585C303.393 95.384 301.977 96.608 299.529 96.608C296.697 96.608 295.305 94.832 295.305 92.12V87.128C295.305 84.368 296.697 82.592 299.577 82.592C302.049 82.592 303.297 84.008 303.585 86.408H305.409C305.121 83.192 303.201 80.96 299.553 80.96C295.833 80.96 293.385 83.072 293.385 87.128V92.096C293.385 96.152 295.809 98.24 299.601 98.24ZM318.665 82.832V81.2H306.761V82.832H311.801V98H313.673V82.832H318.665ZM325.425 82.592C327.849 82.592 328.833 83.72 328.977 86.048H330.777C330.705 82.76 328.929 80.96 325.425 80.96C321.801 80.96 320.265 82.808 320.265 85.232C320.265 87.704 321.369 88.736 324.369 89.816L326.145 90.464C328.521 91.352 329.169 92.12 329.169 93.704C329.169 95.672 328.161 96.608 325.737 96.608C323.169 96.608 321.945 95.48 321.633 93.152H319.833C320.193 96.632 322.137 98.24 325.713 98.24C329.433 98.24 331.089 96.56 331.089 93.632C331.089 91.28 330.129 90.032 326.913 88.832L325.137 88.184C322.881 87.368 322.185 86.816 322.185 85.208C322.185 83.72 322.977 82.592 325.425 82.592ZM155.674 127.24C159.514 127.24 161.962 125.128 161.962 121.096V116.104C161.962 112.072 159.514 109.96 155.674 109.96C151.81 109.96 149.362 112.072 149.362 116.128V121.096C149.362 125.152 151.81 127.24 155.674 127.24ZM155.674 111.592C158.65 111.592 160.066 113.368 160.066 116.104V121.072C160.066 123.832 158.65 125.608 155.674 125.608C152.674 125.608 151.282 123.832 151.282 121.12V116.128C151.282 113.368 152.674 111.592 155.674 111.592ZM167.606 120.256H170.534L174.734 127H176.846L172.406 119.968C174.95 119.464 176.222 117.88 176.222 115.744V114.76C176.222 111.88 174.47 110.2 170.318 110.2H165.734V127H167.606V120.256ZM170.27 111.832C173.246 111.832 174.302 113.008 174.302 114.808V115.696C174.302 117.472 173.054 118.624 170.294 118.624H167.606V111.832H170.27ZM179.703 127H185.319C188.631 127 190.911 125.488 190.911 122.512V121.888C190.911 119.896 189.807 118.672 187.863 118.144C189.255 117.568 190.095 116.536 190.095 115.024V114.352C190.095 111.592 188.223 110.2 184.647 110.2H179.703V127ZM184.599 111.832C187.047 111.832 188.175 112.696 188.175 114.4V115.024C188.175 116.512 187.047 117.544 184.743 117.544H181.575V111.832H184.599ZM185.199 119.056C187.743 119.056 189.015 120.136 189.015 121.864V122.488C189.015 124.216 187.743 125.368 185.199 125.368H181.575V119.056H185.199ZM194.305 127H196.177V110.2H194.305V127ZM210.548 111.832V110.2H198.644V111.832H203.684V127H205.556V111.832H210.548ZM213.031 127H214.903V110.2H213.031V127ZM228.891 127H231.123V110.2H229.275V124.168L221.451 110.2H219.219V127H221.043V113.056L228.891 127ZM241.101 127.24C245.037 127.24 246.885 125.344 246.885 121.192V118.6H240.933V120.208H245.109V121.48C245.109 123.976 244.053 125.608 241.173 125.608C238.197 125.608 236.805 123.832 236.805 121.12V116.128C236.805 113.368 238.197 111.592 241.077 111.592C243.525 111.592 244.749 112.624 245.061 114.808H246.885C246.597 111.784 244.677 109.96 241.173 109.96C237.333 109.96 234.885 112.072 234.885 116.128V121.096C234.885 125.152 237.309 127.24 241.101 127.24ZM256.719 127H258.591V110.2H256.719V127ZM272.578 127H274.81V110.2H272.962V124.168L265.138 110.2H262.906V127H264.73V113.056L272.578 127ZM289.847 111.592C292.271 111.592 293.255 112.72 293.399 115.048H295.199C295.127 111.76 293.351 109.96 289.847 109.96C286.223 109.96 284.687 111.808 284.687 114.232C284.687 116.704 285.791 117.736 288.791 118.816L290.567 119.464C292.943 120.352 293.591 121.12 293.591 122.704C293.591 124.672 292.583 125.608 290.159 125.608C287.591 125.608 286.367 124.48 286.055 122.152H284.255C284.615 125.632 286.559 127.24 290.135 127.24C293.855 127.24 295.511 125.56 295.511 122.632C295.511 120.28 294.551 119.032 291.335 117.832L289.559 117.184C287.303 116.368 286.607 115.816 286.607 114.208C286.607 112.72 287.399 111.592 289.847 111.592ZM303.538 120.256C307.33 120.256 309.394 118.48 309.394 115.744V114.76C309.394 111.88 307.642 110.2 303.49 110.2H298.906V127H300.778V120.256H303.538ZM303.442 111.832C306.418 111.832 307.474 113.008 307.474 114.808V115.696C307.474 117.472 306.226 118.624 303.466 118.624H300.778V111.832H303.442ZM321.772 127H323.812L317.62 110.2H315.652L309.412 127H311.38L312.988 122.632H320.188L321.772 127ZM319.636 121.024H313.492L316.564 112.528L319.636 121.024ZM331.875 127.24C335.283 127.24 337.491 125.296 337.683 121.792H335.859C335.667 124.384 334.251 125.608 331.803 125.608C328.971 125.608 327.579 123.832 327.579 121.12V116.128C327.579 113.368 328.971 111.592 331.851 111.592C334.323 111.592 335.571 113.008 335.859 115.408H337.683C337.395 112.192 335.475 109.96 331.827 109.96C328.107 109.96 325.659 112.072 325.659 116.128V121.096C325.659 125.152 328.083 127.24 331.875 127.24ZM340.883 127H351.443V125.368H342.755V119.104H349.979V117.496H342.755V111.832H351.443V110.2H340.883V127Z" fill="white"/>
<line x1="188" y1="288.5" x2="101" y2="288.5" stroke="white"/>
<line x1="171.789" y1="258.453" x2="100.789" y2="225.453" stroke="white"/>
<line x1="364" y1="223.5" x2="324" y2="223.5" stroke="white"/>
<line x1="251.5" y1="335" x2="251.5" y2="425" stroke="white"/>
<path d="M172.223 260.971C172.074 258.984 172 256.993 172 255.001L251.999 255.001L172.223 260.971Z" fill="#BDBDBD"/>
<path d="M187.702 302.6C178.717 290.462 173.351 276.03 172.224 260.971L252 255.001L187.702 302.6Z" fill="#4F4F4F"/>
<path d="M322.559 292.701C309.633 316.893 285.213 332.777 257.857 334.785C230.501 336.793 204.023 324.646 187.702 302.6L252 255.002L322.559 292.701Z" fill="white"/>
<path d="M172 255.002C172 221.692 192.641 191.868 223.816 180.133C254.99 168.398 290.175 177.208 312.14 202.249C334.106 227.29 338.257 263.322 322.559 292.701L251.999 255.002L172 255.002Z" fill="#828282"/>
<circle cx="251.38" cy="256.666" r="38.2382" transform="rotate(-90 251.38 256.666)" fill="black"/>
</svg>
