<svg width="700" height="700" viewBox="0 0 700 700" fill="none" xmlns="http://www.w3.org/2000/svg">
<rect width="700" height="700" fill="black"/>
<path d="M271.439 617.28C275.919 617.28 278.775 614.816 278.775 610.112V604.288C278.775 599.584 275.919 597.12 271.439 597.12C266.931 597.12 264.075 599.584 264.075 604.316V610.112C264.075 614.844 266.931 617.28 271.439 617.28ZM271.439 599.024C274.911 599.024 276.563 601.096 276.563 604.288V610.084C276.563 613.304 274.911 615.376 271.439 615.376C267.939 615.376 266.315 613.304 266.315 610.14V604.316C266.315 601.096 267.939 599.024 271.439 599.024ZM288.104 615.376C285.696 615.376 284.576 613.808 284.576 611.204V609.16C284.576 606.528 285.64 604.96 288.076 604.96C289.952 604.96 290.96 605.884 291.212 607.62H293.34C293.172 604.876 291.38 603.056 288.076 603.056C284.632 603.056 282.336 605.1 282.336 609.132V611.26C282.336 615.236 284.604 617.28 288.048 617.28C291.1 617.28 293.06 615.74 293.48 612.744H291.38C291.044 614.536 290.092 615.376 288.104 615.376ZM307.457 612.912H305.357C305.161 614.34 304.265 615.208 302.669 615.404C302.473 615.432 302.277 615.432 302.053 615.432C299.701 615.432 298.581 614.032 298.469 611.736C298.441 611.316 298.413 610.868 298.413 610.42H307.541V609.16C307.541 605.128 305.357 603.056 301.969 603.056C298.441 603.056 296.145 605.1 296.145 609.104V611.232C296.145 615.236 298.469 617.28 301.941 617.28C305.049 617.28 307.149 615.74 307.457 612.912ZM298.413 608.824C298.441 606.416 299.561 604.876 301.969 604.876C304.321 604.876 305.357 606.164 305.469 609.02H298.581L298.413 608.824ZM319.172 617H321.356V607.928C321.356 604.596 319.732 603.056 316.372 603.056C312.9 603.056 311.36 604.764 311.024 607.284H313.152C313.32 605.912 314.188 604.96 316.176 604.96C318.36 604.96 319.172 605.856 319.172 608.208V609.356H315.392C311.864 609.356 310.576 610.812 310.576 612.8V613.64C310.576 615.88 312.144 617.28 314.972 617.28C317.184 617.28 318.472 616.552 319.172 615.096V617ZM315.616 615.684C313.684 615.684 312.76 614.9 312.76 613.416V612.828C312.76 611.54 313.488 610.756 315.588 610.756H319.172V612.1C319.172 614.648 317.884 615.684 315.616 615.684ZM327.985 609.216C327.985 606.528 329.637 604.96 331.681 604.96C333.893 604.96 334.817 606.108 334.817 608.376V617H337.001V607.928C337.001 604.624 335.377 603.056 332.409 603.056C330.449 603.056 328.853 604.008 327.985 605.912V603.336H325.773V617H327.985V609.216ZM342.505 600.676C343.429 600.676 344.073 600.06 344.073 599.248C344.073 598.436 343.429 597.82 342.505 597.82C341.637 597.82 340.965 598.436 340.965 599.248C340.965 600.06 341.637 600.676 342.505 600.676ZM341.413 617H343.625V603.336H341.413V617ZM353.374 615.376C350.966 615.376 349.846 613.808 349.846 611.204V609.16C349.846 606.528 350.91 604.96 353.346 604.96C355.222 604.96 356.23 605.884 356.482 607.62H358.61C358.442 604.876 356.65 603.056 353.346 603.056C349.902 603.056 347.606 605.1 347.606 609.132V611.26C347.606 615.236 349.874 617.28 353.318 617.28C356.37 617.28 358.33 615.74 358.75 612.744H356.65C356.314 614.536 355.362 615.376 353.374 615.376ZM375.178 609.132C379.602 609.132 382.01 607.06 382.01 603.868V602.72C382.01 599.36 379.966 597.4 375.122 597.4H369.774V617H371.958V609.132H375.178ZM375.066 599.304C378.538 599.304 379.77 600.676 379.77 602.776V603.812C379.77 605.884 378.314 607.228 375.094 607.228H371.958V599.304H375.066ZM390.481 617.28C394.037 617.28 396.361 615.236 396.361 611.232V609.104C396.361 605.1 394.037 603.056 390.481 603.056C386.925 603.056 384.629 605.1 384.629 609.104V611.232C384.629 615.236 386.925 617.28 390.481 617.28ZM390.481 604.96C392.973 604.96 394.121 606.612 394.121 609.104V611.204C394.121 613.752 392.973 615.376 390.481 615.376C387.989 615.376 386.869 613.752 386.869 611.204V609.104C386.869 606.612 387.989 604.96 390.481 604.96ZM401.404 600.676C402.328 600.676 402.972 600.06 402.972 599.248C402.972 598.436 402.328 597.82 401.404 597.82C400.536 597.82 399.864 598.436 399.864 599.248C399.864 600.06 400.536 600.676 401.404 600.676ZM400.312 617H402.524V603.336H400.312V617ZM409.332 609.216C409.332 606.528 410.984 604.96 413.028 604.96C415.24 604.96 416.164 606.108 416.164 608.376V617H418.348V607.928C418.348 604.624 416.724 603.056 413.756 603.056C411.796 603.056 410.2 604.008 409.332 605.912V603.336H407.12V617H409.332V609.216ZM429.593 615.292H427.997C426.149 615.292 425.505 614.508 425.505 612.968V605.184H429.593V603.336H425.505V599.304H423.321V603.336H421.193V605.184H423.321V612.94C423.321 615.88 424.581 617.14 427.605 617.14H429.593V615.292ZM258.452 651.28C262.008 651.28 264.332 649.236 264.332 645.232V643.104C264.332 639.1 262.008 637.056 258.452 637.056C254.896 637.056 252.6 639.1 252.6 643.104V645.232C252.6 649.236 254.896 651.28 258.452 651.28ZM258.452 638.96C260.944 638.96 262.092 640.612 262.092 643.104V645.204C262.092 647.752 260.944 649.376 258.452 649.376C255.96 649.376 254.84 647.752 254.84 645.204V643.104C254.84 640.612 255.96 638.96 258.452 638.96ZM274.2 639.184V637.336H270.7V634.816C270.7 633.192 271.232 632.268 273.164 632.268H274.816V630.42H273.052C269.944 630.42 268.516 631.904 268.516 634.704V637.336H266.36V639.184H268.516V651H270.7V639.184H274.2ZM284.366 651H286.55V631.4H284.366V651ZM293.572 643.216C293.572 640.528 295.224 638.96 297.268 638.96C299.48 638.96 300.404 640.108 300.404 642.376V651H302.588V641.928C302.588 638.624 300.964 637.056 297.996 637.056C296.036 637.056 294.44 638.008 293.572 639.912V637.336H291.36V651H293.572V643.216ZM314.729 651H316.913V641.928C316.913 638.596 315.289 637.056 311.929 637.056C308.457 637.056 306.917 638.764 306.581 641.284H308.709C308.877 639.912 309.745 638.96 311.733 638.96C313.917 638.96 314.729 639.856 314.729 642.208V643.356H310.949C307.421 643.356 306.133 644.812 306.133 646.8V647.64C306.133 649.88 307.701 651.28 310.529 651.28C312.741 651.28 314.029 650.552 314.729 649.096V651ZM311.173 649.684C309.241 649.684 308.317 648.9 308.317 647.416V646.828C308.317 645.54 309.045 644.756 311.145 644.756H314.729V646.1C314.729 648.648 313.441 649.684 311.173 649.684ZM326.481 649.376C324.073 649.376 322.953 647.808 322.953 645.204V643.16C322.953 640.528 324.017 638.96 326.453 638.96C328.329 638.96 329.337 639.884 329.589 641.62H331.717C331.549 638.876 329.757 637.056 326.453 637.056C323.009 637.056 320.713 639.1 320.713 643.132V645.26C320.713 649.236 322.981 651.28 326.425 651.28C329.477 651.28 331.437 649.74 331.857 646.744H329.757C329.421 648.536 328.469 649.376 326.481 649.376ZM340.29 649.376C337.882 649.376 336.762 647.808 336.762 645.204V643.16C336.762 640.528 337.826 638.96 340.262 638.96C342.138 638.96 343.146 639.884 343.398 641.62H345.526C345.358 638.876 343.566 637.056 340.262 637.056C336.818 637.056 334.522 639.1 334.522 643.132V645.26C334.522 649.236 336.79 651.28 340.234 651.28C343.286 651.28 345.246 649.74 345.666 646.744H343.566C343.23 648.536 342.278 649.376 340.29 649.376ZM359.642 646.912H357.542C357.346 648.34 356.45 649.208 354.854 649.404C354.658 649.432 354.462 649.432 354.238 649.432C351.886 649.432 350.766 648.032 350.654 645.736C350.626 645.316 350.598 644.868 350.598 644.42H359.726V643.16C359.726 639.128 357.542 637.056 354.154 637.056C350.626 637.056 348.33 639.1 348.33 643.104V645.232C348.33 649.236 350.654 651.28 354.126 651.28C357.234 651.28 359.334 649.74 359.642 646.912ZM350.598 642.824C350.626 640.416 351.746 638.876 354.154 638.876C356.506 638.876 357.542 640.164 357.654 643.02H350.766L350.598 642.824ZM368.054 638.764C370.238 638.764 371.19 639.604 371.358 641.424H373.458C373.318 638.624 371.666 637.056 368.054 637.056C364.638 637.056 363.098 638.624 363.098 640.92C363.098 643.216 364.358 644.168 366.906 644.7L368.838 645.092C370.994 645.596 371.582 645.96 371.582 647.388C371.582 648.788 370.714 649.6 368.53 649.6C366.15 649.6 365.002 648.704 364.778 646.632H362.706C363.014 649.824 364.946 651.28 368.474 651.28C371.974 651.28 373.766 649.852 373.766 647.248C373.766 644.952 372.618 644.112 369.482 643.412L367.718 643.02C365.954 642.6 365.282 642.152 365.282 640.864C365.282 639.464 366.066 638.764 368.054 638.764ZM381.808 638.764C383.992 638.764 384.944 639.604 385.112 641.424H387.212C387.072 638.624 385.42 637.056 381.808 637.056C378.392 637.056 376.852 638.624 376.852 640.92C376.852 643.216 378.112 644.168 380.66 644.7L382.592 645.092C384.748 645.596 385.336 645.96 385.336 647.388C385.336 648.788 384.468 649.6 382.284 649.6C379.904 649.6 378.756 648.704 378.532 646.632H376.46C376.768 649.824 378.7 651.28 382.228 651.28C385.728 651.28 387.52 649.852 387.52 647.248C387.52 644.952 386.372 644.112 383.236 643.412L381.472 643.02C379.708 642.6 379.036 642.152 379.036 640.864C379.036 639.464 379.82 638.764 381.808 638.764ZM392.23 634.676C393.154 634.676 393.798 634.06 393.798 633.248C393.798 632.436 393.154 631.82 392.23 631.82C391.362 631.82 390.69 632.436 390.69 633.248C390.69 634.06 391.362 634.676 392.23 634.676ZM391.138 651H393.35V637.336H391.138V651ZM404.358 651.28C407.466 651.28 409.678 649.236 409.678 645.232V643.132C409.678 639.1 407.466 637.056 404.358 637.056C402.398 637.056 400.886 637.924 400.158 639.632V630.56H397.946V651H400.158V648.788C400.858 650.328 402.286 651.28 404.358 651.28ZM403.854 649.376C401.586 649.376 400.158 647.808 400.158 645.26V643.272C400.158 640.416 401.558 638.96 403.826 638.96C406.318 638.96 407.466 640.612 407.466 643.16V645.204C407.466 647.752 406.318 649.376 403.854 649.376ZM414.761 634.676C415.685 634.676 416.329 634.06 416.329 633.248C416.329 632.436 415.685 631.82 414.761 631.82C413.893 631.82 413.221 632.436 413.221 633.248C413.221 634.06 413.893 634.676 414.761 634.676ZM413.669 651H415.881V637.336H413.669V651ZM422.578 647.584V630.56H420.366V647.612C420.366 650.384 421.43 651.14 424.006 651.14H424.51V649.236H424.09C422.97 649.236 422.578 648.872 422.578 647.584ZM434.228 649.292H432.632C430.784 649.292 430.14 648.508 430.14 646.968V639.184H434.228V637.336H430.14V633.304H427.956V637.336H425.828V639.184H427.956V646.94C427.956 649.88 429.216 651.14 432.24 651.14H434.228V649.292ZM436.702 656.74C439.474 656.74 440.734 655.872 442.19 652.428L448.574 637.336H446.306L442.19 647.22L438.046 637.336H435.694L441.098 649.908L440.342 651.7C439.194 654.444 438.326 654.836 436.702 654.836H435.862V656.74H436.702Z" fill="white"/>
<path d="M542.64 143.717C541.179 137.324 536.602 132.826 532.929 127.782C532.548 127.258 532.543 127.258 531.934 127.92C531.119 128.804 530.071 127.242 529.341 126.523C524.541 121.792 519.826 116.971 515.042 112.224C507.638 104.873 500.293 97.4799 491.302 91.9444C485.766 88.5364 480.691 84.3556 475.039 81.1804C468.403 77.4548 461.37 74.4277 454.495 71.1308C445.631 66.8813 436.423 63.4097 427.506 59.3083C422.261 56.9004 417.139 54.2015 411.503 53.0214C406.761 52.0318 401.929 51.3808 397.325 49.8885C394.118 48.8459 390.557 49.1423 387.614 47.2266C394.473 47.7716 401.146 49.3593 407.814 50.9257C418.695 53.4871 429.496 56.44 439.741 60.9065C446.372 63.8013 453.273 66.1827 459.507 69.9612C459.74 70.1253 459.967 70.2946 460.2 70.4587L460.174 70.4481C460.539 70.6333 460.899 70.8186 461.264 71.0038L461.216 70.9773L462.317 71.5806L462.243 71.5277C466.233 74.3219 470.461 76.6874 475.007 78.4656L474.939 78.4127C475.15 78.9207 475.584 79.0001 476.06 79.0001L475.992 78.9472C476.373 79.217 476.754 79.4869 477.135 79.7568C483.935 82.6622 490.354 86.1814 495.779 91.3094C496.049 93.7596 498.393 93.8073 499.875 94.8551L499.811 94.8022C500.192 95.0721 500.573 95.3367 500.954 95.6066C505.177 98.5595 509.49 101.391 512.925 105.328C513.634 106.143 514.708 106.646 515.613 107.291C515.338 110.001 517.254 111.573 518.736 113.404C524.848 120.945 533.712 125.66 539.459 133.572C540.084 134.434 540.825 134.498 541.687 133.979L541.624 133.942C541.846 134.17 542.068 134.403 542.291 134.63C552.287 144.579 559.775 156.359 566.989 168.351C581.219 192.012 590.819 217.483 596.608 244.419C598.228 251.95 598.942 259.639 600.048 267.254C601.339 276.092 601.8 284.94 601.958 293.81C602.17 305.352 601.609 316.878 599.365 328.256C598.127 330.934 596.894 333.617 595.645 336.295C595.412 336.792 595.428 337.623 594.475 337.268C593.872 337.041 593.285 336.734 593.444 335.972C594.036 333.066 592.078 330.727 591.702 328.028C591.57 327.065 590.803 326.324 589.734 326.203C588.792 326.097 588.501 326.795 588.035 327.505C587.204 328.79 586.876 330.241 586.273 331.59C585.574 333.151 585.061 334.919 582.722 334.654C581.981 334.569 581.394 335.136 580.928 335.649C579.478 337.247 577.858 337.866 575.572 337.745C573.831 337.655 572.154 339.009 570.386 339.607C568.269 340.317 566.914 339.946 566.01 337.803C564.972 335.337 564.761 332.749 564.311 330.087C565.232 333.918 561.564 336.221 561.421 339.824C561.305 342.756 555.552 343.979 553.287 341.904C552.25 340.957 551.409 339.798 550.361 338.867C549.551 338.147 549.377 336.279 548.054 336.744C546.741 337.205 545.482 338.306 544.635 339.449C543.958 340.359 544.111 341.999 542.296 341.497C540.671 341.047 539.925 339.772 539.586 338.232C539.38 337.3 539.512 336.273 538.692 335.337C537.919 336.496 537.099 337.581 536.432 338.755C535.887 339.724 535.681 340.93 536.739 341.608C538.385 342.661 537.48 343.656 536.998 344.799C536.316 346.424 535.347 345.513 534.421 345.196C532.643 344.593 531.209 344.741 530.426 346.778C529.828 348.334 527.954 348.562 527.002 349.821C526.679 350.244 526.303 349.678 525.965 349.414C523.79 347.71 520.482 348.683 519.752 351.372C519.397 352.689 519.281 354.219 519.577 355.537C520.408 359.236 518.831 361.58 515.026 361.511C512.681 361.469 510.686 361.755 509.379 363.972C509.03 364.565 508.395 364.956 507.622 365.009C502.78 365.353 501.822 366.184 500.536 371.016C500.298 371.91 500.631 373.344 498.885 373.043C498.742 372.561 498.758 371.979 498.171 371.762C498.112 371.741 497.885 371.937 497.874 372.048C497.805 372.672 498.224 372.969 498.726 373.186C498.785 375.488 496.509 376.832 496.345 379.065C496.149 381.738 495.175 384.415 496.461 387.051C497.006 388.167 496.08 388.898 495.519 388.506C493.81 387.31 490.788 388.628 490.09 385.5C490.423 386.913 490.794 388.173 489.613 389.247C489.005 389.189 488.523 388.644 488.486 388.268C487.989 383.251 485.417 378.737 485.66 373.387C485.787 370.592 487.057 367.968 486.576 365.152C486.47 364.528 486.226 363.49 487.026 363.284C488.306 362.951 487.243 364.628 488.105 364.829C488.497 363.681 489.381 362.919 488.423 361.226C487.608 359.781 488.894 357.558 490.397 356.262C491.196 355.574 492.376 355.283 491.46 353.87C491.333 353.674 491.46 353.145 491.656 352.933C494.382 349.948 495.345 345.868 498.001 342.83C499.033 341.655 499.959 340.708 501.775 341.095C502.981 341.354 503.659 340.216 503.981 339.263C504.241 338.486 504.14 337.448 502.896 337.385C502.24 337.353 501.912 337.131 501.907 336.475C501.902 335.781 502.267 335.114 502.865 335.056C505.193 334.834 506.241 332.442 508.427 331.939C509.162 331.77 509.803 331.055 509.882 329.96C510.062 327.335 512.052 326.457 514.206 328.081C514.968 328.653 515.634 328.261 515.767 327.976C516.592 326.171 518.572 325.361 519.397 323.567C519.63 323.064 520.043 322.72 519.413 322.292C518.767 321.847 518.429 322.419 518.148 322.795C517.651 323.456 517.952 324.589 516.873 324.948C516.095 325.208 515.317 326.007 514.655 324.763C514.227 323.964 514.089 323.488 514.793 322.514C516.64 319.953 519.207 317.942 520.429 314.883C521.165 313.047 522.996 311.999 524.44 310.766C525.668 309.718 526.414 308.559 526.806 307.098C527.452 304.69 529.156 302.658 529.309 300.092C529.426 298.107 531.368 299.43 532.341 298.25C535.548 294.366 539.581 291.275 542.439 286.914C544.079 284.411 544.862 281.834 545.868 279.204C546.455 277.664 546.323 275.611 548.514 275.013C549.091 274.854 549.144 274.124 549.138 273.647C549.101 270.737 551.186 268.906 552.7 266.884C556.182 262.227 557.86 256.893 559.109 251.362C559.342 250.32 560.289 249.902 560.691 249.087C563.162 244.038 564.47 238.497 563.903 233.084C563.448 228.707 561.728 224.299 559.638 220.208C556.584 214.239 553.023 208.423 551.488 201.871C550.604 198.108 550.414 194.155 549.059 190.472C545.55 180.915 543.989 170.606 537.792 162.064C536.554 160.36 536.189 157.926 535.755 155.761C535.379 153.899 537.432 154.481 538.433 153.708C537.147 151.332 534.739 149.13 536.178 146.087C537.374 143.558 539.803 143.955 542.047 144.177C542.253 144.484 542.582 144.637 542.851 144.42C543.243 144.108 542.814 143.923 542.629 143.717H542.64ZM564.29 327.976C564.226 327.854 564.168 327.727 564.104 327.605C564.062 327.674 563.972 327.759 563.983 327.811C564.014 327.944 564.094 328.065 564.157 328.187C564.2 328.118 564.242 328.044 564.284 327.976H564.29Z" fill="#828282"/>
<path d="M103.649 348.298C104.262 347.028 104.876 348.198 105.437 348.351C105.797 348.452 105.173 349.261 106.046 349.42C106.787 349.558 106.797 351.304 107.962 350.695C108.867 350.219 107.485 349.293 108.009 348.552C108.956 348.632 108.941 349.478 109.147 350.055C111.444 356.554 115.529 362.163 118.249 368.445C120.234 373.023 122.012 377.69 124.155 382.189C126.51 387.121 128.574 392.249 132.39 396.366C133.062 397.091 133.522 398.239 133.596 399.234C133.824 402.219 135.041 404.807 136.322 407.421C137.073 408.95 138.269 410.453 137.105 412.38C136.66 413.121 137.274 413.946 137.634 414.608C138.507 416.216 138.603 417.936 138.629 419.688C138.64 420.477 138.783 421.429 137.999 421.826C137.168 422.244 136.592 421.403 135.681 420.646C135.967 422.62 137.142 423.832 137.761 425.261C138.19 426.256 138.814 427.129 137.105 427.573C135.713 427.933 136.364 428.838 136.793 429.605C135.676 428.965 135.057 427.907 134.411 426.848C122.483 407.199 113.423 386.3 107.21 364.174C105.903 359.528 104.808 354.818 103.654 350.129C103.511 349.558 103.638 348.917 103.638 348.314L103.649 348.298Z" fill="#828282"/>
<path d="M99.3687 273.168C101.11 273.607 101.073 275.592 100.813 276.259C99.3899 279.899 99.2364 283.763 98.4373 287.499C97.617 283.958 98.3844 280.45 98.866 276.978C99.0406 275.719 98.993 274.406 99.3687 273.168Z" fill="#828282"/>
<path d="M221.468 79.9414C220.981 82.0847 218.869 82.2699 217.424 83.2278C216.885 83.5823 216.107 83.577 215.435 83.7411C216.879 81.5714 219.393 81.1057 221.468 79.9414V79.9414Z" fill="#828282"/>
<path d="M392.456 454.205C392.948 456.084 394.594 457.899 392.086 458.507C390.006 459.01 388.789 457.825 388.498 455.48C387.291 456.719 387.143 457.714 388.429 458.793C390.175 460.254 391.064 461.545 388.265 463.037C387.106 463.651 386.328 465.308 386.725 466.7C387.598 469.742 386.566 472.367 385.465 475.05C385.201 475.696 385.063 476.395 384.851 477.125C387.852 477.517 390.562 478.3 391.064 481.898C391.123 482.316 391.377 482.581 391.731 482.576C395.483 482.512 396.684 485.809 398.553 488.021C399.447 489.08 400.003 488.873 400.537 488.302C401.58 487.185 402.686 487.058 404.183 487.841C402.887 485.47 403.289 484.042 406.099 482.877C407.893 482.136 407.369 480.888 407.449 479.956C407.676 480.93 406.766 482.576 409.11 482.586C412.434 482.597 414.804 484.687 417.196 486.545C418.509 487.566 419.398 489.127 419.091 490.964C418.752 493.017 419.636 494.022 421.599 494.345C422.092 494.425 422.695 494.657 422.981 495.028C423.864 496.166 424.341 496.129 425.431 495.033C426.643 493.816 429.67 495.224 429.987 497.277C430.284 499.182 431.215 499.092 432.538 498.849C433.417 498.69 434.459 497.367 435.11 498.997C435.756 500.606 435.084 501.627 433.337 501.908C432.999 501.961 432.676 502.146 432.226 502.315C435.422 506.321 428.553 503.257 429.834 506.051C430.051 506.729 430.771 506.231 431.289 506.385C431.866 506.559 432.379 506.745 431.988 507.385C431.877 507.56 432.03 508.459 430.76 507.999C429.141 507.406 426.532 507.216 425.86 510.243C425.754 510.729 425.293 510.835 425.965 511.238C426.627 511.634 426.161 512.481 425.849 512.508C422.642 512.751 422.06 516.45 419.599 517.313C417.244 518.138 415.757 519.869 413.984 521.271C410.523 524.007 406.337 524.775 402.363 526.166C398.32 527.585 394.769 530.125 390.683 531.496C390.191 531.66 389.673 532.321 389.53 532.85C389.106 534.396 388.016 534.385 386.841 534.168C384.47 533.734 382.158 534.311 379.835 534.565C378.348 534.729 377.728 536.391 376.194 536.772C372.812 537.608 369.489 538.661 366.118 539.555C362.032 540.64 358.026 541.836 353.776 541.979C350.654 542.085 347.849 540.556 344.775 540.27C339.096 539.741 333.444 538.957 327.782 538.285C327.2 538.216 326.491 538.407 326.332 537.523C326.226 536.925 326.438 536.438 326.972 536.216C328.909 535.428 329.825 533.12 332.106 532.718C330.491 531.871 328.946 532.189 327.528 533.099C325.692 534.284 323.612 534.872 321.59 534.47C316.536 533.469 311.488 535.105 306.413 534.136C302.639 533.417 298.903 532.559 295.151 531.792C290.028 530.744 285.874 527.537 281 526.193C278.873 525.605 277.243 524.616 275.597 523.367C275.269 523.118 274.782 522.891 274.39 522.922C268.765 523.367 266.563 518.504 263.224 515.545C261.991 514.455 260.906 513.582 259.324 513.222C255.974 512.46 253.677 509.909 253.286 506.618C253.249 506.289 253.397 505.776 253.227 505.654C249.92 503.236 248.184 499.283 244.718 497.023C243.781 496.409 241.823 495.843 244.421 494.557C245.263 494.144 244.48 493.255 243.813 493.033C240.897 492.054 239.039 490.069 237.843 487.291C237.409 486.285 236.515 485.825 235.282 485.862C234.451 485.889 233.583 485.497 232.763 485.206C232.35 485.058 232.038 484.693 232.144 484.174C232.26 483.581 232.752 483.608 233.176 483.629C233.784 483.655 234.446 483.629 234.991 483.846C236.023 484.259 236.547 484.052 236.425 482.909C236.139 480.237 237.097 477.681 237.171 475.029C237.192 474.288 236.552 471.923 239.098 472.854C239.246 472.907 240.458 472.071 240.495 471.182C240.537 470.213 241.204 470.399 241.717 470.071C243.088 469.197 244.204 467.599 244.866 466.049C245.263 465.123 243.342 465.588 242.887 464.519C243.051 463.889 243.691 463.561 244.337 463.598C245.771 463.678 247.078 463.842 246.443 461.672C246.247 461.011 246.877 461.127 247.279 461.021C251.656 459.878 255.312 457.597 258.138 454.036C258.482 453.596 258.911 453.342 259.509 453.438C259.943 453.506 260.536 453.708 260.8 453.512C265.156 450.22 266.881 454.501 269.405 456.459C269.474 456.512 269.532 456.602 269.606 456.623C272.046 457.317 273.432 458.576 272.178 461.312C272.099 461.492 272.236 461.884 272.401 462.048C274.528 464.128 276.544 466.366 278.899 468.15C279.741 468.785 281.074 469.055 282.148 469.658C285.498 471.547 288.891 472.748 292.505 470.049C293.553 469.271 293.966 471.383 295.209 471.103C295.601 471.013 295.596 471.632 295.352 472.108C294.288 474.214 295.754 475.59 297.21 476.336C302.02 478.797 307.312 478.972 312.594 478.988C317.05 479.004 321.617 478.702 325.655 477.072C328.867 475.775 331.91 475.781 335.117 475.659C337.181 475.58 338.583 474.283 339.901 472.367C335.09 472.812 333.365 469.563 331.269 466.176C330.243 464.514 327.904 463.207 325.66 462.588C325.072 462.424 324.3 462.519 324.305 461.688C324.316 460.942 324.845 460.783 325.596 460.836C326.263 460.884 326.999 460.381 327.628 460.503C329.031 460.778 330.211 461.545 330.603 459.111C330.973 456.793 330.539 455.248 328.263 454.729C326.062 454.231 323.781 454.089 321.532 453.808C321.193 453.766 320.833 453.85 320.495 453.808C317.976 453.485 317.642 452.94 318.595 450.68C317.372 450.114 317.097 451.644 316.171 451.755C314.769 451.924 311.493 449.162 311.885 447.833C312.165 446.865 313.435 446.389 314.451 446.135C315.277 445.928 316.192 446.071 317.065 446.098C318.129 446.135 318.844 445.531 318.478 444.611C317.388 441.837 319.114 440.133 320.511 438.191C322.019 436.09 324.321 435.64 326.485 434.704C328.38 433.883 330.036 432.418 331.64 431.052C332.704 430.147 333.508 429.592 335.09 429.967C336.937 430.401 338.938 430.179 340.869 430.232C341.044 430.232 341.229 430.216 341.388 430.163C342.864 429.639 342.658 427.443 343.457 427.194C344.764 426.787 345.595 429.179 347.542 428.692C348.94 428.343 350.517 428.597 352.004 428.713C354.544 428.909 356.798 428.38 358.688 426.554C359.286 425.972 360.143 425.056 360.889 425.845C361.588 426.58 360.196 427.046 359.947 427.999C360.582 428.078 361.487 428.412 361.693 427.808C362.159 426.453 362.969 426.252 364.112 426.607C365.504 427.036 364.615 428.269 364.885 429.099C364.99 429.428 364.953 429.777 365.445 430.026C366.096 429.798 366.239 429.126 366.419 428.517C366.679 427.628 367.224 427.39 368.007 427.824C368.705 428.21 369.356 428.623 369.012 429.676C368.705 430.624 367.15 431.529 367.986 432.328C368.806 433.116 370.425 433.55 371.595 433.391C374.537 432.994 377.252 432.915 379.575 435.148C379.803 435.365 380.374 435.217 380.803 435.238C380.141 433.053 380.544 430.729 379.342 428.65C378.946 427.967 379.999 427.274 380.925 427.671C381.459 427.898 381.92 428.359 382.343 428.782C382.814 429.253 383.544 429.189 383.74 428.904C384.126 428.348 383.56 427.967 383.042 427.798C382.211 427.528 381.316 427.411 380.544 427.041C379.872 426.723 379.623 426.03 379.75 425.242C379.85 424.58 380.39 424.379 380.867 424.278C381.539 424.141 382.094 424.067 382.184 425.22C382.285 426.501 383.528 425.993 384.333 425.935C386.27 425.797 384.148 424.993 384.513 424.665C386.444 422.924 384.402 422.865 383.55 422.257C383.301 422.077 383.01 421.659 383.063 421.421C383.163 420.992 383.597 420.722 384.074 420.733C387.048 420.791 389.937 421.378 392.557 422.749C393.477 423.231 393.446 424.474 393.065 425.586C392.641 426.834 391.684 426.189 391.022 426.226C389.858 426.295 388.672 426.067 387.55 425.967C388.889 430.317 392.805 429.819 395.997 430.634C396.557 430.777 396.88 430.126 397.039 429.629C397.203 429.115 397.288 428.586 397.88 428.396C398.51 428.195 401.474 431.248 401.257 431.92C401.151 432.243 400.796 432.698 401.162 432.809C404.146 433.73 402.977 437.36 405.131 438.795C405.279 438.89 405.438 439.133 405.538 439.107C407.83 438.451 410.147 437.863 412.36 436.99C412.709 436.852 412.899 435.603 413.73 436.053C414.333 436.381 414.942 437.122 415.074 437.773C415.223 438.503 414.328 438.906 413.725 439.213C411.571 440.324 411.502 440.477 412.714 443.182C413.032 441.832 413.45 440.933 414.72 440.53C416.329 440.022 417.255 440.589 416.736 442.012C415.492 445.42 418.567 445.653 420.107 446.489C422.065 447.553 425.664 445.939 427.241 443.912C426.336 443.478 425.796 444.203 425.145 444.489C423.198 445.357 420.234 444.547 419.075 442.827C418.747 442.335 418.805 441.79 419.049 441.319C419.329 440.779 419.716 440.181 420.478 440.562C420.986 440.816 421.462 440.906 421.981 440.689C422.134 440.626 422.261 440.493 422.43 440.372C422.039 439.567 421.287 439.657 420.652 439.768C419.207 440.028 418.911 439.027 418.916 438.07C418.916 436.916 419.626 435.932 420.885 436.164C422.637 436.482 424.537 436.477 426.029 437.673C427.156 438.572 427.892 437.905 427.564 436.942C427.056 435.45 427.923 435.201 428.828 434.926C429.691 434.661 430.511 433.963 430.427 433.37C429.977 430.2 432.475 431.185 433.904 430.83C434.803 430.608 435.856 430.655 436.645 431.571C435.523 433.286 434.385 435.032 433.242 436.778C434.957 436.186 436.11 434.751 438.354 435.789C439.365 436.254 440.333 433.751 441.667 432.926C443.022 432.084 444.133 431.005 442.276 429.491C442.175 429.406 442.117 429.131 442.175 429.004C442.985 427.083 445.033 427.253 446.536 426.533C447.287 426.173 448.563 425.713 448.605 427.438C448.626 428.269 449.198 428.306 449.679 428.068C452.293 426.797 455.522 428.126 457.967 426.051C458.39 425.697 458.893 425.57 459.263 424.977C460.115 423.627 463.571 423.538 464.301 424.824C464.926 425.93 463.788 426.284 462.883 426.898C466.656 426.76 469.63 428.687 472.885 429.697C475.213 430.422 474.038 432.01 473.774 432.735C473.319 433.995 471.948 433.09 471.424 432.598C469.995 431.248 469.149 431.534 468.572 433.233C468.297 434.048 467.699 433.984 467.101 433.995C466.497 434.005 466.249 433.629 466.01 433.079C464.518 429.592 462.364 428.845 458.834 430.629C458.12 430.994 457.21 430.512 456.601 431.317C456.786 432.169 458.681 432.179 457.935 433.375C457.162 434.614 455.511 434.323 454.971 433.534C454.426 432.74 451.664 434.455 453.055 431.814C453.177 431.581 452.436 431.359 452.235 431.555C450.944 432.836 449.24 432.312 447.748 432.545C446.763 432.698 445.694 433.64 445.7 433.767C445.789 435.408 444.207 435.439 443.223 436.164C444.144 436.609 445.075 436.291 445.535 437.075C445.705 437.36 445.901 437.72 445.853 438.011C445.789 438.435 445.382 438.287 445.033 438.318C443.699 438.424 443.149 439.408 443.17 440.858C443.186 442.007 442.408 442.795 441.27 443.033C439.471 443.404 438.402 444.134 438.285 446.277C438.227 447.357 436.856 448.151 435.549 448.405C432.342 449.024 430.564 451.585 428.543 453.739C426.812 455.586 424.362 455.364 422.298 456.115C417.419 457.894 412.333 458.994 407.3 456.338C404.485 457.603 403.728 454.983 402.321 453.649C401.908 453.258 401.723 452.623 401.463 452.083C401.151 451.443 402.834 450.569 401.405 450.183C400.288 449.881 399.585 451.046 399.389 451.898C399.034 453.427 397.14 455.052 399.436 456.634C400.114 457.105 399.796 457.899 399.135 458.079C397.891 458.428 396.415 459.508 395.446 457.677C394.806 456.459 394.091 455.38 392.414 454.194L392.456 454.205Z" fill="#828282"/>
<path d="M163.958 379.667C163.884 379.72 163.804 379.763 163.741 379.821C160.793 382.715 160.613 382.79 158.962 378.81C157.634 375.608 156.729 372.232 156.422 368.713C156.036 364.278 155.845 359.822 153.776 355.678C152.871 353.863 152.993 351.656 151.797 349.804C151.252 348.963 151.273 347.253 153.199 347.195C154.051 347.169 153.988 346.655 153.845 346.142C153.554 345.068 153.691 344.507 155.02 344.719C155.649 344.819 155.819 344.311 155.792 343.665C155.665 340.728 154.019 339.379 151.156 340.162C149.712 340.554 149.579 339.739 149.616 338.828C149.87 332.579 146.367 329.155 140.895 327.297C139.471 326.815 138.948 325.313 137.55 324.852C137.111 324.709 137.201 324.027 137.482 323.688C138.037 323.005 142.536 323.307 143.091 324.085C143.896 325.212 144.51 326.461 145.907 324.577C146.69 323.524 147.203 324.503 147.653 325.122C148.399 326.159 149.193 327.001 150.675 326.493C152.194 325.974 152.215 324.852 152.104 323.545C152.035 322.677 152.104 321.598 153.194 321.412C154.591 321.174 154.183 322.434 154.469 323.185C154.951 324.471 155.422 325.725 155.776 327.075C156.168 328.572 156.792 329.583 155.088 330.61C154.654 330.875 154.797 331.816 155.379 332.462C158.38 335.817 158.142 340.109 158.655 344.184C158.666 344.269 158.66 344.364 158.634 344.449C157.528 347.719 157.449 348.931 159.063 353.154C159.729 354.9 158.856 357.531 161.624 358.261C161.714 358.287 161.815 358.811 161.714 358.975C159.221 362.802 161.645 365.94 163.482 368.824C164.916 371.073 165.212 373.528 165.963 375.889C166.477 377.503 165.694 378.963 163.995 379.694L163.968 379.673L163.958 379.667Z" fill="#828282"/>
<path d="M399.502 480.197C396.628 480.398 395.305 478.059 393.585 476.445C393.035 475.926 393.294 475.09 394.093 474.714C394.485 474.529 394.988 474.259 395.342 474.36C399.332 475.524 403.084 473.757 406.953 473.534C408.297 473.455 410.17 473.455 410.086 475.392C410.012 477.154 408.44 478.403 406.757 478.006C405.048 477.599 404.646 479.255 403.296 479.477C402.074 479.678 400.841 480.181 399.496 480.197H399.502Z" fill="#828282"/>
<path d="M149.505 421.42C149.241 422.246 148.394 423.474 147.669 422.727C145.928 420.933 143.239 420.663 141.758 418.631C141.467 418.229 140.858 417.695 141.482 417.324C143.605 416.081 142.297 414.832 141.721 413.45C141.514 412.953 140.816 412.164 141.636 411.566C142.377 411.021 142.843 411.889 143.107 412.201C145.108 414.599 147.976 416.303 149.05 419.452C149.246 420.028 149.331 420.642 149.505 421.415V421.42Z" fill="#828282"/>
<path d="M514.38 391.237C513.75 390.502 510.723 391.983 511.824 388.56C512.035 387.893 509.564 387.729 510.659 386.242C511.072 385.681 510.432 383.061 512.517 385.072C516.745 383.23 515.708 387.491 516.729 389.009C517.703 390.459 516.724 391.391 514.385 391.237H514.38Z" fill="#828282"/>
<path d="M105.302 267.189C107.192 269.243 106.414 272.164 107.932 274.334C108.853 275.651 107.446 276.398 106.985 277.271C106.641 277.922 105.789 277.049 105.493 276.747C104.688 275.932 103.937 274.482 104.868 273.746C106.705 272.291 106.583 271.238 105.159 269.645C104.821 269.269 104.588 267.978 105.302 267.195V267.189Z" fill="#828282"/>
<path d="M352.447 427.988C349.986 428.162 350.859 426.188 350.489 425.167C350.081 424.045 351.531 423.834 351.912 424.003C353.505 424.717 356.453 423.849 356.574 425.829C356.696 427.781 353.759 427.242 352.447 427.988Z" fill="#828282"/>
<path d="M316.545 458.862C315.614 458.963 314.576 458.709 313.698 458.153C312.767 457.56 312.116 456.544 312.645 455.491C313.105 454.57 314.169 454.972 314.989 455.184C315.741 455.38 316.513 455.576 317.191 455.936C317.953 456.338 319.207 456.38 318.953 457.772C318.699 459.158 317.609 458.841 316.54 458.862H316.545Z" fill="#828282"/>
<path d="M345.428 422.081C346.814 423.071 348.772 423.759 349.513 425.712C349.99 426.966 349.048 427.352 348.047 426.86C346.645 426.178 345.322 425.325 344.026 424.452C343.449 424.061 343.544 423.362 343.777 422.764C344.015 422.15 344.629 422.261 345.423 422.076L345.428 422.081Z" fill="#828282"/>
<path d="M503.223 123.079C502.223 121.999 501.826 120.899 500.281 121.544C499.037 122.063 496.539 119.131 496.751 117.76C496.809 117.364 497.037 117.125 497.418 117.062C498.042 116.961 498.328 117.464 498.725 117.797C500.397 119.184 501.699 120.888 503.223 123.079V123.079Z" fill="#828282"/>
<path d="M124.621 244.867C125.04 246.471 124.304 247.894 123.918 249.376C123.674 250.313 122.96 250.509 122.124 250.577C121.06 250.667 121.679 249.27 120.711 249.032C120.319 248.937 120.631 247.937 121.383 247.471C122.547 246.741 122.806 244.846 124.616 244.867H124.621Z" fill="#828282"/>
<path d="M112.328 297.283C111.688 299.135 110.751 300.342 109.222 301.131C108.242 301.633 107.369 301.57 106.48 301.093C105.332 300.474 105.115 299.813 106.496 299.188C108.28 298.384 109.962 297.262 112.328 297.289V297.283Z" fill="#828282"/>
<path d="M393.693 471.627C392.037 471.637 390.719 469.732 391.248 468.398C391.45 467.89 391.788 467.425 392.328 467.367C393.122 467.282 392.963 467.97 393.053 468.451C393.355 470.102 394.302 470.007 395.561 469.478C396.202 469.208 397.234 468.652 397.572 469.721C397.821 470.505 396.789 470.743 396.202 471.013C395.355 471.404 394.53 472.071 393.688 471.627H393.693Z" fill="#828282"/>
<path d="M393.259 464.776C392.894 464.766 392.286 464.961 392.021 464.348C391.751 463.728 392.259 463.347 392.672 463.077C394.556 461.844 396.583 461.728 398.694 462.405C399.028 462.511 399.387 462.601 399.393 463.04C399.403 463.633 398.911 463.718 398.504 463.797C396.8 464.131 395.09 464.438 393.259 464.776V464.776Z" fill="#828282"/>
<path d="M125.982 235.652C127.183 237.483 127.337 239.023 125.426 240.272C125.22 240.405 125.04 240.648 124.95 240.881C124.574 241.833 124.606 243.601 123.22 243.072C122.33 242.733 123.362 241.177 123.712 240.288C124.31 238.775 124.728 237.139 125.982 235.652Z" fill="#828282"/>
<path d="M469.912 422.079C470.489 421.513 471.468 421.529 471.812 421.851C473.029 423 474.41 423.354 476.003 423.518C476.697 423.587 477.586 424.27 477.189 425.201C476.876 425.932 476.136 425.476 475.585 425.238C473.59 424.392 470.923 424.746 469.917 422.079H469.912Z" fill="#828282"/>
<path d="M426.202 434.403C426.107 435.006 425.704 435.408 425.196 435.509C423.641 435.805 422.328 434.979 420.989 434.387C420.719 434.27 420.524 433.889 420.783 433.492C421.836 431.873 423.164 433.63 424.387 433.217C424.969 433.021 425.895 433.545 426.202 434.403V434.403Z" fill="#828282"/>
<path d="M512.874 444.297C514.361 441.736 515.541 439.704 516.854 437.449C517.446 440.429 516.293 442.498 512.874 444.297Z" fill="#828282"/>
<path d="M291.499 468.637C291.393 469.664 291.833 470.606 290.61 470.489C289.621 470.394 288.382 469.987 288.25 469.151C288.081 468.097 289.525 467.817 290.303 467.563C291.351 467.219 291.489 468.219 291.499 468.637Z" fill="#828282"/>
<path d="M109.232 294.873C108.057 293.365 108.925 292.433 109.681 291.724C110.163 291.274 111.174 290.999 111.703 291.857C112.285 292.793 111.407 292.867 110.819 293.259C110.226 293.651 109.327 293.719 109.232 294.873V294.873Z" fill="#828282"/>
<path d="M146.049 202.252C145.652 204.824 143.784 204.734 142.731 205.612C142.413 205.877 141.974 205.612 141.89 205.316C141.821 205.073 142.048 204.707 142.212 204.438C143.006 203.136 144.594 203.496 146.049 202.252Z" fill="#828282"/>
<path d="M163.984 379.687C165.418 380.619 167.075 381.439 165.741 383.841C164.757 382.534 163.794 381.375 163.958 379.666L163.984 379.682V379.687Z" fill="#828282"/>
<path d="M426.795 429.684C427.493 429.705 427.964 429.969 428.001 430.721C428.044 431.557 427.679 431.98 426.805 431.97C425.932 431.959 425.541 431.414 425.546 430.679C425.546 429.953 426.207 429.789 426.795 429.684Z" fill="#828282"/>
<path d="M350 547C489.176 547 602 434.176 602 295C602 155.824 489.176 43 350 43C210.824 43 98 155.824 98 295C98 434.176 210.824 547 350 547Z" stroke="#828282" stroke-width="2" stroke-miterlimit="10"/>
<circle cx="347.2" cy="297.8" r="114.8" stroke="white" stroke-width="3" stroke-linecap="round" stroke-dasharray="0.2 6"/>
<line x1="347" y1="274" x2="347" y2="323" stroke="white" stroke-width="2"/>
<line x1="372" y1="299" x2="322" y2="299" stroke="white" stroke-width="2"/>
</svg>
