<svg width="1355" height="500" viewBox="0 0 1355 500" fill="none" xmlns="http://www.w3.org/2000/svg">
<g clip-path="url(#clip0_318_272)">
<rect width="1355" height="500" fill="black"/>
<ellipse cx="228.57" cy="274.163" rx="118.058" ry="25.3678" stroke="white" stroke-width="3" stroke-linecap="round" stroke-dasharray="0.2 8"/>
<ellipse cx="226.619" cy="275.139" rx="59.5168" ry="12.6839" stroke="white" stroke-width="3" stroke-linecap="round" stroke-dasharray="0.2 6"/>
<ellipse cx="228.572" cy="274.162" rx="539.554" ry="40.9788" stroke="white" stroke-width="3" stroke-linecap="round" stroke-dasharray="0.2 8"/>
<ellipse cx="205.153" cy="274.162" rx="1037.15" ry="58.5411" stroke="#BDBDBD" stroke-width="3" stroke-linecap="round" stroke-dasharray="0.2 8"/>
<circle cx="225.641" cy="266.356" r="47.3329" fill="#828282" stroke="#828282"/>
<path d="M271.765 258.238C271.63 258.023 271.483 257.739 271.341 257.324C270.428 257.623 270.397 257.647 269.318 257.826L269.269 257.891C268.839 258.503 269.29 258.247 268.536 258.884C267.638 259.638 267.053 260.671 266.05 261.284C265.927 262.354 266.139 262.594 265.869 263.865C265.762 264.333 265.238 265.594 264.624 265.498C264.427 265.461 263.602 263.419 263.409 262.856C263.077 261.896 262.704 261.185 262.464 260.081C262.329 259.493 262.237 258.364 262.102 257.968C261.458 258.063 261.489 258.473 260.872 258.042C260.436 257.726 260.633 257.537 260.392 257.067C259.884 256.59 259.358 256.108 258.835 255.627C258.43 255.498 256.87 255.725 256.211 255.652C255.024 255.544 254.923 255.615 254.217 254.668C252.969 254.729 253.077 255.194 251.861 254.153C251.067 253.48 251.217 252.4 250.064 253.009C250.018 253.996 250.5 254.212 250.932 254.668C251.248 255.018 251.637 255.256 251.802 255.722C251.818 255.738 251.892 256.178 251.907 256.24C253.032 256.314 253.301 255.772 253.915 255.317C254.516 255.881 253.93 255.976 254.801 256.422C255.49 256.772 255.355 256.566 255.806 257.13C256.03 257.887 254.262 259.938 253.675 260.311C253.227 260.6 252.985 260.431 252.58 260.766C251.983 261.271 252.657 261.199 251.608 261.584C250.483 261.993 249.37 262.857 248.187 262.928C247.932 262.232 247.679 261.525 247.424 260.815C246.674 258.403 246.704 259.338 245.941 258.09C245.578 257.551 245.729 257.2 245.491 256.72C245.325 256.361 245.07 256.206 244.845 255.76C244.501 255.077 244.097 254.009 243.303 254.117C243.137 254.656 244.035 256.48 244.263 256.926C244.487 257.371 244.845 257.563 244.952 258.199C245.103 259.075 244.921 258.968 245.401 259.556C246.406 260.767 245.357 260.553 246.915 261.739C248.086 262.628 247.785 262.896 248.282 264.081C249.045 264.299 251.323 263.277 251.712 263.579C252.177 264.406 251.176 265.729 250.918 266.449C250.078 268.861 248.61 268.824 247.485 270.673C246.872 271.673 246.587 271.805 246.017 273.002C245.373 274.36 247.321 278.119 246.152 279.693C245.897 280.052 245.072 280.269 244.039 281.361C242.941 282.551 244.067 282.345 243.647 284.329C243.318 284.782 242.914 284.807 242.506 285.132C242.359 285.6 242.478 285.972 242.223 286.548C241.953 287.244 241.907 286.873 241.515 287.437C241.233 287.882 241.264 288.059 240.933 288.471C240.648 288.842 240.497 288.948 240.229 289.191C238.922 290.393 236.121 290.427 235.882 290.258C235.22 289.695 235.67 289.55 235.507 288.76C235.345 288.061 234.977 287.478 234.667 286.942L234.636 286.886C234.486 286.623 234.351 286.369 234.274 286.13C233.735 284.425 233.93 283.128 232.986 281.399C231.799 279.164 233.645 278 233.568 276.739C233.537 276.404 233.417 276.2 233.387 275.936C233.163 274.545 233.028 273.293 232.099 272.201C231.077 271.011 231.213 271.432 231.544 269.476C231.965 267.231 231.005 267.805 229.656 267.747C228.994 265.705 227.706 266.701 226.416 267.301C225.607 267.673 225.306 267.193 224.393 267.326C222.35 267.602 223.957 268.479 221.23 266.317C220.089 265.415 220.855 265.871 220.178 264.744C219.954 264.336 219.265 263.793 218.949 263.387C217.915 262.089 219.145 260.781 218.964 259.295C218.65 256.532 218.201 258.932 219.745 255.594C220.554 253.82 221.784 253.807 222.099 253.013C222.369 252.305 222.188 251.802 222.696 251.152C223.146 250.626 223.791 250.731 224.044 249.904C224.407 248.883 223.716 248.751 222.965 248.726C222.651 247.659 222.651 247.923 222.891 246.939C223.026 246.385 222.906 246.121 223.026 245.57C223.327 244.19 225.681 245.557 226.355 244.994C226.668 244.406 226.714 243.828 226.355 243.265C225.977 242.701 225.484 242.772 225.229 242.231C225.799 241.847 225.38 242.185 225.873 242.075C226.457 241.943 226.381 241.774 227.072 241.645C227.687 241.522 228.081 240.959 228.678 240.575C229.533 240.024 229.126 239.53 230.161 239.36C231.825 239.072 230.746 239.121 230.927 237.573C231.179 237.475 231.42 237.368 231.659 237.26C232.183 237.943 231.524 237.668 232.156 238.124C232.318 238.029 232.515 237.931 232.695 237.836C232.603 237.091 232.259 237.235 232.033 236.313C231.208 236.445 230.911 237.14 230.249 236.888C229.605 236.646 229.575 235.723 229.605 234.954C229.844 234.378 231.043 234.065 231.509 233.92C232.26 233.669 232.153 233.163 232.847 232.48C233.745 231.579 233.086 232.492 233.521 231.327C234.511 231.29 234.044 231.256 234.631 230.955L234.659 230.943L234.72 230.918C235.064 230.762 235.514 230.725 235.966 230.572C237.615 230.02 238.289 230.295 239.488 230.787C240.417 231.171 243.223 231.183 243.435 232.359C242.757 233.067 242.112 232.553 241.139 232.611C241.32 233.525 241.394 233.525 242.219 233.776C242.354 233.343 242.16 233.512 242.385 233.237C242.655 233.296 242.923 233.345 243.193 233.394C243.467 232.468 243.778 232.6 244.695 232.492C244.542 231.855 244.379 232.036 244.723 231.533C245.67 231.628 244.904 231.545 245.366 232.302C246.028 232.216 246.673 231.483 247.587 231.388C248.156 231.326 248.129 231.544 248.935 231.459C249.596 231.388 249.566 231.149 250.226 231.425C250.466 230.979 250.226 230.992 250.811 230.883C251.709 230.726 252.491 231.279 253.358 231.4C252.715 230.607 252.101 230.763 252.896 229.441C253.899 229.238 253.991 229.383 254.426 230.14C254.671 229.999 254.776 229.86 254.897 229.789C254.83 229.734 254.762 229.679 254.692 229.624C254.317 229.325 253.941 229.035 253.554 228.75C253.48 228.694 253.406 228.642 253.33 228.587C253.01 228.351 252.686 228.119 252.358 227.891C252.253 227.821 252.152 227.747 252.048 227.676C251.652 227.406 251.254 227.14 250.852 226.882C250.815 226.858 250.775 226.836 250.738 226.812C250.369 226.579 249.996 226.35 249.618 226.125C249.502 226.055 249.385 225.984 249.268 225.916C248.909 225.707 248.548 225.499 248.186 225.301C248.121 225.267 248.06 225.23 247.999 225.197C247.584 224.969 247.165 224.751 246.741 224.538C246.618 224.476 246.495 224.418 246.375 224.357C246.035 224.191 245.695 224.025 245.351 223.867C245.244 223.817 245.136 223.765 245.026 223.716C244.599 223.519 244.168 223.332 243.732 223.149C243.618 223.103 243.501 223.057 243.387 223.008C243.041 222.867 242.695 222.728 242.345 222.596C242.21 222.544 242.077 222.492 241.946 222.443C241.502 222.277 241.057 222.117 240.605 221.969C240.519 221.941 240.433 221.913 240.347 221.886C239.966 221.76 239.587 221.637 239.2 221.52C239.056 221.477 238.908 221.435 238.761 221.391C238.356 221.271 237.952 221.158 237.54 221.051C237.472 221.036 237.408 221.014 237.341 220.999C236.879 220.879 236.412 220.768 235.946 220.664C235.799 220.631 235.648 220.6 235.5 220.566C235.128 220.487 234.758 220.413 234.384 220.342C234.261 220.317 234.138 220.293 234.015 220.271C233.547 220.186 233.07 220.109 232.596 220.038C232.455 220.017 232.31 219.998 232.169 219.977C231.797 219.924 231.431 219.879 231.056 219.835C230.908 219.817 230.757 219.798 230.607 219.783C230.141 219.735 229.661 219.692 229.173 219.656C229.056 219.647 228.939 219.641 228.822 219.634C228.428 219.606 228.032 219.585 227.637 219.569C227.475 219.56 227.315 219.554 227.153 219.551C226.688 219.536 226.221 219.526 225.756 219.523H225.641C214.132 219.523 203.598 223.677 195.447 230.564L195.468 230.607C195.53 230.705 195.573 230.705 195.634 230.958C194.88 231.142 194.877 231.267 194.592 231.304C194.42 231.461 194.245 231.614 194.074 231.77C194.619 231.957 195.338 231.832 195.874 231.81C196.07 231.45 196.19 231.136 196.532 231.006C196.667 230.957 196.833 230.944 197.059 230.957C197.086 231.135 197.133 231.316 197.179 231.496C197.179 231.508 197.197 231.585 197.197 231.603C197.212 231.591 197.225 231.68 197.237 231.714C198.184 231.162 197.388 231.15 197.896 230.153C197.102 229.997 197.21 230.092 196.712 229.587C197.192 229.06 198.121 228.878 198.812 228.928C198.766 229.408 198.542 229.396 198.723 229.805C199.262 229.467 199.637 228.569 200.507 228.734C200.67 228.854 200.867 228.965 201.046 229.072C200.594 229.493 199.921 229.518 199.336 229.756C199.081 232.361 200.161 230.177 199.801 231.967C200.445 231.918 201.077 231.453 201.316 230.971C201.078 230.656 200.732 230.656 200.536 230.284C200.689 229.804 201.01 229.439 201.468 229.223C201.775 229.076 202.145 228.996 202.563 228.996C207.33 229.033 205.064 229.251 206.536 229.922C206.868 230.066 207.45 230.14 207.647 230.427C207.948 230.883 207.662 231.313 208.14 231.675C208.561 231.989 208.62 231.663 209.176 232.359C209.056 232.755 208.771 233.165 208.186 233.177C207.377 233.19 207.857 232.635 206.987 232.719C207.002 233.534 207.811 233.848 207.061 234.292C206.402 234.688 206.821 234.147 206.329 234.424C206.314 234.436 206.267 234.461 206.252 234.473C206.221 234.495 206.194 234.532 206.175 234.556C206.086 234.652 206.013 234.737 205.936 234.82C204.737 234.495 204.964 234.642 204.244 233.848C203.974 233.547 203.928 233.473 203.447 233.514C203.149 233.523 202.761 233.655 202.472 233.391C203.057 232.659 203.343 233.37 204.198 232.935C204.349 232.865 205.293 232.132 205.444 231.963C205.189 231.387 205.413 231.865 205.039 231.495C204.199 230.643 203.956 230.861 202.818 230.861C202.286 231.474 201.886 232.231 201.304 232.565C200.954 232.768 200.538 232.814 199.985 232.577C200.24 233.611 200.899 232.817 200.957 234.067C200.524 233.981 200.298 233.763 199.847 233.922C198.887 234.282 199.743 234.244 199.819 234.436C199.819 234.449 200.266 234.495 199.819 234.664C199.323 234.845 199.743 234.569 198.783 234.005C198.918 233.766 199.053 233.515 199.188 233.261C198.409 233.5 197.435 233.886 196.521 234.331C195.484 234.845 194.51 235.435 193.928 235.974C193.913 236.875 194.075 236.275 194.167 237.344C195.561 237.427 195.112 237.845 196.506 238.242C196.776 238.316 197.119 238.386 197.542 238.46C197.542 239.131 196.942 239.637 197.358 240.333C198.333 241.017 198.363 239.683 198.606 238.835C201.905 238.145 200.314 237.173 201.166 235.358C201.295 235.088 201.476 234.798 201.739 234.488C201.994 234.497 203.027 234.608 203.253 234.654C204.001 234.786 203.597 234.967 204.406 235.325C204.391 235.975 204.062 236.814 205.022 236.659C205.754 236.531 205.591 235.951 206.489 235.807C206.894 236.758 206.79 237.166 206.97 238.305C209.128 239.145 208.169 239.828 207.748 241.402C208.019 241.535 208.303 241.657 208.588 241.777C208.573 242.233 208.557 242.675 208.542 243.124C208.499 243.124 206.234 242.631 206.084 242.581C206.431 241.597 207.059 241.585 207.463 240.576C206.654 240.721 206.713 240.972 206.129 241.152C205.605 241.308 205.2 241.201 204.649 241.272C204.664 241.315 204.679 241.395 204.688 241.536C204.719 241.849 204.869 241.551 204.658 241.886C203.91 241.536 204.165 240.721 202.769 241.478C203.085 241.622 203.397 241.754 203.729 241.886C203.685 242.809 203.609 242.114 203.413 242.726C202.935 244.298 204.719 243.326 205.185 243.244C205.062 244.071 204.553 244.071 203.832 244.298C203.038 244.538 202.799 244.862 202.168 245.009C202.168 244.022 202.021 244.853 202.454 244.166C201.826 244.228 201.359 244.516 200.762 244.767L200.7 244.791C199.931 245.105 199.815 245.151 199.726 246.135C199.067 246.341 198.304 246.571 197.837 247.049C197.372 247.494 196.908 247.938 196.458 248.371C196.412 248.408 196.381 248.442 196.354 248.466C196.519 249.706 196.354 249.727 195.603 250.207C194.972 250.616 194.763 250.606 194.178 251.121C192.304 252.801 193.206 252.019 193.307 254.914C192.917 254.794 192.544 254.662 192.185 254.53C191.899 252.611 192.289 253.245 190.745 252.801C189.081 252.324 189.307 253.139 188.616 253.282C187.85 253.45 187.476 252.586 186.367 253.307C185.754 253.727 185.168 254.002 185.017 254.747C184.836 255.648 184.432 256.307 184.493 257.304C184.598 260.005 187.056 260.161 187.684 258.901C188.105 258.061 188 257.603 189.364 257.821C189.5 258.542 189.29 259.069 189.109 259.621C188.99 259.946 188.658 260.531 188.824 260.978C189.798 261.374 189.829 260.628 191.116 261.395C191.208 262.683 190.534 264.124 191.524 264.865C192.287 265.429 192.333 264.927 193.008 264.807C193.758 264.675 193.621 265.142 194.312 265.253C194.704 264.772 194.539 265.072 194.792 264.483C195.242 263.462 195.362 263.945 196.426 263.318C196.53 263.26 196.619 263.198 196.726 263.128C196.846 263.379 196.981 263.618 197.101 263.86C197.88 262.934 197.972 263.835 198.87 264.087C199.257 264.195 199.531 264.232 199.747 264.235C200.399 264.244 200.467 263.925 201.359 264.244C201.463 264.293 201.598 264.327 201.722 264.364C201.737 264.364 201.78 264.388 201.78 264.413C201.795 264.425 201.842 264.459 201.854 264.471C202.005 264.64 202.02 264.809 202.14 264.989C202.755 265.573 203.373 266.166 203.97 266.742C205.154 267.208 205.154 266.331 206.505 267.64C207.075 268.179 206.818 268.17 207.133 268.867C207.179 268.975 207.268 269.083 207.33 269.214C207.45 269.54 207.585 269.852 207.72 270.165C208.335 270.968 209.172 270.466 210.028 271.293C210.52 271.774 210.148 271.628 211.242 271.82C212.937 272.096 212.279 271.942 213.569 272.914C214.062 273.274 214.182 273.071 214.648 273.38C215.292 274.281 215.126 275.256 214.587 276.047C212.922 278.472 213.492 278.077 213.418 280C213.356 281.104 213.043 283.384 212.009 283.66C208.244 284.718 210.433 285.451 209.446 287.308C209.16 287.838 208.949 287.97 208.768 288.391C208.021 290.144 208.544 290.732 206.325 290.338C206.537 290.709 206.402 290.458 206.611 290.791C207.27 291.812 207.378 292.581 206.026 292.833C204.904 293.048 205.383 292.833 205.279 294.081C204.843 294.262 204.647 294.081 204.365 294.37C204.755 295.09 204.392 294.49 205.054 294.9C204.932 295.296 204.843 295.678 204.738 296.062C204.483 297.001 204.407 296.136 204.318 297.228C204.708 297.408 204.976 297.372 205.323 297.84C205.277 298.203 204.918 299.187 204.812 299.751C205.366 300.578 205.817 301.467 207.005 301.554C206.99 302.246 207.152 302.175 206.553 302.32C206.045 302.44 204.965 301.961 204.511 301.72C203.732 301.299 203.012 300.748 202.487 299.956C202.189 299.508 202.309 299.726 201.994 299.307C201.425 298.574 201.65 298.237 201.487 297.746C201.395 297.458 200.932 297.146 201.124 296.208C201.17 295.944 201.589 294.685 201.081 294.902C200.569 295.105 201.471 295.022 200.765 295.355C200.599 294.902 200.464 294.226 200.375 293.663C200.194 292.716 199.97 292.679 199.863 292.103C199.639 290.768 200.21 290.625 199.577 288.402C199.163 286.935 199.332 283.453 198.894 281.669C198.823 281.384 198.738 281.143 198.633 280.959C198.228 280.288 197.239 279.974 196.443 279.435C196.4 279.423 196.369 279.411 196.354 279.386C195.259 278.62 194.223 275.606 193.355 274.477C192.95 273.935 192.694 274.173 192.515 273.324C192.319 272.543 192.62 272.674 192.875 272.024C191.54 269.578 194.601 269.612 193.969 266.671C193.834 266.129 193.446 265.373 193.117 265.135C192.486 265.411 192.786 265.565 192.456 266.095C191.948 265.806 191.438 265.519 190.942 265.23C189.397 263.741 190.221 264.822 189.789 263.849C188.856 261.809 187.973 262.951 186.864 261.942C186.367 261.521 186.279 260.859 185.454 260.982C184.209 261.148 184.9 261.341 183.612 260.739C182.514 260.222 181.376 259.623 180.61 258.927C180.57 257.469 181.015 257.609 179.905 256.264C179.186 259.511 178.809 262.889 178.809 266.356C178.809 266.892 178.821 267.426 178.839 267.96C178.842 268.073 178.846 268.19 178.852 268.304C178.873 268.812 178.898 269.319 178.935 269.824C178.937 269.845 178.937 269.864 178.941 269.886C178.981 270.416 179.03 270.943 179.088 271.471C179.097 271.575 179.11 271.682 179.122 271.79C179.177 272.262 179.238 272.731 179.306 273.197C179.315 273.252 179.321 273.307 179.331 273.363C179.408 273.88 179.497 274.393 179.589 274.904L179.644 275.19C179.73 275.638 179.822 276.088 179.92 276.534C179.939 276.608 179.951 276.681 179.97 276.755C180.084 277.26 180.206 277.764 180.339 278.263C180.36 278.337 180.378 278.414 180.4 278.487C180.52 278.93 180.643 279.37 180.775 279.806C180.8 279.889 180.821 279.969 180.846 280.052C180.999 280.545 181.156 281.039 181.324 281.525C181.339 281.571 181.357 281.621 181.373 281.67C181.529 282.116 181.689 282.556 181.857 282.995C181.888 283.078 181.919 283.161 181.949 283.241C182.136 283.727 182.333 284.209 182.534 284.687C182.536 284.693 182.54 284.699 182.542 284.708C182.739 285.17 182.948 285.631 183.158 286.084C183.195 286.161 183.229 286.24 183.266 286.317C183.708 287.249 184.176 288.166 184.675 289.064C184.712 289.132 184.752 289.199 184.789 289.267C185.294 290.171 185.831 291.054 186.395 291.918C186.432 291.974 186.469 292.029 186.505 292.084C187.078 292.958 187.68 293.807 188.311 294.638C188.342 294.677 188.372 294.717 188.403 294.758C188.712 295.163 189.024 295.564 189.347 295.956C189.356 295.965 189.362 295.978 189.372 295.987C189.713 296.402 190.055 296.809 190.408 297.211C190.43 297.232 190.448 297.254 190.467 297.275C190.807 297.662 191.15 298.038 191.5 298.413C191.519 298.432 191.537 298.453 191.552 298.472C192.285 299.247 193.045 299.998 193.83 300.725C193.851 300.747 193.876 300.769 193.898 300.79C194.682 301.513 195.489 302.209 196.319 302.878C196.346 302.899 196.371 302.921 196.398 302.942C197.229 303.607 198.084 304.246 198.961 304.853C198.989 304.874 199.017 304.893 199.044 304.911C199.924 305.518 200.825 306.098 201.748 306.646C201.773 306.661 201.8 306.677 201.825 306.692C202.751 307.24 203.699 307.759 204.667 308.243C204.688 308.252 204.707 308.264 204.729 308.273C211.023 311.417 218.123 313.189 225.641 313.189C251.506 313.189 272.474 292.222 272.474 266.355C272.474 263.587 272.232 260.873 271.766 258.237L271.765 258.238ZM226.102 236.502C226.222 236.77 226.342 237.032 226.477 237.296C226.658 238.041 226.072 237.428 226.658 238.318C227.12 238.869 227.572 239.422 228.022 239.973C227.736 240.8 227.752 240.874 226.942 240.945C226.372 240.994 225.727 241.151 225.293 241.126C225.459 240.059 225.142 240.612 225.397 239.998C225.683 239.266 225.729 239.817 225.979 239.109C225.424 238.281 224.841 238.845 224.868 237.165C225.398 236.696 225.321 236.769 226.102 236.502L226.102 236.502ZM250.739 279.8C250.499 280.462 250.289 281.265 250.065 281.975C249.764 282.971 249.059 286.153 247.757 284.894C247.321 284.482 247.336 283.103 247.618 282.552C248.416 281.062 247.695 281.411 247.965 280.272C248.174 279.358 248.894 279.586 249.433 279.094C249.926 278.661 250.017 277.892 250.678 277.559C251.321 278.468 250.978 279.093 250.739 279.8L250.739 279.8ZM271.7 257.871C271.721 257.994 271.743 258.117 271.765 258.24C271.767 258.243 271.767 258.246 271.771 258.249C271.749 258.123 271.725 257.997 271.7 257.871L271.7 257.871Z" fill="black"/>
<mask id="mask0_318_272" style="mask-type:alpha" maskUnits="userSpaceOnUse" x="180" y="274" width="95" height="47">
<path d="M227.596 320.995C201.731 320.995 180.763 300.027 180.763 274.162C180.763 274.162 197.828 279.041 223.693 279.041C249.558 279.041 274.429 274.162 274.429 274.162C274.429 300.027 253.461 320.995 227.596 320.995Z" fill="#828282"/>
</mask>
<g mask="url(#mask0_318_272)">
<ellipse cx="228.571" cy="274.163" rx="118.058" ry="25.3678" stroke="white" stroke-width="3" stroke-linecap="round" stroke-dasharray="0.2 8"/>
<ellipse cx="226.618" cy="275.137" rx="59.5168" ry="12.6839" stroke="white" stroke-width="3" stroke-linecap="round" stroke-dasharray="0.2 8"/>
</g>
<ellipse cx="1240.36" cy="274.163" rx="11.7082" ry="11.7082" transform="rotate(90 1240.36 274.163)" fill="#BDBDBD"/>
<path d="M1201.1 191.276H1202.86L1209.55 179.068V195H1211.71V175.4H1209.22L1202.05 188.7L1194.96 175.4H1192.25V195H1194.38V179.068L1201.1 191.276ZM1221.76 195.28C1225.32 195.28 1227.64 193.236 1227.64 189.232V187.104C1227.64 183.1 1225.32 181.056 1221.76 181.056C1218.2 181.056 1215.91 183.1 1215.91 187.104V189.232C1215.91 193.236 1218.2 195.28 1221.76 195.28ZM1221.76 182.96C1224.25 182.96 1225.4 184.612 1225.4 187.104V189.204C1225.4 191.752 1224.25 193.376 1221.76 193.376C1219.27 193.376 1218.15 191.752 1218.15 189.204V187.104C1218.15 184.612 1219.27 182.96 1221.76 182.96ZM1236.83 195.28C1240.38 195.28 1242.71 193.236 1242.71 189.232V187.104C1242.71 183.1 1240.38 181.056 1236.83 181.056C1233.27 181.056 1230.97 183.1 1230.97 187.104V189.232C1230.97 193.236 1233.27 195.28 1236.83 195.28ZM1236.83 182.96C1239.32 182.96 1240.47 184.612 1240.47 187.104V189.204C1240.47 191.752 1239.32 193.376 1236.83 193.376C1234.33 193.376 1233.21 191.752 1233.21 189.204V187.104C1233.21 184.612 1234.33 182.96 1236.83 182.96ZM1248.87 187.216C1248.87 184.528 1250.52 182.96 1252.56 182.96C1254.78 182.96 1255.7 184.108 1255.7 186.376V195H1257.88V185.928C1257.88 182.624 1256.26 181.056 1253.29 181.056C1251.33 181.056 1249.74 182.008 1248.87 183.912V181.336H1246.66V195H1248.87V187.216ZM1117.96 229.448C1122.19 229.448 1124.12 227.292 1124.12 223.568C1124.12 221.412 1123.28 219.564 1120.74 218.808C1123.09 218.164 1123.65 216.54 1123.65 214.328C1123.65 211.22 1121.94 209.12 1117.77 209.12C1114.3 209.12 1112.2 210.996 1112.08 214.356H1114.18C1114.3 212.2 1115.5 211.024 1117.77 211.024C1120.37 211.024 1121.41 212.144 1121.41 214.356C1121.41 216.848 1120.71 217.996 1117.38 217.996H1116.12V219.76H1117.38C1120.71 219.76 1121.88 221.216 1121.88 223.624C1121.88 226.312 1120.6 227.544 1117.96 227.544C1115.11 227.544 1113.71 226.256 1113.6 224.044H1111.47C1111.64 227.46 1113.76 229.448 1117.96 229.448ZM1134.08 229.28C1138.28 229.28 1140.49 227.124 1140.49 223.848V223.204C1140.49 220.964 1139.32 219.396 1137.33 218.724C1139.01 218.024 1139.93 216.596 1139.93 214.72V214.076C1139.93 210.884 1137.64 209.12 1134.14 209.12C1130.55 209.12 1128.29 210.884 1128.29 214.076V214.72C1128.29 216.596 1129.18 218.024 1130.92 218.724C1128.9 219.424 1127.7 220.964 1127.7 223.204V223.848C1127.7 227.124 1129.91 229.28 1134.08 229.28ZM1134.19 211.024C1136.55 211.024 1137.69 212.256 1137.69 214.132V214.664C1137.69 216.624 1136.55 217.828 1134 217.828C1131.67 217.828 1130.53 216.624 1130.53 214.664V214.132C1130.53 212.256 1131.67 211.024 1134.19 211.024ZM1134.17 219.732C1136.91 219.732 1138.28 221.132 1138.28 223.288V223.792C1138.28 225.976 1136.94 227.376 1134.03 227.376C1131.28 227.376 1129.94 225.976 1129.94 223.792V223.288C1129.94 221.132 1131.25 219.732 1134.17 219.732ZM1156.59 224.884V223.008H1153.99V209.4H1151.41L1143.01 223.204V224.884H1151.81V229H1153.99V224.884H1156.59ZM1145.28 223.008L1151.81 212.312V223.008H1145.28ZM1159.49 233.004L1161.76 226.2H1159.16L1158.01 233.004H1159.49ZM1171.44 229.28C1175.47 229.28 1177.77 227.068 1177.77 223.148V215.252C1177.77 211.332 1175.47 209.12 1171.44 209.12C1167.47 209.12 1165.17 211.36 1165.17 215.252V223.176C1165.17 227.068 1167.47 229.28 1171.44 229.28ZM1171.44 211.024C1174.3 211.024 1175.53 212.676 1175.53 215.252V223.148C1175.53 225.696 1174.3 227.376 1171.44 227.376C1168.64 227.376 1167.41 225.724 1167.41 223.148V215.28C1167.41 212.704 1168.64 211.024 1171.44 211.024ZM1188.48 229.28C1192.51 229.28 1194.8 227.068 1194.8 223.148V215.252C1194.8 211.332 1192.51 209.12 1188.48 209.12C1184.5 209.12 1182.2 211.36 1182.2 215.252V223.176C1182.2 227.068 1184.5 229.28 1188.48 229.28ZM1188.48 211.024C1191.33 211.024 1192.56 212.676 1192.56 215.252V223.148C1192.56 225.696 1191.33 227.376 1188.48 227.376C1185.68 227.376 1184.44 225.724 1184.44 223.148V215.28C1184.44 212.704 1185.68 211.024 1188.48 211.024ZM1205.51 229.28C1209.54 229.28 1211.84 227.068 1211.84 223.148V215.252C1211.84 211.332 1209.54 209.12 1205.51 209.12C1201.54 209.12 1199.24 211.36 1199.24 215.252V223.176C1199.24 227.068 1201.54 229.28 1205.51 229.28ZM1205.51 211.024C1208.37 211.024 1209.6 212.676 1209.6 215.252V223.148C1209.6 225.696 1208.37 227.376 1205.51 227.376C1202.71 227.376 1201.48 225.724 1201.48 223.148V215.28C1201.48 212.704 1202.71 211.024 1205.51 211.024ZM1232.76 229H1235.48L1229.62 220.908L1234.55 215.336H1232.06L1225.84 222.336V208.56H1223.63V229H1225.84V225.192L1228.17 222.56L1232.76 229ZM1240.39 221.216C1240.39 218.528 1242.02 216.96 1244.03 216.96C1246.08 216.96 1246.92 218.108 1246.92 220.376V229H1249.13V221.216C1249.13 218.528 1250.75 216.96 1252.77 216.96C1254.81 216.96 1255.65 218.108 1255.65 220.376V229H1257.86V219.928C1257.86 216.624 1256.32 215.056 1253.5 215.056C1251.42 215.056 1249.74 216.036 1248.85 217.968C1248.34 216.008 1246.94 215.056 1244.76 215.056C1242.83 215.056 1241.23 216.008 1240.39 217.94V215.336H1238.18V229H1240.39V221.216Z" fill="white"/>
<path d="M287.092 232.076H298.628V230.172H289.276V212.476H287.092V232.076ZM301.448 232.076H313.768V230.172H303.632V222.864H312.06V220.988H303.632V214.38H313.768V212.476H301.448V232.076ZM323.945 232.356C328.425 232.356 331.281 229.892 331.281 225.188V219.364C331.281 214.66 328.425 212.196 323.945 212.196C319.437 212.196 316.581 214.66 316.581 219.392V225.188C316.581 229.92 319.437 232.356 323.945 232.356ZM323.945 214.1C327.417 214.1 329.069 216.172 329.069 219.364V225.16C329.069 228.38 327.417 230.452 323.945 230.452C320.445 230.452 318.821 228.38 318.821 225.216V219.392C318.821 216.172 320.445 214.1 323.945 214.1Z" fill="white"/>
<path d="M490.146 228.352H491.91L498.602 216.144V232.076H500.758V212.476H498.266L491.098 225.776L484.014 212.476H481.298V232.076H483.426V216.144L490.146 228.352ZM505.798 232.076H518.118V230.172H507.982V222.864H516.41V220.988H507.982V214.38H518.118V212.476H505.798V232.076ZM528.295 232.356C532.775 232.356 535.631 229.892 535.631 225.188V219.364C535.631 214.66 532.775 212.196 528.295 212.196C523.787 212.196 520.931 214.66 520.931 219.392V225.188C520.931 229.92 523.787 232.356 528.295 232.356ZM528.295 214.1C531.767 214.1 533.419 216.172 533.419 219.364V225.16C533.419 228.38 531.767 230.452 528.295 230.452C524.795 230.452 523.171 228.38 523.171 225.216V219.392C523.171 216.172 524.795 214.1 528.295 214.1Z" fill="white"/>
<path d="M921.164 232.076H923.348V212.476H921.164V220.988H911.308V212.476H909.124V232.076H911.308V222.892H921.164V232.076ZM928.401 232.076H940.721V230.172H930.585V222.864H939.013V220.988H930.585V214.38H940.721V212.476H928.401V232.076ZM950.898 232.356C955.378 232.356 958.234 229.892 958.234 225.188V219.364C958.234 214.66 955.378 212.196 950.898 212.196C946.39 212.196 943.534 214.66 943.534 219.392V225.188C943.534 229.92 946.39 232.356 950.898 232.356ZM950.898 214.1C954.37 214.1 956.022 216.172 956.022 219.364V225.16C956.022 228.38 954.37 230.452 950.898 230.452C947.398 230.452 945.774 228.38 945.774 225.216V219.392C945.774 216.172 947.398 214.1 950.898 214.1Z" fill="white"/>
<path d="M757.16 232.356C761.752 232.356 763.908 230.144 763.908 225.3V222.276H756.964V224.152H761.836V225.636C761.836 228.548 760.604 230.452 757.244 230.452C753.772 230.452 752.148 228.38 752.148 225.216V219.392C752.148 216.172 753.772 214.1 757.132 214.1C759.988 214.1 761.416 215.304 761.78 217.852H763.908C763.572 214.324 761.332 212.196 757.244 212.196C752.764 212.196 749.908 214.66 749.908 219.392V225.188C749.908 229.92 752.736 232.356 757.16 232.356ZM768.106 232.076H780.426V230.172H770.29V222.864H778.718V220.988H770.29V214.38H780.426V212.476H768.106V232.076ZM790.604 232.356C795.084 232.356 797.94 229.892 797.94 225.188V219.364C797.94 214.66 795.084 212.196 790.604 212.196C786.096 212.196 783.24 214.66 783.24 219.392V225.188C783.24 229.92 786.096 232.356 790.604 232.356ZM790.604 214.1C794.076 214.1 795.728 216.172 795.728 219.364V225.16C795.728 228.38 794.076 230.452 790.604 230.452C787.104 230.452 785.48 228.38 785.48 225.216V219.392C785.48 216.172 787.104 214.1 790.604 214.1Z" fill="white"/>
<path d="M769.098 279.936L774.871 274.163L769.098 268.389L763.324 274.163L769.098 279.936ZM768.098 250.746L768.098 274.163L770.098 274.163L770.098 250.746L768.098 250.746Z" fill="white"/>
<path d="M307.6 279.936L313.373 274.163L307.6 268.389L301.826 274.163L307.6 279.936ZM306.6 250.746L306.6 274.163L308.6 274.163L308.6 250.746L306.6 250.746Z" fill="white"/>
<path d="M502.738 279.936L508.512 274.163L502.738 268.389L496.965 274.163L502.738 279.936ZM501.738 250.746L501.738 274.163L503.738 274.163L503.738 250.746L501.738 250.746Z" fill="white"/>
<path d="M926.186 279.936L931.959 274.163L926.186 268.389L920.412 274.163L926.186 279.936ZM925.186 250.746L925.186 274.163L927.186 274.163L927.186 250.746L925.186 250.746Z" fill="white"/>
</g>
<defs>
<clipPath id="clip0_318_272">
<rect width="1355" height="500" fill="white"/>
</clipPath>
</defs>
</svg>
