<svg width="500" height="500" viewBox="0 0 500 500" fill="none" xmlns="http://www.w3.org/2000/svg">
<rect width="500" height="500" fill="black"/>
<path d="M50.936 220H61.208V218.368H53.552L58.088 213.064C59.96 211.048 60.944 209.728 60.944 207.4C60.944 204.736 59.456 202.96 56.192 202.96C53.072 202.96 51.224 204.808 51.08 208H52.904C53.072 205.744 54.08 204.592 56.168 204.592C58.088 204.592 59.024 205.48 59.024 207.4C59.024 208.96 58.544 209.944 56.816 211.888L50.936 218.536V220ZM69.647 220.24C73.103 220.24 75.071 218.344 75.071 214.984V208.216C75.071 204.856 73.103 202.96 69.647 202.96C66.239 202.96 64.271 204.88 64.271 208.216V215.008C64.271 218.344 66.239 220.24 69.647 220.24ZM69.647 204.592C72.095 204.592 73.151 206.008 73.151 208.216V214.984C73.151 217.168 72.095 218.608 69.647 218.608C67.247 218.608 66.191 217.192 66.191 214.984V208.24C66.191 206.032 67.247 204.592 69.647 204.592ZM81.2246 210.496C83.4086 210.496 84.8726 209.2 84.8726 207.016V206.536C84.8726 204.376 83.4086 203.056 81.2246 203.056C79.0166 203.056 77.5526 204.376 77.5526 206.56V207.016C77.5526 209.2 79.0166 210.496 81.2246 210.496ZM79.9286 220H81.3926L92.5526 203.2H91.0646L79.9286 220ZM81.2246 204.28C82.6886 204.28 83.4566 205.216 83.4566 206.584V206.992C83.4566 208.336 82.6886 209.296 81.2246 209.296C79.7366 209.296 78.9926 208.36 78.9926 206.992V206.584C78.9926 205.216 79.7366 204.28 81.2246 204.28ZM91.5926 220.144C93.7766 220.144 95.2406 218.824 95.2406 216.64V216.184C95.2406 214.024 93.7766 212.68 91.5926 212.68C89.3846 212.68 87.9206 214.024 87.9206 216.208V216.664C87.9206 218.824 89.3846 220.144 91.5926 220.144ZM91.5926 213.904C93.0566 213.904 93.8006 214.864 93.8006 216.208V216.616C93.8006 217.984 93.0566 218.92 91.5926 218.92C90.1046 218.92 89.3366 217.984 89.3366 216.64V216.232C89.3366 214.864 90.1046 213.904 91.5926 213.904ZM61.616 232.2V243.456C61.616 245.928 60.368 247.608 57.704 247.608C55.088 247.608 53.816 245.928 53.816 243.456V232.2H51.896V243.456C51.896 247.2 54.176 249.24 57.704 249.24C61.256 249.24 63.536 247.2 63.536 243.456V232.2H61.616ZM69.2859 242.328C69.2859 240.024 70.7019 238.68 72.4539 238.68C74.3499 238.68 75.1419 239.664 75.1419 241.608V249H77.0139V241.224C77.0139 238.392 75.6219 237.048 73.0779 237.048C71.3979 237.048 70.0299 237.864 69.2859 239.496V237.288H67.3899V249H69.2859V242.328ZM88.6201 249H90.9481L85.9321 242.064L90.1561 237.288H88.0201L82.6921 243.288V231.48H80.7961V249H82.6921V245.736L84.6841 243.48L88.6201 249ZM95.1609 242.328C95.1609 240.024 96.5769 238.68 98.3289 238.68C100.225 238.68 101.017 239.664 101.017 241.608V249H102.889V241.224C102.889 238.392 101.497 237.048 98.9529 237.048C97.2729 237.048 95.9049 237.864 95.1609 239.496V237.288H93.2649V249H95.1609V242.328ZM111.159 249.24C114.207 249.24 116.199 247.488 116.199 244.056V242.232C116.199 238.8 114.207 237.048 111.159 237.048C108.111 237.048 106.143 238.8 106.143 242.232V244.056C106.143 247.488 108.111 249.24 111.159 249.24ZM111.159 238.68C113.295 238.68 114.279 240.096 114.279 242.232V244.032C114.279 246.216 113.295 247.608 111.159 247.608C109.023 247.608 108.063 246.216 108.063 244.032V242.232C108.063 240.096 109.023 238.68 111.159 238.68ZM129.959 249H132.071L135.575 237.288H133.631L130.943 246.912L127.679 237.288H125.927L122.639 246.888L119.999 237.288H117.983L121.463 249H123.479L126.743 239.616L129.959 249ZM140.067 242.328C140.067 240.024 141.483 238.68 143.235 238.68C145.131 238.68 145.923 239.664 145.923 241.608V249H147.795V241.224C147.795 238.392 146.403 237.048 143.859 237.048C142.179 237.048 140.811 237.864 140.067 239.496V237.288H138.171V249H140.067V242.328ZM55.76 267.512C57.632 267.512 58.448 268.232 58.592 269.792H60.392C60.272 267.392 58.856 266.048 55.76 266.048C52.832 266.048 51.512 267.392 51.512 269.36C51.512 271.328 52.592 272.144 54.776 272.6L56.432 272.936C58.28 273.368 58.784 273.68 58.784 274.904C58.784 276.104 58.04 276.8 56.168 276.8C54.128 276.8 53.144 276.032 52.952 274.256H51.176C51.44 276.992 53.096 278.24 56.12 278.24C59.12 278.24 60.656 277.016 60.656 274.784C60.656 272.816 59.672 272.096 56.984 271.496L55.472 271.16C53.96 270.8 53.384 270.416 53.384 269.312C53.384 268.112 54.056 267.512 55.76 267.512ZM69.6131 276.536H68.2451C66.6611 276.536 66.1091 275.864 66.1091 274.544V267.872H69.6131V266.288H66.1091V262.832H64.2371V266.288H62.4131V267.872H64.2371V274.52C64.2371 277.04 65.3171 278.12 67.9091 278.12H69.6131V276.536ZM78.9123 278H80.7843V270.224C80.7843 267.368 79.3923 266.048 76.5123 266.048C73.5363 266.048 72.2163 267.512 71.9283 269.672H73.7523C73.8963 268.496 74.6403 267.68 76.3443 267.68C78.2163 267.68 78.9123 268.448 78.9123 270.464V271.448H75.6723C72.6483 271.448 71.5443 272.696 71.5443 274.4V275.12C71.5443 277.04 72.8883 278.24 75.3123 278.24C77.2083 278.24 78.3123 277.616 78.9123 276.368V278ZM75.8643 276.872C74.2083 276.872 73.4163 276.2 73.4163 274.928V274.424C73.4163 273.32 74.0403 272.648 75.8403 272.648H78.9123V273.8C78.9123 275.984 77.8083 276.872 75.8643 276.872ZM90.2146 276.536H88.8466C87.2626 276.536 86.7106 275.864 86.7106 274.544V267.872H90.2146V266.288H86.7106V262.832H84.8386V266.288H83.0146V267.872H84.8386V274.52C84.8386 277.04 85.9186 278.12 88.5106 278.12H90.2146V276.536ZM100.236 278H102.132V266.288H100.236V273.032C100.236 275.336 98.8441 276.68 97.1401 276.68C95.3161 276.68 94.5241 275.696 94.5241 273.752V266.288H92.6521V274.136C92.6521 276.92 93.9961 278.24 96.5161 278.24C98.2441 278.24 99.5641 277.424 100.236 275.648V278ZM109.854 267.512C111.726 267.512 112.542 268.232 112.686 269.792H114.486C114.366 267.392 112.95 266.048 109.854 266.048C106.926 266.048 105.606 267.392 105.606 269.36C105.606 271.328 106.686 272.144 108.87 272.6L110.526 272.936C112.374 273.368 112.878 273.68 112.878 274.904C112.878 276.104 112.134 276.8 110.262 276.8C108.222 276.8 107.238 276.032 107.046 274.256H105.27C105.534 276.992 107.19 278.24 110.214 278.24C113.214 278.24 114.75 277.016 114.75 274.784C114.75 272.816 113.766 272.096 111.078 271.496L109.566 271.16C108.054 270.8 107.478 270.416 107.478 269.312C107.478 268.112 108.15 267.512 109.854 267.512Z" fill="white"/>
<path d="M57.2 332.2L53.48 333.496V335.128L57.008 333.976V349H58.88V332.2H57.2ZM68.1637 349.24C71.7637 349.24 73.6597 347.392 73.6597 344.584V344.032C73.6597 342.112 72.6517 340.768 70.9477 340.192C72.3877 339.592 73.1797 338.368 73.1797 336.76V336.208C73.1797 333.472 71.2117 331.96 68.2117 331.96C65.1397 331.96 63.1957 333.472 63.1957 336.208V336.76C63.1957 338.368 63.9637 339.592 65.4517 340.192C63.7237 340.792 62.6917 342.112 62.6917 344.032V344.584C62.6917 347.392 64.5877 349.24 68.1637 349.24ZM68.2597 333.592C70.2757 333.592 71.2597 334.648 71.2597 336.256V336.712C71.2597 338.392 70.2757 339.424 68.0917 339.424C66.0997 339.424 65.1157 338.392 65.1157 336.712V336.256C65.1157 334.648 66.0997 333.592 68.2597 333.592ZM68.2357 341.056C70.5877 341.056 71.7637 342.256 71.7637 344.104V344.536C71.7637 346.408 70.6117 347.608 68.1157 347.608C65.7637 347.608 64.6117 346.408 64.6117 344.536V344.104C64.6117 342.256 65.7397 341.056 68.2357 341.056ZM79.4433 339.496C81.6273 339.496 83.0913 338.2 83.0913 336.016V335.536C83.0913 333.376 81.6273 332.056 79.4433 332.056C77.2353 332.056 75.7713 333.376 75.7713 335.56V336.016C75.7713 338.2 77.2353 339.496 79.4433 339.496ZM78.1473 349H79.6113L90.7713 332.2H89.2833L78.1473 349ZM79.4433 333.28C80.9073 333.28 81.6753 334.216 81.6753 335.584V335.992C81.6753 337.336 80.9073 338.296 79.4433 338.296C77.9553 338.296 77.2113 337.36 77.2113 335.992V335.584C77.2113 334.216 77.9553 333.28 79.4433 333.28ZM89.8113 349.144C91.9953 349.144 93.4593 347.824 93.4593 345.64V345.184C93.4593 343.024 91.9953 341.68 89.8113 341.68C87.6033 341.68 86.1393 343.024 86.1393 345.208V345.664C86.1393 347.824 87.6033 349.144 89.8113 349.144ZM89.8113 342.904C91.2753 342.904 92.0193 343.864 92.0193 345.208V345.616C92.0193 346.984 91.2753 347.92 89.8113 347.92C88.3233 347.92 87.5553 346.984 87.5553 345.64V345.232C87.5553 343.864 88.3233 342.904 89.8113 342.904ZM64.832 378H67.064V361.2H65.216V375.168L57.392 361.2H55.16V378H56.984V364.056L64.832 378ZM75.6748 378.24C78.7228 378.24 80.7148 376.488 80.7148 373.056V371.232C80.7148 367.8 78.7228 366.048 75.6748 366.048C72.6268 366.048 70.6588 367.8 70.6588 371.232V373.056C70.6588 376.488 72.6268 378.24 75.6748 378.24ZM75.6748 367.68C77.8108 367.68 78.7948 369.096 78.7948 371.232V373.032C78.7948 375.216 77.8108 376.608 75.6748 376.608C73.5388 376.608 72.5788 375.216 72.5788 373.032V371.232C72.5788 369.096 73.5388 367.68 75.6748 367.68ZM85.9968 371.328C85.9968 369.024 87.4128 367.68 89.1648 367.68C91.0608 367.68 91.8528 368.664 91.8528 370.608V378H93.7248V370.224C93.7248 367.392 92.3328 366.048 89.7888 366.048C88.1088 366.048 86.7408 366.864 85.9968 368.496V366.288H84.1008V378H85.9968V371.328ZM103.243 372.336V370.68H97.5071V372.336H103.243ZM111.651 378.24C114.699 378.24 116.691 376.488 116.691 373.056V371.232C116.691 367.8 114.699 366.048 111.651 366.048C108.603 366.048 106.635 367.8 106.635 371.232V373.056C106.635 376.488 108.603 378.24 111.651 378.24ZM111.651 367.68C113.787 367.68 114.771 369.096 114.771 371.232V373.032C114.771 375.216 113.787 376.608 111.651 376.608C109.515 376.608 108.555 375.216 108.555 373.032V371.232C108.555 369.096 109.515 367.68 111.651 367.68ZM125.573 378.24C128.237 378.24 130.133 376.488 130.133 373.056V371.256C130.133 367.8 128.237 366.048 125.573 366.048C123.893 366.048 122.597 366.792 121.973 368.256V366.288H120.077V382.8H121.973V376.104C122.573 377.424 123.797 378.24 125.573 378.24ZM125.141 376.608C123.197 376.608 121.973 375.264 121.973 373.08V371.376C121.973 368.928 123.173 367.68 125.117 367.68C127.253 367.68 128.237 369.096 128.237 371.28V373.032C128.237 375.216 127.253 376.608 125.141 376.608ZM142.652 374.496H140.852C140.684 375.72 139.916 376.464 138.548 376.632C138.38 376.656 138.212 376.656 138.02 376.656C136.004 376.656 135.044 375.456 134.948 373.488C134.924 373.128 134.9 372.744 134.9 372.36H142.724V371.28C142.724 367.824 140.852 366.048 137.948 366.048C134.924 366.048 132.956 367.8 132.956 371.232V373.056C132.956 376.488 134.948 378.24 137.924 378.24C140.588 378.24 142.388 376.92 142.652 374.496ZM134.9 370.992C134.924 368.928 135.884 367.608 137.948 367.608C139.964 367.608 140.852 368.712 140.948 371.16H135.044L134.9 370.992ZM147.966 371.448C147.966 369.096 149.406 367.872 151.47 367.872H152.094V366.048H151.518C149.958 366.048 148.71 366.792 147.966 368.352V366.288H146.07V378H147.966V371.448ZM160.897 378H162.769V370.224C162.769 367.368 161.377 366.048 158.497 366.048C155.521 366.048 154.201 367.512 153.913 369.672H155.737C155.881 368.496 156.625 367.68 158.329 367.68C160.201 367.68 160.897 368.448 160.897 370.464V371.448H157.657C154.633 371.448 153.529 372.696 153.529 374.4V375.12C153.529 377.04 154.873 378.24 157.297 378.24C159.193 378.24 160.297 377.616 160.897 376.368V378ZM157.849 376.872C156.193 376.872 155.401 376.2 155.401 374.928V374.424C155.401 373.32 156.025 372.648 157.825 372.648H160.897V373.8C160.897 375.984 159.793 376.872 157.849 376.872ZM172.199 376.536H170.831C169.247 376.536 168.695 375.864 168.695 374.544V367.872H172.199V366.288H168.695V362.832H166.823V366.288H164.999V367.872H166.823V374.52C166.823 377.04 167.903 378.12 170.495 378.12H172.199V376.536ZM175.904 364.008C176.696 364.008 177.248 363.48 177.248 362.784C177.248 362.088 176.696 361.56 175.904 361.56C175.16 361.56 174.584 362.088 174.584 362.784C174.584 363.48 175.16 364.008 175.904 364.008ZM174.968 378H176.864V366.288H174.968V378ZM185.292 378.24C188.34 378.24 190.332 376.488 190.332 373.056V371.232C190.332 367.8 188.34 366.048 185.292 366.048C182.244 366.048 180.276 367.8 180.276 371.232V373.056C180.276 376.488 182.244 378.24 185.292 378.24ZM185.292 367.68C187.428 367.68 188.412 369.096 188.412 371.232V373.032C188.412 375.216 187.428 376.608 185.292 376.608C183.156 376.608 182.196 375.216 182.196 373.032V371.232C182.196 369.096 183.156 367.68 185.292 367.68ZM195.614 371.328C195.614 369.024 197.03 367.68 198.782 367.68C200.678 367.68 201.47 368.664 201.47 370.608V378H203.342V370.224C203.342 367.392 201.95 366.048 199.406 366.048C197.726 366.048 196.358 366.864 195.614 368.496V366.288H193.718V378H195.614V371.328ZM213.748 378H215.62V370.224C215.62 367.368 214.228 366.048 211.348 366.048C208.372 366.048 207.052 367.512 206.764 369.672H208.588C208.732 368.496 209.476 367.68 211.18 367.68C213.052 367.68 213.748 368.448 213.748 370.464V371.448H210.508C207.484 371.448 206.38 372.696 206.38 374.4V375.12C206.38 377.04 207.724 378.24 210.148 378.24C212.044 378.24 213.148 377.616 213.748 376.368V378ZM210.7 376.872C209.044 376.872 208.252 376.2 208.252 374.928V374.424C208.252 373.32 208.876 372.648 210.676 372.648H213.748V373.8C213.748 375.984 212.644 376.872 210.7 376.872ZM221.206 375.072V360.48H219.31V375.096C219.31 377.472 220.222 378.12 222.43 378.12H222.862V376.488H222.502C221.542 376.488 221.206 376.176 221.206 375.072Z" fill="white"/>
<path d="M163.101 103.24C166.701 103.24 168.597 101.392 168.597 98.584V98.032C168.597 96.112 167.589 94.768 165.885 94.192C167.325 93.592 168.117 92.368 168.117 90.76V90.208C168.117 87.472 166.149 85.96 163.149 85.96C160.077 85.96 158.133 87.472 158.133 90.208V90.76C158.133 92.368 158.901 93.592 160.389 94.192C158.661 94.792 157.629 96.112 157.629 98.032V98.584C157.629 101.392 159.525 103.24 163.101 103.24ZM163.197 87.592C165.213 87.592 166.197 88.648 166.197 90.256V90.712C166.197 92.392 165.213 93.424 163.029 93.424C161.037 93.424 160.053 92.392 160.053 90.712V90.256C160.053 88.648 161.037 87.592 163.197 87.592ZM163.173 95.056C165.525 95.056 166.701 96.256 166.701 98.104V98.536C166.701 100.408 165.549 101.608 163.053 101.608C160.701 101.608 159.549 100.408 159.549 98.536V98.104C159.549 96.256 160.677 95.056 163.173 95.056ZM171.966 106.432L173.91 100.6H171.678L170.694 106.432H171.966ZM178.083 86.2L174.363 87.496V89.128L177.891 87.976V103H179.763V86.2H178.083ZM188.615 103.24C191.927 103.24 194.062 101.392 194.062 98.152V97.576C194.062 94.432 192.167 92.272 188.615 92.248C187.703 92.248 187.007 92.488 186.551 92.896L191.423 86.2H189.263L185.879 90.976C183.646 94.12 183.167 95.512 183.167 97.576V98.152C183.167 101.392 185.327 103.24 188.615 103.24ZM188.615 93.88C191.039 93.88 192.143 95.368 192.143 97.648V98.08C192.143 100.216 191.039 101.608 188.615 101.608C186.191 101.608 185.087 100.216 185.087 98.08V97.648C185.087 95.368 186.191 93.88 188.615 93.88ZM202.054 103.24C205.654 103.24 207.55 101.392 207.55 98.584V98.032C207.55 96.112 206.542 94.768 204.838 94.192C206.278 93.592 207.07 92.368 207.07 90.76V90.208C207.07 87.472 205.102 85.96 202.102 85.96C199.03 85.96 197.086 87.472 197.086 90.208V90.76C197.086 92.368 197.854 93.592 199.342 94.192C197.614 94.792 196.582 96.112 196.582 98.032V98.584C196.582 101.392 198.478 103.24 202.054 103.24ZM202.15 87.592C204.166 87.592 205.15 88.648 205.15 90.256V90.712C205.15 92.392 204.166 93.424 201.982 93.424C199.99 93.424 199.006 92.392 199.006 90.712V90.256C199.006 88.648 199.99 87.592 202.15 87.592ZM202.126 95.056C204.478 95.056 205.654 96.256 205.654 98.104V98.536C205.654 100.408 204.502 101.608 202.006 101.608C199.654 101.608 198.502 100.408 198.502 98.536V98.104C198.502 96.256 199.63 95.056 202.126 95.056ZM222.112 96.256C225.904 96.256 227.968 94.48 227.968 91.744V90.76C227.968 87.88 226.216 86.2 222.064 86.2H217.48V103H219.352V96.256H222.112ZM222.016 87.832C224.992 87.832 226.048 89.008 226.048 90.808V91.696C226.048 93.472 224.8 94.624 222.04 94.624H219.352V87.832H222.016ZM240.347 103H242.387L236.195 86.2H234.227L227.987 103H229.955L231.563 98.632H238.763L240.347 103ZM238.211 97.024H232.067L235.139 88.528L238.211 97.024ZM248.996 103V96.28L254.78 86.2H252.764L248.108 94.48L243.452 86.2H241.34L247.124 96.256V103H248.996ZM257.16 103H267.048V101.368H259.032V86.2H257.16V103ZM274.897 103.24C278.737 103.24 281.185 101.128 281.185 97.096V92.104C281.185 88.072 278.737 85.96 274.897 85.96C271.033 85.96 268.585 88.072 268.585 92.128V97.096C268.585 101.152 271.033 103.24 274.897 103.24ZM274.897 87.592C277.873 87.592 279.289 89.368 279.289 92.104V97.072C279.289 99.832 277.873 101.608 274.897 101.608C271.897 101.608 270.505 99.832 270.505 97.12V92.128C270.505 89.368 271.897 87.592 274.897 87.592ZM295.401 103H297.441L291.249 86.2H289.281L283.041 103H285.009L286.617 98.632H293.817L295.401 103ZM293.265 97.024H287.121L290.193 88.528L293.265 97.024ZM300.027 103H305.691C309.651 103 311.763 100.984 311.763 97.096V92.128C311.763 88.312 309.531 86.2 305.595 86.2H300.027V103ZM305.475 87.832C308.451 87.832 309.843 89.488 309.843 92.104V97.12C309.843 99.784 308.691 101.368 305.547 101.368H301.899V87.832H305.475ZM319.984 87.592C322.408 87.592 323.392 88.72 323.536 91.048H325.336C325.264 87.76 323.488 85.96 319.984 85.96C316.36 85.96 314.824 87.808 314.824 90.232C314.824 92.704 315.928 93.736 318.928 94.816L320.704 95.464C323.08 96.352 323.728 97.12 323.728 98.704C323.728 100.672 322.72 101.608 320.296 101.608C317.728 101.608 316.504 100.48 316.192 98.152H314.392C314.752 101.632 316.696 103.24 320.272 103.24C323.992 103.24 325.648 101.56 325.648 98.632C325.648 96.28 324.688 95.032 321.472 93.832L319.696 93.184C317.44 92.368 316.744 91.816 316.744 90.208C316.744 88.72 317.536 87.592 319.984 87.592ZM147.174 132.24C151.014 132.24 153.462 130.128 153.462 126.096V121.104C153.462 117.072 151.014 114.96 147.174 114.96C143.31 114.96 140.862 117.072 140.862 121.128V126.096C140.862 130.152 143.31 132.24 147.174 132.24ZM147.174 116.592C150.15 116.592 151.566 118.368 151.566 121.104V126.072C151.566 128.832 150.15 130.608 147.174 130.608C144.174 130.608 142.782 128.832 142.782 126.12V121.128C142.782 118.368 144.174 116.592 147.174 116.592ZM159.106 125.256H162.034L166.234 132H168.346L163.906 124.968C166.45 124.464 167.722 122.88 167.722 120.744V119.76C167.722 116.88 165.97 115.2 161.818 115.2H157.234V132H159.106V125.256ZM161.77 116.832C164.746 116.832 165.802 118.008 165.802 119.808V120.696C165.802 122.472 164.554 123.624 161.794 123.624H159.106V116.832H161.77ZM171.203 132H176.819C180.131 132 182.411 130.488 182.411 127.512V126.888C182.411 124.896 181.307 123.672 179.363 123.144C180.755 122.568 181.595 121.536 181.595 120.024V119.352C181.595 116.592 179.723 115.2 176.147 115.2H171.203V132ZM176.099 116.832C178.547 116.832 179.675 117.696 179.675 119.4V120.024C179.675 121.512 178.547 122.544 176.243 122.544H173.075V116.832H176.099ZM176.699 124.056C179.243 124.056 180.515 125.136 180.515 126.864V127.488C180.515 129.216 179.243 130.368 176.699 130.368H173.075V124.056H176.699ZM185.805 132H187.677V115.2H185.805V132ZM202.048 116.832V115.2H190.144V116.832H195.184V132H197.056V116.832H202.048ZM204.531 132H206.403V115.2H204.531V132ZM220.391 132H222.623V115.2H220.775V129.168L212.951 115.2H210.719V132H212.543V118.056L220.391 132ZM232.601 132.24C236.537 132.24 238.385 130.344 238.385 126.192V123.6H232.433V125.208H236.609V126.48C236.609 128.976 235.553 130.608 232.673 130.608C229.697 130.608 228.305 128.832 228.305 126.12V121.128C228.305 118.368 229.697 116.592 232.577 116.592C235.025 116.592 236.249 117.624 236.561 119.808H238.385C238.097 116.784 236.177 114.96 232.673 114.96C228.833 114.96 226.385 117.072 226.385 121.128V126.096C226.385 130.152 228.809 132.24 232.601 132.24ZM248.219 132H250.091V115.2H248.219V132ZM264.078 132H266.31V115.2H264.462V129.168L256.638 115.2H254.406V132H256.23V118.056L264.078 132ZM281.347 116.592C283.771 116.592 284.755 117.72 284.899 120.048H286.699C286.627 116.76 284.851 114.96 281.347 114.96C277.723 114.96 276.187 116.808 276.187 119.232C276.187 121.704 277.291 122.736 280.291 123.816L282.067 124.464C284.443 125.352 285.091 126.12 285.091 127.704C285.091 129.672 284.083 130.608 281.659 130.608C279.091 130.608 277.867 129.48 277.555 127.152H275.755C276.115 130.632 278.059 132.24 281.635 132.24C285.355 132.24 287.011 130.56 287.011 127.632C287.011 125.28 286.051 124.032 282.835 122.832L281.059 122.184C278.803 121.368 278.107 120.816 278.107 119.208C278.107 117.72 278.899 116.592 281.347 116.592ZM295.038 125.256C298.83 125.256 300.894 123.48 300.894 120.744V119.76C300.894 116.88 299.142 115.2 294.99 115.2H290.406V132H292.278V125.256H295.038ZM294.942 116.832C297.918 116.832 298.974 118.008 298.974 119.808V120.696C298.974 122.472 297.726 123.624 294.966 123.624H292.278V116.832H294.942ZM313.272 132H315.312L309.12 115.2H307.152L300.912 132H302.88L304.488 127.632H311.688L313.272 132ZM311.136 126.024H304.992L308.064 117.528L311.136 126.024ZM323.375 132.24C326.783 132.24 328.991 130.296 329.183 126.792H327.359C327.167 129.384 325.751 130.608 323.303 130.608C320.471 130.608 319.079 128.832 319.079 126.12V121.128C319.079 118.368 320.471 116.592 323.351 116.592C325.823 116.592 327.071 118.008 327.359 120.408H329.183C328.895 117.192 326.975 114.96 323.327 114.96C319.607 114.96 317.159 117.072 317.159 121.128V126.096C317.159 130.152 319.583 132.24 323.375 132.24ZM332.383 132H342.943V130.368H334.255V124.104H341.479V122.496H334.255V116.832H342.943V115.2H332.383V132Z" fill="white"/>
<path d="M354.552 213.24C357.864 213.24 360 211.392 360 208.152V207.576C360 204.432 358.104 202.272 354.552 202.248C353.64 202.248 352.944 202.488 352.488 202.896L357.36 196.2H355.2L351.816 200.976C349.584 204.12 349.104 205.512 349.104 207.576V208.152C349.104 211.392 351.264 213.24 354.552 213.24ZM354.552 203.88C356.976 203.88 358.08 205.368 358.08 207.648V208.08C358.08 210.216 356.976 211.608 354.552 211.608C352.128 211.608 351.024 210.216 351.024 208.08V207.648C351.024 205.368 352.128 203.88 354.552 203.88ZM361.944 213H372.216V211.368H364.56L369.096 206.064C370.968 204.048 371.952 202.728 371.952 200.4C371.952 197.736 370.464 195.96 367.2 195.96C364.08 195.96 362.232 197.808 362.088 201H363.912C364.08 198.744 365.088 197.592 367.176 197.592C369.096 197.592 370.032 198.48 370.032 200.4C370.032 201.96 369.552 202.944 367.824 204.888L361.944 211.536V213ZM377.631 203.496C379.815 203.496 381.279 202.2 381.279 200.016V199.536C381.279 197.376 379.815 196.056 377.631 196.056C375.423 196.056 373.959 197.376 373.959 199.56V200.016C373.959 202.2 375.423 203.496 377.631 203.496ZM376.335 213H377.799L388.959 196.2H387.471L376.335 213ZM377.631 197.28C379.095 197.28 379.863 198.216 379.863 199.584V199.992C379.863 201.336 379.095 202.296 377.631 202.296C376.143 202.296 375.399 201.36 375.399 199.992V199.584C375.399 198.216 376.143 197.28 377.631 197.28ZM387.999 213.144C390.183 213.144 391.647 211.824 391.647 209.64V209.184C391.647 207.024 390.183 205.68 387.999 205.68C385.791 205.68 384.327 207.024 384.327 209.208V209.664C384.327 211.824 385.791 213.144 387.999 213.144ZM387.999 206.904C389.463 206.904 390.207 207.864 390.207 209.208V209.616C390.207 210.984 389.463 211.92 387.999 211.92C386.511 211.92 385.743 210.984 385.743 209.64V209.232C385.743 207.864 386.511 206.904 387.999 206.904ZM355.92 242.24C359.76 242.24 362.208 240.128 362.208 236.096V231.104C362.208 227.072 359.76 224.96 355.92 224.96C352.056 224.96 349.608 227.072 349.608 231.128V236.096C349.608 240.152 352.056 242.24 355.92 242.24ZM355.92 226.592C358.896 226.592 360.312 228.368 360.312 231.104V236.072C360.312 238.832 358.896 240.608 355.92 240.608C352.92 240.608 351.528 238.832 351.528 236.12V231.128C351.528 228.368 352.92 226.592 355.92 226.592ZM371.284 242.24C373.948 242.24 375.844 240.488 375.844 237.056V235.256C375.844 231.8 373.948 230.048 371.284 230.048C369.604 230.048 368.308 230.792 367.684 232.256V230.288H365.788V246.8H367.684V240.104C368.284 241.424 369.508 242.24 371.284 242.24ZM370.852 240.608C368.908 240.608 367.684 239.264 367.684 237.08V235.376C367.684 232.928 368.884 231.68 370.828 231.68C372.964 231.68 373.948 233.096 373.948 235.28V237.032C373.948 239.216 372.964 240.608 370.852 240.608ZM388.363 238.496H386.563C386.395 239.72 385.627 240.464 384.259 240.632C384.091 240.656 383.923 240.656 383.731 240.656C381.715 240.656 380.755 239.456 380.659 237.488C380.635 237.128 380.611 236.744 380.611 236.36H388.435V235.28C388.435 231.824 386.563 230.048 383.659 230.048C380.635 230.048 378.667 231.8 378.667 235.232V237.056C378.667 240.488 380.659 242.24 383.635 242.24C386.299 242.24 388.099 240.92 388.363 238.496ZM380.611 234.992C380.635 232.928 381.595 231.608 383.659 231.608C385.675 231.608 386.563 232.712 386.659 235.16H380.755L380.611 234.992ZM393.677 235.448C393.677 233.096 395.117 231.872 397.181 231.872H397.805V230.048H397.229C395.669 230.048 394.421 230.792 393.677 232.352V230.288H391.781V242H393.677V235.448ZM406.608 242H408.48V234.224C408.48 231.368 407.088 230.048 404.208 230.048C401.232 230.048 399.912 231.512 399.624 233.672H401.448C401.592 232.496 402.336 231.68 404.04 231.68C405.912 231.68 406.608 232.448 406.608 234.464V235.448H403.368C400.344 235.448 399.24 236.696 399.24 238.4V239.12C399.24 241.04 400.584 242.24 403.008 242.24C404.904 242.24 406.008 241.616 406.608 240.368V242ZM403.56 240.872C401.904 240.872 401.112 240.2 401.112 238.928V238.424C401.112 237.32 401.736 236.648 403.536 236.648H406.608V237.8C406.608 239.984 405.504 240.872 403.56 240.872ZM417.91 240.536H416.542C414.958 240.536 414.406 239.864 414.406 238.544V231.872H417.91V230.288H414.406V226.832H412.534V230.288H410.71V231.872H412.534V238.52C412.534 241.04 413.614 242.12 416.206 242.12H417.91V240.536ZM421.615 228.008C422.407 228.008 422.959 227.48 422.959 226.784C422.959 226.088 422.407 225.56 421.615 225.56C420.871 225.56 420.295 226.088 420.295 226.784C420.295 227.48 420.871 228.008 421.615 228.008ZM420.679 242H422.575V230.288H420.679V242ZM431.003 242.24C434.051 242.24 436.043 240.488 436.043 237.056V235.232C436.043 231.8 434.051 230.048 431.003 230.048C427.955 230.048 425.987 231.8 425.987 235.232V237.056C425.987 240.488 427.955 242.24 431.003 242.24ZM431.003 231.68C433.139 231.68 434.123 233.096 434.123 235.232V237.032C434.123 239.216 433.139 240.608 431.003 240.608C428.867 240.608 427.907 239.216 427.907 237.032V235.232C427.907 233.096 428.867 231.68 431.003 231.68ZM441.325 235.328C441.325 233.024 442.741 231.68 444.493 231.68C446.389 231.68 447.181 232.664 447.181 234.608V242H449.053V234.224C449.053 231.392 447.661 230.048 445.117 230.048C443.437 230.048 442.069 230.864 441.325 232.496V230.288H439.429V242H441.325V235.328ZM459.459 242H461.331V234.224C461.331 231.368 459.939 230.048 457.059 230.048C454.083 230.048 452.763 231.512 452.475 233.672H454.299C454.443 232.496 455.187 231.68 456.891 231.68C458.763 231.68 459.459 232.448 459.459 234.464V235.448H456.219C453.195 235.448 452.091 236.696 452.091 238.4V239.12C452.091 241.04 453.435 242.24 455.859 242.24C457.755 242.24 458.859 241.616 459.459 240.368V242ZM456.411 240.872C454.755 240.872 453.963 240.2 453.963 238.928V238.424C453.963 237.32 454.587 236.648 456.387 236.648H459.459V237.8C459.459 239.984 458.355 240.872 456.411 240.872ZM466.916 239.072V224.48H465.02V239.096C465.02 241.472 465.932 242.12 468.14 242.12H468.572V240.488H468.212C467.252 240.488 466.916 240.176 466.916 239.072Z" fill="white"/>
<line x1="340" y1="206.5" x2="300" y2="206.5" stroke="white"/>
<line x1="179.273" y1="291.419" x2="110.273" y2="336.419" stroke="white"/>
<line x1="196" y1="210.5" x2="117" y2="210.5" stroke="white"/>
<path d="M170.812 235.683C182.301 204.056 212.351 183 245.999 183V262.999L170.812 235.683Z" fill="#9B51E0"/>
<path d="M189.869 319.999C167.571 298.041 160.125 265.096 170.81 235.682L245.998 262.998L189.869 319.999Z" fill="#F2C94C"/>
<path d="M245.997 183C282.127 183 313.772 207.219 323.213 242.096C332.653 276.972 317.545 313.848 286.349 332.074C255.152 350.301 215.612 345.352 189.868 320.001L245.997 262.999V183Z" fill="#219653"/>
<circle cx="245.38" cy="262.381" r="38.2382" fill="black"/>
</svg>
