<svg width="500" height="500" viewBox="0 0 500 500" fill="none" xmlns="http://www.w3.org/2000/svg">
<rect width="500" height="500" fill="black"/>
<path d="M316.784 183.664C317.768 182.848 318.872 181.696 318.872 180.04C318.872 177.448 316.832 175.96 313.928 175.96C310.88 175.96 308.72 177.76 308.72 180.544V181.192H310.544V180.592C310.544 178.744 311.816 177.592 313.904 177.592C315.824 177.592 316.952 178.528 316.952 180.088C316.952 181.504 316.016 182.08 314.528 183.256C312.68 184.696 312.32 185.584 312.32 187.792V188.728H314.192V187.72C314.192 185.584 315.2 184.984 316.784 183.664ZM313.256 193.24C314.048 193.24 314.624 192.688 314.624 191.92C314.624 191.104 314.048 190.576 313.256 190.576C312.464 190.576 311.912 191.104 311.912 191.92C311.912 192.664 312.464 193.24 313.256 193.24ZM326.772 193H337.044V191.368H329.388L333.924 186.064C335.796 184.048 336.78 182.728 336.78 180.4C336.78 177.736 335.292 175.96 332.028 175.96C328.908 175.96 327.06 177.808 326.916 181H328.74C328.908 178.744 329.916 177.592 332.004 177.592C333.924 177.592 334.86 178.48 334.86 180.4C334.86 181.96 334.38 182.944 332.652 184.888L326.772 191.536V193ZM345.483 193.24C348.939 193.24 350.907 191.344 350.907 187.984V181.216C350.907 177.856 348.939 175.96 345.483 175.96C342.075 175.96 340.107 177.88 340.107 181.216V188.008C340.107 191.344 342.075 193.24 345.483 193.24ZM345.483 177.592C347.931 177.592 348.987 179.008 348.987 181.216V187.984C348.987 190.168 347.931 191.608 345.483 191.608C343.083 191.608 342.027 190.192 342.027 187.984V181.24C342.027 179.032 343.083 177.592 345.483 177.592ZM357.061 183.496C359.245 183.496 360.709 182.2 360.709 180.016V179.536C360.709 177.376 359.245 176.056 357.061 176.056C354.853 176.056 353.389 177.376 353.389 179.56V180.016C353.389 182.2 354.853 183.496 357.061 183.496ZM355.765 193H357.229L368.389 176.2H366.901L355.765 193ZM357.061 177.28C358.525 177.28 359.293 178.216 359.293 179.584V179.992C359.293 181.336 358.525 182.296 357.061 182.296C355.573 182.296 354.829 181.36 354.829 179.992V179.584C354.829 178.216 355.573 177.28 357.061 177.28ZM367.429 193.144C369.613 193.144 371.077 191.824 371.077 189.64V189.184C371.077 187.024 369.613 185.68 367.429 185.68C365.221 185.68 363.757 187.024 363.757 189.208V189.664C363.757 191.824 365.221 193.144 367.429 193.144ZM367.429 186.904C368.893 186.904 369.637 187.864 369.637 189.208V189.616C369.637 190.984 368.893 191.92 367.429 191.92C365.941 191.92 365.173 190.984 365.173 189.64V189.232C365.173 187.864 365.941 186.904 367.429 186.904Z" fill="white"/>
<line x1="192.382" y1="219.806" x2="137.899" y2="201.645" stroke="white"/>
<line x1="227.289" y1="193.886" x2="194.6" y2="150.3" stroke="white"/>
<line x1="370" y1="312.5" x2="318" y2="312.5" stroke="white"/>
<line x1="255.5" y1="185" x2="255.5" y2="134" stroke="white"/>
<line x1="179" y1="255.5" x2="121" y2="255.5" stroke="white"/>
<line x1="201.308" y1="305.354" x2="161.354" y2="345.308" stroke="white"/>
<path d="M259.415 185C294.246 185 325.118 207.309 335.889 240.262L259.415 264.999V185Z" fill="#333333"/>
<path fill-rule="evenodd" clip-rule="evenodd" d="M226.675 191.931L259.412 264.993L259.413 264.996L226.674 191.93C216.344 196.511 207.101 203.209 199.55 211.585L259.414 264.998L259.415 264.999L259.414 264.997L259.414 264.997L259.415 264.999L259.414 264.994L251.913 185.348C247.495 185.759 243.122 186.534 238.838 187.662L238.738 187.285C236.227 188.115 229.091 190.859 226.675 191.931Z" fill="#828282"/>
<path d="M251.913 185.349C254.406 185.116 256.909 185 259.413 185V264.999L251.913 185.349Z" fill="#F2F2F2"/>
<path d="M189.321 225.792C192.199 220.7 195.629 215.937 199.55 211.588L259.415 265.001L189.321 225.792Z" fill="#F2F2F2"/>
<path d="M180.528 280.52C176.81 261.817 179.928 242.409 189.321 225.791L259.414 265L180.528 280.52Z" fill="#BDBDBD"/>
<path d="M221.183 335.381C200.086 324.039 185.178 303.923 180.526 280.52L259.413 265L221.183 335.381Z" fill="#4F4F4F"/>
<path d="M335.889 240.264C346.056 271.373 336.161 305.506 310.903 326.451C285.645 347.397 250.114 350.933 221.186 335.381L259.415 265.001L335.889 240.264Z" fill="#F2F2F2"/>
<circle cx="259.07" cy="265.069" r="36.6413" fill="#1D1D1D"/>
<path d="M85.2 343.2L81.48 344.496V346.128L85.008 344.976V360H86.88V343.2H85.2ZM101.444 356.472V354.864H99.2117V343.2H97.0037L89.8037 355.032V356.472H97.3397V360H99.2117V356.472H101.444ZM91.7477 354.864L97.3397 345.696V354.864H91.7477ZM106.412 350.496C108.596 350.496 110.06 349.2 110.06 347.016V346.536C110.06 344.376 108.596 343.056 106.412 343.056C104.204 343.056 102.74 344.376 102.74 346.56V347.016C102.74 349.2 104.204 350.496 106.412 350.496ZM105.116 360H106.58L117.74 343.2H116.252L105.116 360ZM106.412 344.28C107.876 344.28 108.644 345.216 108.644 346.584V346.992C108.644 348.336 107.876 349.296 106.412 349.296C104.924 349.296 104.18 348.36 104.18 346.992V346.584C104.18 345.216 104.924 344.28 106.412 344.28ZM116.78 360.144C118.964 360.144 120.428 358.824 120.428 356.64V356.184C120.428 354.024 118.964 352.68 116.78 352.68C114.572 352.68 113.108 354.024 113.108 356.208V356.664C113.108 358.824 114.572 360.144 116.78 360.144ZM116.78 353.904C118.244 353.904 118.988 354.864 118.988 356.208V356.616C118.988 357.984 118.244 358.92 116.78 358.92C115.292 358.92 114.524 357.984 114.524 356.64V356.232C114.524 354.864 115.292 353.904 116.78 353.904Z" fill="white"/>
<path d="M131 351C131 339.954 139.954 331 151 331V331C162.046 331 171 339.954 171 351V351C171 362.046 162.046 371 151 371V371C139.954 371 131 362.046 131 351V351Z" fill="#BDBDBD"/>
<path d="M144.52 361H157.54V357.192H148.888V352.796H156.14V348.988H148.888V345.208H157.54V341.4H144.52V361Z" fill="black"/>
<path d="M44.2 248.2L40.48 249.496V251.128L44.008 249.976V265H45.88V248.2H44.2ZM49.1157 265H59.3877V263.368H51.7317L56.2677 258.064C58.1397 256.048 59.1237 254.728 59.1237 252.4C59.1237 249.736 57.6357 247.96 54.3717 247.96C51.2517 247.96 49.4037 249.808 49.2597 253H51.0837C51.2517 250.744 52.2597 249.592 54.3477 249.592C56.2677 249.592 57.2037 250.48 57.2037 252.4C57.2037 253.96 56.7237 254.944 54.9957 256.888L49.1157 263.536V265ZM64.8027 255.496C66.9867 255.496 68.4507 254.2 68.4507 252.016V251.536C68.4507 249.376 66.9867 248.056 64.8027 248.056C62.5947 248.056 61.1307 249.376 61.1307 251.56V252.016C61.1307 254.2 62.5947 255.496 64.8027 255.496ZM63.5067 265H64.9707L76.1307 248.2H74.6427L63.5067 265ZM64.8027 249.28C66.2667 249.28 67.0347 250.216 67.0347 251.584V251.992C67.0347 253.336 66.2667 254.296 64.8027 254.296C63.3147 254.296 62.5707 253.36 62.5707 251.992V251.584C62.5707 250.216 63.3147 249.28 64.8027 249.28ZM75.1707 265.144C77.3547 265.144 78.8187 263.824 78.8187 261.64V261.184C78.8187 259.024 77.3547 257.68 75.1707 257.68C72.9627 257.68 71.4987 259.024 71.4987 261.208V261.664C71.4987 263.824 72.9627 265.144 75.1707 265.144ZM75.1707 258.904C76.6347 258.904 77.3787 259.864 77.3787 261.208V261.616C77.3787 262.984 76.6347 263.92 75.1707 263.92C73.6827 263.92 72.9147 262.984 72.9147 261.64V261.232C72.9147 259.864 73.6827 258.904 75.1707 258.904Z" fill="white"/>
<path d="M89 258C89 246.954 97.9543 238 109 238V238C120.046 238 129 246.954 129 258V258C129 269.046 120.046 278 109 278V278C97.9543 278 89 269.046 89 258V258Z" fill="#BDBDBD"/>
<path d="M107.098 265.312H110.906L115.19 255.792V268H119.418V248.4H114.49L109.17 260.384L104.074 248.4H98.5864V268H102.814V255.792L107.098 265.312Z" fill="black"/>
<path d="M79.264 200.472V198.864H77.032V187.2H74.824L67.624 199.032V200.472H75.16V204H77.032V200.472H79.264ZM69.568 198.864L75.16 189.696V198.864H69.568ZM84.2324 194.496C86.4164 194.496 87.8804 193.2 87.8804 191.016V190.536C87.8804 188.376 86.4164 187.056 84.2324 187.056C82.0244 187.056 80.5604 188.376 80.5604 190.56V191.016C80.5604 193.2 82.0244 194.496 84.2324 194.496ZM82.9364 204H84.4004L95.5604 187.2H94.0724L82.9364 204ZM84.2324 188.28C85.6964 188.28 86.4644 189.216 86.4644 190.584V190.992C86.4644 192.336 85.6964 193.296 84.2324 193.296C82.7444 193.296 82.0004 192.36 82.0004 190.992V190.584C82.0004 189.216 82.7444 188.28 84.2324 188.28ZM94.6004 204.144C96.7844 204.144 98.2484 202.824 98.2484 200.64V200.184C98.2484 198.024 96.7844 196.68 94.6004 196.68C92.3924 196.68 90.9284 198.024 90.9284 200.208V200.664C90.9284 202.824 92.3924 204.144 94.6004 204.144ZM94.6004 197.904C96.0644 197.904 96.8084 198.864 96.8084 200.208V200.616C96.8084 201.984 96.0644 202.92 94.6004 202.92C93.1124 202.92 92.3444 201.984 92.3444 200.64V200.232C92.3444 198.864 93.1124 197.904 94.6004 197.904Z" fill="white"/>
<path d="M109 199C109 187.954 117.954 179 129 179V179C140.046 179 149 187.954 149 199V199C149 210.046 140.046 219 129 219V219C117.954 219 109 210.046 109 199V199Z" fill="#BDBDBD"/>
<path d="M131.356 209H136.564V189.4H132.336V202.392L126.652 189.4H121.444V209H125.672V196.008L131.356 209Z" fill="black"/>
<path d="M115.2 131.2L111.48 132.496V134.128L115.008 132.976V148H116.88V131.2H115.2ZM120.116 148H130.388V146.368H122.732L127.268 141.064C129.14 139.048 130.124 137.728 130.124 135.4C130.124 132.736 128.636 130.96 125.372 130.96C122.252 130.96 120.404 132.808 120.26 136H122.084C122.252 133.744 123.26 132.592 125.348 132.592C127.268 132.592 128.204 133.48 128.204 135.4C128.204 136.96 127.724 137.944 125.996 139.888L120.116 146.536V148ZM135.803 138.496C137.987 138.496 139.451 137.2 139.451 135.016V134.536C139.451 132.376 137.987 131.056 135.803 131.056C133.595 131.056 132.131 132.376 132.131 134.56V135.016C132.131 137.2 133.595 138.496 135.803 138.496ZM134.507 148H135.971L147.131 131.2H145.643L134.507 148ZM135.803 132.28C137.267 132.28 138.035 133.216 138.035 134.584V134.992C138.035 136.336 137.267 137.296 135.803 137.296C134.315 137.296 133.571 136.36 133.571 134.992V134.584C133.571 133.216 134.315 132.28 135.803 132.28ZM146.171 148.144C148.355 148.144 149.819 146.824 149.819 144.64V144.184C149.819 142.024 148.355 140.68 146.171 140.68C143.963 140.68 142.499 142.024 142.499 144.208V144.664C142.499 146.824 143.963 148.144 146.171 148.144ZM146.171 141.904C147.635 141.904 148.379 142.864 148.379 144.208V144.616C148.379 145.984 147.635 146.92 146.171 146.92C144.683 146.92 143.915 145.984 143.915 144.64V144.232C143.915 142.864 144.683 141.904 146.171 141.904Z" fill="white"/>
<path d="M165 140C165 128.954 173.954 120 185 120V120C196.046 120 205 128.954 205 140V140C205 151.046 196.046 160 185 160V160C173.954 160 165 151.046 165 140V140Z" fill="#BDBDBD"/>
<path d="M184.984 150.28C189.884 150.28 193.048 147.592 193.048 142.72V137.708C193.048 132.836 189.884 130.12 184.984 130.12C180.112 130.12 176.948 132.836 176.948 137.708V142.72C176.948 147.592 180.112 150.28 184.984 150.28ZM184.984 133.928C187.42 133.928 188.568 135.496 188.568 137.904V142.524C188.568 144.904 187.42 146.472 184.984 146.472C182.576 146.472 181.428 144.904 181.428 142.524V137.904C181.428 135.496 182.576 133.928 184.984 133.928Z" fill="black"/>
<path d="M236 120C236 108.954 244.954 100 256 100V100C267.046 100 276 108.954 276 120V120C276 131.046 267.046 140 256 140V140C244.954 140 236 131.046 236 120V120Z" fill="#BDBDBD"/>
<path d="M259.331 130H264.595L269.607 110.4H264.987L261.851 124.288L258.715 110.4H253.479L250.119 124.288L247.207 110.4H242.391L247.403 130H252.247L255.803 115.272L259.331 130Z" fill="black"/>
<path d="M294.2 105.2L290.48 106.496V108.128L294.008 106.976V122H295.88V105.2H294.2ZM302.428 112.496C304.612 112.496 306.076 111.2 306.076 109.016V108.536C306.076 106.376 304.612 105.056 302.428 105.056C300.22 105.056 298.756 106.376 298.756 108.56V109.016C298.756 111.2 300.22 112.496 302.428 112.496ZM301.132 122H302.596L313.756 105.2H312.268L301.132 122ZM302.428 106.28C303.892 106.28 304.66 107.216 304.66 108.584V108.992C304.66 110.336 303.892 111.296 302.428 111.296C300.94 111.296 300.196 110.36 300.196 108.992V108.584C300.196 107.216 300.94 106.28 302.428 106.28ZM312.796 122.144C314.98 122.144 316.444 120.824 316.444 118.64V118.184C316.444 116.024 314.98 114.68 312.796 114.68C310.588 114.68 309.124 116.024 309.124 118.208V118.664C309.124 120.824 310.588 122.144 312.796 122.144ZM312.796 115.904C314.26 115.904 315.004 116.864 315.004 118.208V118.616C315.004 119.984 314.26 120.92 312.796 120.92C311.308 120.92 310.54 119.984 310.54 118.64V118.232C310.54 116.864 311.308 115.904 312.796 115.904Z" fill="white"/>
<path d="M364 313C364 301.954 372.954 293 384 293V293C395.046 293 404 301.954 404 313V313C404 324.046 395.046 333 384 333V333C372.954 333 364 324.046 364 313V313Z" fill="#BDBDBD"/>
<path d="M384.3 323.28C388.416 323.28 391.188 320.844 391.356 316.588H387.044C386.876 318.604 385.924 319.472 383.992 319.472C381.892 319.472 380.744 317.904 380.744 315.524V310.904C380.744 308.496 381.892 306.928 383.992 306.928C385.924 306.928 386.848 307.824 387.044 309.812H391.356C391.132 305.808 388.584 303.12 383.908 303.12C379.428 303.12 376.264 305.836 376.264 310.708V315.72C376.264 320.592 379.428 323.28 384.3 323.28Z" fill="black"/>
<path d="M420.48 321.384C424.104 321.384 425.76 319.536 425.76 316.344C425.76 314.496 425.04 312.912 422.856 312.264C424.872 311.712 425.352 310.32 425.352 308.424C425.352 305.76 423.888 303.96 420.312 303.96C417.336 303.96 415.536 305.568 415.44 308.448H417.24C417.336 306.6 418.368 305.592 420.312 305.592C422.544 305.592 423.432 306.552 423.432 308.448C423.432 310.584 422.832 311.568 419.976 311.568H418.896V313.08H419.976C422.832 313.08 423.84 314.328 423.84 316.392C423.84 318.696 422.736 319.752 420.48 319.752C418.032 319.752 416.832 318.648 416.736 316.752H414.912C415.056 319.68 416.88 321.384 420.48 321.384ZM434.297 321.24C437.897 321.24 439.793 319.392 439.793 316.584V316.032C439.793 314.112 438.785 312.768 437.081 312.192C438.521 311.592 439.312 310.368 439.312 308.76V308.208C439.312 305.472 437.345 303.96 434.345 303.96C431.273 303.96 429.329 305.472 429.329 308.208V308.76C429.329 310.368 430.097 311.592 431.585 312.192C429.857 312.792 428.825 314.112 428.825 316.032V316.584C428.825 319.392 430.721 321.24 434.297 321.24ZM434.393 305.592C436.409 305.592 437.393 306.648 437.393 308.256V308.712C437.393 310.392 436.409 311.424 434.225 311.424C432.233 311.424 431.249 310.392 431.249 308.712V308.256C431.249 306.648 432.233 305.592 434.393 305.592ZM434.368 313.056C436.721 313.056 437.897 314.256 437.897 316.104V316.536C437.897 318.408 436.745 319.608 434.249 319.608C431.897 319.608 430.745 318.408 430.745 316.536V316.104C430.745 314.256 431.873 313.056 434.368 313.056ZM445.576 311.496C447.76 311.496 449.224 310.2 449.224 308.016V307.536C449.224 305.376 447.76 304.056 445.576 304.056C443.368 304.056 441.904 305.376 441.904 307.56V308.016C441.904 310.2 443.368 311.496 445.576 311.496ZM444.28 321H445.744L456.904 304.2H455.416L444.28 321ZM445.576 305.28C447.04 305.28 447.808 306.216 447.808 307.584V307.992C447.808 309.336 447.04 310.296 445.576 310.296C444.088 310.296 443.344 309.36 443.344 307.992V307.584C443.344 306.216 444.088 305.28 445.576 305.28ZM455.944 321.144C458.128 321.144 459.592 319.824 459.592 317.64V317.184C459.592 315.024 458.128 313.68 455.944 313.68C453.736 313.68 452.272 315.024 452.272 317.208V317.664C452.272 319.824 453.736 321.144 455.944 321.144ZM455.944 314.904C457.408 314.904 458.152 315.864 458.152 317.208V317.616C458.152 318.984 457.408 319.92 455.944 319.92C454.456 319.92 453.688 318.984 453.688 317.64V317.232C453.688 315.864 454.456 314.904 455.944 314.904Z" fill="white"/>
</svg>
